<?xml version="1.0" encoding="UTF-8"?>
<svg width="153px" height="73px" viewBox="0 0 153 73" version="1.1" xmlns="http://www.w3.org/2000/svg" xmlns:xlink="http://www.w3.org/1999/xlink">
    <!-- Generator: Sketch 51.3 (57544) - http://www.bohemiancoding.com/sketch -->
    <title>logo-mul</title>
    <desc>Created with Sketch.</desc>
    <defs></defs>
    <g id="Page-1" stroke="none" stroke-width="1" fill="none" fill-rule="evenodd">
        <g id="Artboard" transform="translate(-243.000000, -91.000000)" fill="#FFFFFF">
            <g id="logo-mul" transform="translate(243.000000, 91.496094)">
                <path d="M103.807243,2.36999944 C104.278005,1.89923717 104.73767,1.41952505 105.253539,0.993512039 C105.742917,0.590052663 106.346853,0.19303718 107.038498,0.193395174 C107.730142,0.193395174 108.333721,0.589694668 108.82274,0.993154045 C109.338968,1.41916705 109.798632,1.89923717 110.269395,2.36999944 L110.506387,2.60663356 C110.977149,3.07775382 111.457219,3.53741828 111.882874,4.05328781 C112.286334,4.54230778 112.682991,5.14660186 112.682991,5.8382465 C112.682991,6.52953316 112.286334,7.13346924 111.883232,7.62248921 C111.457219,8.13835874 110.977149,8.5980232 110.506387,9.06914346 L90.1662348,29.4092955 C89.6954725,29.8804158 89.235808,30.3601279 88.7199385,30.7857829 C88.2305605,31.1892423 87.6266244,31.5858998 86.9349798,31.5858998 C86.2433352,31.5858998 85.6397571,31.1892423 85.1507371,30.7857829 C84.6345096,30.3604859 84.1748451,29.8804158 83.7040828,29.4092955 L83.4670907,29.1723034 C82.9963285,28.7015412 82.5162583,28.2422347 82.0906033,27.7260072 C81.687144,27.2369872 81.2904865,26.6326931 81.2904865,25.9410485 C81.2904865,25.2494038 81.686786,24.6458257 82.0902453,24.1568058 C82.5162583,23.6405782 82.9959705,23.1812718 83.4670907,22.7101515 L103.807243,2.36999944 Z" id="Fill-52"></path>
                <path d="M63.6007081,42.5764984 C64.0714703,42.1057361 64.5311348,41.626024 65.0470043,41.200011 C65.5363823,40.7965516 66.1403184,40.3998941 66.831963,40.3998941 C67.5236077,40.3998941 68.1271858,40.7961936 68.6162057,41.199653 C69.1324333,41.625666 69.5920977,42.1057361 70.06286,42.5764984 L70.2998521,42.8134905 C70.7706144,43.2842528 71.2506845,43.7439172 71.6763395,44.2597867 C72.0797989,44.7488067 72.4764564,45.3531008 72.4764564,46.0447454 C72.4764564,46.7360321 72.0797989,47.3399682 71.6763395,47.8289882 C71.2506845,48.3448577 70.7706144,48.8045221 70.2998521,49.2756424 L49.9597,69.6157945 C49.4889377,70.0869148 49.0292733,70.5666269 48.5130458,70.9922819 C48.0240258,71.3957413 47.4200897,71.7923988 46.7284451,71.7923988 C46.0368004,71.7923988 45.4332223,71.3957413 44.9442024,70.9922819 C44.4279748,70.5669849 43.9683104,70.0869148 43.4975481,69.6157945 L43.260556,69.3788024 C42.7897937,68.9080401 42.3097236,68.4487336 41.8840686,67.9325061 C41.4806092,67.4434861 41.0839517,66.8391921 41.0839517,66.1475474 C41.0839517,65.4559028 41.4802512,64.8526827 41.8837106,64.3633047 C42.3097236,63.8470772 42.7894357,63.3877707 43.260556,62.9166505 L63.6007081,42.5764984 Z" id="Fill-54"></path>
                <path d="M110.506315,62.9167937 C110.977078,63.3875559 111.457148,63.8472204 111.882803,64.3630899 C112.286262,64.8521099 112.683277,65.456404 112.683277,66.1476906 C112.68292,66.8393353 112.286262,67.4432714 111.883161,67.9322913 C111.457148,68.4481609 110.977078,68.9078253 110.506315,69.3789456 L110.269323,69.6159377 C109.798561,70.0867 109.338896,70.5664121 108.823027,70.9924251 C108.334007,71.3958845 107.730071,71.792542 107.038068,71.792542 C106.346424,71.792542 105.742845,71.3958845 105.253825,70.9924251 C104.737956,70.5667701 104.278291,70.0867 103.807171,69.6159377 L83.4670191,49.2757856 C82.9962569,48.8046653 82.5161867,48.3453589 82.0905317,47.8291314 C81.6870724,47.3401114 81.2904149,46.7361753 81.2904149,46.0441727 C81.2904149,45.352528 81.6870724,44.7493079 82.0905317,44.2602879 C82.5161867,43.7437024 82.9958989,43.284396 83.4670191,42.8136337 L83.7040112,42.5766416 C84.1747735,42.1055213 84.63408,41.6258092 85.1503075,41.2001542 C85.6396855,40.7966948 86.2436216,40.4000373 86.9352662,40.4000373 C87.6269108,40.4000373 88.2304889,40.7963368 88.7195089,41.1997962 C89.2353784,41.6254512 89.6954009,42.1055213 90.1661632,42.5766416 L110.506315,62.9167937 Z" id="Fill-56"></path>
                <path d="M23.3942091,2.36999944 C23.8649714,1.89923717 24.3246359,1.41952505 24.8405054,0.993512039 C25.3298834,0.590052663 25.9338194,0.19303718 26.6254641,0.193395174 C27.3171087,0.193395174 27.9206868,0.589694668 28.4097068,0.993154045 C28.9259343,1.41916705 29.3852408,1.89923717 29.856361,2.36999944 L30.0933532,2.60663356 C30.5641154,3.07775382 31.0441855,3.53741828 31.4698406,4.05328781 C31.8732999,4.54230778 32.2699574,5.14660186 32.2699574,5.8382465 C32.2699574,6.52953316 31.8732999,7.13346924 31.4698406,7.62248921 C31.0441855,8.13835874 30.5641154,8.5980232 30.0933532,9.06914346 L9.75320107,29.4092955 C9.2824388,29.8804158 8.82277435,30.3601279 8.30654682,30.7857829 C7.81752685,31.1892423 7.21359077,31.5858998 6.52194612,31.5858998 C5.83030147,31.5858998 5.22672338,31.1892423 4.73770341,30.7857829 C4.22147589,30.3604859 3.76181143,29.8804158 3.29104916,29.4092955 L3.05405705,29.1723034 C2.58329478,28.7015412 2.10322466,28.2422347 1.67756965,27.7260072 C1.27411027,27.2369872 0.877452784,26.6326931 0.877452784,25.9410485 C0.877452784,25.2494038 1.27375228,24.6461837 1.67721165,24.1568058 C2.10322466,23.6405782 2.58293679,23.1812718 3.05405705,22.7101515 L23.3942091,2.36999944 Z" id="Fill-58" fill-opacity="0.201879529"></path>
                <path d="M30.0933174,62.9167937 C30.5640796,63.3875559 31.0441497,63.8472204 31.4698048,64.3630899 C31.8732641,64.8521099 32.2702796,65.456404 32.2699216,66.1476906 C32.2699216,66.8393353 31.8732641,67.4432714 31.4698048,67.9322913 C31.0441497,68.4481609 30.5640796,68.9078253 30.0933174,69.3789456 L29.8563252,69.6159377 C29.385563,70.0867 28.9258985,70.5664121 28.410029,70.9924251 C27.921009,71.3958845 27.3170729,71.792542 26.6250703,71.792542 C25.9334256,71.792542 25.3298476,71.3958845 24.8408276,70.9924251 C24.3246001,70.5667701 23.8652936,70.0867 23.3941733,69.6159377 L3.05402125,49.2757856 C2.58325898,48.8046653 2.10318886,48.3453589 1.67753385,47.8291314 C1.27407447,47.3401114 0.877416985,46.7361753 0.877416985,46.0441727 C0.877416985,45.352528 1.27407447,44.7493079 1.67753385,44.2602879 C2.10318886,43.7437024 2.58290099,43.284396 3.05402125,42.8136337 L3.29101336,42.5766416 C3.76177563,42.1055213 4.22108209,41.6258092 4.73730962,41.2001542 C5.22668758,40.7966948 5.83062367,40.4000373 6.52226832,40.4000373 C7.21355497,40.4000373 7.81749105,40.7963368 8.30651102,41.1997962 C8.82238055,41.6254512 9.28204501,42.1055213 9.75316527,42.5766416 L30.0933174,62.9167937 Z" id="Fill-60" fill-opacity="0.201879529"></path>
                <path d="M70.2998163,22.7099367 C70.7705786,23.180699 71.2506487,23.6407214 71.6763037,24.156591 C72.0797631,24.6456109 72.4767786,25.249905 72.4767786,25.9411917 C72.4764206,26.6328363 72.0797631,27.2367724 71.6763037,27.7257924 C71.2506487,28.2416619 70.7705786,28.7013264 70.2998163,29.1724466 L70.0628242,29.4094387 C69.5920619,29.880201 69.1323975,30.3599131 68.6165279,30.7859261 C68.127508,31.1893855 67.5235719,31.586043 66.8315692,31.586043 C66.1399246,31.586043 65.5363465,31.1893855 65.0473265,30.7859261 C64.531099,30.3602711 64.0717925,29.880201 63.6006723,29.4094387 L43.2605202,9.06892867 C42.7897579,8.5981664 42.3096878,8.13885994 41.8840328,7.62263241 C41.4805734,7.13361244 41.0839159,6.52967635 41.0839159,5.83767371 C41.0839159,5.14602907 41.4805734,4.54245098 41.8840328,4.053789 C42.3096878,3.53720348 42.7893999,3.07789702 43.2605202,2.60677675 L43.4975123,2.37014264 C43.9682746,1.89902237 44.427581,1.41931025 44.9438086,0.993655237 C45.4331865,0.59019586 46.0371226,0.193180378 46.7287673,0.193538372 C47.4200539,0.193538372 48.02399,0.589837866 48.51301,0.993297243 C49.0288795,1.41895225 49.4885439,1.89902237 49.9596642,2.37014264 L70.2998163,22.7099367 Z" id="Fill-62"></path>
                <path d="M144.013742,42.5764984 C144.484504,42.1057361 144.944168,41.626024 145.460038,41.200011 C145.949416,40.7965516 146.553352,40.3998941 147.244997,40.3998941 C147.936641,40.3998941 148.540219,40.7961936 149.029239,41.199653 C149.545467,41.625666 150.005131,42.1057361 150.475894,42.5764984 L150.712886,42.8134905 C151.183648,43.2842528 151.663718,43.7439172 152.089373,44.2597867 C152.492833,44.7488067 152.88949,45.3531008 152.88949,46.0447454 C152.88949,46.7360321 152.492833,47.3399682 152.089731,47.8289882 C151.663718,48.3448577 151.183648,48.8045221 150.712886,49.2756424 L130.372734,69.6157945 C129.901971,70.0869148 129.442307,70.5666269 128.926437,70.9922819 C128.437059,71.3957413 127.833123,71.7923988 127.141479,71.7923988 C126.449834,71.7923988 125.846256,71.3957413 125.357236,70.9922819 C124.841009,70.5669849 124.381344,70.0869148 123.910582,69.6157945 L123.67359,69.3788024 C123.202827,68.9080401 122.722757,68.4487336 122.297102,67.9325061 C121.893643,67.4434861 121.496985,66.8391921 121.496985,66.1475474 C121.496985,65.4559028 121.893285,64.8526827 122.296744,64.3633047 C122.722757,63.8470772 123.202827,63.3877707 123.67359,62.9166505 L144.013742,42.5764984 Z" id="Fill-64" fill-opacity="0.201879529"></path>
                <path d="M150.71285,22.7099367 C151.183612,23.180699 151.663682,23.6407214 152.089337,24.156591 C152.492797,24.6456109 152.889812,25.249905 152.889812,25.9411917 C152.889454,26.6328363 152.492797,27.2367724 152.089695,27.7257924 C151.663682,28.2416619 151.183612,28.7013264 150.71285,29.1724466 L150.475858,29.4094387 C150.005096,29.880201 149.545431,30.3599131 149.029562,30.7859261 C148.540542,31.1893855 147.936606,31.586043 147.244603,31.586043 C146.552958,31.586043 145.94938,31.1893855 145.46036,30.7859261 C144.944491,30.3602711 144.484826,29.880201 144.013706,29.4094387 L123.673554,9.06892867 C123.202792,8.5981664 122.722721,8.13885994 122.297066,7.62263241 C121.893607,7.13361244 121.49695,6.52967635 121.49695,5.83767371 C121.49695,5.14602907 121.893607,4.54245098 122.297066,4.053789 C122.722721,3.53720348 123.202792,3.07789702 123.673554,2.60677675 L123.910546,2.37014264 C124.381308,1.89902237 124.840615,1.41931025 125.356842,0.993655237 C125.84622,0.59019586 126.450156,0.193180378 127.141801,0.193538372 C127.833446,0.193538372 128.437024,0.589837866 128.926044,0.993297243 C129.441913,1.41895225 129.901936,1.89902237 130.372698,2.37014264 L150.71285,22.7099367 Z" id="Fill-66" fill-opacity="0.201879529"></path>
            </g>
        </g>
    </g>
</svg>