<?xml version="1.0" encoding="UTF-8"?>
<svg width="476px" height="95px" viewBox="0 0 476 95" version="1.1" xmlns="http://www.w3.org/2000/svg" xmlns:xlink="http://www.w3.org/1999/xlink">
    <!-- Generator: Sketch 51.3 (57544) - http://www.bohemiancoding.com/sketch -->
    <title>Group 48</title>
    <desc>Created with Sketch.</desc>
    <defs>
        <polygon id="path-1" points="0.292494922 0.470232422 41.568452 0.470232422 41.568452 41.7462365 0.292494922 41.7462365"></polygon>
        <polygon id="path-3" points="0.000141210938 0.470232422 41.2760982 0.470232422 41.2760982 41.7462365 0.000141210938 41.7462365"></polygon>
        <polygon id="path-5" points="0.450133398 0.226596484 73.2517617 0.226596484 73.2517617 10.815534 0.450133398 10.815534"></polygon>
    </defs>
    <g id="Basic-Elements" stroke="none" stroke-width="1" fill="none" fill-rule="evenodd">
        <g id="Group-48" transform="translate(0.832031, 0.136719)">
            <g id="Group-3" transform="translate(105.437500, 0.000471)">
                <mask id="mask-2" fill="white">
                    <use xlink:href="#path-1"></use>
                </mask>
                <g id="Clip-2"></g>
                <path d="M29.8983094,3.33215449 C30.517284,2.71317988 31.1216668,2.08196699 31.8004207,1.52230098 C32.4434012,0.991818555 33.2374773,0.469808789 34.1468758,0.469808789 C35.0562742,0.470279492 35.8498797,0.991818555 36.4928602,1.52230098 C37.1716141,2.08196699 37.7759969,2.71317988 38.3949715,3.33215449 L38.706577,3.64375996 C39.3260223,4.26273457 39.9567645,4.86711738 40.5164305,5.54540059 C41.0469129,6.18838105 41.568452,6.98245723 41.568452,7.89232637 C41.568452,8.8017248 41.0469129,9.59533027 40.5164305,10.2383107 C39.9572352,10.9170646 39.3260223,11.5209768 38.706577,12.1404221 L11.9626375,38.8843615 C11.3436629,39.5038068 10.7392801,40.134549 10.0609969,40.694215 C9.4175457,41.2246975 8.62346953,41.7462365 7.71407109,41.7462365 C6.80467266,41.7462365 6.01106719,41.2246975 5.36808672,40.694215 C4.68933281,40.1350197 4.08495,39.5038068 3.46597539,38.8843615 L3.15436992,38.5727561 C2.53539531,37.9537814 1.90418242,37.3498693 1.34451641,36.6711154 C0.814033984,36.028135 0.292494922,35.2335881 0.292494922,34.3241896 C0.292494922,33.4147912 0.814033984,32.6211857 1.34451641,31.9782053 C1.90418242,31.2994514 2.53539531,30.6955393 3.15436992,30.0760939 L29.8983094,3.33215449 Z" id="Fill-1" fill="#2B4EEF" mask="url(#mask-2)"></path>
            </g>
            <path d="M82.470859,56.1975285 C83.0898336,55.5785539 83.6942164,54.9478117 84.3724996,54.387675 C85.0159508,53.8571926 85.810027,53.3356535 86.7194254,53.3356535 C87.6288238,53.3356535 88.4224293,53.8567219 89.0654098,54.3872043 C89.7441637,54.947341 90.3485465,55.5785539 90.9675211,56.1975285 L91.2791266,56.509134 C91.8981012,57.1281086 92.5293141,57.7324914 93.0889801,58.4107746 C93.6194625,59.0537551 94.1410016,59.848302 94.1410016,60.7577004 C94.1410016,61.6666281 93.6199332,62.4607043 93.0894508,63.1036848 C92.5293141,63.781968 91.8985719,64.3863508 91.2791266,65.0057961 L64.5351871,91.7497355 C63.9162125,92.3691809 63.3118297,92.999923 62.6335465,93.5595891 C61.9900953,94.0900715 61.1960191,94.6116105 60.2866207,94.6116105 C59.3772223,94.6116105 58.5836168,94.0900715 57.9406363,93.5595891 C57.2618824,93.0003937 56.6574996,92.3691809 56.038525,91.7497355 L55.7269195,91.4381301 C55.1079449,90.8191555 54.476732,90.2152434 53.917066,89.5364895 C53.3865836,88.893509 52.8650445,88.0989621 52.8650445,87.1895637 C52.8650445,86.2801652 53.3865836,85.4870305 53.917066,84.8435793 C54.476732,84.1648254 55.1079449,83.5609133 55.7269195,82.941468 L82.470859,56.1975285 Z" id="Fill-4" fill="#2B4EEF"></path>
            <path d="M144.144265,82.9416562 C144.76324,83.5606309 145.393982,84.1650137 145.954119,84.8432969 C146.484601,85.4862773 147.00614,86.2808242 147.00614,87.189752 C147.00614,88.0991504 146.484601,88.8932266 145.954119,89.536207 C145.394453,90.2144902 144.76324,90.818873 144.144265,91.4383184 L143.83266,91.7499238 C143.213214,92.3688984 142.609302,92.9996406 141.931019,93.5597773 C141.287568,94.0902598 140.493492,94.6117988 139.584093,94.6117988 C138.674695,94.6117988 137.881089,94.0902598 137.238109,93.5597773 C136.559355,93.0001113 135.955443,92.3688984 135.335998,91.7499238 L108.592058,65.0059844 C107.972613,64.3865391 107.341871,63.782627 106.782205,63.103873 C106.251722,62.4608926 105.729713,61.6668164 105.730183,60.7569473 C105.730183,59.8475488 106.251722,59.0544141 106.781734,58.4114336 C107.3414,57.732209 107.972613,57.1282969 108.592058,56.5093223 L108.903193,56.1977168 C109.522638,55.5782715 110.12655,54.9475293 110.804834,54.3878633 C111.448285,53.8573809 112.242361,53.3358418 113.15223,53.3358418 C114.061158,53.3358418 114.854763,53.8569102 115.498214,54.3873926 C116.176498,54.9470586 116.78088,55.5782715 117.400326,56.1977168 L144.144265,82.9416562 Z" id="Fill-6" fill="#2B4EEF"></path>
            <g id="Group-10" transform="translate(0.000000, 0.000471)">
                <mask id="mask-4" fill="white">
                    <use xlink:href="#path-3"></use>
                </mask>
                <g id="Clip-9"></g>
                <path d="M29.6059557,3.33215449 C30.2249303,2.71317988 30.8293131,2.08196699 31.5075963,1.52230098 C32.1510475,0.991818555 32.9451236,0.469808789 33.8545221,0.469808789 C34.7639205,0.470279492 35.557526,0.991818555 36.2005064,1.52230098 C36.8792604,2.08196699 37.4836432,2.71317988 38.1026178,3.33215449 L38.4142232,3.64375996 C39.0331979,4.26273457 39.6644107,4.86711738 40.2240768,5.54540059 C40.7545592,6.18838105 41.2760982,6.98245723 41.2760982,7.89232637 C41.2760982,8.8017248 40.7550299,9.59533027 40.2245475,10.2383107 C39.6644107,10.9170646 39.0331979,11.5209768 38.4142232,12.1404221 L11.6702838,38.8843615 C11.0513092,39.5038068 10.4469264,40.134549 9.76864316,40.694215 C9.12519199,41.2246975 8.33111582,41.7462365 7.42171738,41.7462365 C6.51231895,41.7462365 5.71871348,41.2246975 5.07573301,40.694215 C4.3969791,40.1350197 3.79259629,39.5038068 3.17362168,38.8843615 L2.86201621,38.5727561 C2.2430416,37.9537814 1.61182871,37.3498693 1.0521627,36.6711154 C0.521680273,36.028135 0.000141210938,35.2335881 0.000141210938,34.3241896 C0.000141210938,33.4147912 0.521680273,32.6216564 1.05169199,31.9782053 C1.61182871,31.2994514 2.2430416,30.6955393 2.86201621,30.0760939 L29.6059557,3.33215449 Z" id="Fill-8" fill-opacity="0.4" fill="#2B4EEF" mask="url(#mask-4)"></path>
            </g>
            <path d="M38.4141762,82.9416562 C39.0331508,83.5606309 39.6643637,84.1650137 40.2240297,84.8432969 C40.7545121,85.4862773 41.2765219,86.2808242 41.2765219,87.189752 C41.2760512,88.0991504 40.7549828,88.8932266 40.2245004,89.536207 C39.6643637,90.2144902 39.0331508,90.818873 38.4141762,91.4383184 L38.1025707,91.7499238 C37.4835961,92.3688984 36.879684,92.9996406 36.2009301,93.5597773 C35.5579496,94.0902598 34.7638734,94.6117988 33.8540043,94.6117988 C32.9446059,94.6117988 32.1510004,94.0902598 31.5080199,93.5597773 C30.8297367,93.0001113 30.2253539,92.3688984 29.6059086,91.7499238 L2.86196914,65.0059844 C2.24299453,64.3865391 1.61178164,63.782627 1.05211563,63.103873 C0.521633203,62.4608926 9.4140625e-05,61.6668164 9.4140625e-05,60.7569473 C9.4140625e-05,59.8475488 0.521633203,59.0544141 1.05164492,58.4114336 C1.61178164,57.732209 2.24299453,57.1282969 2.86196914,56.5093223 L3.17357461,56.1977168 C3.79254922,55.5782715 4.39693203,54.9475293 5.07521523,54.3878633 C5.71866641,53.8573809 6.51274258,53.3358418 7.42214102,53.3358418 C8.33153945,53.3358418 9.12514492,53.8569102 9.76812539,54.3873926 C10.4464086,54.9470586 11.0512621,55.5782715 11.6702367,56.1977168 L38.4141762,82.9416562 Z" id="Fill-11" fill-opacity="0.4" fill="#2B4EEF"></path>
            <path d="M91.2790795,30.0765176 C91.8980541,30.6954922 92.529267,31.299875 93.088933,31.9786289 C93.6194154,32.6216094 94.1414252,33.4156855 94.1414252,34.325084 C94.1409545,35.2344824 93.6198861,36.0280879 93.0894037,36.6710684 C92.529267,37.3498223 91.8985248,37.9542051 91.2790795,38.5731797 L90.967474,38.8847852 C90.3484994,39.5042305 89.7445873,40.1349727 89.0658334,40.6946387 C88.4228529,41.2251211 87.6287768,41.7466602 86.7189076,41.7466602 C85.8099799,41.7466602 85.0159037,41.2251211 84.3729232,40.6946387 C83.69464,40.1354434 83.0902572,39.5042305 82.4708119,38.8847852 L55.7268725,12.1408457 C55.1078979,11.5218711 54.476685,10.9174883 53.9174896,10.2392051 C53.3865365,9.59575391 52.8649975,8.80167773 52.8649975,7.8922793 C52.8649975,6.98288086 53.3865365,6.18927539 53.9170189,5.54629492 C54.476685,4.86754102 55.1078979,4.2631582 55.7268725,3.64418359 L56.0384779,3.33257812 C56.6574525,2.71360352 57.2618354,2.08239063 57.9401186,1.52272461 C58.5835697,0.992242187 59.3776459,0.470703125 60.2870443,0.470703125 C61.1964428,0.470703125 61.9900482,0.992242187 62.6330287,1.52272461 C63.3117826,2.08239063 63.9161654,2.71360352 64.53514,3.33257812 L91.2790795,30.0765176 Z" id="Fill-13" fill="#2B4EEF"></path>
            <path d="M188.200948,56.1975285 C188.819923,55.5785539 189.424305,54.9478117 190.102589,54.387675 C190.745569,53.8571926 191.540116,53.3356535 192.449044,53.3356535 C193.358442,53.3356535 194.152518,53.8567219 194.795499,54.3872043 C195.473782,54.947341 196.078165,55.5785539 196.69761,56.1975285 L197.009216,56.509134 C197.62819,57.1281086 198.258932,57.7324914 198.819069,58.4107746 C199.349552,59.0537551 199.871091,59.848302 199.871091,60.7577004 C199.871091,61.6666281 199.349552,62.4607043 198.819069,63.1036848 C198.259403,63.781968 197.62819,64.3863508 197.009216,65.0057961 L170.265276,91.7497355 C169.645831,92.3691809 169.041919,92.999923 168.363165,93.5595891 C167.720184,94.0900715 166.926108,94.6116105 166.016239,94.6116105 C165.106841,94.6116105 164.313706,94.0900715 163.670725,93.5595891 C162.991501,93.0003937 162.387589,92.3691809 161.768614,91.7497355 L161.457009,91.4381301 C160.837563,90.8191555 160.206821,90.2152434 159.647155,89.5364895 C159.116673,88.893509 158.595134,88.0989621 158.595134,87.1895637 C158.595134,86.2801652 159.116202,85.4870305 159.646684,84.8435793 C160.20635,84.1648254 160.837563,83.5609133 161.457009,82.941468 L188.200948,56.1975285 Z" id="Fill-15" fill-opacity="0.4" fill="#2B4EEF"></path>
            <path d="M197.009169,30.0765176 C197.628143,30.6954922 198.258885,31.299875 198.819022,31.9786289 C199.349504,32.6216094 199.871044,33.4156855 199.871044,34.325084 C199.871044,35.2344824 199.349504,36.0280879 198.819022,36.6710684 C198.259356,37.3498223 197.628143,37.9542051 197.009169,38.5731797 L196.697563,38.8847852 C196.078118,39.5042305 195.474206,40.1349727 194.795922,40.6946387 C194.152942,41.2251211 193.358395,41.7466602 192.448997,41.7466602 C191.539598,41.7466602 190.745993,41.2251211 190.103012,40.6946387 C189.424258,40.1354434 188.820346,39.5042305 188.200901,38.8847852 L161.456962,12.1408457 C160.837516,11.5218711 160.206774,10.9174883 159.647108,10.2392051 C159.116626,9.59575391 158.595087,8.80167773 158.595087,7.8922793 C158.595087,6.98288086 159.116155,6.18927539 159.646637,5.54629492 C160.206303,4.86754102 160.837516,4.2631582 161.456962,3.64418359 L161.768567,3.33257812 C162.387071,2.71360352 162.991454,2.08239063 163.670208,1.52272461 C164.313188,0.992242187 165.107735,0.470703125 166.016663,0.470703125 C166.926061,0.470703125 167.719667,0.992242187 168.363118,1.52272461 C169.041401,2.08239063 169.645784,2.71360352 170.265229,3.33257812 L197.009169,30.0765176 Z" id="Fill-17" fill-opacity="0.4" fill="#2B4EEF"></path>
            <path d="M295.290946,77.7510717 L273.732742,65.8869994 C273.253567,65.622935 272.669895,65.6318783 272.199192,65.9105346 C271.728018,66.1891908 271.439006,66.6956674 271.439006,67.2426244 L271.439006,74.9607436 C271.439006,75.5251166 271.745904,76.0447729 272.240143,76.3168393 L293.798817,88.1809115 C294.278463,88.444976 294.861194,88.4360326 295.332367,88.1573764 C295.803541,87.8791908 296.092553,87.3722436 296.092553,86.8252865 L296.092553,79.1071674 C296.092553,78.5427943 295.785184,78.0231381 295.290946,77.7510717" id="Fill-19" fill="#283266"></path>
            <path d="M294.710427,37.654885 L272.986537,37.654885 C272.13174,37.654885 271.439336,38.34776 271.439336,39.2020861 L271.439336,42.1806955 L271.439336,43.7184826 L271.439336,54.8044826 C271.439336,54.9089787 271.450162,55.011592 271.469931,55.1109104 C271.450162,55.209758 271.439336,55.3123713 271.439336,55.4173381 L271.439336,59.9332639 C271.439336,60.7880607 272.13174,61.4809357 272.986537,61.4809357 L294.710427,61.4809357 C295.564754,61.4809357 296.257629,60.7880607 296.257629,59.9332639 L296.257629,55.4173381 C296.257629,54.5625412 295.564754,53.8696662 294.710427,53.8696662 L281.03556,53.8696662 L281.03556,45.2661545 L294.710427,45.2661545 C295.564754,45.2661545 296.257629,44.5728088 296.257629,43.7184826 L296.257629,39.2020861 C296.257629,38.34776 295.564754,37.654885 294.710427,37.654885" id="Fill-21" fill="#283266"></path>
            <path d="M294.875879,6.21775293 L222.190844,6.21775293 C221.336518,6.21775293 220.643643,6.91062793 220.643643,7.7654248 L220.643643,14.4324639 C220.643643,15.2872607 221.336518,15.979665 222.190844,15.979665 L252.742301,15.979665 L252.742301,22.7634385 L222.190844,22.7634385 C221.336518,22.7634385 220.643643,23.4567842 220.643643,24.3111104 L220.643643,30.4820283 C220.643643,31.3368252 221.336518,32.0292295 222.190844,32.0292295 L252.742301,32.0292295 L252.742301,60.7628311 L221.452782,77.7528604 C220.953837,78.0235146 220.643643,78.5455244 220.643643,79.1127217 L220.643643,86.8426084 C220.643643,87.3881533 220.930772,87.8932178 221.399592,88.1723447 C221.868413,88.4514717 222.449731,88.4622979 222.928907,88.201999 L252.742301,72.0140479 L252.742301,87.3994502 C252.742301,88.2542471 253.435176,88.9466514 254.289503,88.9466514 L262.777221,88.9466514 C263.631547,88.9466514 264.324422,88.2542471 264.324422,87.3994502 L264.324422,32.0292295 L294.875879,32.0292295 C295.730206,32.0292295 296.423081,31.3368252 296.423081,30.4820283 L296.423081,24.3111104 C296.423081,23.4567842 295.730206,22.7634385 294.875879,22.7634385 L264.324422,22.7634385 L264.324422,15.979665 L294.875879,15.979665 C295.730206,15.979665 296.423081,15.2872607 296.423081,14.4324639 L296.423081,7.7654248 C296.423081,6.91062793 295.730206,6.21775293 294.875879,6.21775293" id="Fill-23" fill="#283266"></path>
            <path d="M313.843756,23.0644531 C314.010385,23.7610938 314.633125,24.2525078 315.349065,24.2525078 L323.749704,24.2525078 C324.223231,24.2525078 324.670399,24.0359844 324.964118,23.6641289 C325.257366,23.2922734 325.364686,22.8069785 325.254541,22.3461602 L321.691319,7.40604297 C321.52469,6.70940234 320.90195,6.21751758 320.18601,6.21751758 L311.785371,6.21751758 C311.311844,6.21751758 310.864205,6.43451172 310.570957,6.80636719 C310.277709,7.17822266 310.170389,7.66351758 310.280534,8.12433594 L313.843756,23.0644531 Z" id="Fill-25" fill="#283266"></path>
            <path d="M320.228562,32.194917 L311.856165,32.194917 C311.373695,32.194917 310.918525,32.4203838 310.625747,32.8044775 C310.33297,33.1885713 310.236005,33.6870459 310.364507,34.1525713 L314.476099,49.0926885 C314.661085,49.7643818 315.272058,50.2294365 315.968228,50.2294365 L324.340154,50.2294365 C324.823566,50.2294365 325.278736,50.0044404 325.571513,49.6203467 C325.86429,49.2357822 325.960784,48.7373076 325.832282,48.2713115 L321.72022,33.331665 C321.535234,32.6599717 320.924732,32.194917 320.228562,32.194917" id="Fill-27" fill="#283266"></path>
            <path d="M334.537231,48.078841 L385.712545,48.078841 C386.566871,48.078841 387.260217,47.385966 387.260217,46.5311691 L387.260217,40.0293469 C387.260217,39.1750207 386.566871,38.4821457 385.712545,38.4821457 L365.750496,38.4821457 L365.750496,24.0871027 L385.712545,24.0871027 C386.566871,24.0871027 387.260217,23.3946984 387.260217,22.5399016 L387.260217,16.0380793 C387.260217,15.1837531 386.566871,14.4908781 385.712545,14.4908781 L365.750496,14.4908781 L365.750496,7.76500117 C365.750496,6.910675 365.057621,6.2178 364.202824,6.2178 L355.715576,6.2178 C354.86125,6.2178 354.168375,6.910675 354.168375,7.76500117 L354.168375,14.4908781 L334.537231,14.4908781 C333.682434,14.4908781 332.989559,15.1837531 332.989559,16.0380793 L332.989559,22.5399016 C332.989559,23.3946984 333.682434,24.0871027 334.537231,24.0871027 L354.168375,24.0871027 L354.168375,38.4821457 L334.537231,38.4821457 C333.682434,38.4821457 332.989559,39.1750207 332.989559,40.0293469 L332.989559,46.5311691 C332.989559,47.385966 333.682434,48.078841 334.537231,48.078841" id="Fill-29" fill="#283266"></path>
            <path d="M406.180647,17.799874 L469.434674,17.799874 C470.289,17.799874 470.981875,17.106999 470.981875,16.2522021 L470.981875,9.25425879 C470.981875,8.39993262 470.289,7.70705762 469.434674,7.70705762 L406.180647,7.70705762 C405.32585,7.70705762 404.632975,8.39993262 404.632975,9.25425879 L404.632975,16.2522021 C404.632975,17.106999 405.32585,17.799874 406.180647,17.799874" id="Fill-31" fill="#283266"></path>
            <path d="M460.175897,59.2562045 C459.919363,58.7167787 459.375701,58.3731654 458.778379,58.3731654 L450.622977,58.3731654 C450.092024,58.3731654 449.598256,58.6452318 449.314893,59.0938119 C449.031059,59.5428627 448.997639,60.1058236 449.225459,60.5849994 L462.288883,88.0637064 C462.545416,88.6036029 463.089078,88.9467455 463.686871,88.9467455 L471.841803,88.9467455 C472.372756,88.9467455 472.866524,88.6746791 473.149887,88.226099 C473.433721,87.7775189 473.467141,87.214558 473.239321,86.7353822 L460.175897,59.2562045 Z" id="Fill-33" fill="#283266"></path>
            <g id="Group-37" transform="translate(401.039062, 35.773908)">
                <mask id="mask-6" fill="white">
                    <use xlink:href="#path-5"></use>
                </mask>
                <g id="Clip-36"></g>
                <path d="M71.7047018,0.226596484 L1.99780527,0.226596484 C1.1434791,0.226596484 0.450133398,0.919471484 0.450133398,1.77379766 L0.450133398,9.26833281 C0.450133398,10.122659 1.1434791,10.815534 1.99780527,10.815534 L71.7047018,10.815534 C72.5590279,10.815534 73.2519029,10.122659 73.2519029,9.26833281 L73.2519029,1.77379766 C73.2519029,0.919471484 72.5590279,0.226596484 71.7047018,0.226596484" id="Fill-35" fill="#283266" mask="url(#mask-6)"></path>
            </g>
            <path d="M448.917619,77.6959053 L419.521268,77.6959053 L430.234471,54.9176396 C430.459467,54.4384639 430.424635,53.876915 430.14033,53.4297471 C429.856496,52.9825791 429.36367,52.7114541 428.834129,52.7114541 L420.672137,52.7114541 C420.072461,52.7114541 419.526916,53.0578916 419.271795,53.6006123 L403.684932,86.7409365 C403.459936,87.2201123 403.495238,87.7816611 403.779072,88.2288291 C404.062906,88.6759971 404.555733,88.9466514 405.085274,88.9466514 L413.247737,88.9466514 C413.574404,88.9466514 413.883186,88.8412139 414.139719,88.6590518 C414.397664,88.8402725 414.703151,88.9466514 415.025112,88.9466514 L448.917619,88.9466514 C449.771946,88.9466514 450.464821,88.2542471 450.464821,87.3994502 L450.464821,79.2431064 C450.464821,78.3887803 449.771946,77.6959053 448.917619,77.6959053" id="Fill-38" fill="#283266"></path>
            <path d="M368.008647,77.6959053 L345.95244,77.6959053 L352.802583,57.7399756 C352.964976,57.2669189 352.889192,56.7449092 352.598769,56.3382217 C352.308345,55.9315342 351.839054,55.6895928 351.339167,55.6895928 L343.034081,55.6895928 C342.37086,55.6895928 341.781069,56.1127549 341.568782,56.7411436 L331.364409,86.9037998 C331.204841,87.375915 331.282507,87.8965127 331.572931,88.3013174 C331.863825,88.7070635 332.331704,88.9466514 332.830649,88.9466514 L340.98511,88.9466514 C341.28636,88.9466514 341.571136,88.8558057 341.814019,88.701415 C342.054077,88.8548643 342.337911,88.9466514 342.644339,88.9466514 L368.008647,88.9466514 C368.862974,88.9466514 369.555849,88.2542471 369.555849,87.3994502 L369.555849,79.2431064 C369.555849,78.3887803 368.862974,77.6959053 368.008647,77.6959053" id="Fill-40" fill="#283266"></path>
            <path d="M324.549475,58.6682963 L316.103649,58.6682963 C315.345346,58.6682963 314.699071,59.2171361 314.576688,59.9650834 L310.120542,87.1491303 C310.046641,87.5972396 310.173731,88.0552338 310.467921,88.4012006 C310.761639,88.7471674 311.193274,88.9467455 311.647503,88.9467455 L320.092858,88.9467455 C320.851161,88.9467455 321.497907,88.3979057 321.619819,87.6499584 L326.076436,60.4659115 C326.149866,60.0178021 326.022776,59.5602787 325.729057,59.2138412 C325.434868,58.8678744 325.003704,58.6682963 324.549475,58.6682963" id="Fill-42" fill="#283266"></path>
            <path d="M220.809095,55.2520271 L220.809095,59.7679529 C220.809095,60.6227498 221.50197,61.3156248 222.356296,61.3156248 L243.91497,61.3156248 C244.769296,61.3156248 245.462171,60.6227498 245.462171,59.7679529 L245.462171,55.2520271 C245.462171,54.9220643 245.356734,54.6170486 245.180691,54.3661639 C245.356734,54.1148084 245.462171,53.8102635 245.462171,53.4803006 L245.462171,43.5531717 L245.462171,40.8569842 L245.462171,39.0367752 C245.462171,38.1819783 244.769296,37.489574 243.91497,37.489574 L222.356296,37.489574 C221.50197,37.489574 220.809095,38.1819783 220.809095,39.0367752 L220.809095,43.5531717 C220.809095,44.4079686 221.50197,45.1008436 222.356296,45.1008436 L234.872763,45.1008436 L234.872763,53.4803006 C234.872763,53.5570252 234.884531,53.6309256 234.895357,53.7043553 L222.356296,53.7043553 C221.50197,53.7043553 220.809095,54.3972303 220.809095,55.2520271" id="Fill-44" fill="#283266"></path>
            <path d="M382.318634,62.3410516 C382.117644,61.6933641 381.51891,61.2523152 380.840156,61.2523152 L372.498826,61.2523152 C372.006941,61.2523152 371.54424,61.485784 371.252875,61.8811746 C370.961039,62.2770359 370.8749,62.7882195 371.020818,63.2575105 L378.649033,87.857868 C378.850023,88.5055555 379.449228,88.9466043 380.127511,88.9466043 L388.468841,88.9466043 C388.960726,88.9466043 389.423427,88.7131355 389.714793,88.3177449 C390.006629,87.9218836 390.092767,87.4107 389.946849,86.941409 L382.318634,62.3410516 Z" id="Fill-46" fill="#283266"></path>
        </g>
    </g>
</svg>