<?xml version="1.0" encoding="UTF-8"?>
<svg width="880px" height="556px" viewBox="0 0 880 556" version="1.1" xmlns="http://www.w3.org/2000/svg" xmlns:xlink="http://www.w3.org/1999/xlink">
    <!-- Generator: Sketch 51.3 (57544) - http://www.bohemiancoding.com/sketch -->
    <title>Artboard</title>
    <desc>Created with Sketch.</desc>
    <defs></defs>
    <g id="Artboard" stroke="none" stroke-width="1" fill="none" fill-rule="evenodd">
        <rect id="Rectangle" stroke="#DDDDDD" fill="#FFFFFF" x="0.796628411" y="33.9140625" width="419.799696" height="191.531988" rx="10"></rect>
        <rect id="Rectangle-Copy" fill="#2B4EEF" x="459.384112" y="33.4140625" width="420.799696" height="192.531988" rx="10"></rect>
        <rect id="Rectangle-Copy-2" fill="#283266" x="0" y="292.800781" width="420.799696" height="192.531988" rx="10"></rect>
        <rect id="Rectangle-Copy-3" fill="#1D1E22" x="459.397569" y="292.800781" width="420.799696" height="192.531988" rx="10"></rect>
        <text id="Standard" font-family="KentosT16-Regular, Kentos T16" font-size="15" font-weight="normal" fill="#B3B7CB">
            <tspan x="174.296292" y="257.075751">Standard</tspan>
        </text>
        <text id="Dawn" font-family="KentosT16-Regular, Kentos T16" font-size="15" font-weight="normal" fill="#B3B7CB">
            <tspan x="649.299918" y="257.075751">Dawn</tspan>
        </text>
        <g id="Group-68" transform="translate(103.196476, 109.437954)">
            <path d="M188.492498,31.7271543 L193.328188,20.0126022 C193.459063,19.6953728 193.817344,19.5388919 194.139044,19.65798 L196.894123,20.6783572 C197.056294,20.7383076 197.187169,20.8618665 197.256671,21.0201764 C197.326173,21.1784863 197.328205,21.3585409 197.262564,21.5184765 L193.223638,31.3550665 L204.443573,30.4726572 C204.620783,30.4586349 204.795757,30.519195 204.926428,30.640112 C205.056897,30.7608258 205.131073,30.9305161 205.131073,31.1083353 L205.131073,33.7796872 C205.131073,34.1123615 204.875216,34.3891497 204.543355,34.4153653 L186.285086,35.8513313 C186.107877,35.8653536 185.932699,35.8045903 185.802231,35.6838765 C185.671762,35.5631627 185.597383,35.3934724 185.597383,35.2156532 L185.597383,32.5443013 C185.597383,32.2114238 185.85324,31.9346356 186.185101,31.9086232 L188.492498,31.7271543 Z M116.876941,8.98265205 L132.846504,8.98265205 C133.198688,8.98265205 133.484215,9.2679756 133.484215,9.62036238 L133.484215,12.002936 C133.484215,12.3551196 133.198688,12.6406463 132.846504,12.6406463 L116.876941,12.6406463 L116.876941,27.0601753 C116.876941,28.0183666 116.267275,28.870476 115.360296,29.1793733 L97.6814129,35.203277 C97.5525702,35.2471729 97.4107213,35.2262411 97.2999654,35.1469845 C97.1894127,35.0679312 97.123772,34.9403079 97.123772,34.8041492 L97.123772,31.8200387 C97.123772,31.5499568 97.2940719,31.3093421 97.5485058,31.2189083 L111.769975,26.1792083 C112.024612,26.089181 112.194708,25.8485663 112.194708,25.5782812 L112.194708,12.6406463 L96.1519445,12.6406463 C95.799761,12.6406463 95.5142342,12.3551196 95.5142342,12.002936 L95.5142342,9.62036238 C95.5142342,9.2679756 95.799761,8.98265205 96.1519445,8.98265205 L112.194708,8.98265205 L112.194708,5.69041655 L101.858436,5.69041655 C101.506252,5.69041655 101.220726,5.405093 101.220726,5.05270621 L101.220726,2.6701326 C101.220726,2.31774582 101.506252,2.03242227 101.858436,2.03242227 L127.140257,2.03242227 C127.492441,2.03242227 127.777764,2.31774582 127.777764,2.6701326 L127.777764,5.05270621 C127.777764,5.405093 127.492441,5.69041655 127.140257,5.69041655 L116.876941,5.69041655 L116.876941,8.98265205 Z M109.048813,16.5705922 L109.048813,23.928038 L109.048813,24.0011979 C109.048813,24.3533814 108.763489,24.6389082 108.411306,24.6389082 L99.0051801,24.6389082 C98.6529965,24.6389082 98.3674697,24.3533814 98.3674697,24.0011979 L98.3674697,22.0575836 C98.3674697,21.7051968 98.6529965,21.4198733 99.0051801,21.4198733 L105.463979,21.4198733 L105.463979,18.859196 L101.126817,18.859196 C100.774633,18.859196 100.489106,18.5738724 100.489106,18.2214856 L100.489106,16.2778713 C100.489106,15.9256878 100.774633,15.640161 101.126817,15.640161 L108.411306,15.640161 C108.763489,15.640161 109.048813,15.9256878 109.048813,16.2778713 L109.048813,16.5705922 Z M123.534511,18.859135 L123.534511,21.4198123 L129.993492,21.4198123 C130.345473,21.4198123 130.631,21.7053391 130.631,22.0575226 L130.631,24.0011369 C130.631,24.3533205 130.345473,24.6388473 129.993492,24.6388473 L120.587367,24.6388473 C120.235183,24.6388473 119.949656,24.3533205 119.949656,24.0011369 L119.949656,22.0575226 C119.949656,22.0558061 119.949663,22.0540912 119.949677,22.0523779 L119.949677,16.5705312 L119.949677,16.2778104 C119.949677,15.92583 120.235203,15.6401 120.587387,15.6401 L127.871673,15.6401 C128.223856,15.6401 128.509383,15.92583 128.509383,16.2778104 L128.509383,18.2214247 C128.509383,18.5738114 128.223856,18.859135 127.871673,18.859135 L123.534511,18.859135 Z M165.766868,11.1041668 L165.766868,16.1523818 L175.371603,16.1523818 C175.723786,16.1523818 176.009313,16.4377054 176.009313,16.7898889 L176.009313,19.1726658 C176.009313,19.5248493 175.723786,19.8103761 175.371603,19.8103761 L151.699502,19.8103761 C151.347319,19.8103761 151.061792,19.5248493 151.061792,19.1726658 L151.061792,16.7898889 C151.061792,16.4377054 151.347319,16.1523818 151.699502,16.1523818 L161.377275,16.1523818 L161.377275,11.1041668 L153.382139,11.1041668 C153.029955,11.1041668 152.744429,10.8188432 152.744429,10.4664565 L152.744429,8.08388285 C152.744429,7.73169929 153.029955,7.44617252 153.382139,7.44617252 L161.377275,7.44617252 L161.377275,2.6701326 C161.377275,2.31774582 161.662802,2.03242227 162.014985,2.03242227 L165.129361,2.03242227 C165.481544,2.03242227 165.766868,2.31774582 165.766868,2.6701326 L165.766868,7.44617252 L173.689088,7.44617252 C174.041271,7.44617252 174.326798,7.73169929 174.326798,8.08388285 L174.326798,10.4664565 C174.326798,10.8188432 174.041271,11.1041668 173.689088,11.1041668 L165.766868,11.1041668 Z M154.311558,31.7425795 L158.285375,21.7068632 C158.412999,21.3847565 158.774734,21.2233983 159.099686,21.3437057 L161.857,22.3648958 C162.017546,22.4242365 162.147201,22.5457632 162.217313,22.7016344 C162.287424,22.8579121 162.291692,23.035528 162.229506,23.194854 L159.037557,31.3661815 L167.492852,30.6927668 C167.670468,30.6785413 167.845442,30.7393046 167.976114,30.8600185 C168.106785,30.9807323 168.181164,31.1504226 168.181164,31.3282417 L168.181164,33.9997969 C168.181164,34.3322679 167.925715,34.6088529 167.59426,34.6352718 L152.335343,35.8505388 C152.15793,35.8647643 151.982753,35.8042042 151.852081,35.6834904 C151.72141,35.5625733 151.64703,35.392883 151.64703,35.2148606 L151.64703,32.5437119 C151.64703,32.2110377 151.902683,31.9344527 152.234138,31.9080338 L154.311558,31.7425795 Z M187.186131,3.86141941 L210.419476,3.86141941 C210.771659,3.86141941 211.056983,4.14674296 211.056983,4.49912975 L211.056983,6.88170335 C211.056983,7.23409014 210.771659,7.51941369 210.419476,7.51941369 L187.186131,7.51941369 C186.833948,7.51941369 186.548421,7.23409014 186.548421,6.88170335 L186.548421,4.49912975 C186.548421,4.14674296 186.833948,3.86141941 187.186131,3.86141941 Z M142.336602,3.81002459 L148.869373,8.94747434 C149.003906,9.05335295 149.090072,9.20841126 149.108972,9.37830477 C149.127871,9.54819829 149.077675,9.71870146 148.969765,9.85140537 L147.214334,12.0079962 C146.994651,12.2778749 146.599181,12.3217708 146.325644,12.1067621 L139.79267,6.9691091 C139.65834,6.8634337 139.571971,6.70837539 139.553274,6.53848188 C139.534375,6.36838515 139.584571,6.19808519 139.692481,6.06558451 L141.447912,3.90858721 C141.667595,3.63891175 142.063065,3.59481259 142.336602,3.81002459 Z M141.164702,37.413681 L139.061965,35.6113059 C138.929058,35.4975017 138.848785,35.3341113 138.840047,35.1593404 C138.831308,34.9845696 138.894714,34.8138632 139.015427,34.6872559 L145.563237,27.8183556 C145.681715,27.694187 145.845309,27.6228561 146.017032,27.6208239 C146.188754,27.6187917 146.354177,27.6860581 146.4755,27.8073816 L148.42704,29.7591247 C148.671719,30.0038039 148.676597,30.3988673 148.438217,30.6496431 L142.041401,37.3691754 C141.807696,37.6148707 141.422388,37.6345832 141.164702,37.413681 Z M171.372419,25.47161 L176.307053,35.5380038 C176.382652,35.6924524 176.392813,35.8706781 176.335098,36.0326459 C176.277586,36.1946138 176.156872,36.3263016 176.000798,36.3980389 L173.504826,37.5462427 C173.189223,37.6915463 172.815498,37.5574199 172.664301,37.2448646 L167.742469,27.0729986 C167.666261,26.9155016 167.658132,26.733618 167.719912,26.5698211 C167.781894,26.4064307 167.908298,26.2751494 168.069657,26.2074765 L170.553028,25.1643385 C170.864364,25.0336668 171.223864,25.1684029 171.372419,25.47161 Z M142.337089,14.7159281 L148.142936,19.3355684 C148.276453,19.4418535 148.361603,19.5967086 148.379893,19.7661956 C148.398386,19.9354795 148.34819,20.1051698 148.240482,20.2370608 L146.485052,22.3938549 C146.264556,22.6647497 145.866851,22.7078327 145.593517,22.4903853 L139.787671,17.8705417 C139.654357,17.7644599 139.569004,17.6096048 139.550714,17.4401177 C139.532424,17.2708339 139.58262,17.1011436 139.690124,16.9690494 L141.445555,14.8124585 C141.666254,14.5413605 142.063756,14.4984807 142.337089,14.7159281 Z M120.764515,26.6274346 L131.487519,31.2041951 C131.72224,31.3045867 131.874657,31.5352436 131.874657,31.7906935 L131.874657,34.7270468 C131.874657,34.8753988 131.800481,35.0137929 131.677125,35.0956913 C131.553566,35.1775897 131.397288,35.1924249 131.260723,35.1349131 L120.266825,30.5095826 C120.030274,30.4100039 119.876435,30.1785341 119.876435,29.9218649 L119.876435,27.213933 C119.876435,26.9995339 119.984143,26.7997667 120.162775,26.681898 C120.341407,26.5638261 120.567593,26.5433007 120.764515,26.6274346 Z M112.832419,31.8083941 L116.239434,31.8083941 C116.591618,31.8083941 116.876941,32.0939209 116.876941,32.4461044 L116.876941,37.9747564 C116.876941,38.3269399 116.591618,38.6122635 116.239434,38.6122635 L112.832419,38.6122635 C112.480235,38.6122635 112.194708,38.3269399 112.194708,37.9747564 L112.194708,32.4461044 C112.194708,32.0939209 112.480235,31.8083941 112.832419,31.8083941 Z M183.308637,14.2501435 L214.296929,14.2501435 C214.649113,14.2501435 214.93464,14.535467 214.93464,14.8878538 L214.93464,17.2704274 C214.93464,17.622611 214.649113,17.9081378 214.296929,17.9081378 L183.308637,17.9081378 C182.956454,17.9081378 182.670927,17.622611 182.670927,17.2704274 L182.670927,14.8878538 C182.670927,14.535467 182.956454,14.2501435 183.308637,14.2501435 Z M207.955349,24.5239659 L213.26066,35.4662461 C213.335446,35.6204916 213.344997,35.7983107 213.287079,35.9594657 C213.229364,36.1208239 213.109057,36.2521052 212.953389,36.3236394 L210.456808,37.4720463 C210.140391,37.6177564 209.765853,37.4824107 209.615266,37.1684328 L204.322961,26.1206804 C204.247566,25.9633867 204.240046,25.7819095 204.302029,25.6187223 C204.364215,25.4555351 204.490212,25.3248634 204.651164,25.2573938 L207.134536,24.2144589 C207.447091,24.0831776 207.807404,24.2191331 207.955349,24.5239659 Z" id="Combined-Shape" fill="#283266"></path>
            <path d="M58.4300775,1.2356095 C58.6973143,0.968372697 58.9582512,0.696055345 59.251094,0.454221279 C59.5288983,0.225190192 59.8717337,-0.000182899714 60.2643584,2.03221904e-05 C60.6569831,2.03221904e-05 60.9996152,0.224986971 61.2772164,0.454018057 C61.5702624,0.695852123 61.8311993,0.968372697 62.0984361,1.2356095 L62.232969,1.36993918 C62.5002058,1.63737921 62.7727264,1.89831613 63.0143572,2.1911589 C63.2433883,2.46876002 63.4685582,2.81179859 63.4685582,3.20442331 C63.4685582,3.59684481 63.2433883,3.93968016 63.0145604,4.21728129 C62.7727264,4.51012405 62.5002058,4.77106098 62.232969,5.038501 L50.68651,16.58496 C50.4192732,16.8524 50.1583363,17.1247173 49.8654935,17.3663482 C49.5876892,17.5953793 49.2448538,17.8205491 48.8522291,17.8205491 C48.4596044,17.8205491 48.1169723,17.5953793 47.8393712,17.3663482 C47.5463252,17.1249206 47.2853882,16.8524 47.0181514,16.58496 L46.8836185,16.4504271 C46.6163817,16.1831902 46.3438612,15.9224565 46.1022303,15.6294106 C45.8731992,15.3518094 45.6480294,15.0087709 45.6480294,14.6161461 C45.6480294,14.2235214 45.872996,13.8808893 46.1020271,13.6032882 C46.3438612,13.3102422 46.6161785,13.0495085 46.8836185,12.7820685 L58.4300775,1.2356095 Z" id="Fill-52" fill="#2B4EEF"></path>
            <path d="M35.6061035,24.0595632 C35.8733403,23.7923264 36.1342772,23.5200091 36.4271199,23.278175 C36.7049243,23.0491439 37.0477596,22.823974 37.4403844,22.823974 C37.8330091,22.823974 38.1756412,23.0489407 38.4532423,23.2779718 C38.7462883,23.5198058 39.0072252,23.7923264 39.2744621,24.0595632 L39.408995,24.1940961 C39.6762318,24.4613329 39.9487523,24.7222698 40.1903832,25.0151126 C40.4194143,25.2927137 40.6445841,25.6357523 40.6445841,26.028377 C40.6445841,26.4207985 40.4194143,26.7636339 40.1903832,27.041235 C39.9487523,27.3340778 39.6762318,27.5950147 39.408995,27.8624547 L27.862536,39.4089137 C27.5952992,39.6763537 27.3343623,39.948671 27.0413163,40.1903019 C26.7637152,40.419333 26.4208798,40.6445028 26.0282551,40.6445028 C25.6356304,40.6445028 25.2929982,40.419333 25.0153971,40.1903019 C24.7223511,39.9488743 24.4614142,39.6763537 24.1941774,39.4089137 L24.0596445,39.2743808 C23.7924077,39.007144 23.5198871,38.7464103 23.2782563,38.4533643 C23.0492252,38.1757631 22.8240553,37.8327246 22.8240553,37.4400999 C22.8240553,37.0474751 23.049022,36.7050462 23.2780531,36.4272419 C23.5198871,36.1341959 23.7922045,35.8734622 24.0596445,35.6060222 L35.6061035,24.0595632 Z" id="Fill-54" fill="#2B4EEF"></path>
            <path d="M62.2329283,35.6061035 C62.5001651,35.8733403 62.7726857,36.1342772 63.0143166,36.4271199 C63.2433477,36.7047211 63.4687207,37.0477596 63.4687207,37.4401811 C63.4685175,37.8328059 63.2433477,38.1756412 63.0145198,38.4532423 C62.7726857,38.7460851 62.5001651,39.007022 62.2329283,39.2744621 L62.0983954,39.408995 C61.8311586,39.6762318 61.5702217,39.9485491 61.2773789,40.1903832 C60.9997778,40.4194143 60.6569425,40.6445841 60.2641145,40.6445841 C59.8714898,40.6445841 59.5288577,40.4194143 59.2512566,40.1903832 C58.9584138,39.9487523 58.6974769,39.6762318 58.4300368,39.408995 L46.8835779,27.862536 C46.6163411,27.595096 46.3438205,27.3343623 46.1021897,27.0413163 C45.8731586,26.7637152 45.6479887,26.4208798 45.6479887,26.0280519 C45.6479887,25.6354272 45.8731586,25.2929982 46.1021897,25.0153971 C46.3438205,24.7221479 46.6161379,24.4614142 46.8835779,24.1941774 L47.0181108,24.0596445 C47.2853476,23.7922045 47.5460813,23.5198871 47.8391273,23.2782563 C48.1169316,23.0492252 48.459767,22.8240553 48.8523917,22.8240553 C49.2450164,22.8240553 49.5876486,23.049022 49.8652497,23.2780531 C50.1580924,23.5196839 50.4192326,23.7922045 50.6864694,24.0596445 L62.2329283,35.6061035 Z" id="Fill-56" fill="#2B4EEF"></path>
            <path d="M12.7821497,1.2356095 C13.0493865,0.968372697 13.3103235,0.696055345 13.6031662,0.454221279 C13.8809706,0.225190192 14.2238059,-0.000182899714 14.6164307,2.03221904e-05 C15.0090554,2.03221904e-05 15.3516875,0.224986971 15.6292886,0.454018057 C15.9223346,0.695852123 16.1830683,0.968372697 16.4505083,1.2356095 L16.5850412,1.36993918 C16.852278,1.63737921 17.1247986,1.89831613 17.3664295,2.1911589 C17.5954606,2.46876002 17.8206304,2.81179859 17.8206304,3.20442331 C17.8206304,3.59684481 17.5954606,3.93968016 17.3664295,4.21728129 C17.1247986,4.51012405 16.852278,4.77106098 16.5850412,5.038501 L5.03858229,16.58496 C4.77134549,16.8524 4.51040856,17.1247173 4.21736257,17.3663482 C3.93976145,17.5953793 3.5969261,17.8205491 3.20430138,17.8205491 C2.81167666,17.8205491 2.46904453,17.5953793 2.19144341,17.3663482 C1.89839742,17.1249206 1.6374605,16.8524 1.37022369,16.58496 L1.23569079,16.4504271 C0.968453986,16.1831902 0.695933412,15.9224565 0.454302568,15.6294106 C0.225271481,15.3518094 0.000101610952,15.0087709 0.000101610952,14.6161461 C0.000101610952,14.2235214 0.225068259,13.8810925 0.454099346,13.6032882 C0.695933412,13.3102422 0.968250764,13.0495085 1.23569079,12.7820685 L12.7821497,1.2356095 Z" id="Fill-58" fill-opacity="0.4" fill="#2B4EEF"></path>
            <path d="M16.5850209,35.6061035 C16.8522577,35.8733403 17.1247783,36.1342772 17.3664091,36.4271199 C17.5954402,36.7047211 17.8208133,37.0477596 17.8206101,37.4401811 C17.8206101,37.8328059 17.5954402,38.1756412 17.3664091,38.4532423 C17.1247783,38.7460851 16.8522577,39.007022 16.5850209,39.2744621 L16.450488,39.408995 C16.1832512,39.6762318 15.9223143,39.9485491 15.6294715,40.1903832 C15.3518704,40.4194143 15.009035,40.6445841 14.6162071,40.6445841 C14.2235824,40.6445841 13.8809503,40.4194143 13.6033491,40.1903832 C13.3103031,39.9487523 13.0495694,39.6762318 12.7821294,39.408995 L1.23567047,27.862536 C0.968433664,27.595096 0.69591309,27.3343623 0.454282245,27.0413163 C0.225251159,26.7637152 8.12887618e-05,26.4208798 8.12887618e-05,26.0280519 C8.12887618e-05,25.6354272 0.225251159,25.2929982 0.454282245,25.0153971 C0.69591309,24.7221479 0.968230442,24.4614142 1.23567047,24.1941774 L1.37020337,24.0596445 C1.63744017,23.7922045 1.89817388,23.5198871 2.19121986,23.2782563 C2.46902421,23.0492252 2.81185956,22.8240553 3.20448428,22.8240553 C3.59690578,22.8240553 3.93974113,23.049022 4.21734225,23.2780531 C4.51018502,23.5196839 4.77112194,23.7922045 5.03856197,24.0596445 L16.5850209,35.6061035 Z" id="Fill-60" fill-opacity="0.4" fill="#2B4EEF"></path>
            <path d="M39.4089746,12.7819465 C39.6762114,13.0491833 39.948732,13.3103235 40.1903629,13.6031662 C40.4193939,13.8807674 40.644767,14.2238059 40.644767,14.6162274 C40.6445638,15.0088522 40.4193939,15.3516875 40.1903629,15.6292886 C39.948732,15.9221314 39.6762114,16.1830683 39.4089746,16.4505083 L39.2744417,16.5850412 C39.0072049,16.852278 38.746268,17.1245954 38.4534252,17.3664295 C38.1758241,17.5954606 37.8329888,17.8206304 37.4401608,17.8206304 C37.0475361,17.8206304 36.704904,17.5954606 36.4273028,17.3664295 C36.1342569,17.1247986 35.8735232,16.852278 35.6060831,16.5850412 L24.0596242,5.03837907 C23.7923874,4.77114226 23.5198668,4.51040856 23.278236,4.21736257 C23.0492049,3.93976145 22.824035,3.5969261 22.824035,3.20409816 C22.824035,2.81147344 23.0492049,2.46884131 23.278236,2.19144341 C23.5198668,1.8981942 23.7921842,1.6374605 24.0596242,1.37002047 L24.1941571,1.23569079 C24.4613939,0.968250764 24.7221276,0.695933412 25.0151736,0.454302568 C25.2929779,0.225271481 25.6358133,-0.000101610952 26.028438,0.000101610952 C26.4208595,0.000101610952 26.7636948,0.225068259 27.041296,0.454099346 C27.3341387,0.69573019 27.5950757,0.968250764 27.8625157,1.23569079 L39.4089746,12.7819465 Z" id="Fill-62" fill="#2B4EEF"></path>
            <path d="M81.2540312,24.0595632 C81.521268,23.7923264 81.7822049,23.5200091 82.0750477,23.278175 C82.352852,23.0491439 82.6956874,22.823974 83.0883121,22.823974 C83.4809368,22.823974 83.823569,23.0489407 84.1011701,23.2779718 C84.3942161,23.5198058 84.655153,23.7923264 84.9223898,24.0595632 L85.0569227,24.1940961 C85.3241595,24.4613329 85.5966801,24.7222698 85.8383109,25.0151126 C86.067342,25.2927137 86.2925119,25.6357523 86.2925119,26.028377 C86.2925119,26.4207985 86.067342,26.7636339 85.8385141,27.041235 C85.5966801,27.3340778 85.3241595,27.5950147 85.0569227,27.8624547 L73.5104637,39.4089137 C73.2432269,39.6763537 72.98229,39.948671 72.6894473,40.1903019 C72.4116429,40.419333 72.0688076,40.6445028 71.6761828,40.6445028 C71.2835581,40.6445028 70.940926,40.419333 70.6633249,40.1903019 C70.3702789,39.9488743 70.109342,39.6763537 69.8421051,39.4089137 L69.7075722,39.2743808 C69.4403354,39.007144 69.1678149,38.7464103 68.926184,38.4533643 C68.6971529,38.1757631 68.4719831,37.8327246 68.4719831,37.4400999 C68.4719831,37.0474751 68.6969497,36.7050462 68.9259808,36.4272419 C69.1678149,36.1341959 69.4403354,35.8734622 69.7075722,35.6060222 L81.2540312,24.0595632 Z" id="Fill-64" fill-opacity="0.4" fill="#2B4EEF"></path>
            <path d="M85.0569024,12.7819465 C85.3241392,13.0491833 85.5966598,13.3103235 85.8382906,13.6031662 C86.0673217,13.8807674 86.2926948,14.2238059 86.2926948,14.6162274 C86.2924916,15.0088522 86.0673217,15.3516875 85.8384938,15.6292886 C85.5966598,15.9221314 85.3241392,16.1830683 85.0569024,16.4505083 L84.9223695,16.5850412 C84.6551327,16.852278 84.3941957,17.1245954 84.101353,17.3664295 C83.8237519,17.5954606 83.4809165,17.8206304 83.0880886,17.8206304 C82.6954638,17.8206304 82.3528317,17.5954606 82.0752306,17.3664295 C81.7823878,17.1247986 81.5214509,16.852278 81.2540109,16.5850412 L69.7075519,5.03837907 C69.4403151,4.77114226 69.1677945,4.51040856 68.9261637,4.21736257 C68.6971326,3.93976145 68.4719627,3.5969261 68.4719627,3.20409816 C68.4719627,2.81147344 68.6971326,2.46884131 68.9261637,2.19144341 C69.1677945,1.8981942 69.4403151,1.6374605 69.7075519,1.37002047 L69.8420848,1.23569079 C70.1093216,0.968250764 70.3700553,0.695933412 70.6631013,0.454302568 C70.9409057,0.225271481 71.283741,-0.000101610952 71.6763657,0.000101610952 C72.0689905,0.000101610952 72.4116226,0.225068259 72.6892237,0.454099346 C72.9820665,0.69573019 73.2432066,0.968250764 73.5104434,1.23569079 L85.0569024,12.7819465 Z" id="Fill-66" fill-opacity="0.4" fill="#2B4EEF"></path>
        </g>
        <g id="Group-68" transform="translate(562.283960, 109.180057)" fill="#FFFFFF">
            <path d="M188.492498,31.7271543 L193.328188,20.0126022 C193.459063,19.6953728 193.817344,19.5388919 194.139044,19.65798 L196.894123,20.6783572 C197.056294,20.7383076 197.187169,20.8618665 197.256671,21.0201764 C197.326173,21.1784863 197.328205,21.3585409 197.262564,21.5184765 L193.223638,31.3550665 L204.443573,30.4726572 C204.620783,30.4586349 204.795757,30.519195 204.926428,30.640112 C205.056897,30.7608258 205.131073,30.9305161 205.131073,31.1083353 L205.131073,33.7796872 C205.131073,34.1123615 204.875216,34.3891497 204.543355,34.4153653 L186.285086,35.8513313 C186.107877,35.8653536 185.932699,35.8045903 185.802231,35.6838765 C185.671762,35.5631627 185.597383,35.3934724 185.597383,35.2156532 L185.597383,32.5443013 C185.597383,32.2114238 185.85324,31.9346356 186.185101,31.9086232 L188.492498,31.7271543 Z M116.876941,8.98265205 L132.846504,8.98265205 C133.198688,8.98265205 133.484215,9.2679756 133.484215,9.62036238 L133.484215,12.002936 C133.484215,12.3551196 133.198688,12.6406463 132.846504,12.6406463 L116.876941,12.6406463 L116.876941,27.0601753 C116.876941,28.0183666 116.267275,28.870476 115.360296,29.1793733 L97.6814129,35.203277 C97.5525702,35.2471729 97.4107213,35.2262411 97.2999654,35.1469845 C97.1894127,35.0679312 97.123772,34.9403079 97.123772,34.8041492 L97.123772,31.8200387 C97.123772,31.5499568 97.2940719,31.3093421 97.5485058,31.2189083 L111.769975,26.1792083 C112.024612,26.089181 112.194708,25.8485663 112.194708,25.5782812 L112.194708,12.6406463 L96.1519445,12.6406463 C95.799761,12.6406463 95.5142342,12.3551196 95.5142342,12.002936 L95.5142342,9.62036238 C95.5142342,9.2679756 95.799761,8.98265205 96.1519445,8.98265205 L112.194708,8.98265205 L112.194708,5.69041655 L101.858436,5.69041655 C101.506252,5.69041655 101.220726,5.405093 101.220726,5.05270621 L101.220726,2.6701326 C101.220726,2.31774582 101.506252,2.03242227 101.858436,2.03242227 L127.140257,2.03242227 C127.492441,2.03242227 127.777764,2.31774582 127.777764,2.6701326 L127.777764,5.05270621 C127.777764,5.405093 127.492441,5.69041655 127.140257,5.69041655 L116.876941,5.69041655 L116.876941,8.98265205 Z M109.048813,16.5705922 L109.048813,23.928038 L109.048813,24.0011979 C109.048813,24.3533814 108.763489,24.6389082 108.411306,24.6389082 L99.0051801,24.6389082 C98.6529965,24.6389082 98.3674697,24.3533814 98.3674697,24.0011979 L98.3674697,22.0575836 C98.3674697,21.7051968 98.6529965,21.4198733 99.0051801,21.4198733 L105.463979,21.4198733 L105.463979,18.859196 L101.126817,18.859196 C100.774633,18.859196 100.489106,18.5738724 100.489106,18.2214856 L100.489106,16.2778713 C100.489106,15.9256878 100.774633,15.640161 101.126817,15.640161 L108.411306,15.640161 C108.763489,15.640161 109.048813,15.9256878 109.048813,16.2778713 L109.048813,16.5705922 Z M123.534511,18.859135 L123.534511,21.4198123 L129.993492,21.4198123 C130.345473,21.4198123 130.631,21.7053391 130.631,22.0575226 L130.631,24.0011369 C130.631,24.3533205 130.345473,24.6388473 129.993492,24.6388473 L120.587367,24.6388473 C120.235183,24.6388473 119.949656,24.3533205 119.949656,24.0011369 L119.949656,22.0575226 C119.949656,22.0558061 119.949663,22.0540912 119.949677,22.0523779 L119.949677,16.5705312 L119.949677,16.2778104 C119.949677,15.92583 120.235203,15.6401 120.587387,15.6401 L127.871673,15.6401 C128.223856,15.6401 128.509383,15.92583 128.509383,16.2778104 L128.509383,18.2214247 C128.509383,18.5738114 128.223856,18.859135 127.871673,18.859135 L123.534511,18.859135 Z M165.766868,11.1041668 L165.766868,16.1523818 L175.371603,16.1523818 C175.723786,16.1523818 176.009313,16.4377054 176.009313,16.7898889 L176.009313,19.1726658 C176.009313,19.5248493 175.723786,19.8103761 175.371603,19.8103761 L151.699502,19.8103761 C151.347319,19.8103761 151.061792,19.5248493 151.061792,19.1726658 L151.061792,16.7898889 C151.061792,16.4377054 151.347319,16.1523818 151.699502,16.1523818 L161.377275,16.1523818 L161.377275,11.1041668 L153.382139,11.1041668 C153.029955,11.1041668 152.744429,10.8188432 152.744429,10.4664565 L152.744429,8.08388285 C152.744429,7.73169929 153.029955,7.44617252 153.382139,7.44617252 L161.377275,7.44617252 L161.377275,2.6701326 C161.377275,2.31774582 161.662802,2.03242227 162.014985,2.03242227 L165.129361,2.03242227 C165.481544,2.03242227 165.766868,2.31774582 165.766868,2.6701326 L165.766868,7.44617252 L173.689088,7.44617252 C174.041271,7.44617252 174.326798,7.73169929 174.326798,8.08388285 L174.326798,10.4664565 C174.326798,10.8188432 174.041271,11.1041668 173.689088,11.1041668 L165.766868,11.1041668 Z M154.311558,31.7425795 L158.285375,21.7068632 C158.412999,21.3847565 158.774734,21.2233983 159.099686,21.3437057 L161.857,22.3648958 C162.017546,22.4242365 162.147201,22.5457632 162.217313,22.7016344 C162.287424,22.8579121 162.291692,23.035528 162.229506,23.194854 L159.037557,31.3661815 L167.492852,30.6927668 C167.670468,30.6785413 167.845442,30.7393046 167.976114,30.8600185 C168.106785,30.9807323 168.181164,31.1504226 168.181164,31.3282417 L168.181164,33.9997969 C168.181164,34.3322679 167.925715,34.6088529 167.59426,34.6352718 L152.335343,35.8505388 C152.15793,35.8647643 151.982753,35.8042042 151.852081,35.6834904 C151.72141,35.5625733 151.64703,35.392883 151.64703,35.2148606 L151.64703,32.5437119 C151.64703,32.2110377 151.902683,31.9344527 152.234138,31.9080338 L154.311558,31.7425795 Z M187.186131,3.86141941 L210.419476,3.86141941 C210.771659,3.86141941 211.056983,4.14674296 211.056983,4.49912975 L211.056983,6.88170335 C211.056983,7.23409014 210.771659,7.51941369 210.419476,7.51941369 L187.186131,7.51941369 C186.833948,7.51941369 186.548421,7.23409014 186.548421,6.88170335 L186.548421,4.49912975 C186.548421,4.14674296 186.833948,3.86141941 187.186131,3.86141941 Z M142.336602,3.81002459 L148.869373,8.94747434 C149.003906,9.05335295 149.090072,9.20841126 149.108972,9.37830477 C149.127871,9.54819829 149.077675,9.71870146 148.969765,9.85140537 L147.214334,12.0079962 C146.994651,12.2778749 146.599181,12.3217708 146.325644,12.1067621 L139.79267,6.9691091 C139.65834,6.8634337 139.571971,6.70837539 139.553274,6.53848188 C139.534375,6.36838515 139.584571,6.19808519 139.692481,6.06558451 L141.447912,3.90858721 C141.667595,3.63891175 142.063065,3.59481259 142.336602,3.81002459 Z M141.164702,37.413681 L139.061965,35.6113059 C138.929058,35.4975017 138.848785,35.3341113 138.840047,35.1593404 C138.831308,34.9845696 138.894714,34.8138632 139.015427,34.6872559 L145.563237,27.8183556 C145.681715,27.694187 145.845309,27.6228561 146.017032,27.6208239 C146.188754,27.6187917 146.354177,27.6860581 146.4755,27.8073816 L148.42704,29.7591247 C148.671719,30.0038039 148.676597,30.3988673 148.438217,30.6496431 L142.041401,37.3691754 C141.807696,37.6148707 141.422388,37.6345832 141.164702,37.413681 Z M171.372419,25.47161 L176.307053,35.5380038 C176.382652,35.6924524 176.392813,35.8706781 176.335098,36.0326459 C176.277586,36.1946138 176.156872,36.3263016 176.000798,36.3980389 L173.504826,37.5462427 C173.189223,37.6915463 172.815498,37.5574199 172.664301,37.2448646 L167.742469,27.0729986 C167.666261,26.9155016 167.658132,26.733618 167.719912,26.5698211 C167.781894,26.4064307 167.908298,26.2751494 168.069657,26.2074765 L170.553028,25.1643385 C170.864364,25.0336668 171.223864,25.1684029 171.372419,25.47161 Z M142.337089,14.7159281 L148.142936,19.3355684 C148.276453,19.4418535 148.361603,19.5967086 148.379893,19.7661956 C148.398386,19.9354795 148.34819,20.1051698 148.240482,20.2370608 L146.485052,22.3938549 C146.264556,22.6647497 145.866851,22.7078327 145.593517,22.4903853 L139.787671,17.8705417 C139.654357,17.7644599 139.569004,17.6096048 139.550714,17.4401177 C139.532424,17.2708339 139.58262,17.1011436 139.690124,16.9690494 L141.445555,14.8124585 C141.666254,14.5413605 142.063756,14.4984807 142.337089,14.7159281 Z M120.764515,26.6274346 L131.487519,31.2041951 C131.72224,31.3045867 131.874657,31.5352436 131.874657,31.7906935 L131.874657,34.7270468 C131.874657,34.8753988 131.800481,35.0137929 131.677125,35.0956913 C131.553566,35.1775897 131.397288,35.1924249 131.260723,35.1349131 L120.266825,30.5095826 C120.030274,30.4100039 119.876435,30.1785341 119.876435,29.9218649 L119.876435,27.213933 C119.876435,26.9995339 119.984143,26.7997667 120.162775,26.681898 C120.341407,26.5638261 120.567593,26.5433007 120.764515,26.6274346 Z M112.832419,31.8083941 L116.239434,31.8083941 C116.591618,31.8083941 116.876941,32.0939209 116.876941,32.4461044 L116.876941,37.9747564 C116.876941,38.3269399 116.591618,38.6122635 116.239434,38.6122635 L112.832419,38.6122635 C112.480235,38.6122635 112.194708,38.3269399 112.194708,37.9747564 L112.194708,32.4461044 C112.194708,32.0939209 112.480235,31.8083941 112.832419,31.8083941 Z M183.308637,14.2501435 L214.296929,14.2501435 C214.649113,14.2501435 214.93464,14.535467 214.93464,14.8878538 L214.93464,17.2704274 C214.93464,17.622611 214.649113,17.9081378 214.296929,17.9081378 L183.308637,17.9081378 C182.956454,17.9081378 182.670927,17.622611 182.670927,17.2704274 L182.670927,14.8878538 C182.670927,14.535467 182.956454,14.2501435 183.308637,14.2501435 Z M207.955349,24.5239659 L213.26066,35.4662461 C213.335446,35.6204916 213.344997,35.7983107 213.287079,35.9594657 C213.229364,36.1208239 213.109057,36.2521052 212.953389,36.3236394 L210.456808,37.4720463 C210.140391,37.6177564 209.765853,37.4824107 209.615266,37.1684328 L204.322961,26.1206804 C204.247566,25.9633867 204.240046,25.7819095 204.302029,25.6187223 C204.364215,25.4555351 204.490212,25.3248634 204.651164,25.2573938 L207.134536,24.2144589 C207.447091,24.0831776 207.807404,24.2191331 207.955349,24.5239659 Z" id="Combined-Shape"></path>
            <path d="M58.4300775,1.2356095 C58.6973143,0.968372697 58.9582512,0.696055345 59.251094,0.454221279 C59.5288983,0.225190192 59.8717337,-0.000182899714 60.2643584,2.03221904e-05 C60.6569831,2.03221904e-05 60.9996152,0.224986971 61.2772164,0.454018057 C61.5702624,0.695852123 61.8311993,0.968372697 62.0984361,1.2356095 L62.232969,1.36993918 C62.5002058,1.63737921 62.7727264,1.89831613 63.0143572,2.1911589 C63.2433883,2.46876002 63.4685582,2.81179859 63.4685582,3.20442331 C63.4685582,3.59684481 63.2433883,3.93968016 63.0145604,4.21728129 C62.7727264,4.51012405 62.5002058,4.77106098 62.232969,5.038501 L50.68651,16.58496 C50.4192732,16.8524 50.1583363,17.1247173 49.8654935,17.3663482 C49.5876892,17.5953793 49.2448538,17.8205491 48.8522291,17.8205491 C48.4596044,17.8205491 48.1169723,17.5953793 47.8393712,17.3663482 C47.5463252,17.1249206 47.2853882,16.8524 47.0181514,16.58496 L46.8836185,16.4504271 C46.6163817,16.1831902 46.3438612,15.9224565 46.1022303,15.6294106 C45.8731992,15.3518094 45.6480294,15.0087709 45.6480294,14.6161461 C45.6480294,14.2235214 45.872996,13.8808893 46.1020271,13.6032882 C46.3438612,13.3102422 46.6161785,13.0495085 46.8836185,12.7820685 L58.4300775,1.2356095 Z" id="Fill-52"></path>
            <path d="M35.6061035,24.0595632 C35.8733403,23.7923264 36.1342772,23.5200091 36.4271199,23.278175 C36.7049243,23.0491439 37.0477596,22.823974 37.4403844,22.823974 C37.8330091,22.823974 38.1756412,23.0489407 38.4532423,23.2779718 C38.7462883,23.5198058 39.0072252,23.7923264 39.2744621,24.0595632 L39.408995,24.1940961 C39.6762318,24.4613329 39.9487523,24.7222698 40.1903832,25.0151126 C40.4194143,25.2927137 40.6445841,25.6357523 40.6445841,26.028377 C40.6445841,26.4207985 40.4194143,26.7636339 40.1903832,27.041235 C39.9487523,27.3340778 39.6762318,27.5950147 39.408995,27.8624547 L27.862536,39.4089137 C27.5952992,39.6763537 27.3343623,39.948671 27.0413163,40.1903019 C26.7637152,40.419333 26.4208798,40.6445028 26.0282551,40.6445028 C25.6356304,40.6445028 25.2929982,40.419333 25.0153971,40.1903019 C24.7223511,39.9488743 24.4614142,39.6763537 24.1941774,39.4089137 L24.0596445,39.2743808 C23.7924077,39.007144 23.5198871,38.7464103 23.2782563,38.4533643 C23.0492252,38.1757631 22.8240553,37.8327246 22.8240553,37.4400999 C22.8240553,37.0474751 23.049022,36.7050462 23.2780531,36.4272419 C23.5198871,36.1341959 23.7922045,35.8734622 24.0596445,35.6060222 L35.6061035,24.0595632 Z" id="Fill-54"></path>
            <path d="M62.2329283,35.6061035 C62.5001651,35.8733403 62.7726857,36.1342772 63.0143166,36.4271199 C63.2433477,36.7047211 63.4687207,37.0477596 63.4687207,37.4401811 C63.4685175,37.8328059 63.2433477,38.1756412 63.0145198,38.4532423 C62.7726857,38.7460851 62.5001651,39.007022 62.2329283,39.2744621 L62.0983954,39.408995 C61.8311586,39.6762318 61.5702217,39.9485491 61.2773789,40.1903832 C60.9997778,40.4194143 60.6569425,40.6445841 60.2641145,40.6445841 C59.8714898,40.6445841 59.5288577,40.4194143 59.2512566,40.1903832 C58.9584138,39.9487523 58.6974769,39.6762318 58.4300368,39.408995 L46.8835779,27.862536 C46.6163411,27.595096 46.3438205,27.3343623 46.1021897,27.0413163 C45.8731586,26.7637152 45.6479887,26.4208798 45.6479887,26.0280519 C45.6479887,25.6354272 45.8731586,25.2929982 46.1021897,25.0153971 C46.3438205,24.7221479 46.6161379,24.4614142 46.8835779,24.1941774 L47.0181108,24.0596445 C47.2853476,23.7922045 47.5460813,23.5198871 47.8391273,23.2782563 C48.1169316,23.0492252 48.459767,22.8240553 48.8523917,22.8240553 C49.2450164,22.8240553 49.5876486,23.049022 49.8652497,23.2780531 C50.1580924,23.5196839 50.4192326,23.7922045 50.6864694,24.0596445 L62.2329283,35.6061035 Z" id="Fill-56"></path>
            <path d="M12.7821497,1.2356095 C13.0493865,0.968372697 13.3103235,0.696055345 13.6031662,0.454221279 C13.8809706,0.225190192 14.2238059,-0.000182899714 14.6164307,2.03221904e-05 C15.0090554,2.03221904e-05 15.3516875,0.224986971 15.6292886,0.454018057 C15.9223346,0.695852123 16.1830683,0.968372697 16.4505083,1.2356095 L16.5850412,1.36993918 C16.852278,1.63737921 17.1247986,1.89831613 17.3664295,2.1911589 C17.5954606,2.46876002 17.8206304,2.81179859 17.8206304,3.20442331 C17.8206304,3.59684481 17.5954606,3.93968016 17.3664295,4.21728129 C17.1247986,4.51012405 16.852278,4.77106098 16.5850412,5.038501 L5.03858229,16.58496 C4.77134549,16.8524 4.51040856,17.1247173 4.21736257,17.3663482 C3.93976145,17.5953793 3.5969261,17.8205491 3.20430138,17.8205491 C2.81167666,17.8205491 2.46904453,17.5953793 2.19144341,17.3663482 C1.89839742,17.1249206 1.6374605,16.8524 1.37022369,16.58496 L1.23569079,16.4504271 C0.968453986,16.1831902 0.695933412,15.9224565 0.454302568,15.6294106 C0.225271481,15.3518094 0.000101610952,15.0087709 0.000101610952,14.6161461 C0.000101610952,14.2235214 0.225068259,13.8810925 0.454099346,13.6032882 C0.695933412,13.3102422 0.968250764,13.0495085 1.23569079,12.7820685 L12.7821497,1.2356095 Z" id="Fill-58" fill-opacity="0.4"></path>
            <path d="M16.5850209,35.6061035 C16.8522577,35.8733403 17.1247783,36.1342772 17.3664091,36.4271199 C17.5954402,36.7047211 17.8208133,37.0477596 17.8206101,37.4401811 C17.8206101,37.8328059 17.5954402,38.1756412 17.3664091,38.4532423 C17.1247783,38.7460851 16.8522577,39.007022 16.5850209,39.2744621 L16.450488,39.408995 C16.1832512,39.6762318 15.9223143,39.9485491 15.6294715,40.1903832 C15.3518704,40.4194143 15.009035,40.6445841 14.6162071,40.6445841 C14.2235824,40.6445841 13.8809503,40.4194143 13.6033491,40.1903832 C13.3103031,39.9487523 13.0495694,39.6762318 12.7821294,39.408995 L1.23567047,27.862536 C0.968433664,27.595096 0.69591309,27.3343623 0.454282245,27.0413163 C0.225251159,26.7637152 8.12887618e-05,26.4208798 8.12887618e-05,26.0280519 C8.12887618e-05,25.6354272 0.225251159,25.2929982 0.454282245,25.0153971 C0.69591309,24.7221479 0.968230442,24.4614142 1.23567047,24.1941774 L1.37020337,24.0596445 C1.63744017,23.7922045 1.89817388,23.5198871 2.19121986,23.2782563 C2.46902421,23.0492252 2.81185956,22.8240553 3.20448428,22.8240553 C3.59690578,22.8240553 3.93974113,23.049022 4.21734225,23.2780531 C4.51018502,23.5196839 4.77112194,23.7922045 5.03856197,24.0596445 L16.5850209,35.6061035 Z" id="Fill-60" fill-opacity="0.4"></path>
            <path d="M39.4089746,12.7819465 C39.6762114,13.0491833 39.948732,13.3103235 40.1903629,13.6031662 C40.4193939,13.8807674 40.644767,14.2238059 40.644767,14.6162274 C40.6445638,15.0088522 40.4193939,15.3516875 40.1903629,15.6292886 C39.948732,15.9221314 39.6762114,16.1830683 39.4089746,16.4505083 L39.2744417,16.5850412 C39.0072049,16.852278 38.746268,17.1245954 38.4534252,17.3664295 C38.1758241,17.5954606 37.8329888,17.8206304 37.4401608,17.8206304 C37.0475361,17.8206304 36.704904,17.5954606 36.4273028,17.3664295 C36.1342569,17.1247986 35.8735232,16.852278 35.6060831,16.5850412 L24.0596242,5.03837907 C23.7923874,4.77114226 23.5198668,4.51040856 23.278236,4.21736257 C23.0492049,3.93976145 22.824035,3.5969261 22.824035,3.20409816 C22.824035,2.81147344 23.0492049,2.46884131 23.278236,2.19144341 C23.5198668,1.8981942 23.7921842,1.6374605 24.0596242,1.37002047 L24.1941571,1.23569079 C24.4613939,0.968250764 24.7221276,0.695933412 25.0151736,0.454302568 C25.2929779,0.225271481 25.6358133,-0.000101610952 26.028438,0.000101610952 C26.4208595,0.000101610952 26.7636948,0.225068259 27.041296,0.454099346 C27.3341387,0.69573019 27.5950757,0.968250764 27.8625157,1.23569079 L39.4089746,12.7819465 Z" id="Fill-62"></path>
            <path d="M81.2540312,24.0595632 C81.521268,23.7923264 81.7822049,23.5200091 82.0750477,23.278175 C82.352852,23.0491439 82.6956874,22.823974 83.0883121,22.823974 C83.4809368,22.823974 83.823569,23.0489407 84.1011701,23.2779718 C84.3942161,23.5198058 84.655153,23.7923264 84.9223898,24.0595632 L85.0569227,24.1940961 C85.3241595,24.4613329 85.5966801,24.7222698 85.8383109,25.0151126 C86.067342,25.2927137 86.2925119,25.6357523 86.2925119,26.028377 C86.2925119,26.4207985 86.067342,26.7636339 85.8385141,27.041235 C85.5966801,27.3340778 85.3241595,27.5950147 85.0569227,27.8624547 L73.5104637,39.4089137 C73.2432269,39.6763537 72.98229,39.948671 72.6894473,40.1903019 C72.4116429,40.419333 72.0688076,40.6445028 71.6761828,40.6445028 C71.2835581,40.6445028 70.940926,40.419333 70.6633249,40.1903019 C70.3702789,39.9488743 70.109342,39.6763537 69.8421051,39.4089137 L69.7075722,39.2743808 C69.4403354,39.007144 69.1678149,38.7464103 68.926184,38.4533643 C68.6971529,38.1757631 68.4719831,37.8327246 68.4719831,37.4400999 C68.4719831,37.0474751 68.6969497,36.7050462 68.9259808,36.4272419 C69.1678149,36.1341959 69.4403354,35.8734622 69.7075722,35.6060222 L81.2540312,24.0595632 Z" id="Fill-64" fill-opacity="0.4"></path>
            <path d="M85.0569024,12.7819465 C85.3241392,13.0491833 85.5966598,13.3103235 85.8382906,13.6031662 C86.0673217,13.8807674 86.2926948,14.2238059 86.2926948,14.6162274 C86.2924916,15.0088522 86.0673217,15.3516875 85.8384938,15.6292886 C85.5966598,15.9221314 85.3241392,16.1830683 85.0569024,16.4505083 L84.9223695,16.5850412 C84.6551327,16.852278 84.3941957,17.1245954 84.101353,17.3664295 C83.8237519,17.5954606 83.4809165,17.8206304 83.0880886,17.8206304 C82.6954638,17.8206304 82.3528317,17.5954606 82.0752306,17.3664295 C81.7823878,17.1247986 81.5214509,16.852278 81.2540109,16.5850412 L69.7075519,5.03837907 C69.4403151,4.77114226 69.1677945,4.51040856 68.9261637,4.21736257 C68.6971326,3.93976145 68.4719627,3.5969261 68.4719627,3.20409816 C68.4719627,2.81147344 68.6971326,2.46884131 68.9261637,2.19144341 C69.1677945,1.8981942 69.4403151,1.6374605 69.7075519,1.37002047 L69.8420848,1.23569079 C70.1093216,0.968250764 70.3700553,0.695933412 70.6631013,0.454302568 C70.9409057,0.225271481 71.283741,-0.000101610952 71.6763657,0.000101610952 C72.0689905,0.000101610952 72.4116226,0.225068259 72.6892237,0.454099346 C72.9820665,0.69573019 73.2432066,0.968250764 73.5104434,1.23569079 L85.0569024,12.7819465 Z" id="Fill-66" fill-opacity="0.4"></path>
        </g>
        <g id="Group-68" transform="translate(562.283960, 368.566775)" fill="#FFFFFF">
            <path d="M188.492498,31.7271543 L193.328188,20.0126022 C193.459063,19.6953728 193.817344,19.5388919 194.139044,19.65798 L196.894123,20.6783572 C197.056294,20.7383076 197.187169,20.8618665 197.256671,21.0201764 C197.326173,21.1784863 197.328205,21.3585409 197.262564,21.5184765 L193.223638,31.3550665 L204.443573,30.4726572 C204.620783,30.4586349 204.795757,30.519195 204.926428,30.640112 C205.056897,30.7608258 205.131073,30.9305161 205.131073,31.1083353 L205.131073,33.7796872 C205.131073,34.1123615 204.875216,34.3891497 204.543355,34.4153653 L186.285086,35.8513313 C186.107877,35.8653536 185.932699,35.8045903 185.802231,35.6838765 C185.671762,35.5631627 185.597383,35.3934724 185.597383,35.2156532 L185.597383,32.5443013 C185.597383,32.2114238 185.85324,31.9346356 186.185101,31.9086232 L188.492498,31.7271543 Z M116.876941,8.98265205 L132.846504,8.98265205 C133.198688,8.98265205 133.484215,9.2679756 133.484215,9.62036238 L133.484215,12.002936 C133.484215,12.3551196 133.198688,12.6406463 132.846504,12.6406463 L116.876941,12.6406463 L116.876941,27.0601753 C116.876941,28.0183666 116.267275,28.870476 115.360296,29.1793733 L97.6814129,35.203277 C97.5525702,35.2471729 97.4107213,35.2262411 97.2999654,35.1469845 C97.1894127,35.0679312 97.123772,34.9403079 97.123772,34.8041492 L97.123772,31.8200387 C97.123772,31.5499568 97.2940719,31.3093421 97.5485058,31.2189083 L111.769975,26.1792083 C112.024612,26.089181 112.194708,25.8485663 112.194708,25.5782812 L112.194708,12.6406463 L96.1519445,12.6406463 C95.799761,12.6406463 95.5142342,12.3551196 95.5142342,12.002936 L95.5142342,9.62036238 C95.5142342,9.2679756 95.799761,8.98265205 96.1519445,8.98265205 L112.194708,8.98265205 L112.194708,5.69041655 L101.858436,5.69041655 C101.506252,5.69041655 101.220726,5.405093 101.220726,5.05270621 L101.220726,2.6701326 C101.220726,2.31774582 101.506252,2.03242227 101.858436,2.03242227 L127.140257,2.03242227 C127.492441,2.03242227 127.777764,2.31774582 127.777764,2.6701326 L127.777764,5.05270621 C127.777764,5.405093 127.492441,5.69041655 127.140257,5.69041655 L116.876941,5.69041655 L116.876941,8.98265205 Z M109.048813,16.5705922 L109.048813,23.928038 L109.048813,24.0011979 C109.048813,24.3533814 108.763489,24.6389082 108.411306,24.6389082 L99.0051801,24.6389082 C98.6529965,24.6389082 98.3674697,24.3533814 98.3674697,24.0011979 L98.3674697,22.0575836 C98.3674697,21.7051968 98.6529965,21.4198733 99.0051801,21.4198733 L105.463979,21.4198733 L105.463979,18.859196 L101.126817,18.859196 C100.774633,18.859196 100.489106,18.5738724 100.489106,18.2214856 L100.489106,16.2778713 C100.489106,15.9256878 100.774633,15.640161 101.126817,15.640161 L108.411306,15.640161 C108.763489,15.640161 109.048813,15.9256878 109.048813,16.2778713 L109.048813,16.5705922 Z M123.534511,18.859135 L123.534511,21.4198123 L129.993492,21.4198123 C130.345473,21.4198123 130.631,21.7053391 130.631,22.0575226 L130.631,24.0011369 C130.631,24.3533205 130.345473,24.6388473 129.993492,24.6388473 L120.587367,24.6388473 C120.235183,24.6388473 119.949656,24.3533205 119.949656,24.0011369 L119.949656,22.0575226 C119.949656,22.0558061 119.949663,22.0540912 119.949677,22.0523779 L119.949677,16.5705312 L119.949677,16.2778104 C119.949677,15.92583 120.235203,15.6401 120.587387,15.6401 L127.871673,15.6401 C128.223856,15.6401 128.509383,15.92583 128.509383,16.2778104 L128.509383,18.2214247 C128.509383,18.5738114 128.223856,18.859135 127.871673,18.859135 L123.534511,18.859135 Z M165.766868,11.1041668 L165.766868,16.1523818 L175.371603,16.1523818 C175.723786,16.1523818 176.009313,16.4377054 176.009313,16.7898889 L176.009313,19.1726658 C176.009313,19.5248493 175.723786,19.8103761 175.371603,19.8103761 L151.699502,19.8103761 C151.347319,19.8103761 151.061792,19.5248493 151.061792,19.1726658 L151.061792,16.7898889 C151.061792,16.4377054 151.347319,16.1523818 151.699502,16.1523818 L161.377275,16.1523818 L161.377275,11.1041668 L153.382139,11.1041668 C153.029955,11.1041668 152.744429,10.8188432 152.744429,10.4664565 L152.744429,8.08388285 C152.744429,7.73169929 153.029955,7.44617252 153.382139,7.44617252 L161.377275,7.44617252 L161.377275,2.6701326 C161.377275,2.31774582 161.662802,2.03242227 162.014985,2.03242227 L165.129361,2.03242227 C165.481544,2.03242227 165.766868,2.31774582 165.766868,2.6701326 L165.766868,7.44617252 L173.689088,7.44617252 C174.041271,7.44617252 174.326798,7.73169929 174.326798,8.08388285 L174.326798,10.4664565 C174.326798,10.8188432 174.041271,11.1041668 173.689088,11.1041668 L165.766868,11.1041668 Z M154.311558,31.7425795 L158.285375,21.7068632 C158.412999,21.3847565 158.774734,21.2233983 159.099686,21.3437057 L161.857,22.3648958 C162.017546,22.4242365 162.147201,22.5457632 162.217313,22.7016344 C162.287424,22.8579121 162.291692,23.035528 162.229506,23.194854 L159.037557,31.3661815 L167.492852,30.6927668 C167.670468,30.6785413 167.845442,30.7393046 167.976114,30.8600185 C168.106785,30.9807323 168.181164,31.1504226 168.181164,31.3282417 L168.181164,33.9997969 C168.181164,34.3322679 167.925715,34.6088529 167.59426,34.6352718 L152.335343,35.8505388 C152.15793,35.8647643 151.982753,35.8042042 151.852081,35.6834904 C151.72141,35.5625733 151.64703,35.392883 151.64703,35.2148606 L151.64703,32.5437119 C151.64703,32.2110377 151.902683,31.9344527 152.234138,31.9080338 L154.311558,31.7425795 Z M187.186131,3.86141941 L210.419476,3.86141941 C210.771659,3.86141941 211.056983,4.14674296 211.056983,4.49912975 L211.056983,6.88170335 C211.056983,7.23409014 210.771659,7.51941369 210.419476,7.51941369 L187.186131,7.51941369 C186.833948,7.51941369 186.548421,7.23409014 186.548421,6.88170335 L186.548421,4.49912975 C186.548421,4.14674296 186.833948,3.86141941 187.186131,3.86141941 Z M142.336602,3.81002459 L148.869373,8.94747434 C149.003906,9.05335295 149.090072,9.20841126 149.108972,9.37830477 C149.127871,9.54819829 149.077675,9.71870146 148.969765,9.85140537 L147.214334,12.0079962 C146.994651,12.2778749 146.599181,12.3217708 146.325644,12.1067621 L139.79267,6.9691091 C139.65834,6.8634337 139.571971,6.70837539 139.553274,6.53848188 C139.534375,6.36838515 139.584571,6.19808519 139.692481,6.06558451 L141.447912,3.90858721 C141.667595,3.63891175 142.063065,3.59481259 142.336602,3.81002459 Z M141.164702,37.413681 L139.061965,35.6113059 C138.929058,35.4975017 138.848785,35.3341113 138.840047,35.1593404 C138.831308,34.9845696 138.894714,34.8138632 139.015427,34.6872559 L145.563237,27.8183556 C145.681715,27.694187 145.845309,27.6228561 146.017032,27.6208239 C146.188754,27.6187917 146.354177,27.6860581 146.4755,27.8073816 L148.42704,29.7591247 C148.671719,30.0038039 148.676597,30.3988673 148.438217,30.6496431 L142.041401,37.3691754 C141.807696,37.6148707 141.422388,37.6345832 141.164702,37.413681 Z M171.372419,25.47161 L176.307053,35.5380038 C176.382652,35.6924524 176.392813,35.8706781 176.335098,36.0326459 C176.277586,36.1946138 176.156872,36.3263016 176.000798,36.3980389 L173.504826,37.5462427 C173.189223,37.6915463 172.815498,37.5574199 172.664301,37.2448646 L167.742469,27.0729986 C167.666261,26.9155016 167.658132,26.733618 167.719912,26.5698211 C167.781894,26.4064307 167.908298,26.2751494 168.069657,26.2074765 L170.553028,25.1643385 C170.864364,25.0336668 171.223864,25.1684029 171.372419,25.47161 Z M142.337089,14.7159281 L148.142936,19.3355684 C148.276453,19.4418535 148.361603,19.5967086 148.379893,19.7661956 C148.398386,19.9354795 148.34819,20.1051698 148.240482,20.2370608 L146.485052,22.3938549 C146.264556,22.6647497 145.866851,22.7078327 145.593517,22.4903853 L139.787671,17.8705417 C139.654357,17.7644599 139.569004,17.6096048 139.550714,17.4401177 C139.532424,17.2708339 139.58262,17.1011436 139.690124,16.9690494 L141.445555,14.8124585 C141.666254,14.5413605 142.063756,14.4984807 142.337089,14.7159281 Z M120.764515,26.6274346 L131.487519,31.2041951 C131.72224,31.3045867 131.874657,31.5352436 131.874657,31.7906935 L131.874657,34.7270468 C131.874657,34.8753988 131.800481,35.0137929 131.677125,35.0956913 C131.553566,35.1775897 131.397288,35.1924249 131.260723,35.1349131 L120.266825,30.5095826 C120.030274,30.4100039 119.876435,30.1785341 119.876435,29.9218649 L119.876435,27.213933 C119.876435,26.9995339 119.984143,26.7997667 120.162775,26.681898 C120.341407,26.5638261 120.567593,26.5433007 120.764515,26.6274346 Z M112.832419,31.8083941 L116.239434,31.8083941 C116.591618,31.8083941 116.876941,32.0939209 116.876941,32.4461044 L116.876941,37.9747564 C116.876941,38.3269399 116.591618,38.6122635 116.239434,38.6122635 L112.832419,38.6122635 C112.480235,38.6122635 112.194708,38.3269399 112.194708,37.9747564 L112.194708,32.4461044 C112.194708,32.0939209 112.480235,31.8083941 112.832419,31.8083941 Z M183.308637,14.2501435 L214.296929,14.2501435 C214.649113,14.2501435 214.93464,14.535467 214.93464,14.8878538 L214.93464,17.2704274 C214.93464,17.622611 214.649113,17.9081378 214.296929,17.9081378 L183.308637,17.9081378 C182.956454,17.9081378 182.670927,17.622611 182.670927,17.2704274 L182.670927,14.8878538 C182.670927,14.535467 182.956454,14.2501435 183.308637,14.2501435 Z M207.955349,24.5239659 L213.26066,35.4662461 C213.335446,35.6204916 213.344997,35.7983107 213.287079,35.9594657 C213.229364,36.1208239 213.109057,36.2521052 212.953389,36.3236394 L210.456808,37.4720463 C210.140391,37.6177564 209.765853,37.4824107 209.615266,37.1684328 L204.322961,26.1206804 C204.247566,25.9633867 204.240046,25.7819095 204.302029,25.6187223 C204.364215,25.4555351 204.490212,25.3248634 204.651164,25.2573938 L207.134536,24.2144589 C207.447091,24.0831776 207.807404,24.2191331 207.955349,24.5239659 Z" id="Combined-Shape"></path>
            <path d="M58.4300775,1.2356095 C58.6973143,0.968372697 58.9582512,0.696055345 59.251094,0.454221279 C59.5288983,0.225190192 59.8717337,-0.000182899714 60.2643584,2.03221904e-05 C60.6569831,2.03221904e-05 60.9996152,0.224986971 61.2772164,0.454018057 C61.5702624,0.695852123 61.8311993,0.968372697 62.0984361,1.2356095 L62.232969,1.36993918 C62.5002058,1.63737921 62.7727264,1.89831613 63.0143572,2.1911589 C63.2433883,2.46876002 63.4685582,2.81179859 63.4685582,3.20442331 C63.4685582,3.59684481 63.2433883,3.93968016 63.0145604,4.21728129 C62.7727264,4.51012405 62.5002058,4.77106098 62.232969,5.038501 L50.68651,16.58496 C50.4192732,16.8524 50.1583363,17.1247173 49.8654935,17.3663482 C49.5876892,17.5953793 49.2448538,17.8205491 48.8522291,17.8205491 C48.4596044,17.8205491 48.1169723,17.5953793 47.8393712,17.3663482 C47.5463252,17.1249206 47.2853882,16.8524 47.0181514,16.58496 L46.8836185,16.4504271 C46.6163817,16.1831902 46.3438612,15.9224565 46.1022303,15.6294106 C45.8731992,15.3518094 45.6480294,15.0087709 45.6480294,14.6161461 C45.6480294,14.2235214 45.872996,13.8808893 46.1020271,13.6032882 C46.3438612,13.3102422 46.6161785,13.0495085 46.8836185,12.7820685 L58.4300775,1.2356095 Z" id="Fill-52"></path>
            <path d="M35.6061035,24.0595632 C35.8733403,23.7923264 36.1342772,23.5200091 36.4271199,23.278175 C36.7049243,23.0491439 37.0477596,22.823974 37.4403844,22.823974 C37.8330091,22.823974 38.1756412,23.0489407 38.4532423,23.2779718 C38.7462883,23.5198058 39.0072252,23.7923264 39.2744621,24.0595632 L39.408995,24.1940961 C39.6762318,24.4613329 39.9487523,24.7222698 40.1903832,25.0151126 C40.4194143,25.2927137 40.6445841,25.6357523 40.6445841,26.028377 C40.6445841,26.4207985 40.4194143,26.7636339 40.1903832,27.041235 C39.9487523,27.3340778 39.6762318,27.5950147 39.408995,27.8624547 L27.862536,39.4089137 C27.5952992,39.6763537 27.3343623,39.948671 27.0413163,40.1903019 C26.7637152,40.419333 26.4208798,40.6445028 26.0282551,40.6445028 C25.6356304,40.6445028 25.2929982,40.419333 25.0153971,40.1903019 C24.7223511,39.9488743 24.4614142,39.6763537 24.1941774,39.4089137 L24.0596445,39.2743808 C23.7924077,39.007144 23.5198871,38.7464103 23.2782563,38.4533643 C23.0492252,38.1757631 22.8240553,37.8327246 22.8240553,37.4400999 C22.8240553,37.0474751 23.049022,36.7050462 23.2780531,36.4272419 C23.5198871,36.1341959 23.7922045,35.8734622 24.0596445,35.6060222 L35.6061035,24.0595632 Z" id="Fill-54"></path>
            <path d="M62.2329283,35.6061035 C62.5001651,35.8733403 62.7726857,36.1342772 63.0143166,36.4271199 C63.2433477,36.7047211 63.4687207,37.0477596 63.4687207,37.4401811 C63.4685175,37.8328059 63.2433477,38.1756412 63.0145198,38.4532423 C62.7726857,38.7460851 62.5001651,39.007022 62.2329283,39.2744621 L62.0983954,39.408995 C61.8311586,39.6762318 61.5702217,39.9485491 61.2773789,40.1903832 C60.9997778,40.4194143 60.6569425,40.6445841 60.2641145,40.6445841 C59.8714898,40.6445841 59.5288577,40.4194143 59.2512566,40.1903832 C58.9584138,39.9487523 58.6974769,39.6762318 58.4300368,39.408995 L46.8835779,27.862536 C46.6163411,27.595096 46.3438205,27.3343623 46.1021897,27.0413163 C45.8731586,26.7637152 45.6479887,26.4208798 45.6479887,26.0280519 C45.6479887,25.6354272 45.8731586,25.2929982 46.1021897,25.0153971 C46.3438205,24.7221479 46.6161379,24.4614142 46.8835779,24.1941774 L47.0181108,24.0596445 C47.2853476,23.7922045 47.5460813,23.5198871 47.8391273,23.2782563 C48.1169316,23.0492252 48.459767,22.8240553 48.8523917,22.8240553 C49.2450164,22.8240553 49.5876486,23.049022 49.8652497,23.2780531 C50.1580924,23.5196839 50.4192326,23.7922045 50.6864694,24.0596445 L62.2329283,35.6061035 Z" id="Fill-56"></path>
            <path d="M12.7821497,1.2356095 C13.0493865,0.968372697 13.3103235,0.696055345 13.6031662,0.454221279 C13.8809706,0.225190192 14.2238059,-0.000182899714 14.6164307,2.03221904e-05 C15.0090554,2.03221904e-05 15.3516875,0.224986971 15.6292886,0.454018057 C15.9223346,0.695852123 16.1830683,0.968372697 16.4505083,1.2356095 L16.5850412,1.36993918 C16.852278,1.63737921 17.1247986,1.89831613 17.3664295,2.1911589 C17.5954606,2.46876002 17.8206304,2.81179859 17.8206304,3.20442331 C17.8206304,3.59684481 17.5954606,3.93968016 17.3664295,4.21728129 C17.1247986,4.51012405 16.852278,4.77106098 16.5850412,5.038501 L5.03858229,16.58496 C4.77134549,16.8524 4.51040856,17.1247173 4.21736257,17.3663482 C3.93976145,17.5953793 3.5969261,17.8205491 3.20430138,17.8205491 C2.81167666,17.8205491 2.46904453,17.5953793 2.19144341,17.3663482 C1.89839742,17.1249206 1.6374605,16.8524 1.37022369,16.58496 L1.23569079,16.4504271 C0.968453986,16.1831902 0.695933412,15.9224565 0.454302568,15.6294106 C0.225271481,15.3518094 0.000101610952,15.0087709 0.000101610952,14.6161461 C0.000101610952,14.2235214 0.225068259,13.8810925 0.454099346,13.6032882 C0.695933412,13.3102422 0.968250764,13.0495085 1.23569079,12.7820685 L12.7821497,1.2356095 Z" id="Fill-58" fill-opacity="0.4"></path>
            <path d="M16.5850209,35.6061035 C16.8522577,35.8733403 17.1247783,36.1342772 17.3664091,36.4271199 C17.5954402,36.7047211 17.8208133,37.0477596 17.8206101,37.4401811 C17.8206101,37.8328059 17.5954402,38.1756412 17.3664091,38.4532423 C17.1247783,38.7460851 16.8522577,39.007022 16.5850209,39.2744621 L16.450488,39.408995 C16.1832512,39.6762318 15.9223143,39.9485491 15.6294715,40.1903832 C15.3518704,40.4194143 15.009035,40.6445841 14.6162071,40.6445841 C14.2235824,40.6445841 13.8809503,40.4194143 13.6033491,40.1903832 C13.3103031,39.9487523 13.0495694,39.6762318 12.7821294,39.408995 L1.23567047,27.862536 C0.968433664,27.595096 0.69591309,27.3343623 0.454282245,27.0413163 C0.225251159,26.7637152 8.12887618e-05,26.4208798 8.12887618e-05,26.0280519 C8.12887618e-05,25.6354272 0.225251159,25.2929982 0.454282245,25.0153971 C0.69591309,24.7221479 0.968230442,24.4614142 1.23567047,24.1941774 L1.37020337,24.0596445 C1.63744017,23.7922045 1.89817388,23.5198871 2.19121986,23.2782563 C2.46902421,23.0492252 2.81185956,22.8240553 3.20448428,22.8240553 C3.59690578,22.8240553 3.93974113,23.049022 4.21734225,23.2780531 C4.51018502,23.5196839 4.77112194,23.7922045 5.03856197,24.0596445 L16.5850209,35.6061035 Z" id="Fill-60" fill-opacity="0.4"></path>
            <path d="M39.4089746,12.7819465 C39.6762114,13.0491833 39.948732,13.3103235 40.1903629,13.6031662 C40.4193939,13.8807674 40.644767,14.2238059 40.644767,14.6162274 C40.6445638,15.0088522 40.4193939,15.3516875 40.1903629,15.6292886 C39.948732,15.9221314 39.6762114,16.1830683 39.4089746,16.4505083 L39.2744417,16.5850412 C39.0072049,16.852278 38.746268,17.1245954 38.4534252,17.3664295 C38.1758241,17.5954606 37.8329888,17.8206304 37.4401608,17.8206304 C37.0475361,17.8206304 36.704904,17.5954606 36.4273028,17.3664295 C36.1342569,17.1247986 35.8735232,16.852278 35.6060831,16.5850412 L24.0596242,5.03837907 C23.7923874,4.77114226 23.5198668,4.51040856 23.278236,4.21736257 C23.0492049,3.93976145 22.824035,3.5969261 22.824035,3.20409816 C22.824035,2.81147344 23.0492049,2.46884131 23.278236,2.19144341 C23.5198668,1.8981942 23.7921842,1.6374605 24.0596242,1.37002047 L24.1941571,1.23569079 C24.4613939,0.968250764 24.7221276,0.695933412 25.0151736,0.454302568 C25.2929779,0.225271481 25.6358133,-0.000101610952 26.028438,0.000101610952 C26.4208595,0.000101610952 26.7636948,0.225068259 27.041296,0.454099346 C27.3341387,0.69573019 27.5950757,0.968250764 27.8625157,1.23569079 L39.4089746,12.7819465 Z" id="Fill-62"></path>
            <path d="M81.2540312,24.0595632 C81.521268,23.7923264 81.7822049,23.5200091 82.0750477,23.278175 C82.352852,23.0491439 82.6956874,22.823974 83.0883121,22.823974 C83.4809368,22.823974 83.823569,23.0489407 84.1011701,23.2779718 C84.3942161,23.5198058 84.655153,23.7923264 84.9223898,24.0595632 L85.0569227,24.1940961 C85.3241595,24.4613329 85.5966801,24.7222698 85.8383109,25.0151126 C86.067342,25.2927137 86.2925119,25.6357523 86.2925119,26.028377 C86.2925119,26.4207985 86.067342,26.7636339 85.8385141,27.041235 C85.5966801,27.3340778 85.3241595,27.5950147 85.0569227,27.8624547 L73.5104637,39.4089137 C73.2432269,39.6763537 72.98229,39.948671 72.6894473,40.1903019 C72.4116429,40.419333 72.0688076,40.6445028 71.6761828,40.6445028 C71.2835581,40.6445028 70.940926,40.419333 70.6633249,40.1903019 C70.3702789,39.9488743 70.109342,39.6763537 69.8421051,39.4089137 L69.7075722,39.2743808 C69.4403354,39.007144 69.1678149,38.7464103 68.926184,38.4533643 C68.6971529,38.1757631 68.4719831,37.8327246 68.4719831,37.4400999 C68.4719831,37.0474751 68.6969497,36.7050462 68.9259808,36.4272419 C69.1678149,36.1341959 69.4403354,35.8734622 69.7075722,35.6060222 L81.2540312,24.0595632 Z" id="Fill-64" fill-opacity="0.4"></path>
            <path d="M85.0569024,12.7819465 C85.3241392,13.0491833 85.5966598,13.3103235 85.8382906,13.6031662 C86.0673217,13.8807674 86.2926948,14.2238059 86.2926948,14.6162274 C86.2924916,15.0088522 86.0673217,15.3516875 85.8384938,15.6292886 C85.5966598,15.9221314 85.3241392,16.1830683 85.0569024,16.4505083 L84.9223695,16.5850412 C84.6551327,16.852278 84.3941957,17.1245954 84.101353,17.3664295 C83.8237519,17.5954606 83.4809165,17.8206304 83.0880886,17.8206304 C82.6954638,17.8206304 82.3528317,17.5954606 82.0752306,17.3664295 C81.7823878,17.1247986 81.5214509,16.852278 81.2540109,16.5850412 L69.7075519,5.03837907 C69.4403151,4.77114226 69.1677945,4.51040856 68.9261637,4.21736257 C68.6971326,3.93976145 68.4719627,3.5969261 68.4719627,3.20409816 C68.4719627,2.81147344 68.6971326,2.46884131 68.9261637,2.19144341 C69.1677945,1.8981942 69.4403151,1.6374605 69.7075519,1.37002047 L69.8420848,1.23569079 C70.1093216,0.968250764 70.3700553,0.695933412 70.6631013,0.454302568 C70.9409057,0.225271481 71.283741,-0.000101610952 71.6763657,0.000101610952 C72.0689905,0.000101610952 72.4116226,0.225068259 72.6892237,0.454099346 C72.9820665,0.69573019 73.2432066,0.968250764 73.5104434,1.23569079 L85.0569024,12.7819465 Z" id="Fill-66" fill-opacity="0.4"></path>
        </g>
        <g id="Group-68-Copy" transform="translate(102.899848, 368.566775)" fill="#FFFFFF">
            <path d="M188.492498,31.7271543 L193.328188,20.0126022 C193.459063,19.6953728 193.817344,19.5388919 194.139044,19.65798 L196.894123,20.6783572 C197.056294,20.7383076 197.187169,20.8618665 197.256671,21.0201764 C197.326173,21.1784863 197.328205,21.3585409 197.262564,21.5184765 L193.223638,31.3550665 L204.443573,30.4726572 C204.620783,30.4586349 204.795757,30.519195 204.926428,30.640112 C205.056897,30.7608258 205.131073,30.9305161 205.131073,31.1083353 L205.131073,33.7796872 C205.131073,34.1123615 204.875216,34.3891497 204.543355,34.4153653 L186.285086,35.8513313 C186.107877,35.8653536 185.932699,35.8045903 185.802231,35.6838765 C185.671762,35.5631627 185.597383,35.3934724 185.597383,35.2156532 L185.597383,32.5443013 C185.597383,32.2114238 185.85324,31.9346356 186.185101,31.9086232 L188.492498,31.7271543 Z M116.876941,8.98265205 L132.846504,8.98265205 C133.198688,8.98265205 133.484215,9.2679756 133.484215,9.62036238 L133.484215,12.002936 C133.484215,12.3551196 133.198688,12.6406463 132.846504,12.6406463 L116.876941,12.6406463 L116.876941,27.0601753 C116.876941,28.0183666 116.267275,28.870476 115.360296,29.1793733 L97.6814129,35.203277 C97.5525702,35.2471729 97.4107213,35.2262411 97.2999654,35.1469845 C97.1894127,35.0679312 97.123772,34.9403079 97.123772,34.8041492 L97.123772,31.8200387 C97.123772,31.5499568 97.2940719,31.3093421 97.5485058,31.2189083 L111.769975,26.1792083 C112.024612,26.089181 112.194708,25.8485663 112.194708,25.5782812 L112.194708,12.6406463 L96.1519445,12.6406463 C95.799761,12.6406463 95.5142342,12.3551196 95.5142342,12.002936 L95.5142342,9.62036238 C95.5142342,9.2679756 95.799761,8.98265205 96.1519445,8.98265205 L112.194708,8.98265205 L112.194708,5.69041655 L101.858436,5.69041655 C101.506252,5.69041655 101.220726,5.405093 101.220726,5.05270621 L101.220726,2.6701326 C101.220726,2.31774582 101.506252,2.03242227 101.858436,2.03242227 L127.140257,2.03242227 C127.492441,2.03242227 127.777764,2.31774582 127.777764,2.6701326 L127.777764,5.05270621 C127.777764,5.405093 127.492441,5.69041655 127.140257,5.69041655 L116.876941,5.69041655 L116.876941,8.98265205 Z M109.048813,16.5705922 L109.048813,23.928038 L109.048813,24.0011979 C109.048813,24.3533814 108.763489,24.6389082 108.411306,24.6389082 L99.0051801,24.6389082 C98.6529965,24.6389082 98.3674697,24.3533814 98.3674697,24.0011979 L98.3674697,22.0575836 C98.3674697,21.7051968 98.6529965,21.4198733 99.0051801,21.4198733 L105.463979,21.4198733 L105.463979,18.859196 L101.126817,18.859196 C100.774633,18.859196 100.489106,18.5738724 100.489106,18.2214856 L100.489106,16.2778713 C100.489106,15.9256878 100.774633,15.640161 101.126817,15.640161 L108.411306,15.640161 C108.763489,15.640161 109.048813,15.9256878 109.048813,16.2778713 L109.048813,16.5705922 Z M123.534511,18.859135 L123.534511,21.4198123 L129.993492,21.4198123 C130.345473,21.4198123 130.631,21.7053391 130.631,22.0575226 L130.631,24.0011369 C130.631,24.3533205 130.345473,24.6388473 129.993492,24.6388473 L120.587367,24.6388473 C120.235183,24.6388473 119.949656,24.3533205 119.949656,24.0011369 L119.949656,22.0575226 C119.949656,22.0558061 119.949663,22.0540912 119.949677,22.0523779 L119.949677,16.5705312 L119.949677,16.2778104 C119.949677,15.92583 120.235203,15.6401 120.587387,15.6401 L127.871673,15.6401 C128.223856,15.6401 128.509383,15.92583 128.509383,16.2778104 L128.509383,18.2214247 C128.509383,18.5738114 128.223856,18.859135 127.871673,18.859135 L123.534511,18.859135 Z M165.766868,11.1041668 L165.766868,16.1523818 L175.371603,16.1523818 C175.723786,16.1523818 176.009313,16.4377054 176.009313,16.7898889 L176.009313,19.1726658 C176.009313,19.5248493 175.723786,19.8103761 175.371603,19.8103761 L151.699502,19.8103761 C151.347319,19.8103761 151.061792,19.5248493 151.061792,19.1726658 L151.061792,16.7898889 C151.061792,16.4377054 151.347319,16.1523818 151.699502,16.1523818 L161.377275,16.1523818 L161.377275,11.1041668 L153.382139,11.1041668 C153.029955,11.1041668 152.744429,10.8188432 152.744429,10.4664565 L152.744429,8.08388285 C152.744429,7.73169929 153.029955,7.44617252 153.382139,7.44617252 L161.377275,7.44617252 L161.377275,2.6701326 C161.377275,2.31774582 161.662802,2.03242227 162.014985,2.03242227 L165.129361,2.03242227 C165.481544,2.03242227 165.766868,2.31774582 165.766868,2.6701326 L165.766868,7.44617252 L173.689088,7.44617252 C174.041271,7.44617252 174.326798,7.73169929 174.326798,8.08388285 L174.326798,10.4664565 C174.326798,10.8188432 174.041271,11.1041668 173.689088,11.1041668 L165.766868,11.1041668 Z M154.311558,31.7425795 L158.285375,21.7068632 C158.412999,21.3847565 158.774734,21.2233983 159.099686,21.3437057 L161.857,22.3648958 C162.017546,22.4242365 162.147201,22.5457632 162.217313,22.7016344 C162.287424,22.8579121 162.291692,23.035528 162.229506,23.194854 L159.037557,31.3661815 L167.492852,30.6927668 C167.670468,30.6785413 167.845442,30.7393046 167.976114,30.8600185 C168.106785,30.9807323 168.181164,31.1504226 168.181164,31.3282417 L168.181164,33.9997969 C168.181164,34.3322679 167.925715,34.6088529 167.59426,34.6352718 L152.335343,35.8505388 C152.15793,35.8647643 151.982753,35.8042042 151.852081,35.6834904 C151.72141,35.5625733 151.64703,35.392883 151.64703,35.2148606 L151.64703,32.5437119 C151.64703,32.2110377 151.902683,31.9344527 152.234138,31.9080338 L154.311558,31.7425795 Z M187.186131,3.86141941 L210.419476,3.86141941 C210.771659,3.86141941 211.056983,4.14674296 211.056983,4.49912975 L211.056983,6.88170335 C211.056983,7.23409014 210.771659,7.51941369 210.419476,7.51941369 L187.186131,7.51941369 C186.833948,7.51941369 186.548421,7.23409014 186.548421,6.88170335 L186.548421,4.49912975 C186.548421,4.14674296 186.833948,3.86141941 187.186131,3.86141941 Z M142.336602,3.81002459 L148.869373,8.94747434 C149.003906,9.05335295 149.090072,9.20841126 149.108972,9.37830477 C149.127871,9.54819829 149.077675,9.71870146 148.969765,9.85140537 L147.214334,12.0079962 C146.994651,12.2778749 146.599181,12.3217708 146.325644,12.1067621 L139.79267,6.9691091 C139.65834,6.8634337 139.571971,6.70837539 139.553274,6.53848188 C139.534375,6.36838515 139.584571,6.19808519 139.692481,6.06558451 L141.447912,3.90858721 C141.667595,3.63891175 142.063065,3.59481259 142.336602,3.81002459 Z M141.164702,37.413681 L139.061965,35.6113059 C138.929058,35.4975017 138.848785,35.3341113 138.840047,35.1593404 C138.831308,34.9845696 138.894714,34.8138632 139.015427,34.6872559 L145.563237,27.8183556 C145.681715,27.694187 145.845309,27.6228561 146.017032,27.6208239 C146.188754,27.6187917 146.354177,27.6860581 146.4755,27.8073816 L148.42704,29.7591247 C148.671719,30.0038039 148.676597,30.3988673 148.438217,30.6496431 L142.041401,37.3691754 C141.807696,37.6148707 141.422388,37.6345832 141.164702,37.413681 Z M171.372419,25.47161 L176.307053,35.5380038 C176.382652,35.6924524 176.392813,35.8706781 176.335098,36.0326459 C176.277586,36.1946138 176.156872,36.3263016 176.000798,36.3980389 L173.504826,37.5462427 C173.189223,37.6915463 172.815498,37.5574199 172.664301,37.2448646 L167.742469,27.0729986 C167.666261,26.9155016 167.658132,26.733618 167.719912,26.5698211 C167.781894,26.4064307 167.908298,26.2751494 168.069657,26.2074765 L170.553028,25.1643385 C170.864364,25.0336668 171.223864,25.1684029 171.372419,25.47161 Z M142.337089,14.7159281 L148.142936,19.3355684 C148.276453,19.4418535 148.361603,19.5967086 148.379893,19.7661956 C148.398386,19.9354795 148.34819,20.1051698 148.240482,20.2370608 L146.485052,22.3938549 C146.264556,22.6647497 145.866851,22.7078327 145.593517,22.4903853 L139.787671,17.8705417 C139.654357,17.7644599 139.569004,17.6096048 139.550714,17.4401177 C139.532424,17.2708339 139.58262,17.1011436 139.690124,16.9690494 L141.445555,14.8124585 C141.666254,14.5413605 142.063756,14.4984807 142.337089,14.7159281 Z M120.764515,26.6274346 L131.487519,31.2041951 C131.72224,31.3045867 131.874657,31.5352436 131.874657,31.7906935 L131.874657,34.7270468 C131.874657,34.8753988 131.800481,35.0137929 131.677125,35.0956913 C131.553566,35.1775897 131.397288,35.1924249 131.260723,35.1349131 L120.266825,30.5095826 C120.030274,30.4100039 119.876435,30.1785341 119.876435,29.9218649 L119.876435,27.213933 C119.876435,26.9995339 119.984143,26.7997667 120.162775,26.681898 C120.341407,26.5638261 120.567593,26.5433007 120.764515,26.6274346 Z M112.832419,31.8083941 L116.239434,31.8083941 C116.591618,31.8083941 116.876941,32.0939209 116.876941,32.4461044 L116.876941,37.9747564 C116.876941,38.3269399 116.591618,38.6122635 116.239434,38.6122635 L112.832419,38.6122635 C112.480235,38.6122635 112.194708,38.3269399 112.194708,37.9747564 L112.194708,32.4461044 C112.194708,32.0939209 112.480235,31.8083941 112.832419,31.8083941 Z M183.308637,14.2501435 L214.296929,14.2501435 C214.649113,14.2501435 214.93464,14.535467 214.93464,14.8878538 L214.93464,17.2704274 C214.93464,17.622611 214.649113,17.9081378 214.296929,17.9081378 L183.308637,17.9081378 C182.956454,17.9081378 182.670927,17.622611 182.670927,17.2704274 L182.670927,14.8878538 C182.670927,14.535467 182.956454,14.2501435 183.308637,14.2501435 Z M207.955349,24.5239659 L213.26066,35.4662461 C213.335446,35.6204916 213.344997,35.7983107 213.287079,35.9594657 C213.229364,36.1208239 213.109057,36.2521052 212.953389,36.3236394 L210.456808,37.4720463 C210.140391,37.6177564 209.765853,37.4824107 209.615266,37.1684328 L204.322961,26.1206804 C204.247566,25.9633867 204.240046,25.7819095 204.302029,25.6187223 C204.364215,25.4555351 204.490212,25.3248634 204.651164,25.2573938 L207.134536,24.2144589 C207.447091,24.0831776 207.807404,24.2191331 207.955349,24.5239659 Z" id="Combined-Shape"></path>
            <path d="M58.4300775,1.2356095 C58.6973143,0.968372697 58.9582512,0.696055345 59.251094,0.454221279 C59.5288983,0.225190192 59.8717337,-0.000182899714 60.2643584,2.03221904e-05 C60.6569831,2.03221904e-05 60.9996152,0.224986971 61.2772164,0.454018057 C61.5702624,0.695852123 61.8311993,0.968372697 62.0984361,1.2356095 L62.232969,1.36993918 C62.5002058,1.63737921 62.7727264,1.89831613 63.0143572,2.1911589 C63.2433883,2.46876002 63.4685582,2.81179859 63.4685582,3.20442331 C63.4685582,3.59684481 63.2433883,3.93968016 63.0145604,4.21728129 C62.7727264,4.51012405 62.5002058,4.77106098 62.232969,5.038501 L50.68651,16.58496 C50.4192732,16.8524 50.1583363,17.1247173 49.8654935,17.3663482 C49.5876892,17.5953793 49.2448538,17.8205491 48.8522291,17.8205491 C48.4596044,17.8205491 48.1169723,17.5953793 47.8393712,17.3663482 C47.5463252,17.1249206 47.2853882,16.8524 47.0181514,16.58496 L46.8836185,16.4504271 C46.6163817,16.1831902 46.3438612,15.9224565 46.1022303,15.6294106 C45.8731992,15.3518094 45.6480294,15.0087709 45.6480294,14.6161461 C45.6480294,14.2235214 45.872996,13.8808893 46.1020271,13.6032882 C46.3438612,13.3102422 46.6161785,13.0495085 46.8836185,12.7820685 L58.4300775,1.2356095 Z" id="Fill-52"></path>
            <path d="M35.6061035,24.0595632 C35.8733403,23.7923264 36.1342772,23.5200091 36.4271199,23.278175 C36.7049243,23.0491439 37.0477596,22.823974 37.4403844,22.823974 C37.8330091,22.823974 38.1756412,23.0489407 38.4532423,23.2779718 C38.7462883,23.5198058 39.0072252,23.7923264 39.2744621,24.0595632 L39.408995,24.1940961 C39.6762318,24.4613329 39.9487523,24.7222698 40.1903832,25.0151126 C40.4194143,25.2927137 40.6445841,25.6357523 40.6445841,26.028377 C40.6445841,26.4207985 40.4194143,26.7636339 40.1903832,27.041235 C39.9487523,27.3340778 39.6762318,27.5950147 39.408995,27.8624547 L27.862536,39.4089137 C27.5952992,39.6763537 27.3343623,39.948671 27.0413163,40.1903019 C26.7637152,40.419333 26.4208798,40.6445028 26.0282551,40.6445028 C25.6356304,40.6445028 25.2929982,40.419333 25.0153971,40.1903019 C24.7223511,39.9488743 24.4614142,39.6763537 24.1941774,39.4089137 L24.0596445,39.2743808 C23.7924077,39.007144 23.5198871,38.7464103 23.2782563,38.4533643 C23.0492252,38.1757631 22.8240553,37.8327246 22.8240553,37.4400999 C22.8240553,37.0474751 23.049022,36.7050462 23.2780531,36.4272419 C23.5198871,36.1341959 23.7922045,35.8734622 24.0596445,35.6060222 L35.6061035,24.0595632 Z" id="Fill-54"></path>
            <path d="M62.2329283,35.6061035 C62.5001651,35.8733403 62.7726857,36.1342772 63.0143166,36.4271199 C63.2433477,36.7047211 63.4687207,37.0477596 63.4687207,37.4401811 C63.4685175,37.8328059 63.2433477,38.1756412 63.0145198,38.4532423 C62.7726857,38.7460851 62.5001651,39.007022 62.2329283,39.2744621 L62.0983954,39.408995 C61.8311586,39.6762318 61.5702217,39.9485491 61.2773789,40.1903832 C60.9997778,40.4194143 60.6569425,40.6445841 60.2641145,40.6445841 C59.8714898,40.6445841 59.5288577,40.4194143 59.2512566,40.1903832 C58.9584138,39.9487523 58.6974769,39.6762318 58.4300368,39.408995 L46.8835779,27.862536 C46.6163411,27.595096 46.3438205,27.3343623 46.1021897,27.0413163 C45.8731586,26.7637152 45.6479887,26.4208798 45.6479887,26.0280519 C45.6479887,25.6354272 45.8731586,25.2929982 46.1021897,25.0153971 C46.3438205,24.7221479 46.6161379,24.4614142 46.8835779,24.1941774 L47.0181108,24.0596445 C47.2853476,23.7922045 47.5460813,23.5198871 47.8391273,23.2782563 C48.1169316,23.0492252 48.459767,22.8240553 48.8523917,22.8240553 C49.2450164,22.8240553 49.5876486,23.049022 49.8652497,23.2780531 C50.1580924,23.5196839 50.4192326,23.7922045 50.6864694,24.0596445 L62.2329283,35.6061035 Z" id="Fill-56"></path>
            <path d="M12.7821497,1.2356095 C13.0493865,0.968372697 13.3103235,0.696055345 13.6031662,0.454221279 C13.8809706,0.225190192 14.2238059,-0.000182899714 14.6164307,2.03221904e-05 C15.0090554,2.03221904e-05 15.3516875,0.224986971 15.6292886,0.454018057 C15.9223346,0.695852123 16.1830683,0.968372697 16.4505083,1.2356095 L16.5850412,1.36993918 C16.852278,1.63737921 17.1247986,1.89831613 17.3664295,2.1911589 C17.5954606,2.46876002 17.8206304,2.81179859 17.8206304,3.20442331 C17.8206304,3.59684481 17.5954606,3.93968016 17.3664295,4.21728129 C17.1247986,4.51012405 16.852278,4.77106098 16.5850412,5.038501 L5.03858229,16.58496 C4.77134549,16.8524 4.51040856,17.1247173 4.21736257,17.3663482 C3.93976145,17.5953793 3.5969261,17.8205491 3.20430138,17.8205491 C2.81167666,17.8205491 2.46904453,17.5953793 2.19144341,17.3663482 C1.89839742,17.1249206 1.6374605,16.8524 1.37022369,16.58496 L1.23569079,16.4504271 C0.968453986,16.1831902 0.695933412,15.9224565 0.454302568,15.6294106 C0.225271481,15.3518094 0.000101610952,15.0087709 0.000101610952,14.6161461 C0.000101610952,14.2235214 0.225068259,13.8810925 0.454099346,13.6032882 C0.695933412,13.3102422 0.968250764,13.0495085 1.23569079,12.7820685 L12.7821497,1.2356095 Z" id="Fill-58" fill-opacity="0.4"></path>
            <path d="M16.5850209,35.6061035 C16.8522577,35.8733403 17.1247783,36.1342772 17.3664091,36.4271199 C17.5954402,36.7047211 17.8208133,37.0477596 17.8206101,37.4401811 C17.8206101,37.8328059 17.5954402,38.1756412 17.3664091,38.4532423 C17.1247783,38.7460851 16.8522577,39.007022 16.5850209,39.2744621 L16.450488,39.408995 C16.1832512,39.6762318 15.9223143,39.9485491 15.6294715,40.1903832 C15.3518704,40.4194143 15.009035,40.6445841 14.6162071,40.6445841 C14.2235824,40.6445841 13.8809503,40.4194143 13.6033491,40.1903832 C13.3103031,39.9487523 13.0495694,39.6762318 12.7821294,39.408995 L1.23567047,27.862536 C0.968433664,27.595096 0.69591309,27.3343623 0.454282245,27.0413163 C0.225251159,26.7637152 8.12887618e-05,26.4208798 8.12887618e-05,26.0280519 C8.12887618e-05,25.6354272 0.225251159,25.2929982 0.454282245,25.0153971 C0.69591309,24.7221479 0.968230442,24.4614142 1.23567047,24.1941774 L1.37020337,24.0596445 C1.63744017,23.7922045 1.89817388,23.5198871 2.19121986,23.2782563 C2.46902421,23.0492252 2.81185956,22.8240553 3.20448428,22.8240553 C3.59690578,22.8240553 3.93974113,23.049022 4.21734225,23.2780531 C4.51018502,23.5196839 4.77112194,23.7922045 5.03856197,24.0596445 L16.5850209,35.6061035 Z" id="Fill-60" fill-opacity="0.4"></path>
            <path d="M39.4089746,12.7819465 C39.6762114,13.0491833 39.948732,13.3103235 40.1903629,13.6031662 C40.4193939,13.8807674 40.644767,14.2238059 40.644767,14.6162274 C40.6445638,15.0088522 40.4193939,15.3516875 40.1903629,15.6292886 C39.948732,15.9221314 39.6762114,16.1830683 39.4089746,16.4505083 L39.2744417,16.5850412 C39.0072049,16.852278 38.746268,17.1245954 38.4534252,17.3664295 C38.1758241,17.5954606 37.8329888,17.8206304 37.4401608,17.8206304 C37.0475361,17.8206304 36.704904,17.5954606 36.4273028,17.3664295 C36.1342569,17.1247986 35.8735232,16.852278 35.6060831,16.5850412 L24.0596242,5.03837907 C23.7923874,4.77114226 23.5198668,4.51040856 23.278236,4.21736257 C23.0492049,3.93976145 22.824035,3.5969261 22.824035,3.20409816 C22.824035,2.81147344 23.0492049,2.46884131 23.278236,2.19144341 C23.5198668,1.8981942 23.7921842,1.6374605 24.0596242,1.37002047 L24.1941571,1.23569079 C24.4613939,0.968250764 24.7221276,0.695933412 25.0151736,0.454302568 C25.2929779,0.225271481 25.6358133,-0.000101610952 26.028438,0.000101610952 C26.4208595,0.000101610952 26.7636948,0.225068259 27.041296,0.454099346 C27.3341387,0.69573019 27.5950757,0.968250764 27.8625157,1.23569079 L39.4089746,12.7819465 Z" id="Fill-62"></path>
            <path d="M81.2540312,24.0595632 C81.521268,23.7923264 81.7822049,23.5200091 82.0750477,23.278175 C82.352852,23.0491439 82.6956874,22.823974 83.0883121,22.823974 C83.4809368,22.823974 83.823569,23.0489407 84.1011701,23.2779718 C84.3942161,23.5198058 84.655153,23.7923264 84.9223898,24.0595632 L85.0569227,24.1940961 C85.3241595,24.4613329 85.5966801,24.7222698 85.8383109,25.0151126 C86.067342,25.2927137 86.2925119,25.6357523 86.2925119,26.028377 C86.2925119,26.4207985 86.067342,26.7636339 85.8385141,27.041235 C85.5966801,27.3340778 85.3241595,27.5950147 85.0569227,27.8624547 L73.5104637,39.4089137 C73.2432269,39.6763537 72.98229,39.948671 72.6894473,40.1903019 C72.4116429,40.419333 72.0688076,40.6445028 71.6761828,40.6445028 C71.2835581,40.6445028 70.940926,40.419333 70.6633249,40.1903019 C70.3702789,39.9488743 70.109342,39.6763537 69.8421051,39.4089137 L69.7075722,39.2743808 C69.4403354,39.007144 69.1678149,38.7464103 68.926184,38.4533643 C68.6971529,38.1757631 68.4719831,37.8327246 68.4719831,37.4400999 C68.4719831,37.0474751 68.6969497,36.7050462 68.9259808,36.4272419 C69.1678149,36.1341959 69.4403354,35.8734622 69.7075722,35.6060222 L81.2540312,24.0595632 Z" id="Fill-64" fill-opacity="0.4"></path>
            <path d="M85.0569024,12.7819465 C85.3241392,13.0491833 85.5966598,13.3103235 85.8382906,13.6031662 C86.0673217,13.8807674 86.2926948,14.2238059 86.2926948,14.6162274 C86.2924916,15.0088522 86.0673217,15.3516875 85.8384938,15.6292886 C85.5966598,15.9221314 85.3241392,16.1830683 85.0569024,16.4505083 L84.9223695,16.5850412 C84.6551327,16.852278 84.3941957,17.1245954 84.101353,17.3664295 C83.8237519,17.5954606 83.4809165,17.8206304 83.0880886,17.8206304 C82.6954638,17.8206304 82.3528317,17.5954606 82.0752306,17.3664295 C81.7823878,17.1247986 81.5214509,16.852278 81.2540109,16.5850412 L69.7075519,5.03837907 C69.4403151,4.77114226 69.1677945,4.51040856 68.9261637,4.21736257 C68.6971326,3.93976145 68.4719627,3.5969261 68.4719627,3.20409816 C68.4719627,2.81147344 68.6971326,2.46884131 68.9261637,2.19144341 C69.1677945,1.8981942 69.4403151,1.6374605 69.7075519,1.37002047 L69.8420848,1.23569079 C70.1093216,0.968250764 70.3700553,0.695933412 70.6631013,0.454302568 C70.9409057,0.225271481 71.283741,-0.000101610952 71.6763657,0.000101610952 C72.0689905,0.000101610952 72.4116226,0.225068259 72.6892237,0.454099346 C72.9820665,0.69573019 73.2432066,0.968250764 73.5104434,1.23569079 L85.0569024,12.7819465 Z" id="Fill-66" fill-opacity="0.4"></path>
        </g>
        <text id="Dusk" font-family="KentosT16-Regular, Kentos T16" font-size="15" font-weight="normal" fill="#B3B7CB">
            <tspan x="652.352418" y="515.543357">Dusk</tspan>
        </text>
        <text id="Star-Night" font-family="KentosT16-Regular, Kentos T16" font-size="15" font-weight="normal" fill="#B3B7CB">
            <tspan x="175.498021" y="515.543357">Star Night</tspan>
        </text>
    </g>
</svg>