<?xml version="1.0" encoding="UTF-8"?>
<svg width="880px" height="556px" viewBox="0 0 880 556" version="1.1" xmlns="http://www.w3.org/2000/svg" xmlns:xlink="http://www.w3.org/1999/xlink">
    <!-- Generator: Sketch 51.3 (57544) - http://www.bohemiancoding.com/sketch -->
    <title>Artboard Copy</title>
    <desc>Created with Sketch.</desc>
    <defs>
        <polygon id="path-1" points="0.126105446 0.202767327 17.9245709 0.202767327 17.9245709 18.0012936 0.126105446 18.0012936"></polygon>
        <polygon id="path-3" points="0.126085149 0.0629815459 17.9247535 0.0629815459 17.9247535 17.8613861 0.126085149 17.8613861"></polygon>
        <polygon id="path-5" points="4.05940594e-05 0.202767327 17.7985059 0.202767327 17.7985059 18.0012936 4.05940594e-05 18.0012936"></polygon>
        <polygon id="path-7" points="2.02970297e-05 0.0629815459 17.7986886 0.0629815459 17.7986886 17.8613861 2.02970297e-05 17.8613861"></polygon>
        <polygon id="path-9" points="0.0630425743 0.202767327 17.8617109 0.202767327 17.8617109 18.0013748 0.0630425743 18.0013748"></polygon>
        <polygon id="path-11" points="0.126105446 0.202767327 17.9245709 0.202767327 17.9245709 18.0012936 0.126105446 18.0012936"></polygon>
        <polygon id="path-13" points="0.126085149 0.0629815459 17.9247535 0.0629815459 17.9247535 17.8613861 0.126085149 17.8613861"></polygon>
        <polygon id="path-15" points="4.05940594e-05 0.202767327 17.7985059 0.202767327 17.7985059 18.0012936 4.05940594e-05 18.0012936"></polygon>
        <polygon id="path-17" points="2.02970297e-05 0.0629815459 17.7986886 0.0629815459 17.7986886 17.8613861 2.02970297e-05 17.8613861"></polygon>
        <polygon id="path-19" points="0.0630425743 0.202767327 17.8617109 0.202767327 17.8617109 18.0013748 0.0630425743 18.0013748"></polygon>
        <polygon id="path-21" points="0.126105446 0.202767327 17.9245709 0.202767327 17.9245709 18.0012936 0.126105446 18.0012936"></polygon>
        <polygon id="path-23" points="0.126085149 0.0629815459 17.9247535 0.0629815459 17.9247535 17.8613861 0.126085149 17.8613861"></polygon>
        <polygon id="path-25" points="4.05940594e-05 0.202767327 17.7985059 0.202767327 17.7985059 18.0012936 4.05940594e-05 18.0012936"></polygon>
        <polygon id="path-27" points="2.02970297e-05 0.0629815459 17.7986886 0.0629815459 17.7986886 17.8613861 2.02970297e-05 17.8613861"></polygon>
        <polygon id="path-29" points="0.0630425743 0.202767327 17.8617109 0.202767327 17.8617109 18.0013748 0.0630425743 18.0013748"></polygon>
        <polygon id="path-31" points="0.126105446 0.202767327 17.9245709 0.202767327 17.9245709 18.0012936 0.126105446 18.0012936"></polygon>
        <polygon id="path-33" points="0.126085149 0.0629815459 17.9247535 0.0629815459 17.9247535 17.8613861 0.126085149 17.8613861"></polygon>
        <polygon id="path-35" points="4.05940594e-05 0.202767327 17.7985059 0.202767327 17.7985059 18.0012936 4.05940594e-05 18.0012936"></polygon>
        <polygon id="path-37" points="2.02970297e-05 0.0629815459 17.7986886 0.0629815459 17.7986886 17.8613861 2.02970297e-05 17.8613861"></polygon>
        <polygon id="path-39" points="0.0630425743 0.202767327 17.8617109 0.202767327 17.8617109 18.0013748 0.0630425743 18.0013748"></polygon>
    </defs>
    <g id="Artboard-Copy" stroke="none" stroke-width="1" fill="none" fill-rule="evenodd">
        <rect id="Rectangle" stroke="#DDDDDD" fill="#FFFFFF" x="0.796628411" y="33.9140625" width="419.799696" height="191.531988" rx="10"></rect>
        <rect id="Rectangle-Copy" fill="#2B4EEF" x="459.384112" y="33.4140625" width="420.799696" height="192.531988" rx="10"></rect>
        <rect id="Rectangle-Copy-2" fill="#283266" x="-0.25113929" y="292.800781" width="420.799696" height="192.531988" rx="10"></rect>
        <rect id="Rectangle-Copy-4" fill="#283266" x="0" y="292.800781" width="420.799696" height="192.531988" rx="10"></rect>
        <rect id="Rectangle-Copy-3" fill="#1D1E22" x="459.397569" y="292.800781" width="420.799696" height="192.531988" rx="10"></rect>
        <text id="Standard" font-family="KentosT16-Regular, Kentos T16" font-size="15" font-weight="normal" fill="#B3B7CB">
            <tspan x="174.296292" y="257.075751">Standard</tspan>
        </text>
        <text id="Dawn" font-family="KentosT16-Regular, Kentos T16" font-size="15" font-weight="normal" fill="#B3B7CB">
            <tspan x="649.299918" y="257.075751">Dawn</tspan>
        </text>
        <text id="Dusk" font-family="KentosT16-Regular, Kentos T16" font-size="15" font-weight="normal" fill="#B3B7CB">
            <tspan x="652.352418" y="515.543357">Dusk</tspan>
        </text>
        <text id="Star-Night" font-family="KentosT16-Regular, Kentos T16" font-size="15" font-weight="normal" fill="#B3B7CB">
            <tspan x="175.498021" y="515.543357">Star Night</tspan>
        </text>
        <g id="Group-34" transform="translate(82.216278, 109.180057)">
            <g id="Group-3" transform="translate(45.465347, 0.000203)">
                <mask id="mask-2" fill="white">
                    <use xlink:href="#path-1"></use>
                </mask>
                <g id="Clip-2"></g>
                <path d="M12.8923282,1.43688762 C13.1592342,1.16998168 13.419848,0.897798515 13.7125312,0.656466832 C13.9897886,0.427516337 14.3321995,0.202625248 14.7243381,0.202625248 C15.1164767,0.202828218 15.4588876,0.427516337 15.736145,0.656263861 C16.0286252,0.897798515 16.2892391,1.16998168 16.556348,1.43688762 L16.6905114,1.57105099 C16.9574173,1.8381599 17.2296005,2.09877376 17.4709322,2.39105099 C17.6998827,2.66851139 17.9247738,3.01092228 17.9245708,3.40326386 C17.9245708,3.7951995 17.6998827,4.1376104 17.4711351,4.41486782 C17.2298035,4.70734802 16.9576203,4.96796188 16.6905114,5.23507079 L5.15834802,16.7670312 C4.89144208,17.0341401 4.63082822,17.3063233 4.33834802,17.547452 C4.06088762,17.7764025 3.71847673,18.0012936 3.32633812,18.0012936 C2.9341995,18.0010906 2.59199158,17.7764025 2.31473416,17.547655 C2.02205099,17.3063233 1.7616401,17.0343431 1.49453119,16.7670312 L1.36016485,16.6328678 C1.09325891,16.3659619 0.821075743,16.105551 0.579744059,15.8128678 C0.350996535,15.5354074 0.126105446,15.1929965 0.126105446,14.8008579 C0.126105446,14.4087193 0.350996535,14.0665114 0.579744059,13.789051 C0.821075743,13.4965708 1.09325891,13.2359569 1.36016485,12.968848 L12.8923282,1.43688762 Z" id="Fill-1" fill="#2B4EEF" mask="url(#mask-2)"></path>
            </g>
            <path d="M35.5619589,24.2328064 C35.8288649,23.9659005 36.0894787,23.6937173 36.3821619,23.4523856 C36.6594193,23.2234351 37.0018302,22.9985441 37.3939688,22.998747 C37.7861074,22.998747 38.1285183,23.2234351 38.4055728,23.4521827 C38.6982559,23.6937173 38.9588698,23.9659005 39.2259787,24.2328064 L39.3601421,24.3669698 C39.627048,24.6340787 39.8992312,24.8946926 40.1405629,25.1871728 C40.3693104,25.4644302 40.5944045,25.8068411 40.5942015,26.1991827 C40.5942015,26.5911183 40.3695134,26.9335292 40.1407658,27.2107866 C39.8994342,27.5032668 39.627251,27.7638807 39.3601421,28.0309896 L27.8279787,39.56295 C27.5610728,39.8300589 27.3004589,40.1022421 27.0079787,40.3435738 C26.7305183,40.5723213 26.3881074,40.7972124 25.9959688,40.7972124 C25.6038302,40.7972124 25.2616223,40.5723213 24.9843649,40.3435738 C24.6916817,40.1022421 24.4312708,39.8302619 24.1641619,39.56295 L24.0297955,39.4287866 C23.7628896,39.1618807 23.4907064,38.9014698 23.2493748,38.6087866 C23.0206272,38.3313262 22.7957361,37.9889153 22.7957361,37.5967767 C22.7957361,37.2046381 23.0206272,36.8624302 23.2493748,36.5849698 C23.4907064,36.2924896 23.7628896,36.0320787 24.0297955,35.7647668 L35.5619589,24.2328064 Z" id="Fill-4" fill="#2B4EEF"></path>
            <g id="Group-8" transform="translate(45.465347, 22.935847)">
                <mask id="mask-4" fill="white">
                    <use xlink:href="#path-3"></use>
                </mask>
                <g id="Clip-7"></g>
                <path d="M16.6904911,12.8290015 C16.957397,13.0959074 17.2295802,13.3567243 17.4709119,13.6492045 C17.6998624,13.9264619 17.9247535,14.2688728 17.9247535,14.6610114 C17.9247535,15.05315 17.6998624,15.3955609 17.4711149,15.6728183 C17.2297832,15.9652985 16.9576,16.2259124 16.6904911,16.4930213 L16.5563277,16.6271847 C16.2892188,16.8940906 16.0288079,17.1662738 15.7361248,17.4078084 C15.4588673,17.6365559 15.1164564,17.861447 14.7241149,17.861447 C14.3321792,17.861447 13.9897683,17.6365559 13.7125109,17.4078084 C13.4200307,17.1662738 13.1594168,16.8942936 12.8923079,16.6271847 L1.36014455,5.09502129 C1.09323861,4.82811535 0.821055446,4.56770446 0.579723762,4.27502129 C0.350976238,3.99756089 0.126085149,3.65535297 0.126085149,3.26301139 C0.126085149,2.87087277 0.350976238,2.52866485 0.579723762,2.25140743 C0.821055446,1.95872426 1.09323861,1.69831337 1.36014455,1.43120446 L1.49451089,1.29704109 C1.76141683,1.02993218 2.02203069,0.75774901 2.31451089,0.516620297 C2.59197129,0.287669802 2.93438218,0.0627787129 3.32652079,0.0629816832 C3.71865941,0.0629816832 4.06086733,0.287669802 4.33812475,0.516417327 C4.63080792,0.75774901 4.89142178,1.02993218 5.15853069,1.29704109 L16.6904911,12.8290015 Z" id="Fill-6" fill="#2B4EEF" mask="url(#mask-4)"></path>
            </g>
            <g id="Group-11" transform="translate(0.000000, 0.000203)">
                <mask id="mask-6" fill="white">
                    <use xlink:href="#path-5"></use>
                </mask>
                <g id="Clip-10"></g>
                <path d="M12.7662634,1.43688762 C13.0331693,1.16998168 13.2937832,0.897798515 13.5864663,0.656466832 C13.8637238,0.427516337 14.2061347,0.202625248 14.5982733,0.202625248 C14.9904119,0.202828218 15.3326198,0.427516337 15.6098772,0.656263861 C15.9025604,0.897798515 16.1631743,1.16998168 16.4300802,1.43688762 L16.5644465,1.57105099 C16.8313525,1.8381599 17.1035356,2.09877376 17.3448673,2.39105099 C17.5736149,2.66851139 17.7985059,3.01092228 17.7985059,3.40326386 C17.7985059,3.7951995 17.5738178,4.1376104 17.3450703,4.41486782 C17.1035356,4.70734802 16.8315554,4.96796188 16.5644465,5.23507079 L5.03228317,16.7670312 C4.76537723,17.0341401 4.50476337,17.3063233 4.21228317,17.547452 C3.93482277,17.7764025 3.59241188,18.0012936 3.20027327,18.0012936 C2.80813465,18.0012936 2.46592673,17.7764025 2.18866931,17.547655 C1.89598614,17.3063233 1.63557525,17.0343431 1.36846634,16.7670312 L1.2341,16.6328678 C0.967194059,16.3659619 0.695010891,16.105551 0.453679208,15.8128678 C0.224931683,15.5354074 4.05940594e-05,15.1929965 4.05940594e-05,14.8008579 C4.05940594e-05,14.4087193 0.224931683,14.0665114 0.453679208,13.789051 C0.695010891,13.4965708 0.967194059,13.2361599 1.2341,12.968848 L12.7662634,1.43688762 Z" id="Fill-9" fill-opacity="0.4" fill="#2B4EEF" mask="url(#mask-6)"></path>
            </g>
            <g id="Group-14" transform="translate(0.000000, 22.935847)">
                <mask id="mask-8" fill="white">
                    <use xlink:href="#path-7"></use>
                </mask>
                <g id="Clip-13"></g>
                <path d="M16.5644262,12.8290015 C16.8313322,13.0959074 17.1035153,13.3567243 17.344847,13.6492045 C17.5735946,13.9264619 17.7986886,14.2688728 17.7986886,14.6610114 C17.7986886,15.05315 17.5737975,15.3955609 17.34505,15.6728183 C17.1035153,15.9652985 16.8315351,16.2259124 16.5644262,16.4930213 L16.4300599,16.6271847 C16.163154,16.8940906 15.9027431,17.1662738 15.6100599,17.4078084 C15.3328025,17.6365559 14.9903916,17.861447 14.59805,17.861447 C14.2061144,17.861447 13.8637035,17.6365559 13.586446,17.4078084 C13.2939658,17.1662738 13.033352,16.8942936 12.7662431,16.6271847 L1.2340797,5.09502129 C0.967173762,4.82811535 0.694990594,4.56770446 0.453658911,4.27502129 C0.224911386,3.99756089 2.02970297e-05,3.65535297 2.02970297e-05,3.26301139 C2.02970297e-05,2.87087277 0.224911386,2.52866485 0.453658911,2.25140743 C0.694990594,1.95872426 0.967173762,1.69831337 1.2340797,1.43120446 L1.36844604,1.29704109 C1.63535198,1.02993218 1.89596584,0.75774901 2.18844604,0.516620297 C2.46590644,0.287669802 2.80831733,0.0627787129 3.20045594,0.0629816832 C3.59259455,0.0629816832 3.93480248,0.287669802 4.2120599,0.516417327 C4.50474307,0.75774901 4.76535693,1.02993218 5.03226287,1.29704109 L16.5644262,12.8290015 Z" id="Fill-12" fill-opacity="0.4" fill="#2B4EEF" mask="url(#mask-8)"></path>
            </g>
            <g id="Group-17" transform="translate(22.732673, 0.000203)">
                <mask id="mask-10" fill="white">
                    <use xlink:href="#path-9"></use>
                </mask>
                <g id="Clip-16"></g>
                <path d="M16.6274485,12.9689292 C16.8943545,13.2358351 17.1665376,13.496652 17.4078693,13.7891322 C17.6366168,14.0663896 17.8617109,14.4088005 17.8617109,14.8009391 C17.8617109,15.1930777 17.6368198,15.5354886 17.4080723,15.812746 C17.1667406,16.1052262 16.8945574,16.3658401 16.6274485,16.632949 L16.4932851,16.7671124 C16.2261762,17.0340183 15.9657653,17.3062015 15.6730822,17.5475332 C15.3958248,17.7764837 15.0534139,18.0013748 14.6610723,18.0013748 C14.2691366,18.0011718 13.9267257,17.7764837 13.6494683,17.5477361 C13.3569881,17.3062015 13.0963743,17.0342213 12.8292653,16.7671124 L1.29710198,5.23494901 C1.03019604,4.96804307 0.758012871,4.70763218 0.516884158,4.41494901 C0.287933663,4.13748861 0.0630425743,3.79528069 0.0630425743,3.40293911 C0.0630425743,3.0108005 0.287933663,2.66859257 0.516681188,2.39133515 C0.758012871,2.09865198 1.03019604,1.83803812 1.29710198,1.57113218 L1.43146832,1.43696881 C1.69837426,1.1698599 1.95898812,0.897676733 2.25146832,0.65654802 C2.52892871,0.427597525 2.8713396,0.202706436 3.26347822,0.202706436 C3.65561683,0.202909406 3.99782475,0.427597525 4.27508218,0.65634505 C4.56776535,0.897676733 4.82837921,1.1698599 5.09528515,1.43696881 L16.6274485,12.9689292 Z" id="Fill-15" fill="#2B4EEF" mask="url(#mask-10)"></path>
            </g>
            <path d="M81.1533703,24.2328064 C81.4202762,23.9659005 81.6808901,23.6937173 81.9735733,23.4523856 C82.2508307,23.2234351 82.5932416,22.9985441 82.9853802,22.998747 C83.3775188,22.998747 83.7199297,23.2234351 83.9971871,23.4521827 C84.2896673,23.6937173 84.5502812,23.9659005 84.8173901,24.2328064 L84.9515535,24.3669698 C85.2184594,24.6340787 85.4906426,24.8946926 85.7319743,25.1871728 C85.9609248,25.4644302 86.1858158,25.8068411 86.1856129,26.1991827 C86.1856129,26.5911183 85.9609248,26.9335292 85.7321772,27.2107866 C85.4908455,27.5032668 85.2186624,27.7638807 84.9515535,28.0309896 L73.4193901,39.56295 C73.1524842,39.8300589 72.8918703,40.1022421 72.5993901,40.3435738 C72.3221327,40.5723213 71.9795188,40.7972124 71.5873802,40.7972124 C71.1952416,40.7972124 70.8530337,40.5723213 70.5757762,40.3435738 C70.2830931,40.1022421 70.0226822,39.8302619 69.7555733,39.56295 L69.6214099,39.4287866 C69.354301,39.1618807 69.0821178,38.9014698 68.8407861,38.6087866 C68.6120386,38.3313262 68.3871475,37.9889153 68.3871475,37.5967767 C68.3871475,37.2046381 68.6120386,36.8624302 68.8407861,36.5849698 C69.0821178,36.2924896 69.354301,36.0320787 69.6214099,35.7647668 L81.1533703,24.2328064 Z" id="Fill-18" fill-opacity="0.4" fill="#2B4EEF"></path>
            <g id="Group-22" transform="translate(68.198020, 0.000203)" fill="#2B4EEF" fill-opacity="0.4">
                <path d="M16.7535134,12.9689292 C17.0204193,13.2358351 17.2926025,13.496652 17.5339342,13.7891322 C17.7628847,14.0663896 17.9877757,14.4088005 17.9877757,14.8009391 C17.9877757,15.1930777 17.7628847,15.5354886 17.5341371,15.812746 C17.2928054,16.1052262 17.0206223,16.3658401 16.7535134,16.632949 L16.61935,16.7671124 C16.3522411,17.0340183 16.0918302,17.3062015 15.799147,17.5475332 C15.5218896,17.7764837 15.1794787,18.0013748 14.7871371,18.0013748 C14.3952015,18.0011718 14.0527906,17.7764837 13.7755332,17.5477361 C13.483053,17.3062015 13.2224391,17.0342213 12.9553302,16.7671124 L1.4233698,5.23494901 C1.15626089,4.96804307 0.884077723,4.70763218 0.64274604,4.41494901 C0.413998515,4.13748861 0.189107426,3.79528069 0.189107426,3.40293911 C0.189107426,3.0108005 0.413998515,2.66859257 0.64274604,2.39133515 C0.884077723,2.09865198 1.15626089,1.83803812 1.4233698,1.57113218 L1.55753317,1.43696881 C1.82443911,1.1698599 2.08505297,0.897676733 2.37753317,0.65654802 C2.65499356,0.427597525 2.99740446,0.202706436 3.38954307,0.202706436 C3.78168168,0.202909406 4.1238896,0.427597525 4.40114703,0.65634505 C4.6938302,0.897676733 4.95444406,1.1698599 5.22155297,1.43696881 L16.7535134,12.9689292 Z" id="Fill-20"></path>
            </g>
            <path d="M127.549133,18.6360629 L127.549133,30.7134045 L122.98494,30.7134045 L122.98494,19.4844787 C122.98494,16.5357262 121.328905,14.7181272 118.66289,14.7181272 C116.885682,14.7181272 115.068083,15.9298599 114.179276,17.4243302 L114.300652,18.1109787 L114.300652,30.7134045 L109.776445,30.7134045 L109.776445,19.4844787 C109.776445,16.5357262 108.039831,14.7181272 105.53538,14.7181272 C103.515826,14.7181272 101.859791,15.8894688 101.051969,17.4647213 L101.051969,30.7134045 L96.5683554,30.7134045 L96.5683554,10.961553 L101.051969,10.961553 L101.051969,13.5467856 C102.021152,12.2136767 104.000519,10.5576421 107.070242,10.5576421 C109.776445,10.5576421 111.755811,11.5676223 113.007935,13.7487411 C114.341044,12.1732856 116.602742,10.5576421 119.470712,10.5576421 C124.237063,10.5576421 127.549133,13.7487411 127.549133,18.6360629 Z M150.005705,21.5846733 C150.005705,27.2396287 146.249334,31.1173762 140.796334,31.1173762 C135.343537,31.1173762 131.546572,27.2396287 131.546572,21.5846733 L131.546572,10.9616139 L136.070577,10.9616139 L136.070577,21.5846733 C136.070577,24.7757723 137.888176,26.7953267 140.796334,26.7953267 C143.623913,26.7953267 145.522295,24.7757723 145.522295,21.5846733 L145.522295,10.9616139 L150.005705,10.9616139 L150.005705,21.5846733 Z M154.044104,30.7134653 L154.044104,2.43889109 L158.527718,2.43889109 L158.527718,30.7134653 L154.044104,30.7134653 Z M161.475699,20.8576337 C161.475699,15.0009257 165.918922,10.557703 171.694848,10.557703 C176.461199,10.557703 180.540902,13.748802 181.146565,18.0302574 L176.541981,18.0302574 C176.057288,16.2126584 174.037734,14.8797525 171.694848,14.8797525 C168.423169,14.8797525 165.918922,17.4647822 165.918922,20.8576337 C165.918922,24.210297 168.423169,26.7953267 171.694848,26.7953267 C174.037734,26.7953267 176.097679,25.4624208 176.582372,23.4832574 L181.186956,23.4832574 C180.661872,27.9666683 176.501387,31.1173762 171.694848,31.1173762 C165.918922,31.1173762 161.475699,26.7145446 161.475699,20.8576337 Z M184.135059,30.7134653 L184.135059,2.43889109 L188.618673,2.43889109 L188.618673,30.7134653 L184.135059,30.7134653 Z M212.045464,20.8576337 C212.045464,26.7145446 207.56185,31.1173762 201.785722,31.1173762 C196.009796,31.1173762 191.566573,26.7145446 191.566573,20.8576337 C191.566573,15.0009257 196.009796,10.557703 201.785722,10.557703 C207.56185,10.557703 212.045464,15.0009257 212.045464,20.8576337 Z M196.009796,20.8576337 C196.009796,24.210297 198.514044,26.7953267 201.785722,26.7953267 C205.057603,26.7953267 207.602242,24.210297 207.602242,20.8576337 C207.602242,17.4647822 205.057603,14.8797525 201.785722,14.8797525 C198.514044,14.8797525 196.009796,17.4647822 196.009796,20.8576337 Z M233.533341,21.5846733 C233.533341,27.2396287 229.776767,31.1173762 224.32397,31.1173762 C218.87097,31.1173762 215.074207,27.2396287 215.074207,21.5846733 L215.074207,10.9616139 L219.598009,10.9616139 L219.598009,21.5846733 C219.598009,24.7757723 221.415811,26.7953267 224.32397,26.7953267 C227.151346,26.7953267 229.049727,24.7757723 229.049727,21.5846733 L229.049727,10.9616139 L233.533341,10.9616139 L233.533341,21.5846733 Z M256.838675,2.4388505 L256.838675,30.7134248 L252.355264,30.7134248 L252.355264,28.0474099 C251.304893,29.8248208 248.679675,31.1173356 246.054051,31.1173356 C240.722427,31.1173356 236.561739,26.5933307 236.561739,20.817405 C236.561739,15.0816673 240.722427,10.5576624 246.054051,10.5576624 C248.679675,10.5576624 251.304893,11.8501772 252.355264,13.6275881 L252.355264,2.4388505 L256.838675,2.4388505 Z M252.355264,23.8871277 L252.355264,17.8282614 C251.385878,16.0914446 249.24515,14.8393208 246.983046,14.8393208 C243.589992,14.8393208 241.004962,17.3839594 241.004962,20.817405 C241.004962,24.2506475 243.589992,26.8356772 246.983046,26.8356772 C249.204759,26.8356772 251.385878,25.5835535 252.355264,23.8871277 Z" id="Combined-Shape" fill="#283266"></path>
        </g>
        <g id="Group-34" transform="translate(541.283960, 109.180057)">
            <g id="Group-3" transform="translate(45.465347, 0.000203)">
                <mask id="mask-12" fill="white">
                    <use xlink:href="#path-11"></use>
                </mask>
                <g id="Clip-2"></g>
                <path d="M12.8923282,1.43688762 C13.1592342,1.16998168 13.419848,0.897798515 13.7125312,0.656466832 C13.9897886,0.427516337 14.3321995,0.202625248 14.7243381,0.202625248 C15.1164767,0.202828218 15.4588876,0.427516337 15.736145,0.656263861 C16.0286252,0.897798515 16.2892391,1.16998168 16.556348,1.43688762 L16.6905114,1.57105099 C16.9574173,1.8381599 17.2296005,2.09877376 17.4709322,2.39105099 C17.6998827,2.66851139 17.9247738,3.01092228 17.9245708,3.40326386 C17.9245708,3.7951995 17.6998827,4.1376104 17.4711351,4.41486782 C17.2298035,4.70734802 16.9576203,4.96796188 16.6905114,5.23507079 L5.15834802,16.7670312 C4.89144208,17.0341401 4.63082822,17.3063233 4.33834802,17.547452 C4.06088762,17.7764025 3.71847673,18.0012936 3.32633812,18.0012936 C2.9341995,18.0010906 2.59199158,17.7764025 2.31473416,17.547655 C2.02205099,17.3063233 1.7616401,17.0343431 1.49453119,16.7670312 L1.36016485,16.6328678 C1.09325891,16.3659619 0.821075743,16.105551 0.579744059,15.8128678 C0.350996535,15.5354074 0.126105446,15.1929965 0.126105446,14.8008579 C0.126105446,14.4087193 0.350996535,14.0665114 0.579744059,13.789051 C0.821075743,13.4965708 1.09325891,13.2359569 1.36016485,12.968848 L12.8923282,1.43688762 Z" id="Fill-1" fill="#FFFFFF" mask="url(#mask-12)"></path>
            </g>
            <path d="M35.5619589,24.2328064 C35.8288649,23.9659005 36.0894787,23.6937173 36.3821619,23.4523856 C36.6594193,23.2234351 37.0018302,22.9985441 37.3939688,22.998747 C37.7861074,22.998747 38.1285183,23.2234351 38.4055728,23.4521827 C38.6982559,23.6937173 38.9588698,23.9659005 39.2259787,24.2328064 L39.3601421,24.3669698 C39.627048,24.6340787 39.8992312,24.8946926 40.1405629,25.1871728 C40.3693104,25.4644302 40.5944045,25.8068411 40.5942015,26.1991827 C40.5942015,26.5911183 40.3695134,26.9335292 40.1407658,27.2107866 C39.8994342,27.5032668 39.627251,27.7638807 39.3601421,28.0309896 L27.8279787,39.56295 C27.5610728,39.8300589 27.3004589,40.1022421 27.0079787,40.3435738 C26.7305183,40.5723213 26.3881074,40.7972124 25.9959688,40.7972124 C25.6038302,40.7972124 25.2616223,40.5723213 24.9843649,40.3435738 C24.6916817,40.1022421 24.4312708,39.8302619 24.1641619,39.56295 L24.0297955,39.4287866 C23.7628896,39.1618807 23.4907064,38.9014698 23.2493748,38.6087866 C23.0206272,38.3313262 22.7957361,37.9889153 22.7957361,37.5967767 C22.7957361,37.2046381 23.0206272,36.8624302 23.2493748,36.5849698 C23.4907064,36.2924896 23.7628896,36.0320787 24.0297955,35.7647668 L35.5619589,24.2328064 Z" id="Fill-4" fill="#FFFFFF"></path>
            <g id="Group-8" transform="translate(45.465347, 22.935847)">
                <mask id="mask-14" fill="white">
                    <use xlink:href="#path-13"></use>
                </mask>
                <g id="Clip-7"></g>
                <path d="M16.6904911,12.8290015 C16.957397,13.0959074 17.2295802,13.3567243 17.4709119,13.6492045 C17.6998624,13.9264619 17.9247535,14.2688728 17.9247535,14.6610114 C17.9247535,15.05315 17.6998624,15.3955609 17.4711149,15.6728183 C17.2297832,15.9652985 16.9576,16.2259124 16.6904911,16.4930213 L16.5563277,16.6271847 C16.2892188,16.8940906 16.0288079,17.1662738 15.7361248,17.4078084 C15.4588673,17.6365559 15.1164564,17.861447 14.7241149,17.861447 C14.3321792,17.861447 13.9897683,17.6365559 13.7125109,17.4078084 C13.4200307,17.1662738 13.1594168,16.8942936 12.8923079,16.6271847 L1.36014455,5.09502129 C1.09323861,4.82811535 0.821055446,4.56770446 0.579723762,4.27502129 C0.350976238,3.99756089 0.126085149,3.65535297 0.126085149,3.26301139 C0.126085149,2.87087277 0.350976238,2.52866485 0.579723762,2.25140743 C0.821055446,1.95872426 1.09323861,1.69831337 1.36014455,1.43120446 L1.49451089,1.29704109 C1.76141683,1.02993218 2.02203069,0.75774901 2.31451089,0.516620297 C2.59197129,0.287669802 2.93438218,0.0627787129 3.32652079,0.0629816832 C3.71865941,0.0629816832 4.06086733,0.287669802 4.33812475,0.516417327 C4.63080792,0.75774901 4.89142178,1.02993218 5.15853069,1.29704109 L16.6904911,12.8290015 Z" id="Fill-6" fill="#FFFFFF" mask="url(#mask-14)"></path>
            </g>
            <g id="Group-11" transform="translate(0.000000, 0.000203)">
                <mask id="mask-16" fill="white">
                    <use xlink:href="#path-15"></use>
                </mask>
                <g id="Clip-10"></g>
                <path d="M12.7662634,1.43688762 C13.0331693,1.16998168 13.2937832,0.897798515 13.5864663,0.656466832 C13.8637238,0.427516337 14.2061347,0.202625248 14.5982733,0.202625248 C14.9904119,0.202828218 15.3326198,0.427516337 15.6098772,0.656263861 C15.9025604,0.897798515 16.1631743,1.16998168 16.4300802,1.43688762 L16.5644465,1.57105099 C16.8313525,1.8381599 17.1035356,2.09877376 17.3448673,2.39105099 C17.5736149,2.66851139 17.7985059,3.01092228 17.7985059,3.40326386 C17.7985059,3.7951995 17.5738178,4.1376104 17.3450703,4.41486782 C17.1035356,4.70734802 16.8315554,4.96796188 16.5644465,5.23507079 L5.03228317,16.7670312 C4.76537723,17.0341401 4.50476337,17.3063233 4.21228317,17.547452 C3.93482277,17.7764025 3.59241188,18.0012936 3.20027327,18.0012936 C2.80813465,18.0012936 2.46592673,17.7764025 2.18866931,17.547655 C1.89598614,17.3063233 1.63557525,17.0343431 1.36846634,16.7670312 L1.2341,16.6328678 C0.967194059,16.3659619 0.695010891,16.105551 0.453679208,15.8128678 C0.224931683,15.5354074 4.05940594e-05,15.1929965 4.05940594e-05,14.8008579 C4.05940594e-05,14.4087193 0.224931683,14.0665114 0.453679208,13.789051 C0.695010891,13.4965708 0.967194059,13.2361599 1.2341,12.968848 L12.7662634,1.43688762 Z" id="Fill-9" fill-opacity="0.4" fill="#FFFFFF" mask="url(#mask-16)"></path>
            </g>
            <g id="Group-14" transform="translate(0.000000, 22.935847)">
                <mask id="mask-18" fill="white">
                    <use xlink:href="#path-17"></use>
                </mask>
                <g id="Clip-13"></g>
                <path d="M16.5644262,12.8290015 C16.8313322,13.0959074 17.1035153,13.3567243 17.344847,13.6492045 C17.5735946,13.9264619 17.7986886,14.2688728 17.7986886,14.6610114 C17.7986886,15.05315 17.5737975,15.3955609 17.34505,15.6728183 C17.1035153,15.9652985 16.8315351,16.2259124 16.5644262,16.4930213 L16.4300599,16.6271847 C16.163154,16.8940906 15.9027431,17.1662738 15.6100599,17.4078084 C15.3328025,17.6365559 14.9903916,17.861447 14.59805,17.861447 C14.2061144,17.861447 13.8637035,17.6365559 13.586446,17.4078084 C13.2939658,17.1662738 13.033352,16.8942936 12.7662431,16.6271847 L1.2340797,5.09502129 C0.967173762,4.82811535 0.694990594,4.56770446 0.453658911,4.27502129 C0.224911386,3.99756089 2.02970297e-05,3.65535297 2.02970297e-05,3.26301139 C2.02970297e-05,2.87087277 0.224911386,2.52866485 0.453658911,2.25140743 C0.694990594,1.95872426 0.967173762,1.69831337 1.2340797,1.43120446 L1.36844604,1.29704109 C1.63535198,1.02993218 1.89596584,0.75774901 2.18844604,0.516620297 C2.46590644,0.287669802 2.80831733,0.0627787129 3.20045594,0.0629816832 C3.59259455,0.0629816832 3.93480248,0.287669802 4.2120599,0.516417327 C4.50474307,0.75774901 4.76535693,1.02993218 5.03226287,1.29704109 L16.5644262,12.8290015 Z" id="Fill-12" fill-opacity="0.4" fill="#FFFFFF" mask="url(#mask-18)"></path>
            </g>
            <g id="Group-17" transform="translate(22.732673, 0.000203)">
                <mask id="mask-20" fill="white">
                    <use xlink:href="#path-19"></use>
                </mask>
                <g id="Clip-16"></g>
                <path d="M16.6274485,12.9689292 C16.8943545,13.2358351 17.1665376,13.496652 17.4078693,13.7891322 C17.6366168,14.0663896 17.8617109,14.4088005 17.8617109,14.8009391 C17.8617109,15.1930777 17.6368198,15.5354886 17.4080723,15.812746 C17.1667406,16.1052262 16.8945574,16.3658401 16.6274485,16.632949 L16.4932851,16.7671124 C16.2261762,17.0340183 15.9657653,17.3062015 15.6730822,17.5475332 C15.3958248,17.7764837 15.0534139,18.0013748 14.6610723,18.0013748 C14.2691366,18.0011718 13.9267257,17.7764837 13.6494683,17.5477361 C13.3569881,17.3062015 13.0963743,17.0342213 12.8292653,16.7671124 L1.29710198,5.23494901 C1.03019604,4.96804307 0.758012871,4.70763218 0.516884158,4.41494901 C0.287933663,4.13748861 0.0630425743,3.79528069 0.0630425743,3.40293911 C0.0630425743,3.0108005 0.287933663,2.66859257 0.516681188,2.39133515 C0.758012871,2.09865198 1.03019604,1.83803812 1.29710198,1.57113218 L1.43146832,1.43696881 C1.69837426,1.1698599 1.95898812,0.897676733 2.25146832,0.65654802 C2.52892871,0.427597525 2.8713396,0.202706436 3.26347822,0.202706436 C3.65561683,0.202909406 3.99782475,0.427597525 4.27508218,0.65634505 C4.56776535,0.897676733 4.82837921,1.1698599 5.09528515,1.43696881 L16.6274485,12.9689292 Z" id="Fill-15" fill="#FFFFFF" mask="url(#mask-20)"></path>
            </g>
            <path d="M81.1533703,24.2328064 C81.4202762,23.9659005 81.6808901,23.6937173 81.9735733,23.4523856 C82.2508307,23.2234351 82.5932416,22.9985441 82.9853802,22.998747 C83.3775188,22.998747 83.7199297,23.2234351 83.9971871,23.4521827 C84.2896673,23.6937173 84.5502812,23.9659005 84.8173901,24.2328064 L84.9515535,24.3669698 C85.2184594,24.6340787 85.4906426,24.8946926 85.7319743,25.1871728 C85.9609248,25.4644302 86.1858158,25.8068411 86.1856129,26.1991827 C86.1856129,26.5911183 85.9609248,26.9335292 85.7321772,27.2107866 C85.4908455,27.5032668 85.2186624,27.7638807 84.9515535,28.0309896 L73.4193901,39.56295 C73.1524842,39.8300589 72.8918703,40.1022421 72.5993901,40.3435738 C72.3221327,40.5723213 71.9795188,40.7972124 71.5873802,40.7972124 C71.1952416,40.7972124 70.8530337,40.5723213 70.5757762,40.3435738 C70.2830931,40.1022421 70.0226822,39.8302619 69.7555733,39.56295 L69.6214099,39.4287866 C69.354301,39.1618807 69.0821178,38.9014698 68.8407861,38.6087866 C68.6120386,38.3313262 68.3871475,37.9889153 68.3871475,37.5967767 C68.3871475,37.2046381 68.6120386,36.8624302 68.8407861,36.5849698 C69.0821178,36.2924896 69.354301,36.0320787 69.6214099,35.7647668 L81.1533703,24.2328064 Z" id="Fill-18" fill-opacity="0.4" fill="#FFFFFF"></path>
            <g id="Group-22" transform="translate(68.198020, 0.000203)" fill="#FFFFFF" fill-opacity="0.4">
                <path d="M16.7535134,12.9689292 C17.0204193,13.2358351 17.2926025,13.496652 17.5339342,13.7891322 C17.7628847,14.0663896 17.9877757,14.4088005 17.9877757,14.8009391 C17.9877757,15.1930777 17.7628847,15.5354886 17.5341371,15.812746 C17.2928054,16.1052262 17.0206223,16.3658401 16.7535134,16.632949 L16.61935,16.7671124 C16.3522411,17.0340183 16.0918302,17.3062015 15.799147,17.5475332 C15.5218896,17.7764837 15.1794787,18.0013748 14.7871371,18.0013748 C14.3952015,18.0011718 14.0527906,17.7764837 13.7755332,17.5477361 C13.483053,17.3062015 13.2224391,17.0342213 12.9553302,16.7671124 L1.4233698,5.23494901 C1.15626089,4.96804307 0.884077723,4.70763218 0.64274604,4.41494901 C0.413998515,4.13748861 0.189107426,3.79528069 0.189107426,3.40293911 C0.189107426,3.0108005 0.413998515,2.66859257 0.64274604,2.39133515 C0.884077723,2.09865198 1.15626089,1.83803812 1.4233698,1.57113218 L1.55753317,1.43696881 C1.82443911,1.1698599 2.08505297,0.897676733 2.37753317,0.65654802 C2.65499356,0.427597525 2.99740446,0.202706436 3.38954307,0.202706436 C3.78168168,0.202909406 4.1238896,0.427597525 4.40114703,0.65634505 C4.6938302,0.897676733 4.95444406,1.1698599 5.22155297,1.43696881 L16.7535134,12.9689292 Z" id="Fill-20"></path>
            </g>
            <path d="M127.549133,18.6360629 L127.549133,30.7134045 L122.98494,30.7134045 L122.98494,19.4844787 C122.98494,16.5357262 121.328905,14.7181272 118.66289,14.7181272 C116.885682,14.7181272 115.068083,15.9298599 114.179276,17.4243302 L114.300652,18.1109787 L114.300652,30.7134045 L109.776445,30.7134045 L109.776445,19.4844787 C109.776445,16.5357262 108.039831,14.7181272 105.53538,14.7181272 C103.515826,14.7181272 101.859791,15.8894688 101.051969,17.4647213 L101.051969,30.7134045 L96.5683554,30.7134045 L96.5683554,10.961553 L101.051969,10.961553 L101.051969,13.5467856 C102.021152,12.2136767 104.000519,10.5576421 107.070242,10.5576421 C109.776445,10.5576421 111.755811,11.5676223 113.007935,13.7487411 C114.341044,12.1732856 116.602742,10.5576421 119.470712,10.5576421 C124.237063,10.5576421 127.549133,13.7487411 127.549133,18.6360629 Z M150.005705,21.5846733 C150.005705,27.2396287 146.249334,31.1173762 140.796334,31.1173762 C135.343537,31.1173762 131.546572,27.2396287 131.546572,21.5846733 L131.546572,10.9616139 L136.070577,10.9616139 L136.070577,21.5846733 C136.070577,24.7757723 137.888176,26.7953267 140.796334,26.7953267 C143.623913,26.7953267 145.522295,24.7757723 145.522295,21.5846733 L145.522295,10.9616139 L150.005705,10.9616139 L150.005705,21.5846733 Z M154.044104,30.7134653 L154.044104,2.43889109 L158.527718,2.43889109 L158.527718,30.7134653 L154.044104,30.7134653 Z M161.475699,20.8576337 C161.475699,15.0009257 165.918922,10.557703 171.694848,10.557703 C176.461199,10.557703 180.540902,13.748802 181.146565,18.0302574 L176.541981,18.0302574 C176.057288,16.2126584 174.037734,14.8797525 171.694848,14.8797525 C168.423169,14.8797525 165.918922,17.4647822 165.918922,20.8576337 C165.918922,24.210297 168.423169,26.7953267 171.694848,26.7953267 C174.037734,26.7953267 176.097679,25.4624208 176.582372,23.4832574 L181.186956,23.4832574 C180.661872,27.9666683 176.501387,31.1173762 171.694848,31.1173762 C165.918922,31.1173762 161.475699,26.7145446 161.475699,20.8576337 Z M184.135059,30.7134653 L184.135059,2.43889109 L188.618673,2.43889109 L188.618673,30.7134653 L184.135059,30.7134653 Z M212.045464,20.8576337 C212.045464,26.7145446 207.56185,31.1173762 201.785722,31.1173762 C196.009796,31.1173762 191.566573,26.7145446 191.566573,20.8576337 C191.566573,15.0009257 196.009796,10.557703 201.785722,10.557703 C207.56185,10.557703 212.045464,15.0009257 212.045464,20.8576337 Z M196.009796,20.8576337 C196.009796,24.210297 198.514044,26.7953267 201.785722,26.7953267 C205.057603,26.7953267 207.602242,24.210297 207.602242,20.8576337 C207.602242,17.4647822 205.057603,14.8797525 201.785722,14.8797525 C198.514044,14.8797525 196.009796,17.4647822 196.009796,20.8576337 Z M233.533341,21.5846733 C233.533341,27.2396287 229.776767,31.1173762 224.32397,31.1173762 C218.87097,31.1173762 215.074207,27.2396287 215.074207,21.5846733 L215.074207,10.9616139 L219.598009,10.9616139 L219.598009,21.5846733 C219.598009,24.7757723 221.415811,26.7953267 224.32397,26.7953267 C227.151346,26.7953267 229.049727,24.7757723 229.049727,21.5846733 L229.049727,10.9616139 L233.533341,10.9616139 L233.533341,21.5846733 Z M256.838675,2.4388505 L256.838675,30.7134248 L252.355264,30.7134248 L252.355264,28.0474099 C251.304893,29.8248208 248.679675,31.1173356 246.054051,31.1173356 C240.722427,31.1173356 236.561739,26.5933307 236.561739,20.817405 C236.561739,15.0816673 240.722427,10.5576624 246.054051,10.5576624 C248.679675,10.5576624 251.304893,11.8501772 252.355264,13.6275881 L252.355264,2.4388505 L256.838675,2.4388505 Z M252.355264,23.8871277 L252.355264,17.8282614 C251.385878,16.0914446 249.24515,14.8393208 246.983046,14.8393208 C243.589992,14.8393208 241.004962,17.3839594 241.004962,20.817405 C241.004962,24.2506475 243.589992,26.8356772 246.983046,26.8356772 C249.204759,26.8356772 251.385878,25.5835535 252.355264,23.8871277 Z" id="Combined-Shape" fill="#FFFFFF"></path>
        </g>
        <g id="Group-34-Copy" transform="translate(541.297418, 368.566775)">
            <g id="Group-3" transform="translate(45.465347, 0.000203)">
                <mask id="mask-22" fill="white">
                    <use xlink:href="#path-21"></use>
                </mask>
                <g id="Clip-2"></g>
                <path d="M12.8923282,1.43688762 C13.1592342,1.16998168 13.419848,0.897798515 13.7125312,0.656466832 C13.9897886,0.427516337 14.3321995,0.202625248 14.7243381,0.202625248 C15.1164767,0.202828218 15.4588876,0.427516337 15.736145,0.656263861 C16.0286252,0.897798515 16.2892391,1.16998168 16.556348,1.43688762 L16.6905114,1.57105099 C16.9574173,1.8381599 17.2296005,2.09877376 17.4709322,2.39105099 C17.6998827,2.66851139 17.9247738,3.01092228 17.9245708,3.40326386 C17.9245708,3.7951995 17.6998827,4.1376104 17.4711351,4.41486782 C17.2298035,4.70734802 16.9576203,4.96796188 16.6905114,5.23507079 L5.15834802,16.7670312 C4.89144208,17.0341401 4.63082822,17.3063233 4.33834802,17.547452 C4.06088762,17.7764025 3.71847673,18.0012936 3.32633812,18.0012936 C2.9341995,18.0010906 2.59199158,17.7764025 2.31473416,17.547655 C2.02205099,17.3063233 1.7616401,17.0343431 1.49453119,16.7670312 L1.36016485,16.6328678 C1.09325891,16.3659619 0.821075743,16.105551 0.579744059,15.8128678 C0.350996535,15.5354074 0.126105446,15.1929965 0.126105446,14.8008579 C0.126105446,14.4087193 0.350996535,14.0665114 0.579744059,13.789051 C0.821075743,13.4965708 1.09325891,13.2359569 1.36016485,12.968848 L12.8923282,1.43688762 Z" id="Fill-1" fill="#FFFFFF" mask="url(#mask-22)"></path>
            </g>
            <path d="M35.5619589,24.2328064 C35.8288649,23.9659005 36.0894787,23.6937173 36.3821619,23.4523856 C36.6594193,23.2234351 37.0018302,22.9985441 37.3939688,22.998747 C37.7861074,22.998747 38.1285183,23.2234351 38.4055728,23.4521827 C38.6982559,23.6937173 38.9588698,23.9659005 39.2259787,24.2328064 L39.3601421,24.3669698 C39.627048,24.6340787 39.8992312,24.8946926 40.1405629,25.1871728 C40.3693104,25.4644302 40.5944045,25.8068411 40.5942015,26.1991827 C40.5942015,26.5911183 40.3695134,26.9335292 40.1407658,27.2107866 C39.8994342,27.5032668 39.627251,27.7638807 39.3601421,28.0309896 L27.8279787,39.56295 C27.5610728,39.8300589 27.3004589,40.1022421 27.0079787,40.3435738 C26.7305183,40.5723213 26.3881074,40.7972124 25.9959688,40.7972124 C25.6038302,40.7972124 25.2616223,40.5723213 24.9843649,40.3435738 C24.6916817,40.1022421 24.4312708,39.8302619 24.1641619,39.56295 L24.0297955,39.4287866 C23.7628896,39.1618807 23.4907064,38.9014698 23.2493748,38.6087866 C23.0206272,38.3313262 22.7957361,37.9889153 22.7957361,37.5967767 C22.7957361,37.2046381 23.0206272,36.8624302 23.2493748,36.5849698 C23.4907064,36.2924896 23.7628896,36.0320787 24.0297955,35.7647668 L35.5619589,24.2328064 Z" id="Fill-4" fill="#FFFFFF"></path>
            <g id="Group-8" transform="translate(45.465347, 22.935847)">
                <mask id="mask-24" fill="white">
                    <use xlink:href="#path-23"></use>
                </mask>
                <g id="Clip-7"></g>
                <path d="M16.6904911,12.8290015 C16.957397,13.0959074 17.2295802,13.3567243 17.4709119,13.6492045 C17.6998624,13.9264619 17.9247535,14.2688728 17.9247535,14.6610114 C17.9247535,15.05315 17.6998624,15.3955609 17.4711149,15.6728183 C17.2297832,15.9652985 16.9576,16.2259124 16.6904911,16.4930213 L16.5563277,16.6271847 C16.2892188,16.8940906 16.0288079,17.1662738 15.7361248,17.4078084 C15.4588673,17.6365559 15.1164564,17.861447 14.7241149,17.861447 C14.3321792,17.861447 13.9897683,17.6365559 13.7125109,17.4078084 C13.4200307,17.1662738 13.1594168,16.8942936 12.8923079,16.6271847 L1.36014455,5.09502129 C1.09323861,4.82811535 0.821055446,4.56770446 0.579723762,4.27502129 C0.350976238,3.99756089 0.126085149,3.65535297 0.126085149,3.26301139 C0.126085149,2.87087277 0.350976238,2.52866485 0.579723762,2.25140743 C0.821055446,1.95872426 1.09323861,1.69831337 1.36014455,1.43120446 L1.49451089,1.29704109 C1.76141683,1.02993218 2.02203069,0.75774901 2.31451089,0.516620297 C2.59197129,0.287669802 2.93438218,0.0627787129 3.32652079,0.0629816832 C3.71865941,0.0629816832 4.06086733,0.287669802 4.33812475,0.516417327 C4.63080792,0.75774901 4.89142178,1.02993218 5.15853069,1.29704109 L16.6904911,12.8290015 Z" id="Fill-6" fill="#FFFFFF" mask="url(#mask-24)"></path>
            </g>
            <g id="Group-11" transform="translate(0.000000, 0.000203)">
                <mask id="mask-26" fill="white">
                    <use xlink:href="#path-25"></use>
                </mask>
                <g id="Clip-10"></g>
                <path d="M12.7662634,1.43688762 C13.0331693,1.16998168 13.2937832,0.897798515 13.5864663,0.656466832 C13.8637238,0.427516337 14.2061347,0.202625248 14.5982733,0.202625248 C14.9904119,0.202828218 15.3326198,0.427516337 15.6098772,0.656263861 C15.9025604,0.897798515 16.1631743,1.16998168 16.4300802,1.43688762 L16.5644465,1.57105099 C16.8313525,1.8381599 17.1035356,2.09877376 17.3448673,2.39105099 C17.5736149,2.66851139 17.7985059,3.01092228 17.7985059,3.40326386 C17.7985059,3.7951995 17.5738178,4.1376104 17.3450703,4.41486782 C17.1035356,4.70734802 16.8315554,4.96796188 16.5644465,5.23507079 L5.03228317,16.7670312 C4.76537723,17.0341401 4.50476337,17.3063233 4.21228317,17.547452 C3.93482277,17.7764025 3.59241188,18.0012936 3.20027327,18.0012936 C2.80813465,18.0012936 2.46592673,17.7764025 2.18866931,17.547655 C1.89598614,17.3063233 1.63557525,17.0343431 1.36846634,16.7670312 L1.2341,16.6328678 C0.967194059,16.3659619 0.695010891,16.105551 0.453679208,15.8128678 C0.224931683,15.5354074 4.05940594e-05,15.1929965 4.05940594e-05,14.8008579 C4.05940594e-05,14.4087193 0.224931683,14.0665114 0.453679208,13.789051 C0.695010891,13.4965708 0.967194059,13.2361599 1.2341,12.968848 L12.7662634,1.43688762 Z" id="Fill-9" fill-opacity="0.4" fill="#FFFFFF" mask="url(#mask-26)"></path>
            </g>
            <g id="Group-14" transform="translate(0.000000, 22.935847)">
                <mask id="mask-28" fill="white">
                    <use xlink:href="#path-27"></use>
                </mask>
                <g id="Clip-13"></g>
                <path d="M16.5644262,12.8290015 C16.8313322,13.0959074 17.1035153,13.3567243 17.344847,13.6492045 C17.5735946,13.9264619 17.7986886,14.2688728 17.7986886,14.6610114 C17.7986886,15.05315 17.5737975,15.3955609 17.34505,15.6728183 C17.1035153,15.9652985 16.8315351,16.2259124 16.5644262,16.4930213 L16.4300599,16.6271847 C16.163154,16.8940906 15.9027431,17.1662738 15.6100599,17.4078084 C15.3328025,17.6365559 14.9903916,17.861447 14.59805,17.861447 C14.2061144,17.861447 13.8637035,17.6365559 13.586446,17.4078084 C13.2939658,17.1662738 13.033352,16.8942936 12.7662431,16.6271847 L1.2340797,5.09502129 C0.967173762,4.82811535 0.694990594,4.56770446 0.453658911,4.27502129 C0.224911386,3.99756089 2.02970297e-05,3.65535297 2.02970297e-05,3.26301139 C2.02970297e-05,2.87087277 0.224911386,2.52866485 0.453658911,2.25140743 C0.694990594,1.95872426 0.967173762,1.69831337 1.2340797,1.43120446 L1.36844604,1.29704109 C1.63535198,1.02993218 1.89596584,0.75774901 2.18844604,0.516620297 C2.46590644,0.287669802 2.80831733,0.0627787129 3.20045594,0.0629816832 C3.59259455,0.0629816832 3.93480248,0.287669802 4.2120599,0.516417327 C4.50474307,0.75774901 4.76535693,1.02993218 5.03226287,1.29704109 L16.5644262,12.8290015 Z" id="Fill-12" fill-opacity="0.4" fill="#FFFFFF" mask="url(#mask-28)"></path>
            </g>
            <g id="Group-17" transform="translate(22.732673, 0.000203)">
                <mask id="mask-30" fill="white">
                    <use xlink:href="#path-29"></use>
                </mask>
                <g id="Clip-16"></g>
                <path d="M16.6274485,12.9689292 C16.8943545,13.2358351 17.1665376,13.496652 17.4078693,13.7891322 C17.6366168,14.0663896 17.8617109,14.4088005 17.8617109,14.8009391 C17.8617109,15.1930777 17.6368198,15.5354886 17.4080723,15.812746 C17.1667406,16.1052262 16.8945574,16.3658401 16.6274485,16.632949 L16.4932851,16.7671124 C16.2261762,17.0340183 15.9657653,17.3062015 15.6730822,17.5475332 C15.3958248,17.7764837 15.0534139,18.0013748 14.6610723,18.0013748 C14.2691366,18.0011718 13.9267257,17.7764837 13.6494683,17.5477361 C13.3569881,17.3062015 13.0963743,17.0342213 12.8292653,16.7671124 L1.29710198,5.23494901 C1.03019604,4.96804307 0.758012871,4.70763218 0.516884158,4.41494901 C0.287933663,4.13748861 0.0630425743,3.79528069 0.0630425743,3.40293911 C0.0630425743,3.0108005 0.287933663,2.66859257 0.516681188,2.39133515 C0.758012871,2.09865198 1.03019604,1.83803812 1.29710198,1.57113218 L1.43146832,1.43696881 C1.69837426,1.1698599 1.95898812,0.897676733 2.25146832,0.65654802 C2.52892871,0.427597525 2.8713396,0.202706436 3.26347822,0.202706436 C3.65561683,0.202909406 3.99782475,0.427597525 4.27508218,0.65634505 C4.56776535,0.897676733 4.82837921,1.1698599 5.09528515,1.43696881 L16.6274485,12.9689292 Z" id="Fill-15" fill="#FFFFFF" mask="url(#mask-30)"></path>
            </g>
            <path d="M81.1533703,24.2328064 C81.4202762,23.9659005 81.6808901,23.6937173 81.9735733,23.4523856 C82.2508307,23.2234351 82.5932416,22.9985441 82.9853802,22.998747 C83.3775188,22.998747 83.7199297,23.2234351 83.9971871,23.4521827 C84.2896673,23.6937173 84.5502812,23.9659005 84.8173901,24.2328064 L84.9515535,24.3669698 C85.2184594,24.6340787 85.4906426,24.8946926 85.7319743,25.1871728 C85.9609248,25.4644302 86.1858158,25.8068411 86.1856129,26.1991827 C86.1856129,26.5911183 85.9609248,26.9335292 85.7321772,27.2107866 C85.4908455,27.5032668 85.2186624,27.7638807 84.9515535,28.0309896 L73.4193901,39.56295 C73.1524842,39.8300589 72.8918703,40.1022421 72.5993901,40.3435738 C72.3221327,40.5723213 71.9795188,40.7972124 71.5873802,40.7972124 C71.1952416,40.7972124 70.8530337,40.5723213 70.5757762,40.3435738 C70.2830931,40.1022421 70.0226822,39.8302619 69.7555733,39.56295 L69.6214099,39.4287866 C69.354301,39.1618807 69.0821178,38.9014698 68.8407861,38.6087866 C68.6120386,38.3313262 68.3871475,37.9889153 68.3871475,37.5967767 C68.3871475,37.2046381 68.6120386,36.8624302 68.8407861,36.5849698 C69.0821178,36.2924896 69.354301,36.0320787 69.6214099,35.7647668 L81.1533703,24.2328064 Z" id="Fill-18" fill-opacity="0.4" fill="#FFFFFF"></path>
            <g id="Group-22" transform="translate(68.198020, 0.000203)" fill="#FFFFFF" fill-opacity="0.4">
                <path d="M16.7535134,12.9689292 C17.0204193,13.2358351 17.2926025,13.496652 17.5339342,13.7891322 C17.7628847,14.0663896 17.9877757,14.4088005 17.9877757,14.8009391 C17.9877757,15.1930777 17.7628847,15.5354886 17.5341371,15.812746 C17.2928054,16.1052262 17.0206223,16.3658401 16.7535134,16.632949 L16.61935,16.7671124 C16.3522411,17.0340183 16.0918302,17.3062015 15.799147,17.5475332 C15.5218896,17.7764837 15.1794787,18.0013748 14.7871371,18.0013748 C14.3952015,18.0011718 14.0527906,17.7764837 13.7755332,17.5477361 C13.483053,17.3062015 13.2224391,17.0342213 12.9553302,16.7671124 L1.4233698,5.23494901 C1.15626089,4.96804307 0.884077723,4.70763218 0.64274604,4.41494901 C0.413998515,4.13748861 0.189107426,3.79528069 0.189107426,3.40293911 C0.189107426,3.0108005 0.413998515,2.66859257 0.64274604,2.39133515 C0.884077723,2.09865198 1.15626089,1.83803812 1.4233698,1.57113218 L1.55753317,1.43696881 C1.82443911,1.1698599 2.08505297,0.897676733 2.37753317,0.65654802 C2.65499356,0.427597525 2.99740446,0.202706436 3.38954307,0.202706436 C3.78168168,0.202909406 4.1238896,0.427597525 4.40114703,0.65634505 C4.6938302,0.897676733 4.95444406,1.1698599 5.22155297,1.43696881 L16.7535134,12.9689292 Z" id="Fill-20"></path>
            </g>
            <path d="M127.549133,18.6360629 L127.549133,30.7134045 L122.98494,30.7134045 L122.98494,19.4844787 C122.98494,16.5357262 121.328905,14.7181272 118.66289,14.7181272 C116.885682,14.7181272 115.068083,15.9298599 114.179276,17.4243302 L114.300652,18.1109787 L114.300652,30.7134045 L109.776445,30.7134045 L109.776445,19.4844787 C109.776445,16.5357262 108.039831,14.7181272 105.53538,14.7181272 C103.515826,14.7181272 101.859791,15.8894688 101.051969,17.4647213 L101.051969,30.7134045 L96.5683554,30.7134045 L96.5683554,10.961553 L101.051969,10.961553 L101.051969,13.5467856 C102.021152,12.2136767 104.000519,10.5576421 107.070242,10.5576421 C109.776445,10.5576421 111.755811,11.5676223 113.007935,13.7487411 C114.341044,12.1732856 116.602742,10.5576421 119.470712,10.5576421 C124.237063,10.5576421 127.549133,13.7487411 127.549133,18.6360629 Z M150.005705,21.5846733 C150.005705,27.2396287 146.249334,31.1173762 140.796334,31.1173762 C135.343537,31.1173762 131.546572,27.2396287 131.546572,21.5846733 L131.546572,10.9616139 L136.070577,10.9616139 L136.070577,21.5846733 C136.070577,24.7757723 137.888176,26.7953267 140.796334,26.7953267 C143.623913,26.7953267 145.522295,24.7757723 145.522295,21.5846733 L145.522295,10.9616139 L150.005705,10.9616139 L150.005705,21.5846733 Z M154.044104,30.7134653 L154.044104,2.43889109 L158.527718,2.43889109 L158.527718,30.7134653 L154.044104,30.7134653 Z M161.475699,20.8576337 C161.475699,15.0009257 165.918922,10.557703 171.694848,10.557703 C176.461199,10.557703 180.540902,13.748802 181.146565,18.0302574 L176.541981,18.0302574 C176.057288,16.2126584 174.037734,14.8797525 171.694848,14.8797525 C168.423169,14.8797525 165.918922,17.4647822 165.918922,20.8576337 C165.918922,24.210297 168.423169,26.7953267 171.694848,26.7953267 C174.037734,26.7953267 176.097679,25.4624208 176.582372,23.4832574 L181.186956,23.4832574 C180.661872,27.9666683 176.501387,31.1173762 171.694848,31.1173762 C165.918922,31.1173762 161.475699,26.7145446 161.475699,20.8576337 Z M184.135059,30.7134653 L184.135059,2.43889109 L188.618673,2.43889109 L188.618673,30.7134653 L184.135059,30.7134653 Z M212.045464,20.8576337 C212.045464,26.7145446 207.56185,31.1173762 201.785722,31.1173762 C196.009796,31.1173762 191.566573,26.7145446 191.566573,20.8576337 C191.566573,15.0009257 196.009796,10.557703 201.785722,10.557703 C207.56185,10.557703 212.045464,15.0009257 212.045464,20.8576337 Z M196.009796,20.8576337 C196.009796,24.210297 198.514044,26.7953267 201.785722,26.7953267 C205.057603,26.7953267 207.602242,24.210297 207.602242,20.8576337 C207.602242,17.4647822 205.057603,14.8797525 201.785722,14.8797525 C198.514044,14.8797525 196.009796,17.4647822 196.009796,20.8576337 Z M233.533341,21.5846733 C233.533341,27.2396287 229.776767,31.1173762 224.32397,31.1173762 C218.87097,31.1173762 215.074207,27.2396287 215.074207,21.5846733 L215.074207,10.9616139 L219.598009,10.9616139 L219.598009,21.5846733 C219.598009,24.7757723 221.415811,26.7953267 224.32397,26.7953267 C227.151346,26.7953267 229.049727,24.7757723 229.049727,21.5846733 L229.049727,10.9616139 L233.533341,10.9616139 L233.533341,21.5846733 Z M256.838675,2.4388505 L256.838675,30.7134248 L252.355264,30.7134248 L252.355264,28.0474099 C251.304893,29.8248208 248.679675,31.1173356 246.054051,31.1173356 C240.722427,31.1173356 236.561739,26.5933307 236.561739,20.817405 C236.561739,15.0816673 240.722427,10.5576624 246.054051,10.5576624 C248.679675,10.5576624 251.304893,11.8501772 252.355264,13.6275881 L252.355264,2.4388505 L256.838675,2.4388505 Z M252.355264,23.8871277 L252.355264,17.8282614 C251.385878,16.0914446 249.24515,14.8393208 246.983046,14.8393208 C243.589992,14.8393208 241.004962,17.3839594 241.004962,20.817405 C241.004962,24.2506475 243.589992,26.8356772 246.983046,26.8356772 C249.204759,26.8356772 251.385878,25.5835535 252.355264,23.8871277 Z" id="Combined-Shape" fill="#FFFFFF"></path>
        </g>
        <g id="Group-34-Copy-2" transform="translate(82.216278, 368.566775)">
            <g id="Group-3" transform="translate(45.465347, 0.000203)">
                <mask id="mask-32" fill="white">
                    <use xlink:href="#path-31"></use>
                </mask>
                <g id="Clip-2"></g>
                <path d="M12.8923282,1.43688762 C13.1592342,1.16998168 13.419848,0.897798515 13.7125312,0.656466832 C13.9897886,0.427516337 14.3321995,0.202625248 14.7243381,0.202625248 C15.1164767,0.202828218 15.4588876,0.427516337 15.736145,0.656263861 C16.0286252,0.897798515 16.2892391,1.16998168 16.556348,1.43688762 L16.6905114,1.57105099 C16.9574173,1.8381599 17.2296005,2.09877376 17.4709322,2.39105099 C17.6998827,2.66851139 17.9247738,3.01092228 17.9245708,3.40326386 C17.9245708,3.7951995 17.6998827,4.1376104 17.4711351,4.41486782 C17.2298035,4.70734802 16.9576203,4.96796188 16.6905114,5.23507079 L5.15834802,16.7670312 C4.89144208,17.0341401 4.63082822,17.3063233 4.33834802,17.547452 C4.06088762,17.7764025 3.71847673,18.0012936 3.32633812,18.0012936 C2.9341995,18.0010906 2.59199158,17.7764025 2.31473416,17.547655 C2.02205099,17.3063233 1.7616401,17.0343431 1.49453119,16.7670312 L1.36016485,16.6328678 C1.09325891,16.3659619 0.821075743,16.105551 0.579744059,15.8128678 C0.350996535,15.5354074 0.126105446,15.1929965 0.126105446,14.8008579 C0.126105446,14.4087193 0.350996535,14.0665114 0.579744059,13.789051 C0.821075743,13.4965708 1.09325891,13.2359569 1.36016485,12.968848 L12.8923282,1.43688762 Z" id="Fill-1" fill="#FFFFFF" mask="url(#mask-32)"></path>
            </g>
            <path d="M35.5619589,24.2328064 C35.8288649,23.9659005 36.0894787,23.6937173 36.3821619,23.4523856 C36.6594193,23.2234351 37.0018302,22.9985441 37.3939688,22.998747 C37.7861074,22.998747 38.1285183,23.2234351 38.4055728,23.4521827 C38.6982559,23.6937173 38.9588698,23.9659005 39.2259787,24.2328064 L39.3601421,24.3669698 C39.627048,24.6340787 39.8992312,24.8946926 40.1405629,25.1871728 C40.3693104,25.4644302 40.5944045,25.8068411 40.5942015,26.1991827 C40.5942015,26.5911183 40.3695134,26.9335292 40.1407658,27.2107866 C39.8994342,27.5032668 39.627251,27.7638807 39.3601421,28.0309896 L27.8279787,39.56295 C27.5610728,39.8300589 27.3004589,40.1022421 27.0079787,40.3435738 C26.7305183,40.5723213 26.3881074,40.7972124 25.9959688,40.7972124 C25.6038302,40.7972124 25.2616223,40.5723213 24.9843649,40.3435738 C24.6916817,40.1022421 24.4312708,39.8302619 24.1641619,39.56295 L24.0297955,39.4287866 C23.7628896,39.1618807 23.4907064,38.9014698 23.2493748,38.6087866 C23.0206272,38.3313262 22.7957361,37.9889153 22.7957361,37.5967767 C22.7957361,37.2046381 23.0206272,36.8624302 23.2493748,36.5849698 C23.4907064,36.2924896 23.7628896,36.0320787 24.0297955,35.7647668 L35.5619589,24.2328064 Z" id="Fill-4" fill="#FFFFFF"></path>
            <g id="Group-8" transform="translate(45.465347, 22.935847)">
                <mask id="mask-34" fill="white">
                    <use xlink:href="#path-33"></use>
                </mask>
                <g id="Clip-7"></g>
                <path d="M16.6904911,12.8290015 C16.957397,13.0959074 17.2295802,13.3567243 17.4709119,13.6492045 C17.6998624,13.9264619 17.9247535,14.2688728 17.9247535,14.6610114 C17.9247535,15.05315 17.6998624,15.3955609 17.4711149,15.6728183 C17.2297832,15.9652985 16.9576,16.2259124 16.6904911,16.4930213 L16.5563277,16.6271847 C16.2892188,16.8940906 16.0288079,17.1662738 15.7361248,17.4078084 C15.4588673,17.6365559 15.1164564,17.861447 14.7241149,17.861447 C14.3321792,17.861447 13.9897683,17.6365559 13.7125109,17.4078084 C13.4200307,17.1662738 13.1594168,16.8942936 12.8923079,16.6271847 L1.36014455,5.09502129 C1.09323861,4.82811535 0.821055446,4.56770446 0.579723762,4.27502129 C0.350976238,3.99756089 0.126085149,3.65535297 0.126085149,3.26301139 C0.126085149,2.87087277 0.350976238,2.52866485 0.579723762,2.25140743 C0.821055446,1.95872426 1.09323861,1.69831337 1.36014455,1.43120446 L1.49451089,1.29704109 C1.76141683,1.02993218 2.02203069,0.75774901 2.31451089,0.516620297 C2.59197129,0.287669802 2.93438218,0.0627787129 3.32652079,0.0629816832 C3.71865941,0.0629816832 4.06086733,0.287669802 4.33812475,0.516417327 C4.63080792,0.75774901 4.89142178,1.02993218 5.15853069,1.29704109 L16.6904911,12.8290015 Z" id="Fill-6" fill="#FFFFFF" mask="url(#mask-34)"></path>
            </g>
            <g id="Group-11" transform="translate(0.000000, 0.000203)">
                <mask id="mask-36" fill="white">
                    <use xlink:href="#path-35"></use>
                </mask>
                <g id="Clip-10"></g>
                <path d="M12.7662634,1.43688762 C13.0331693,1.16998168 13.2937832,0.897798515 13.5864663,0.656466832 C13.8637238,0.427516337 14.2061347,0.202625248 14.5982733,0.202625248 C14.9904119,0.202828218 15.3326198,0.427516337 15.6098772,0.656263861 C15.9025604,0.897798515 16.1631743,1.16998168 16.4300802,1.43688762 L16.5644465,1.57105099 C16.8313525,1.8381599 17.1035356,2.09877376 17.3448673,2.39105099 C17.5736149,2.66851139 17.7985059,3.01092228 17.7985059,3.40326386 C17.7985059,3.7951995 17.5738178,4.1376104 17.3450703,4.41486782 C17.1035356,4.70734802 16.8315554,4.96796188 16.5644465,5.23507079 L5.03228317,16.7670312 C4.76537723,17.0341401 4.50476337,17.3063233 4.21228317,17.547452 C3.93482277,17.7764025 3.59241188,18.0012936 3.20027327,18.0012936 C2.80813465,18.0012936 2.46592673,17.7764025 2.18866931,17.547655 C1.89598614,17.3063233 1.63557525,17.0343431 1.36846634,16.7670312 L1.2341,16.6328678 C0.967194059,16.3659619 0.695010891,16.105551 0.453679208,15.8128678 C0.224931683,15.5354074 4.05940594e-05,15.1929965 4.05940594e-05,14.8008579 C4.05940594e-05,14.4087193 0.224931683,14.0665114 0.453679208,13.789051 C0.695010891,13.4965708 0.967194059,13.2361599 1.2341,12.968848 L12.7662634,1.43688762 Z" id="Fill-9" fill-opacity="0.4" fill="#FFFFFF" mask="url(#mask-36)"></path>
            </g>
            <g id="Group-14" transform="translate(0.000000, 22.935847)">
                <mask id="mask-38" fill="white">
                    <use xlink:href="#path-37"></use>
                </mask>
                <g id="Clip-13"></g>
                <path d="M16.5644262,12.8290015 C16.8313322,13.0959074 17.1035153,13.3567243 17.344847,13.6492045 C17.5735946,13.9264619 17.7986886,14.2688728 17.7986886,14.6610114 C17.7986886,15.05315 17.5737975,15.3955609 17.34505,15.6728183 C17.1035153,15.9652985 16.8315351,16.2259124 16.5644262,16.4930213 L16.4300599,16.6271847 C16.163154,16.8940906 15.9027431,17.1662738 15.6100599,17.4078084 C15.3328025,17.6365559 14.9903916,17.861447 14.59805,17.861447 C14.2061144,17.861447 13.8637035,17.6365559 13.586446,17.4078084 C13.2939658,17.1662738 13.033352,16.8942936 12.7662431,16.6271847 L1.2340797,5.09502129 C0.967173762,4.82811535 0.694990594,4.56770446 0.453658911,4.27502129 C0.224911386,3.99756089 2.02970297e-05,3.65535297 2.02970297e-05,3.26301139 C2.02970297e-05,2.87087277 0.224911386,2.52866485 0.453658911,2.25140743 C0.694990594,1.95872426 0.967173762,1.69831337 1.2340797,1.43120446 L1.36844604,1.29704109 C1.63535198,1.02993218 1.89596584,0.75774901 2.18844604,0.516620297 C2.46590644,0.287669802 2.80831733,0.0627787129 3.20045594,0.0629816832 C3.59259455,0.0629816832 3.93480248,0.287669802 4.2120599,0.516417327 C4.50474307,0.75774901 4.76535693,1.02993218 5.03226287,1.29704109 L16.5644262,12.8290015 Z" id="Fill-12" fill-opacity="0.4" fill="#FFFFFF" mask="url(#mask-38)"></path>
            </g>
            <g id="Group-17" transform="translate(22.732673, 0.000203)">
                <mask id="mask-40" fill="white">
                    <use xlink:href="#path-39"></use>
                </mask>
                <g id="Clip-16"></g>
                <path d="M16.6274485,12.9689292 C16.8943545,13.2358351 17.1665376,13.496652 17.4078693,13.7891322 C17.6366168,14.0663896 17.8617109,14.4088005 17.8617109,14.8009391 C17.8617109,15.1930777 17.6368198,15.5354886 17.4080723,15.812746 C17.1667406,16.1052262 16.8945574,16.3658401 16.6274485,16.632949 L16.4932851,16.7671124 C16.2261762,17.0340183 15.9657653,17.3062015 15.6730822,17.5475332 C15.3958248,17.7764837 15.0534139,18.0013748 14.6610723,18.0013748 C14.2691366,18.0011718 13.9267257,17.7764837 13.6494683,17.5477361 C13.3569881,17.3062015 13.0963743,17.0342213 12.8292653,16.7671124 L1.29710198,5.23494901 C1.03019604,4.96804307 0.758012871,4.70763218 0.516884158,4.41494901 C0.287933663,4.13748861 0.0630425743,3.79528069 0.0630425743,3.40293911 C0.0630425743,3.0108005 0.287933663,2.66859257 0.516681188,2.39133515 C0.758012871,2.09865198 1.03019604,1.83803812 1.29710198,1.57113218 L1.43146832,1.43696881 C1.69837426,1.1698599 1.95898812,0.897676733 2.25146832,0.65654802 C2.52892871,0.427597525 2.8713396,0.202706436 3.26347822,0.202706436 C3.65561683,0.202909406 3.99782475,0.427597525 4.27508218,0.65634505 C4.56776535,0.897676733 4.82837921,1.1698599 5.09528515,1.43696881 L16.6274485,12.9689292 Z" id="Fill-15" fill="#FFFFFF" mask="url(#mask-40)"></path>
            </g>
            <path d="M81.1533703,24.2328064 C81.4202762,23.9659005 81.6808901,23.6937173 81.9735733,23.4523856 C82.2508307,23.2234351 82.5932416,22.9985441 82.9853802,22.998747 C83.3775188,22.998747 83.7199297,23.2234351 83.9971871,23.4521827 C84.2896673,23.6937173 84.5502812,23.9659005 84.8173901,24.2328064 L84.9515535,24.3669698 C85.2184594,24.6340787 85.4906426,24.8946926 85.7319743,25.1871728 C85.9609248,25.4644302 86.1858158,25.8068411 86.1856129,26.1991827 C86.1856129,26.5911183 85.9609248,26.9335292 85.7321772,27.2107866 C85.4908455,27.5032668 85.2186624,27.7638807 84.9515535,28.0309896 L73.4193901,39.56295 C73.1524842,39.8300589 72.8918703,40.1022421 72.5993901,40.3435738 C72.3221327,40.5723213 71.9795188,40.7972124 71.5873802,40.7972124 C71.1952416,40.7972124 70.8530337,40.5723213 70.5757762,40.3435738 C70.2830931,40.1022421 70.0226822,39.8302619 69.7555733,39.56295 L69.6214099,39.4287866 C69.354301,39.1618807 69.0821178,38.9014698 68.8407861,38.6087866 C68.6120386,38.3313262 68.3871475,37.9889153 68.3871475,37.5967767 C68.3871475,37.2046381 68.6120386,36.8624302 68.8407861,36.5849698 C69.0821178,36.2924896 69.354301,36.0320787 69.6214099,35.7647668 L81.1533703,24.2328064 Z" id="Fill-18" fill-opacity="0.4" fill="#FFFFFF"></path>
            <g id="Group-22" transform="translate(68.198020, 0.000203)" fill="#FFFFFF" fill-opacity="0.4">
                <path d="M16.7535134,12.9689292 C17.0204193,13.2358351 17.2926025,13.496652 17.5339342,13.7891322 C17.7628847,14.0663896 17.9877757,14.4088005 17.9877757,14.8009391 C17.9877757,15.1930777 17.7628847,15.5354886 17.5341371,15.812746 C17.2928054,16.1052262 17.0206223,16.3658401 16.7535134,16.632949 L16.61935,16.7671124 C16.3522411,17.0340183 16.0918302,17.3062015 15.799147,17.5475332 C15.5218896,17.7764837 15.1794787,18.0013748 14.7871371,18.0013748 C14.3952015,18.0011718 14.0527906,17.7764837 13.7755332,17.5477361 C13.483053,17.3062015 13.2224391,17.0342213 12.9553302,16.7671124 L1.4233698,5.23494901 C1.15626089,4.96804307 0.884077723,4.70763218 0.64274604,4.41494901 C0.413998515,4.13748861 0.189107426,3.79528069 0.189107426,3.40293911 C0.189107426,3.0108005 0.413998515,2.66859257 0.64274604,2.39133515 C0.884077723,2.09865198 1.15626089,1.83803812 1.4233698,1.57113218 L1.55753317,1.43696881 C1.82443911,1.1698599 2.08505297,0.897676733 2.37753317,0.65654802 C2.65499356,0.427597525 2.99740446,0.202706436 3.38954307,0.202706436 C3.78168168,0.202909406 4.1238896,0.427597525 4.40114703,0.65634505 C4.6938302,0.897676733 4.95444406,1.1698599 5.22155297,1.43696881 L16.7535134,12.9689292 Z" id="Fill-20"></path>
            </g>
            <path d="M127.549133,18.6360629 L127.549133,30.7134045 L122.98494,30.7134045 L122.98494,19.4844787 C122.98494,16.5357262 121.328905,14.7181272 118.66289,14.7181272 C116.885682,14.7181272 115.068083,15.9298599 114.179276,17.4243302 L114.300652,18.1109787 L114.300652,30.7134045 L109.776445,30.7134045 L109.776445,19.4844787 C109.776445,16.5357262 108.039831,14.7181272 105.53538,14.7181272 C103.515826,14.7181272 101.859791,15.8894688 101.051969,17.4647213 L101.051969,30.7134045 L96.5683554,30.7134045 L96.5683554,10.961553 L101.051969,10.961553 L101.051969,13.5467856 C102.021152,12.2136767 104.000519,10.5576421 107.070242,10.5576421 C109.776445,10.5576421 111.755811,11.5676223 113.007935,13.7487411 C114.341044,12.1732856 116.602742,10.5576421 119.470712,10.5576421 C124.237063,10.5576421 127.549133,13.7487411 127.549133,18.6360629 Z M150.005705,21.5846733 C150.005705,27.2396287 146.249334,31.1173762 140.796334,31.1173762 C135.343537,31.1173762 131.546572,27.2396287 131.546572,21.5846733 L131.546572,10.9616139 L136.070577,10.9616139 L136.070577,21.5846733 C136.070577,24.7757723 137.888176,26.7953267 140.796334,26.7953267 C143.623913,26.7953267 145.522295,24.7757723 145.522295,21.5846733 L145.522295,10.9616139 L150.005705,10.9616139 L150.005705,21.5846733 Z M154.044104,30.7134653 L154.044104,2.43889109 L158.527718,2.43889109 L158.527718,30.7134653 L154.044104,30.7134653 Z M161.475699,20.8576337 C161.475699,15.0009257 165.918922,10.557703 171.694848,10.557703 C176.461199,10.557703 180.540902,13.748802 181.146565,18.0302574 L176.541981,18.0302574 C176.057288,16.2126584 174.037734,14.8797525 171.694848,14.8797525 C168.423169,14.8797525 165.918922,17.4647822 165.918922,20.8576337 C165.918922,24.210297 168.423169,26.7953267 171.694848,26.7953267 C174.037734,26.7953267 176.097679,25.4624208 176.582372,23.4832574 L181.186956,23.4832574 C180.661872,27.9666683 176.501387,31.1173762 171.694848,31.1173762 C165.918922,31.1173762 161.475699,26.7145446 161.475699,20.8576337 Z M184.135059,30.7134653 L184.135059,2.43889109 L188.618673,2.43889109 L188.618673,30.7134653 L184.135059,30.7134653 Z M212.045464,20.8576337 C212.045464,26.7145446 207.56185,31.1173762 201.785722,31.1173762 C196.009796,31.1173762 191.566573,26.7145446 191.566573,20.8576337 C191.566573,15.0009257 196.009796,10.557703 201.785722,10.557703 C207.56185,10.557703 212.045464,15.0009257 212.045464,20.8576337 Z M196.009796,20.8576337 C196.009796,24.210297 198.514044,26.7953267 201.785722,26.7953267 C205.057603,26.7953267 207.602242,24.210297 207.602242,20.8576337 C207.602242,17.4647822 205.057603,14.8797525 201.785722,14.8797525 C198.514044,14.8797525 196.009796,17.4647822 196.009796,20.8576337 Z M233.533341,21.5846733 C233.533341,27.2396287 229.776767,31.1173762 224.32397,31.1173762 C218.87097,31.1173762 215.074207,27.2396287 215.074207,21.5846733 L215.074207,10.9616139 L219.598009,10.9616139 L219.598009,21.5846733 C219.598009,24.7757723 221.415811,26.7953267 224.32397,26.7953267 C227.151346,26.7953267 229.049727,24.7757723 229.049727,21.5846733 L229.049727,10.9616139 L233.533341,10.9616139 L233.533341,21.5846733 Z M256.838675,2.4388505 L256.838675,30.7134248 L252.355264,30.7134248 L252.355264,28.0474099 C251.304893,29.8248208 248.679675,31.1173356 246.054051,31.1173356 C240.722427,31.1173356 236.561739,26.5933307 236.561739,20.817405 C236.561739,15.0816673 240.722427,10.5576624 246.054051,10.5576624 C248.679675,10.5576624 251.304893,11.8501772 252.355264,13.6275881 L252.355264,2.4388505 L256.838675,2.4388505 Z M252.355264,23.8871277 L252.355264,17.8282614 C251.385878,16.0914446 249.24515,14.8393208 246.983046,14.8393208 C243.589992,14.8393208 241.004962,17.3839594 241.004962,20.817405 C241.004962,24.2506475 243.589992,26.8356772 246.983046,26.8356772 C249.204759,26.8356772 251.385878,25.5835535 252.355264,23.8871277 Z" id="Combined-Shape" fill="#FFFFFF"></path>
        </g>
    </g>
</svg>