<?xml version="1.0" encoding="UTF-8"?>
<svg width="880px" height="556px" viewBox="0 0 880 556" version="1.1" xmlns="http://www.w3.org/2000/svg" xmlns:xlink="http://www.w3.org/1999/xlink">
    <!-- Generator: Sketch 51.3 (57544) - http://www.bohemiancoding.com/sketch -->
    <title>Artboard</title>
    <desc>Created with Sketch.</desc>
    <defs>
        <polygon id="path-1" points="0.126125743 0.202767327 17.9245911 0.202767327 17.9245911 18.001253 0.126125743 18.001253"></polygon>
        <polygon id="path-3" points="6.08910891e-05 0.202767327 17.7985262 0.202767327 17.7985262 18.001253 6.08910891e-05 18.001253"></polygon>
        <polygon id="path-5" points="0.100896535 0.0243767327 32.3244406 0.0243767327 32.3244406 3.67784208 0.100896535 3.67784208"></polygon>
        <polygon id="path-7" points="0.101398507 0.02449801 32.4852587 0.02449801 32.4852587 3.6961398 0.101398507 3.6961398"></polygon>
        <polygon id="path-9" points="0.101398507 0.02449801 32.4852587 0.02449801 32.4852587 3.6961398 0.101398507 3.6961398"></polygon>
        <polygon id="path-11" points="0.101398507 0.02449801 32.4852587 0.02449801 32.4852587 3.6961398 0.101398507 3.6961398"></polygon>
    </defs>
    <g id="Artboard" stroke="none" stroke-width="1" fill="none" fill-rule="evenodd">
        <rect id="Rectangle" stroke="#DDDDDD" fill="#FFFFFF" x="0.796628411" y="33.9140625" width="419.799696" height="191.531988" rx="10"></rect>
        <g id="Group-70" transform="translate(103.196476, 109.437954)">
            <g id="Group-3" transform="translate(45.465347, 0.000203)">
                <mask id="mask-2" fill="white">
                    <use xlink:href="#path-1"></use>
                </mask>
                <g id="Clip-2"></g>
                <path d="M12.8923485,1.43684703 C13.1592545,1.16994109 13.4198683,0.897757921 13.7125515,0.656426238 C13.9898089,0.427678713 14.3322198,0.202584653 14.7243584,0.202584653 C15.116497,0.202787624 15.458705,0.427678713 15.7359624,0.656426238 C16.0286455,0.897757921 16.2892594,1.16994109 16.5561653,1.43684703 L16.6905317,1.57121337 C16.9576406,1.83811931 17.2296208,2.09873317 17.4709525,2.39121337 C17.6997,2.66847079 17.9245911,3.01088168 17.9245911,3.40322327 C17.9245911,3.79536188 17.6997,4.1375698 17.4709525,4.41482723 C17.2298238,4.7075104 16.9576406,4.96792129 16.6905317,5.2350302 L5.15836832,16.7671936 C4.89146238,17.0343025 4.63084851,17.3062827 4.33836832,17.5476144 C4.06090792,17.7763619 3.71849703,18.001253 3.32635842,18.001253 C2.9342198,18.001253 2.59201188,17.7763619 2.31475446,17.5476144 C2.02207129,17.3064856 1.76145743,17.0343025 1.49455149,16.7671936 L1.36018515,16.6328272 C1.09327921,16.3659213 0.82109604,16.1055104 0.579764356,15.8128272 C0.351016832,15.5355698 0.126125743,15.1929559 0.126125743,14.8008173 C0.126125743,14.4086787 0.351016832,14.0664708 0.579764356,13.7892134 C0.82109604,13.4965302 1.09327921,13.2359163 1.36018515,12.9690104 L12.8923485,1.43684703 Z" id="Fill-1" fill="#2B4EEF" mask="url(#mask-2)"></path>
            </g>
            <path d="M35.5619792,24.2327455 C35.8288851,23.9658396 36.089499,23.6938594 36.3819792,23.4523248 C36.6594396,23.2235772 37.0018505,22.9986861 37.3939891,22.9986861 C37.7861277,22.9986861 38.1283356,23.2233743 38.4055931,23.4521218 C38.6982762,23.6936564 38.9588901,23.9658396 39.225796,24.2327455 L39.3601624,24.3671119 C39.6270683,24.6340178 39.8992515,24.8946317 40.1405832,25.1871119 C40.3693307,25.4643693 40.5942218,25.8069832 40.5942218,26.1991218 C40.5942218,26.5910574 40.3695337,26.9334683 40.1407861,27.2107257 C39.8992515,27.5032059 39.6272713,27.7638198 39.3601624,28.0309287 L27.827999,39.5630921 C27.5610931,39.830201 27.3004792,40.1021812 27.007999,40.3435129 C26.7305386,40.5722604 26.3881277,40.7971515 25.9959891,40.7971515 C25.6038505,40.7971515 25.2616426,40.5722604 24.9843851,40.3435129 C24.691702,40.1023842 24.4310881,39.830201 24.1641822,39.5630921 L24.0298158,39.4287257 C23.7629099,39.1618198 23.4907267,38.9014089 23.249395,38.6087257 C23.0206475,38.3314683 22.7957564,37.9888545 22.7957564,37.5967158 C22.7957564,37.2045772 23.0206475,36.8625723 23.249395,36.5851119 C23.4907267,36.2924287 23.7629099,36.0320178 24.0298158,35.7649089 L35.5619792,24.2327455 Z" id="Fill-4" fill="#2B4EEF"></path>
            <path d="M62.1559594,35.7649901 C62.4228653,36.031896 62.6948455,36.2925099 62.9363802,36.5849901 C63.1651277,36.8622475 63.3900188,37.2048614 63.3900188,37.596797 C63.3900188,37.9889356 63.1651277,38.3313465 62.9363802,38.608604 C62.6950485,38.9010842 62.4228653,39.161698 62.1559594,39.4288069 L62.0215931,39.5631733 C61.7544842,39.8300792 61.4940733,40.1020594 61.2015931,40.3435941 C60.9241327,40.5723416 60.5817218,40.7972327 60.1895832,40.7972327 C59.7974446,40.7972327 59.4552366,40.5723416 59.1779792,40.3435941 C58.885296,40.1022624 58.6248851,39.8300792 58.3577762,39.5631733 L46.8256129,28.0310099 C46.558504,27.763901 46.2865238,27.5034901 46.0451921,27.2108069 C45.8164446,26.9335495 45.5913505,26.5911386 45.5915535,26.198797 C45.5915535,25.8066584 45.8164446,25.4646535 46.0449891,25.187396 C46.2863208,24.8945099 46.558504,24.634099 46.8256129,24.3671931 L46.9597762,24.2328267 C47.2268851,23.9657178 47.487296,23.6937376 47.7797762,23.4524059 C48.0572366,23.2236584 48.3996475,22.9987673 48.7919891,22.9987673 C49.1839248,22.9987673 49.5261327,23.2234554 49.8035931,23.452203 C50.0960733,23.6935347 50.3566871,23.9657178 50.623796,24.2328267 L62.1559594,35.7649901 Z" id="Fill-6" fill="#2B4EEF"></path>
            <g id="Group-10" transform="translate(0.000000, 0.000203)">
                <mask id="mask-4" fill="white">
                    <use xlink:href="#path-3"></use>
                </mask>
                <g id="Clip-9"></g>
                <path d="M12.7662837,1.43684703 C13.0331896,1.16994109 13.2938035,0.897757921 13.5862837,0.656426238 C13.8637441,0.427678713 14.206155,0.202584653 14.5982936,0.202584653 C14.9904322,0.202787624 15.3326401,0.427678713 15.6098975,0.656426238 C15.9025807,0.897757921 16.1631946,1.16994109 16.4301005,1.43684703 L16.5644668,1.57121337 C16.8313728,1.83811931 17.1035559,2.09873317 17.3448876,2.39121337 C17.5736351,2.66847079 17.7985262,3.01088168 17.7985262,3.40322327 C17.7985262,3.79536188 17.5738381,4.1375698 17.3450906,4.41482723 C17.1035559,4.7075104 16.8313728,4.96792129 16.5644668,5.2350302 L5.03230347,16.7671936 C4.76539752,17.0343025 4.50478366,17.3062827 4.21230347,17.5476144 C3.93484307,17.7763619 3.59243218,18.001253 3.20029356,18.001253 C2.80815495,18.001253 2.46594703,17.7763619 2.1886896,17.5476144 C1.89600644,17.3064856 1.63539257,17.0343025 1.36848663,16.7671936 L1.2341203,16.6328272 C0.967214356,16.3659213 0.695031188,16.1055104 0.453699505,15.8128272 C0.22495198,15.5355698 6.08910891e-05,15.1929559 6.08910891e-05,14.8008173 C6.08910891e-05,14.4086787 0.22495198,14.0666738 0.453496535,13.7892134 C0.695031188,13.4965302 0.967214356,13.2359163 1.2341203,12.9690104 L12.7662837,1.43684703 Z" id="Fill-8" fill-opacity="0.4" fill="#2B4EEF" mask="url(#mask-4)"></path>
            </g>
            <path d="M16.5644465,35.7649901 C16.8313525,36.031896 17.1035356,36.2925099 17.3448673,36.5849901 C17.5736149,36.8622475 17.7987089,37.2048614 17.7987089,37.596797 C17.7985059,37.9889356 17.5738178,38.3313465 17.3450703,38.608604 C17.1035356,38.9010842 16.8313525,39.161698 16.5644465,39.4288069 L16.4300802,39.5631733 C16.1631743,39.8300792 15.9027634,40.1020594 15.6100802,40.3435941 C15.3328228,40.5723416 14.9904119,40.7972327 14.5980703,40.7972327 C14.2059317,40.7972327 13.8637238,40.5723416 13.5864663,40.3435941 C13.2939861,40.1022624 13.0333723,39.8300792 12.7662634,39.5631733 L1.2341,28.0310099 C0.967194059,27.763901 0.695010891,27.5034901 0.453679208,27.2108069 C0.224931683,26.9335495 4.05940594e-05,26.5911386 4.05940594e-05,26.198797 C4.05940594e-05,25.8066584 0.224931683,25.4646535 0.453476238,25.187396 C0.695010891,24.8945099 0.967194059,24.634099 1.2341,24.3671931 L1.36846634,24.2328267 C1.63537228,23.9657178 1.89598614,23.6937376 2.18846634,23.4524059 C2.46592673,23.2236584 2.80833762,22.9987673 3.20047624,22.9987673 C3.59261485,22.9987673 3.93482277,23.2234554 4.2120802,23.452203 C4.5045604,23.6935347 4.76537723,23.9657178 5.03228317,24.2328267 L16.5644465,35.7649901 Z" id="Fill-11" fill-opacity="0.4" fill="#2B4EEF"></path>
            <path d="M39.3601421,12.9691931 C39.627048,13.236099 39.8992312,13.4967129 40.1405629,13.789396 C40.3693104,14.0666535 40.5944045,14.4090644 40.5944045,14.801203 C40.5942015,15.1933416 40.3695134,15.5355495 40.1407658,15.8128069 C39.8992312,16.1054901 39.627251,16.366104 39.3601421,16.6330099 L39.2257757,16.7673762 C38.9588698,17.0344851 38.6984589,17.3064653 38.4057757,17.547797 C38.1285183,17.7765446 37.7861074,18.0014356 37.3937658,18.0014356 C37.0018302,18.0014356 36.6594193,17.7765446 36.3821619,17.547797 C36.0896817,17.3066683 35.8290678,17.0344851 35.5619589,16.7673762 L24.0297955,5.23521287 C23.7628896,4.96830693 23.4907064,4.70769307 23.2495777,4.41521287 C23.0206272,4.13775248 22.7957361,3.79534158 22.7957361,3.40320297 C22.7957361,3.01106436 23.0206272,2.66885644 23.2493748,2.39159901 C23.4907064,2.09891584 23.7628896,1.83830198 24.0297955,1.57139604 L24.1641619,1.4370297 C24.4310678,1.17012376 24.6916817,0.897940594 24.9841619,0.656608911 C25.2616223,0.427861386 25.6040332,0.202970297 25.9961718,0.202970297 C26.3883104,0.202970297 26.7305183,0.427861386 27.0077757,0.656608911 C27.3004589,0.897940594 27.5610728,1.17012376 27.8279787,1.4370297 L39.3601421,12.9691931 Z" id="Fill-13" fill="#2B4EEF"></path>
            <path d="M81.1534921,24.2327455 C81.420398,23.9658396 81.6810119,23.6938594 81.9734921,23.4523248 C82.2507495,23.2235772 82.5933634,22.9986861 82.985299,22.9986861 C83.3774376,22.9986861 83.7198485,23.2233743 83.9971059,23.4521218 C84.2895861,23.6936564 84.5502,23.9658396 84.8173089,24.2327455 L84.9516752,24.3671119 C85.2185812,24.6340178 85.4905614,24.8946317 85.732096,25.1871119 C85.9608436,25.4643693 86.1857347,25.8069832 86.1857347,26.1991218 C86.1857347,26.5910574 85.9608436,26.9334683 85.732096,27.2107257 C85.4907644,27.5032059 85.2185812,27.7638198 84.9516752,28.0309287 L73.4195119,39.5630921 C73.152403,39.830201 72.8919921,40.1021812 72.5993089,40.3435129 C72.3220515,40.5722604 71.9796406,40.7971515 71.587299,40.7971515 C71.1951604,40.7971515 70.8531554,40.5722604 70.575898,40.3435129 C70.2830119,40.1023842 70.022601,39.830201 69.755695,39.5630921 L69.6213287,39.4287257 C69.3542198,39.1618198 69.0822396,38.9014089 68.8409079,38.6087257 C68.6121604,38.3314683 68.3872693,37.9888545 68.3872693,37.5967158 C68.3872693,37.2045772 68.6119574,36.8625723 68.840705,36.5851119 C69.0820366,36.2924287 69.3542198,36.0320178 69.6213287,35.7649089 L81.1534921,24.2327455 Z" id="Fill-15" fill-opacity="0.4" fill="#2B4EEF"></path>
            <path d="M84.951655,12.9691931 C85.2185609,13.236099 85.4905411,13.4967129 85.7320757,13.789396 C85.9608233,14.0666535 86.1857144,14.4090644 86.1857144,14.801203 C86.1857144,15.1933416 85.9608233,15.5355495 85.7320757,15.8128069 C85.4907441,16.1054901 85.2185609,16.366104 84.951655,16.6330099 L84.8172886,16.7673762 C84.5501797,17.0344851 84.2897688,17.3064653 83.9972886,17.547797 C83.7200312,17.7765446 83.3774173,18.0014356 82.9852787,18.0014356 C82.5931401,18.0014356 82.2509322,17.7765446 81.9736748,17.547797 C81.6809916,17.3066683 81.4205807,17.0344851 81.1534718,16.7673762 L69.6213084,5.23521287 C69.3541995,4.96830693 69.0822193,4.70769307 68.8408876,4.41521287 C68.6121401,4.13775248 68.387249,3.79534158 68.387249,3.40320297 C68.387249,3.01106436 68.6119371,2.66885644 68.8406847,2.39159901 C69.0820163,2.09891584 69.3541995,1.83830198 69.6213084,1.57139604 L69.7556748,1.4370297 C70.0223777,1.17012376 70.2829916,0.897940594 70.5756748,0.656608911 C70.8529322,0.427861386 71.195546,0.202970297 71.5874817,0.202970297 C71.9796203,0.202970297 72.3218282,0.427861386 72.5992886,0.656608911 C72.8917688,0.897940594 73.1523827,1.17012376 73.4194916,1.4370297 L84.951655,12.9691931 Z" id="Fill-17" fill-opacity="0.4" fill="#2B4EEF"></path>
            <path d="M179.384783,32.0736708 C179.052521,32.0988391 178.795966,32.3756906 178.795966,32.7087649 L178.795966,35.3772153 C178.795966,35.5544084 178.869848,35.7236856 178.999951,35.84425 C179.12965,35.9646114 179.304204,36.0257054 179.480788,36.0121064 L198.528333,34.5738589 C198.860595,34.5488936 199.117352,34.2720421 199.117352,33.9387649 L199.117352,31.2705173 C199.117352,31.0933243 199.043471,30.924047 198.91357,30.8034827 C198.783466,30.6829183 198.609318,30.6222302 198.432531,30.6354233 L179.384783,32.0736708 Z" id="Fill-19" fill="#283266"></path>
            <path d="M182.375408,32.1912109 L186.559032,32.1248396 C186.813557,32.1207802 187.04129,31.9655079 187.138106,31.7300624 L191.258606,21.694805 C191.324166,21.5350673 191.321933,21.3552356 191.252517,21.1971218 C191.183304,21.0390079 191.052592,20.915602 190.890621,20.8557257 L188.138953,19.8366119 C187.817448,19.7176713 187.459814,19.8739584 187.328899,20.190795 L182.375408,32.1912109 Z" id="Fill-21" fill="#283266"></path>
            <path d="M201.938071,24.6965733 C201.790309,24.3921178 201.430443,24.2563307 201.118477,24.3874495 L198.637977,25.4290931 C198.477225,25.4964792 198.35118,25.6269891 198.289274,25.7899743 C198.227368,25.9529594 198.235081,26.1342119 198.310383,26.2913109 L203.595933,37.3253851 C203.746131,37.6389743 204.120408,37.7741525 204.436636,37.6286228 L206.929923,36.4816376 C207.085195,36.4101921 207.205556,36.2790733 207.2632,36.1179149 C207.321047,35.9569594 207.311507,35.7793604 207.236611,35.6253059 L201.938071,24.6965733 Z" id="Fill-23" fill="#283266"></path>
            <g id="Group-27" transform="translate(176.584158, 14.005153)">
                <mask id="mask-6" fill="white">
                    <use xlink:href="#path-5"></use>
                </mask>
                <g id="Clip-26"></g>
                <path d="M0.737817327,0.0243767327 C0.386069802,0.0243767327 0.100896535,0.30934703 0.100896535,0.661297525 L0.100896535,3.04092129 C0.100896535,3.39266881 0.386069802,3.67784208 0.737817327,3.67784208 L31.6875401,3.67784208 C32.0392876,3.67784208 32.3244609,3.39266881 32.3244609,3.04092129 L32.3244609,0.661297525 C32.3244609,0.30934703 32.0392876,0.0243767327 31.6875401,0.0243767327 L0.737817327,0.0243767327 Z" id="Fill-25" fill="#283266" mask="url(#mask-6)"></path>
            </g>
            <path d="M181.194649,4.05960891 C180.842901,4.05960891 180.557728,4.34478218 180.557728,4.6965297 L180.557728,7.07615347 C180.557728,7.42790099 180.842901,7.71307426 181.194649,7.71307426 L204.399025,7.71307426 C204.750976,7.71307426 205.035946,7.42790099 205.035946,7.07615347 L205.035946,4.6965297 C205.035946,4.34478218 204.750976,4.05960891 204.399025,4.05960891 L181.194649,4.05960891 Z" id="Fill-28" fill="#283266"></path>
            <path d="M147.708914,32.0734678 C147.376854,32.0986361 147.120503,32.3754876 147.120503,32.7085619 L147.120503,35.3768094 C147.120503,35.5542054 147.194181,35.7234827 147.324082,35.844047 C147.454186,35.9646114 147.628538,36.0255025 147.805528,36.0119035 L163.857231,34.7932698 C164.18929,34.7681015 164.445845,34.491453 164.445845,34.1583787 L164.445845,31.4899282 C164.445845,31.3127351 164.371963,31.1434579 164.241859,31.0228936 C164.111958,30.9023292 163.937607,30.8416411 163.76082,30.8550371 L147.708914,32.0734678 Z" id="Fill-30" fill="#283266"></path>
            <path d="M150.480534,32.1912109 L154.656242,32.1250426 C154.915029,32.1207802 155.145198,31.9608396 155.239376,31.7201168 L158.501514,23.3691069 C158.563623,23.2099782 158.559361,23.0325822 158.489336,22.876498 C158.419311,22.7208198 158.289816,22.5994436 158.129673,22.5401762 L155.375569,21.5202505 C155.051019,21.4000921 154.689732,21.5612505 154.562267,21.8829584 L150.480534,32.1912109 Z" id="Fill-32" fill="#283266"></path>
            <path d="M138.633138,4.00827772 C138.35994,3.79353515 137.964959,3.83737673 137.745549,4.10692129 L135.992291,6.26084208 C135.884514,6.39338168 135.83438,6.56347079 135.853256,6.73315396 C135.872133,6.90283713 135.958395,7.05790644 136.092558,7.16345099 L142.617445,12.2947431 C142.890643,12.5094856 143.285623,12.4656441 143.505034,12.1960995 L145.258291,10.0421787 C145.366068,9.90963911 145.416202,9.73955 145.397326,9.56966386 C145.37845,9.39998069 145.29239,9.24511436 145.157821,9.1395698 L138.633138,4.00827772 Z" id="Fill-34" fill="#283266"></path>
            <path d="M137.462689,37.5703297 C137.720055,37.7909584 138.104887,37.7712703 138.338506,37.5258792 L144.727199,30.8146663 C144.965486,30.564201 144.960615,30.1696267 144.716239,29.9252505 L142.767115,27.9759238 C142.645739,27.8547505 142.480724,27.7875673 142.309214,27.789597 C142.137501,27.7916267 141.974313,27.8628693 141.855981,27.9868842 L135.316075,34.8472802 C135.195511,34.9737307 135.132387,35.1442257 135.141115,35.3187802 C135.14964,35.4933347 135.230016,35.6565228 135.362555,35.7701861 L137.462689,37.5703297 Z" id="Fill-36" fill="#283266"></path>
            <path d="M167.633107,25.6430441 C167.484736,25.3402124 167.125682,25.2056431 166.814731,25.336153 L164.334231,26.3779995 C164.173276,26.4455886 164.047028,26.5767074 163.985122,26.7398955 C163.923419,26.9034896 163.931538,27.085148 164.007652,27.24245 L168.923187,37.4017223 C169.074602,37.7138906 169.447459,37.847851 169.762672,37.7027272 L172.255756,36.555945 C172.41184,36.4842965 172.532201,36.3527718 172.589642,36.1910045 C172.647286,36.0292371 172.636934,35.8512322 172.561429,35.6969748 L167.633107,25.6430441 Z" id="Fill-38" fill="#283266"></path>
            <path d="M158.28736,2.23287624 C157.935613,2.23287624 157.65044,2.5180495 157.65044,2.86979703 L157.65044,18.3290297 C157.65044,18.6805743 157.935613,18.9657475 158.28736,18.9657475 L161.397677,18.9657475 C161.749628,18.9657475 162.034598,18.6805743 162.034598,18.3290297 L162.034598,2.86979703 C162.034598,2.5180495 161.749628,2.23287624 161.397677,2.23287624 L158.28736,2.23287624 Z" id="Fill-40" fill="#283266"></path>
            <path d="M147.984446,16.335354 C147.632901,16.335354 147.347525,16.6203243 147.347525,16.9720718 L147.347525,19.3518985 C147.347525,19.703646 147.632901,19.9888193 147.984446,19.9888193 L171.627441,19.9888193 C171.979189,19.9888193 172.264362,19.703646 172.264362,19.3518985 L172.264362,16.9720718 C172.264362,16.6203243 171.979189,16.335354 171.627441,16.335354 L147.984446,16.335354 Z" id="Fill-42" fill="#283266"></path>
            <path d="M149.665081,7.64002525 C149.313536,7.64002525 149.02816,7.92519851 149.02816,8.27694604 L149.02816,10.6565698 C149.02816,11.0083173 149.313536,11.2934906 149.665081,11.2934906 L169.946888,11.2934906 C170.298432,11.2934906 170.583808,11.0083173 170.583808,10.6565698 L170.583808,8.27694604 C170.583808,7.92519851 170.298432,7.64002525 169.946888,7.64002525 L149.665081,7.64002525 Z" id="Fill-44" fill="#283266"></path>
            <path d="M138.633726,14.9006787 C138.360731,14.6835005 137.963518,14.7263272 137.743296,14.9970896 L135.990038,17.1510104 C135.882464,17.2829411 135.83233,17.4524213 135.8508,17.6214955 C135.869068,17.7907728 135.954315,17.9454361 136.087464,18.0513866 L141.885919,22.6655104 C142.159117,22.8826886 142.556127,22.8396589 142.776553,22.5690995 L144.52981,20.4149757 C144.637182,20.283248 144.687315,20.1137678 144.669048,19.9446936 C144.650984,19.7754163 144.565736,19.620753 144.432385,19.5145995 L138.633726,14.9006787 Z" id="Fill-46" fill="#283266"></path>
            <path d="M119.523403,25.9855564 C119.326725,25.9015267 119.101022,25.9220267 118.922408,26.0399525 C118.743997,26.1576752 118.636626,26.357195 118.636626,26.5713287 L118.636626,29.2759079 C118.636626,29.5322594 118.790274,29.7634426 119.026532,29.862898 L130.006616,34.482502 C130.143012,34.5399426 130.299299,34.5251257 130.422502,34.4433287 C130.545908,34.3615317 130.619992,34.2233089 130.619992,34.0751406 L130.619992,31.1424228 C130.619992,30.8872891 130.467764,30.6569178 130.233131,30.5566505 L119.523403,25.9855564 Z" id="Fill-48" fill="#283266"></path>
            <path d="M111.601208,31.1601015 C111.249461,31.1601015 110.964288,31.4452748 110.964288,31.7970223 L110.964288,37.3188292 C110.964288,37.6705767 111.249461,37.955547 111.601208,37.955547 L115.004005,37.955547 C115.35555,37.955547 115.640723,37.6705767 115.640723,37.3188292 L115.640723,31.7970223 C115.640723,31.4452748 115.35555,31.1601015 115.004005,31.1601015 L111.601208,31.1601015 Z" id="Fill-50" fill="#283266"></path>
            <path d="M122.290071,16.347045 C122.290071,15.9952975 122.0051,15.7101243 121.65315,15.7101243 L119.346596,15.7101243 C118.994848,15.7101243 118.709675,15.9952975 118.709675,16.347045 L118.709675,23.6953817 C118.709675,24.0473322 118.994848,24.3323025 119.346596,24.3323025 L121.65315,24.3323025 C122.0051,24.3323025 122.290071,24.0473322 122.290071,23.6953817 L122.290071,16.347045 Z" id="Fill-52" fill="#283266"></path>
            <path d="M129.377773,21.8272431 C129.377773,21.4754955 129.092803,21.1903223 128.740852,21.1903223 L119.346575,21.1903223 C118.994828,21.1903223 118.709654,21.4754955 118.709654,21.8272431 L118.709654,23.768451 C118.709654,24.1201985 118.994828,24.4053718 119.346575,24.4053718 L128.740852,24.4053718 C129.092803,24.4053718 129.377773,24.1201985 129.377773,23.768451 L129.377773,21.8272431 Z" id="Fill-54" fill="#283266"></path>
            <path d="M127.258865,16.0546866 C127.258865,15.7031421 126.973692,15.4177658 126.621944,15.4177658 L119.346677,15.4177658 C118.994726,15.4177658 118.709756,15.7031421 118.709756,16.0546866 L118.709756,17.9958946 C118.709756,18.347845 118.994726,18.6328153 119.346677,18.6328153 L126.621944,18.6328153 C126.973692,18.6328153 127.258865,18.347845 127.258865,17.9958946 L127.258865,16.0546866 Z" id="Fill-56" fill="#283266"></path>
            <path d="M104.878812,15.7101851 C104.527267,15.7101851 104.241891,15.9951554 104.241891,16.3471059 L104.241891,23.6954426 C104.241891,24.0471901 104.527267,24.3321604 104.878812,24.3321604 L107.185366,24.3321604 C107.537317,24.3321604 107.822287,24.0471901 107.822287,23.6954426 L107.822287,16.3471059 C107.822287,15.9951554 107.537317,15.7101851 107.185366,15.7101851 L104.878812,15.7101851 Z" id="Fill-58" fill="#283266"></path>
            <path d="M97.7911094,21.1903832 C97.4393619,21.1903832 97.1541886,21.4753535 97.1541886,21.827304 L97.1541886,23.7685119 C97.1541886,24.1202594 97.4393619,24.4054327 97.7911094,24.4054327 L107.185387,24.4054327 C107.537337,24.4054327 107.822307,24.1202594 107.822307,23.7685119 L107.822307,21.827304 C107.822307,21.4753535 107.537337,21.1903832 107.185387,21.1903832 L97.7911094,21.1903832 Z" id="Fill-60" fill="#283266"></path>
            <path d="M99.9100178,15.4178267 C99.5584733,15.4178267 99.2733,15.703 99.2733,16.0547475 L99.2733,17.9959554 C99.2733,18.3479059 99.5584733,18.6328762 99.9100178,18.6328762 L107.800488,18.6328762 C107.812666,18.6328762 107.822206,18.6231337 107.822206,18.6109554 L107.822206,16.0547475 C107.822206,15.703 107.537236,15.4178267 107.185488,15.4178267 L99.9100178,15.4178267 Z" id="Fill-62" fill="#283266"></path>
            <path d="M111.601208,4.02709307 C111.249461,4.02709307 110.964288,4.31226634 110.964288,4.66401386 L110.964288,24.937702 C110.964288,25.2076525 110.794401,25.4479693 110.54008,25.5378851 L96.3362183,30.5713455 C96.0818965,30.6616673 95.9120104,30.9019842 95.9120104,31.1717317 L95.9120104,34.1521475 C95.9120104,34.2881376 95.9775698,34.415603 96.0879856,34.4945584 C96.1986045,34.5737168 96.3404807,34.5946228 96.4689609,34.5507812 L114.125956,28.5343356 C115.031609,28.2258208 115.640723,27.3747663 115.640723,26.4177614 L115.640723,4.66401386 C115.640723,4.31226634 115.35555,4.02709307 115.004005,4.02709307 L111.601208,4.02709307 Z" id="Fill-64" fill="#283266"></path>
            <path d="M100.640833,2.63881683 C100.289085,2.63881683 100.003912,2.9239901 100.003912,3.27573762 L100.003912,5.65536139 C100.003912,6.00710891 100.289085,6.29228218 100.640833,6.29228218 L125.89115,6.29228218 C126.2431,6.29228218 126.52807,6.00710891 126.52807,5.65536139 L126.52807,3.27573762 C126.52807,2.9239901 126.2431,2.63881683 125.89115,2.63881683 L100.640833,2.63881683 Z" id="Fill-66" fill="#283266"></path>
            <path d="M94.9414064,9.58044158 C94.5896589,9.58044158 94.3044856,9.86561485 94.3044856,10.2171594 L94.3044856,12.5969861 C94.3044856,12.9487337 94.5896589,13.2339069 94.9414064,13.2339069 L131.590535,13.2339069 C131.942486,13.2339069 132.227456,12.9487337 132.227456,12.5969861 L132.227456,10.2171594 C132.227456,9.86561485 131.942486,9.58044158 131.590535,9.58044158 L94.9414064,9.58044158 Z" id="Fill-68" fill="#283266"></path>
        </g>
        <rect id="Rectangle-Copy" fill="#2B4EEF" x="459.384112" y="33.4140625" width="420.799696" height="192.531988" rx="10"></rect>
        <rect id="Rectangle-Copy-2" fill="#283266" x="0" y="292.800781" width="420.799696" height="192.531988" rx="10"></rect>
        <rect id="Rectangle-Copy-3" fill="#1D1E22" x="459.397569" y="292.800781" width="420.799696" height="192.531988" rx="10"></rect>
        <text id="Standard" font-family="KentosT16-Regular, Kentos T16" font-size="15" font-weight="normal" fill="#B3B7CB">
            <tspan x="174.296292" y="257.075751">Standard</tspan>
        </text>
        <text id="Dawn" font-family="KentosT16-Regular, Kentos T16" font-size="15" font-weight="normal" fill="#B3B7CB">
            <tspan x="649.299918" y="257.075751">Dawn</tspan>
        </text>
        <text id="Dusk" font-family="KentosT16-Regular, Kentos T16" font-size="15" font-weight="normal" fill="#B3B7CB">
            <tspan x="652.352418" y="515.543357">Dusk</tspan>
        </text>
        <text id="Star-Night" font-family="KentosT16-Regular, Kentos T16" font-size="15" font-weight="normal" fill="#B3B7CB">
            <tspan x="175.498021" y="515.543357">Star Night</tspan>
        </text>
        <g id="Group-68" transform="translate(562.283960, 109.437954)">
            <path d="M58.6480318,1.2402194 C58.9162657,0.971985572 59.1781761,0.698652239 59.4723154,0.45591592 C59.7509522,0.226030348 60.0950667,-0.00018358209 60.4891562,2.03980099e-05 C60.8832458,2.03980099e-05 61.2271562,0.225826368 61.505793,0.45571194 C61.7999323,0.698448259 62.0618428,0.971985572 62.3300766,1.2402194 L62.4651114,1.37505025 C62.7335493,1.64348806 63.0068826,1.90539851 63.2494149,2.19933383 C63.4793005,2.47797065 63.7053104,2.82228905 63.7053104,3.21637861 C63.7053104,3.61026418 63.4793005,3.95437861 63.2494149,4.23301542 C63.0070866,4.52695075 62.7335493,4.78886119 62.4651114,5.057299 L50.8755741,16.6468363 C50.6073403,16.9152741 50.3454299,17.1886075 50.0514945,17.4311398 C49.7726537,17.6610254 49.4285393,17.8870353 49.0344498,17.8870353 C48.6403602,17.8870353 48.2964498,17.6610254 48.0178129,17.4311398 C47.7236736,17.1888114 47.4617632,16.9152741 47.1935294,16.6468363 L47.0584945,16.5118015 C46.7902607,16.2435677 46.5167234,15.9818612 46.274191,15.6877219 C46.0443055,15.4090851 45.8182955,15.0647667 45.8182955,14.6706771 C45.8182955,14.2765876 46.0443055,13.9326771 46.274191,13.6540403 C46.5167234,13.359901 46.7902607,13.0981945 47.0584945,12.8297567 L58.6480318,1.2402194 Z" id="Fill-1" fill="#FFFFFF"></path>
            <path d="M35.7389045,24.1493264 C36.0071383,23.8810925 36.2690488,23.6077592 36.5629841,23.3650229 C36.8418249,23.1351373 37.1859393,22.9091274 37.5800289,22.9091274 C37.9741184,22.9091274 38.3180289,23.1349333 38.5966657,23.3648189 C38.890805,23.6075552 39.1527154,23.8810925 39.4209493,24.1493264 L39.5559841,24.2843612 C39.8242179,24.552595 40.0977552,24.8145055 40.3402876,25.1084408 C40.5701731,25.3870776 40.7961831,25.731396 40.7961831,26.1254856 C40.7961831,26.5193711 40.5703771,26.8634856 40.3404915,27.1421224 C40.0977552,27.4360577 39.8244219,27.6979682 39.5559841,27.966406 L27.9664468,39.5559433 C27.6982129,39.8243811 27.4363025,40.0977144 27.1423672,40.3402468 C26.8635264,40.5701323 26.5194119,40.7961423 26.1253224,40.7961423 C25.7312328,40.7961423 25.3873224,40.5701323 25.1086856,40.3402468 C24.8145463,40.0979184 24.5526358,39.8243811 24.284402,39.5559433 L24.1493672,39.4209085 C23.8811333,39.1526746 23.607596,38.8909682 23.3650637,38.5968289 C23.1351781,38.318192 22.9091682,37.9738736 22.9091682,37.5797841 C22.9091682,37.1856945 23.1351781,36.8419881 23.3650637,36.5631473 C23.607596,36.269008 23.8811333,36.0073015 24.1493672,35.7388637 L35.7389045,24.1493264 Z" id="Fill-3" fill="#FFFFFF"></path>
            <path d="M62.465193,35.7389453 C62.7334269,36.0071791 63.0067602,36.2690896 63.2494965,36.5630249 C63.4793821,36.8416617 63.705392,37.1859801 63.705392,37.5798657 C63.705392,37.9739552 63.4793821,38.3180697 63.2494965,38.5967065 C63.0069642,38.8906418 62.7334269,39.1525522 62.465193,39.42099 L62.3301582,39.5560249 C62.0617204,39.8242587 61.8000139,40.097592 61.5060786,40.3403284 C61.2272378,40.5702139 60.8831234,40.7962239 60.4890338,40.7962239 C60.0949443,40.7962239 59.7510338,40.5702139 59.472397,40.3403284 C59.1782577,40.097796 58.9165512,39.8242587 58.6481134,39.5560249 L47.0585761,27.9664876 C46.7901383,27.6980498 46.516805,27.4363433 46.2742726,27.142204 C46.0443871,26.8635672 45.8181731,26.5194527 45.8183771,26.1251592 C45.8183771,25.7310697 46.0443871,25.3873632 46.2740687,25.1087264 C46.516601,24.8143831 46.7901383,24.5526766 47.0585761,24.2844428 L47.193407,24.149408 C47.4618448,23.8809701 47.7235512,23.6076368 48.0174866,23.3651045 C48.2963274,23.1352189 48.6404418,22.909209 49.0347353,22.909209 C49.4286209,22.909209 49.7725313,23.1350149 50.0513721,23.3649005 C50.3453075,23.6074328 50.6072179,23.8809701 50.8756557,24.149408 L62.465193,35.7389453 Z" id="Fill-5" fill="#FFFFFF"></path>
            <path d="M12.8297975,1.2402194 C13.0980313,0.971985572 13.3599418,0.698652239 13.6538771,0.45591592 C13.9327179,0.226030348 14.2768323,-0.00018358209 14.6709219,2.03980099e-05 C15.0650114,2.03980099e-05 15.4089219,0.225826368 15.6875587,0.45571194 C15.981698,0.698448259 16.2436085,0.971985572 16.5118423,1.2402194 L16.6468771,1.37505025 C16.9151109,1.64348806 17.1886483,1.90539851 17.4311806,2.19933383 C17.6610662,2.47797065 17.8870761,2.82228905 17.8870761,3.21637861 C17.8870761,3.61026418 17.6612701,3.95437861 17.4313846,4.23301542 C17.1886483,4.52695075 16.9151109,4.78886119 16.6468771,5.057299 L5.0573398,16.6468363 C4.78910597,16.9152741 4.52719552,17.1886075 4.2332602,17.4311398 C3.9544194,17.6610254 3.61030498,17.8870353 3.21621542,17.8870353 C2.82212587,17.8870353 2.47821542,17.6610254 2.19957861,17.4311398 C1.9054393,17.1888114 1.64352886,16.9152741 1.37529502,16.6468363 L1.2402602,16.5118015 C0.972026368,16.2435677 0.698489055,15.9818612 0.455956716,15.6877219 C0.226071144,15.4090851 6.11940299e-05,15.0647667 6.11940299e-05,14.6706771 C6.11940299e-05,14.2765876 0.226071144,13.9328811 0.455752736,13.6540403 C0.698489055,13.359901 0.972026368,13.0981945 1.2402602,12.8297567 L12.8297975,1.2402194 Z" id="Fill-7" fill-opacity="0.4" fill="#FFFFFF"></path>
            <path d="M16.6468567,35.7389453 C16.9150905,36.0071791 17.1886279,36.2690896 17.4311602,36.5630249 C17.6610458,36.8416617 17.8872597,37.1859801 17.8872597,37.5798657 C17.8870557,37.9739552 17.6612498,38.3180697 17.4313642,38.5967065 C17.1886279,38.8906418 16.9150905,39.1525522 16.6468567,39.42099 L16.5118219,39.5560249 C16.2435881,39.8242587 15.9818816,40.097592 15.6877423,40.3403284 C15.4091055,40.5702139 15.064991,40.7962239 14.6706975,40.7962239 C14.276608,40.7962239 13.9326975,40.5702139 13.6540607,40.3403284 C13.3601254,40.097796 13.0982149,39.8242587 12.8297771,39.5560249 L1.2402398,27.9664876 C0.97200597,27.6980498 0.698468657,27.4363433 0.455936318,27.142204 C0.226050746,26.8635672 4.07960199e-05,26.5194527 4.07960199e-05,26.1251592 C4.07960199e-05,25.7310697 0.226050746,25.3873632 0.455732338,25.1087264 C0.698468657,24.8143831 0.97200597,24.5526766 1.2402398,24.2844428 L1.37527463,24.149408 C1.64350846,23.8809701 1.90541891,23.6076368 2.19935423,23.3651045 C2.47819502,23.1352189 2.82230945,22.909209 3.216399,22.909209 C3.61048856,22.909209 3.954399,23.1350149 4.23303582,23.3649005 C4.52697114,23.6074328 4.78908557,23.8809701 5.0573194,24.149408 L16.6468567,35.7389453 Z" id="Fill-9" fill-opacity="0.4" fill="#FFFFFF"></path>
            <path d="M39.5559637,12.8296343 C39.8241975,13.0978682 40.0977348,13.3599826 40.3402672,13.6539179 C40.5701527,13.9325547 40.7963667,14.2768731 40.7963667,14.6707587 C40.7961627,15.0648483 40.5703567,15.4089627 40.3404711,15.6875995 C40.0977348,15.9815348 39.8244015,16.2434453 39.5559637,16.5118831 L39.4209289,16.6469179 C39.152695,16.9151517 38.8909886,17.1884851 38.5968493,17.4312214 C38.3182124,17.661107 37.974098,17.8871169 37.5798045,17.8871169 C37.1859189,17.8871169 36.8418045,17.661107 36.5631677,17.4312214 C36.2692323,17.1886891 36.0073219,16.9151517 35.7388841,16.6469179 L24.1493468,5.05717662 C23.8811129,4.78894279 23.6075756,4.52723632 23.3652473,4.23309701 C23.1351577,3.9544602 22.9091478,3.61034577 22.9091478,3.21605224 C22.9091478,2.82196269 23.1351577,2.47805224 23.3650433,2.1996194 C23.6075756,1.90527612 23.8811129,1.64356965 24.1493468,1.37513184 L24.2843816,1.240301 C24.5526154,0.971863184 24.8145259,0.698529851 25.1084612,0.455997512 C25.387302,0.22611194 25.7314164,-0.00010199005 26.125506,0.00010199005 C26.5195955,0.00010199005 26.863506,0.22590796 27.1421428,0.455793532 C27.4362821,0.698325871 27.6981925,0.971863184 27.9664264,1.240301 L39.5559637,12.8296343 Z" id="Fill-11" fill="#FFFFFF"></path>
            <path d="M81.5572408,24.1493264 C81.8254746,23.8810925 82.0873851,23.6077592 82.3813204,23.3650229 C82.6599572,23.1351373 83.0042756,22.9091274 83.3981612,22.9091274 C83.7922507,22.9091274 84.1363652,23.1349333 84.415002,23.3648189 C84.7089373,23.6075552 84.9708478,23.8810925 85.2392856,24.1493264 L85.3743204,24.2843612 C85.6425542,24.552595 85.9158876,24.8145055 86.1586239,25.1084408 C86.3885095,25.3870776 86.6145194,25.731396 86.6145194,26.1254856 C86.6145194,26.5193711 86.3885095,26.8634856 86.1586239,27.1421224 C85.9160915,27.4360577 85.6425542,27.6979682 85.3743204,27.966406 L73.7847831,39.5559433 C73.5163453,39.8243811 73.2546388,40.0977144 72.9604995,40.3402468 C72.6818627,40.5701323 72.3377483,40.7961423 71.9434547,40.7961423 C71.5493652,40.7961423 71.2056587,40.5701323 70.9270219,40.3402468 C70.6326786,40.0979184 70.3709721,39.8243811 70.1027383,39.5559433 L69.9677035,39.4209085 C69.6992657,39.1526746 69.4259323,38.8909682 69.1834,38.5968289 C68.9535144,38.318192 68.7275045,37.9738736 68.7275045,37.5797841 C68.7275045,37.1856945 68.9533104,36.8419881 69.183196,36.5631473 C69.4257284,36.269008 69.6992657,36.0073015 69.9677035,35.7388637 L81.5572408,24.1493264 Z" id="Fill-13" fill-opacity="0.4" fill="#FFFFFF"></path>
            <path d="M85.3743,12.8296343 C85.6425338,13.0978682 85.9158672,13.3599826 86.1586035,13.6539179 C86.3884891,13.9325547 86.614499,14.2768731 86.614499,14.6707587 C86.614499,15.0648483 86.3884891,15.4089627 86.1586035,15.6875995 C85.9160711,15.9815348 85.6425338,16.2434453 85.3743,16.5118831 L85.2392652,16.6469179 C84.9708274,16.9151517 84.7091209,17.1884851 84.4151856,17.4312214 C84.1365488,17.661107 83.7922303,17.8871169 83.3981408,17.8871169 C83.0040512,17.8871169 82.6601408,17.661107 82.381504,17.4312214 C82.0873647,17.1886891 81.8256582,16.9151517 81.5572204,16.6469179 L69.9676831,5.05717662 C69.6992453,4.78894279 69.4259119,4.52723632 69.1833796,4.23309701 C68.953494,3.9544602 68.7274841,3.61034577 68.7274841,3.21605224 C68.7274841,2.82196269 68.95329,2.47805224 69.1831756,2.1996194 C69.425708,1.90527612 69.6992453,1.64356965 69.9676831,1.37513184 L70.1027179,1.240301 C70.3707478,0.971863184 70.6326582,0.698529851 70.9267975,0.455997512 C71.2054343,0.22611194 71.5497527,-0.00010199005 71.9436383,0.00010199005 C72.3377279,0.00010199005 72.6816383,0.22590796 72.9604791,0.455793532 C73.2544144,0.698325871 73.5163249,0.971863184 73.7847627,1.240301 L85.3743,12.8296343 Z" id="Fill-15" fill-opacity="0.4" fill="#FFFFFF"></path>
            <path d="M180.481225,31.8252811 C180.147309,31.8505746 179.889479,32.1288035 179.889479,32.4635348 L179.889479,35.1452612 C179.889479,35.3233358 179.963727,35.4934552 180.094479,35.6146194 C180.224822,35.7355796 180.400245,35.7969776 180.577707,35.7833109 L199.720016,34.337908 C200.053931,34.3128184 200.311966,34.0345896 200.311966,33.6996542 L200.311966,31.0181318 C200.311966,30.8400572 200.237717,30.6699378 200.10717,30.5487736 C199.976419,30.4276095 199.801404,30.3666194 199.623737,30.3798781 L180.481225,31.8252811 Z" id="Fill-17" fill="#FFFFFF"></path>
            <path d="M183.486729,31.943406 L187.691167,31.8767045 C187.946958,31.8726249 188.175823,31.7165801 188.273122,31.4799632 L192.414122,21.3947791 C192.480007,21.2342468 192.477764,21.0535204 192.408002,20.8946199 C192.338445,20.7357194 192.207082,20.6116995 192.044306,20.5515254 L189.278948,19.5273413 C188.955843,19.407809 188.59643,19.5648736 188.464863,19.8832866 L183.486729,31.943406 Z" id="Fill-19" fill="#FFFFFF"></path>
            <path d="M203.146718,24.4114816 C202.998221,24.1055114 202.636564,23.9690488 202.323047,24.1008199 L199.830206,25.1476458 C199.668654,25.2153672 199.541982,25.3465264 199.479768,25.5103224 C199.417554,25.6741184 199.425305,25.8562726 199.500982,26.0141532 L204.812828,37.1031234 C204.963773,37.4182726 205.339912,37.5541234 205.657713,37.4078697 L208.163405,36.2551781 C208.31945,36.1833771 208.44041,36.051606 208.49834,35.8896458 C208.556475,35.7278896 208.546888,35.549407 208.471619,35.3945861 L203.146718,24.4114816 Z" id="Fill-21" fill="#FFFFFF"></path>
            <g id="Group-25" transform="translate(177.666667, 13.666871)">
                <mask id="mask-8" fill="white">
                    <use xlink:href="#path-7"></use>
                </mask>
                <g id="Clip-24"></g>
                <path d="M0.74148806,0.02449801 C0.387990547,0.02449801 0.101398507,0.31088607 0.101398507,0.664587562 L0.101398507,3.05605025 C0.101398507,3.40954776 0.387990547,3.6961398 0.74148806,3.6961398 L31.8451896,3.6961398 C32.1986871,3.6961398 32.4852791,3.40954776 32.4852791,3.05605025 L32.4852791,0.664587562 C32.4852791,0.31088607 32.1986871,0.02449801 31.8451896,0.02449801 L0.74148806,0.02449801 Z" id="Fill-23" fill="#FFFFFF" mask="url(#mask-8)"></path>
            </g>
            <path d="M182.300095,3.67184577 C181.946598,3.67184577 181.660005,3.95823383 181.660005,4.31193532 L181.660005,6.70339801 C181.660005,7.0570995 181.946598,7.34348756 182.300095,7.34348756 L205.619916,7.34348756 C205.973617,7.34348756 206.260005,7.0570995 206.260005,6.70339801 L206.260005,4.31193532 C206.260005,3.95823383 205.973617,3.67184577 205.619916,3.67184577 L182.300095,3.67184577 Z" id="Fill-26" fill="#FFFFFF"></path>
            <path d="M148.647764,31.8250771 C148.314053,31.8503706 148.056426,32.1285995 148.056426,32.4633308 L148.056426,35.1448532 C148.056426,35.3231318 148.130471,35.4932512 148.261018,35.6144154 C148.391769,35.7355796 148.566988,35.7967736 148.744859,35.783107 L164.876421,34.5584104 C165.210132,34.5331169 165.467963,34.255092 165.467963,33.9203607 L165.467963,31.2386343 C165.467963,31.0605597 165.393714,30.8904403 165.262963,30.7692761 C165.132416,30.6481119 164.957197,30.5871219 164.77953,30.6005846 L148.647764,31.8250771 Z" id="Fill-28" fill="#FFFFFF"></path>
            <path d="M151.433174,31.943406 L155.629656,31.8769085 C155.889731,31.8726249 156.121044,31.7118886 156.215691,31.4699682 L159.494059,23.0774109 C159.556477,22.9174905 159.552194,22.7392119 159.48182,22.5823512 C159.411447,22.4258985 159.281308,22.3039184 159.120368,22.2443562 L156.352562,21.2193562 C156.026398,21.0986 155.663313,21.2605602 155.535213,21.5838687 L151.433174,31.943406 Z" id="Fill-30" fill="#FFFFFF"></path>
            <path d="M139.526835,3.6202592 C139.252278,3.40424428 138.855332,3.44850796 138.63483,3.71918955 L136.87285,5.88423433 C136.764536,6.01722935 136.714153,6.18816468 136.733123,6.35889602 C136.752094,6.52942338 136.838785,6.6850602 136.973616,6.79112985 L143.530964,11.9479507 C143.805521,12.1637617 144.202467,12.119702 144.422969,11.8488164 L146.184949,9.6841796 C146.293263,9.5509806 146.343646,9.37984129 146.324676,9.20931393 C146.305705,9.03878657 146.219218,8.88314975 146.083979,8.77687612 L139.526835,3.6202592 Z" id="Fill-32" fill="#FFFFFF"></path>
            <path d="M138.350563,37.3492866 C138.60921,37.5710129 138.995956,37.5512269 139.230737,37.3046149 L145.651215,30.5600129 C145.890688,30.3083015 145.885792,29.9117642 145.6402,29.6661721 L143.681379,27.7071473 C143.559399,27.5853711 143.393563,27.5178537 143.2212,27.5198935 C143.048633,27.5219333 142.884633,27.5935303 142.765712,27.7181622 L136.19327,34.6126896 C136.072105,34.7397692 136.008668,34.9111124 136.017439,35.0865353 C136.026006,35.2619582 136.106782,35.4259582 136.239981,35.5401871 L138.350563,37.3492866 Z" id="Fill-34" fill="#FFFFFF"></path>
            <path d="M168.671083,25.3626612 C168.521974,25.0583229 168.161133,24.9230841 167.848635,25.0542433 L165.355795,26.1012731 C165.194038,26.1691985 165.067163,26.3009697 165.004949,26.4649697 C164.942939,26.6293776 164.951098,26.8119398 165.027591,26.9700244 L169.967581,37.1798403 C170.11975,37.4935617 170.494461,37.6281886 170.811242,37.4823428 L173.31673,36.3298552 C173.473591,36.2578502 173.594551,36.1256711 173.652277,35.963099 C173.710207,35.8005269 173.699804,35.6216363 173.623924,35.4666114 L168.671083,25.3626612 Z" id="Fill-36" fill="#FFFFFF"></path>
            <path d="M159.27884,1.83602488 C158.925342,1.83602488 158.63875,2.12241294 158.63875,2.47611443 L158.63875,18.0122587 C158.63875,18.3655522 158.925342,18.6521443 159.27884,18.6521443 L162.404631,18.6521443 C162.758332,18.6521443 163.04472,18.3655522 163.04472,18.0122587 L163.04472,2.47611443 C163.04472,2.12241294 162.758332,1.83602488 162.404631,1.83602488 L159.27884,1.83602488 Z" id="Fill-38" fill="#FFFFFF"></path>
            <path d="M148.924667,16.0086642 C148.571374,16.0086642 148.284578,16.2950522 148.284578,16.6485498 L148.284578,19.0402164 C148.284578,19.3937139 148.571374,19.680306 148.924667,19.680306 L172.685289,19.680306 C173.038787,19.680306 173.325379,19.3937139 173.325379,19.0402164 L173.325379,16.6485498 C173.325379,16.2950522 173.038787,16.0086642 172.685289,16.0086642 L148.924667,16.0086642 Z" id="Fill-40" fill="#FFFFFF"></path>
            <path d="M150.613663,7.26997313 C150.26037,7.26997313 149.973574,7.55656517 149.973574,7.91006269 L149.973574,10.3015254 C149.973574,10.6552269 150.26037,10.9416149 150.613663,10.9416149 L170.996375,10.9416149 C171.349668,10.9416149 171.636464,10.6552269 171.636464,10.3015254 L171.636464,7.91006269 C171.636464,7.55656517 171.349668,7.26997313 170.996375,7.26997313 L150.613663,7.26997313 Z" id="Fill-42" fill="#FFFFFF"></path>
            <path d="M139.527426,14.5668512 C139.253073,14.3485925 138.853884,14.3916323 138.632566,14.6637418 L136.870586,16.8283786 C136.762476,16.9609657 136.712093,17.1312891 136.730655,17.3012045 C136.749013,17.4713239 136.834685,17.6267567 136.968496,17.7332343 L142.7958,22.3703139 C143.070357,22.5885726 143.469342,22.5453289 143.690864,22.2734234 L145.452844,20.1085826 C145.56075,19.9761995 145.611133,19.8058761 145.592775,19.6359607 C145.57462,19.4658413 145.488949,19.3104085 145.354934,19.2037269 L139.527426,14.5668512 Z" id="Fill-44" fill="#FFFFFF"></path>
            <path d="M120.322027,25.7068776 C120.12437,25.6224299 119.897544,25.6430318 119.718042,25.7615443 C119.538743,25.8798527 119.430838,26.0803652 119.430838,26.2955642 L119.430838,29.013599 C119.430838,29.2712259 119.585251,29.5035592 119.822684,29.6035095 L130.857395,34.2460965 C130.99447,34.3038229 131.151534,34.2889323 131.27535,34.2067284 C131.39937,34.1245244 131.473823,33.9856139 131.473823,33.8367085 L131.473823,30.8894 C131.473823,30.632997 131.320838,30.4014796 131.085037,30.3007134 L120.322027,25.7068776 Z" id="Fill-46" fill="#FFFFFF"></path>
            <path d="M112.360418,30.9071667 C112.006921,30.9071667 111.720329,31.1937587 111.720329,31.5472562 L111.720329,37.0965348 C111.720329,37.4500323 112.006921,37.7364204 112.360418,37.7364204 L115.780145,37.7364204 C116.133438,37.7364204 116.42003,37.4500323 116.42003,37.0965348 L116.42003,31.5472562 C116.42003,31.1937587 116.133438,30.9071667 115.780145,30.9071667 L112.360418,30.9071667 Z" id="Fill-48" fill="#FFFFFF"></path>
            <path d="M123.102459,16.0204134 C123.102459,15.6669159 122.816071,15.3803239 122.46237,15.3803239 L120.14434,15.3803239 C119.790842,15.3803239 119.50425,15.6669159 119.50425,16.0204134 L119.50425,23.405309 C119.50425,23.7590104 119.790842,24.0453985 120.14434,24.0453985 L122.46237,24.0453985 C122.816071,24.0453985 123.102459,23.7590104 123.102459,23.405309 L123.102459,16.0204134 Z" id="Fill-50" fill="#FFFFFF"></path>
            <path d="M130.225424,21.5278761 C130.225424,21.1743786 129.939036,20.8877866 129.585334,20.8877866 L120.144319,20.8877866 C119.790822,20.8877866 119.50423,21.1743786 119.50423,21.5278761 L119.50423,23.4787418 C119.50423,23.8322393 119.790822,24.1188313 120.144319,24.1188313 L129.585334,24.1188313 C129.939036,24.1188313 130.225424,23.8322393 130.225424,23.4787418 L130.225424,21.5278761 Z" id="Fill-52" fill="#FFFFFF"></path>
            <path d="M128.095974,15.7266005 C128.095974,15.373307 127.809382,15.0865109 127.455884,15.0865109 L120.144421,15.0865109 C119.79072,15.0865109 119.504332,15.373307 119.504332,15.7266005 L119.504332,17.6774662 C119.504332,18.0311677 119.79072,18.3175557 120.144421,18.3175557 L127.455884,18.3175557 C127.809382,18.3175557 128.095974,18.0311677 128.095974,17.6774662 L128.095974,15.7266005 Z" id="Fill-54" fill="#FFFFFF"></path>
            <path d="M105.604577,15.3803851 C105.251284,15.3803851 104.964488,15.6667731 104.964488,16.0204746 L104.964488,23.4053701 C104.964488,23.7588677 105.251284,24.0452557 105.604577,24.0452557 L107.922607,24.0452557 C108.276308,24.0452557 108.562697,23.7588677 108.562697,23.4053701 L108.562697,16.0204746 C108.562697,15.6667731 108.276308,15.3803851 107.922607,15.3803851 L105.604577,15.3803851 Z" id="Fill-56" fill="#FFFFFF"></path>
            <path d="M98.4816124,20.8878478 C98.1281149,20.8878478 97.8415229,21.1742358 97.8415229,21.5279373 L97.8415229,23.478803 C97.8415229,23.8323005 98.1281149,24.1188925 98.4816124,24.1188925 L107.922627,24.1188925 C108.276329,24.1188925 108.562717,23.8323005 108.562717,23.478803 L108.562717,21.5279373 C108.562717,21.1742358 108.276329,20.8878478 107.922627,20.8878478 L98.4816124,20.8878478 Z" id="Fill-58" fill="#FFFFFF"></path>
            <path d="M100.611063,15.0865721 C100.257769,15.0865721 99.9711771,15.3731642 99.9711771,15.7266617 L99.9711771,17.6775274 C99.9711771,18.0312289 100.257769,18.3176169 100.611063,18.3176169 L108.540789,18.3176169 C108.553028,18.3176169 108.562615,18.3078259 108.562615,18.2955871 L108.562615,15.7266617 C108.562615,15.3731642 108.276227,15.0865721 107.922729,15.0865721 L100.611063,15.0865721 Z" id="Fill-60" fill="#FFFFFF"></path>
            <path d="M112.360418,3.63916816 C112.006921,3.63916816 111.720329,3.9257602 111.720329,4.27925771 L111.720329,24.65381 C111.720329,24.9251035 111.549598,25.1666159 111.29401,25.2569791 L97.0194831,30.3154816 C96.763896,30.4062527 96.5931647,30.6477652 96.5931647,30.9188547 L96.5931647,33.9140985 C96.5931647,34.0507652 96.6590502,34.1788647 96.7700154,34.2582129 C96.8811846,34.3377652 97.0237667,34.3587751 97.1528861,34.3147154 L114.897727,28.2683373 C115.807886,27.9582876 116.42003,27.102999 116.42003,26.1412328 L116.42003,4.27925771 C116.42003,3.9257602 116.133438,3.63916816 115.780145,3.63916816 L112.360418,3.63916816 Z" id="Fill-62" fill="#FFFFFF"></path>
            <path d="M101.345513,2.24398507 C100.992016,2.24398507 100.705424,2.53037313 100.705424,2.88407463 L100.705424,5.27553731 C100.705424,5.62923881 100.992016,5.91562687 101.345513,5.91562687 L126.721454,5.91562687 C127.075155,5.91562687 127.361543,5.62923881 127.361543,5.27553731 L127.361543,2.88407463 C127.361543,2.53037313 127.075155,2.24398507 126.721454,2.24398507 L101.345513,2.24398507 Z" id="Fill-64" fill="#FFFFFF"></path>
            <path d="M95.6177318,9.22014527 C95.2642343,9.22014527 94.9776423,9.50653333 94.9776423,9.86023483 L94.9776423,12.2516975 C94.9776423,12.605195 95.2642343,12.8917871 95.6177318,12.8917871 L132.449195,12.8917871 C132.802896,12.8917871 133.089284,12.605195 133.089284,12.2516975 L133.089284,9.86023483 C133.089284,9.50653333 132.802896,9.22014527 132.449195,9.22014527 L95.6177318,9.22014527 Z" id="Fill-66" fill="#FFFFFF"></path>
        </g>
        <g id="Group-68-Copy" transform="translate(562.283960, 368.566775)">
            <path d="M58.6480318,1.2402194 C58.9162657,0.971985572 59.1781761,0.698652239 59.4723154,0.45591592 C59.7509522,0.226030348 60.0950667,-0.00018358209 60.4891562,2.03980099e-05 C60.8832458,2.03980099e-05 61.2271562,0.225826368 61.505793,0.45571194 C61.7999323,0.698448259 62.0618428,0.971985572 62.3300766,1.2402194 L62.4651114,1.37505025 C62.7335493,1.64348806 63.0068826,1.90539851 63.2494149,2.19933383 C63.4793005,2.47797065 63.7053104,2.82228905 63.7053104,3.21637861 C63.7053104,3.61026418 63.4793005,3.95437861 63.2494149,4.23301542 C63.0070866,4.52695075 62.7335493,4.78886119 62.4651114,5.057299 L50.8755741,16.6468363 C50.6073403,16.9152741 50.3454299,17.1886075 50.0514945,17.4311398 C49.7726537,17.6610254 49.4285393,17.8870353 49.0344498,17.8870353 C48.6403602,17.8870353 48.2964498,17.6610254 48.0178129,17.4311398 C47.7236736,17.1888114 47.4617632,16.9152741 47.1935294,16.6468363 L47.0584945,16.5118015 C46.7902607,16.2435677 46.5167234,15.9818612 46.274191,15.6877219 C46.0443055,15.4090851 45.8182955,15.0647667 45.8182955,14.6706771 C45.8182955,14.2765876 46.0443055,13.9326771 46.274191,13.6540403 C46.5167234,13.359901 46.7902607,13.0981945 47.0584945,12.8297567 L58.6480318,1.2402194 Z" id="Fill-1" fill="#FFFFFF"></path>
            <path d="M35.7389045,24.1493264 C36.0071383,23.8810925 36.2690488,23.6077592 36.5629841,23.3650229 C36.8418249,23.1351373 37.1859393,22.9091274 37.5800289,22.9091274 C37.9741184,22.9091274 38.3180289,23.1349333 38.5966657,23.3648189 C38.890805,23.6075552 39.1527154,23.8810925 39.4209493,24.1493264 L39.5559841,24.2843612 C39.8242179,24.552595 40.0977552,24.8145055 40.3402876,25.1084408 C40.5701731,25.3870776 40.7961831,25.731396 40.7961831,26.1254856 C40.7961831,26.5193711 40.5703771,26.8634856 40.3404915,27.1421224 C40.0977552,27.4360577 39.8244219,27.6979682 39.5559841,27.966406 L27.9664468,39.5559433 C27.6982129,39.8243811 27.4363025,40.0977144 27.1423672,40.3402468 C26.8635264,40.5701323 26.5194119,40.7961423 26.1253224,40.7961423 C25.7312328,40.7961423 25.3873224,40.5701323 25.1086856,40.3402468 C24.8145463,40.0979184 24.5526358,39.8243811 24.284402,39.5559433 L24.1493672,39.4209085 C23.8811333,39.1526746 23.607596,38.8909682 23.3650637,38.5968289 C23.1351781,38.318192 22.9091682,37.9738736 22.9091682,37.5797841 C22.9091682,37.1856945 23.1351781,36.8419881 23.3650637,36.5631473 C23.607596,36.269008 23.8811333,36.0073015 24.1493672,35.7388637 L35.7389045,24.1493264 Z" id="Fill-3" fill="#FFFFFF"></path>
            <path d="M62.465193,35.7389453 C62.7334269,36.0071791 63.0067602,36.2690896 63.2494965,36.5630249 C63.4793821,36.8416617 63.705392,37.1859801 63.705392,37.5798657 C63.705392,37.9739552 63.4793821,38.3180697 63.2494965,38.5967065 C63.0069642,38.8906418 62.7334269,39.1525522 62.465193,39.42099 L62.3301582,39.5560249 C62.0617204,39.8242587 61.8000139,40.097592 61.5060786,40.3403284 C61.2272378,40.5702139 60.8831234,40.7962239 60.4890338,40.7962239 C60.0949443,40.7962239 59.7510338,40.5702139 59.472397,40.3403284 C59.1782577,40.097796 58.9165512,39.8242587 58.6481134,39.5560249 L47.0585761,27.9664876 C46.7901383,27.6980498 46.516805,27.4363433 46.2742726,27.142204 C46.0443871,26.8635672 45.8181731,26.5194527 45.8183771,26.1251592 C45.8183771,25.7310697 46.0443871,25.3873632 46.2740687,25.1087264 C46.516601,24.8143831 46.7901383,24.5526766 47.0585761,24.2844428 L47.193407,24.149408 C47.4618448,23.8809701 47.7235512,23.6076368 48.0174866,23.3651045 C48.2963274,23.1352189 48.6404418,22.909209 49.0347353,22.909209 C49.4286209,22.909209 49.7725313,23.1350149 50.0513721,23.3649005 C50.3453075,23.6074328 50.6072179,23.8809701 50.8756557,24.149408 L62.465193,35.7389453 Z" id="Fill-5" fill="#FFFFFF"></path>
            <path d="M12.8297975,1.2402194 C13.0980313,0.971985572 13.3599418,0.698652239 13.6538771,0.45591592 C13.9327179,0.226030348 14.2768323,-0.00018358209 14.6709219,2.03980099e-05 C15.0650114,2.03980099e-05 15.4089219,0.225826368 15.6875587,0.45571194 C15.981698,0.698448259 16.2436085,0.971985572 16.5118423,1.2402194 L16.6468771,1.37505025 C16.9151109,1.64348806 17.1886483,1.90539851 17.4311806,2.19933383 C17.6610662,2.47797065 17.8870761,2.82228905 17.8870761,3.21637861 C17.8870761,3.61026418 17.6612701,3.95437861 17.4313846,4.23301542 C17.1886483,4.52695075 16.9151109,4.78886119 16.6468771,5.057299 L5.0573398,16.6468363 C4.78910597,16.9152741 4.52719552,17.1886075 4.2332602,17.4311398 C3.9544194,17.6610254 3.61030498,17.8870353 3.21621542,17.8870353 C2.82212587,17.8870353 2.47821542,17.6610254 2.19957861,17.4311398 C1.9054393,17.1888114 1.64352886,16.9152741 1.37529502,16.6468363 L1.2402602,16.5118015 C0.972026368,16.2435677 0.698489055,15.9818612 0.455956716,15.6877219 C0.226071144,15.4090851 6.11940299e-05,15.0647667 6.11940299e-05,14.6706771 C6.11940299e-05,14.2765876 0.226071144,13.9328811 0.455752736,13.6540403 C0.698489055,13.359901 0.972026368,13.0981945 1.2402602,12.8297567 L12.8297975,1.2402194 Z" id="Fill-7" fill-opacity="0.4" fill="#FFFFFF"></path>
            <path d="M16.6468567,35.7389453 C16.9150905,36.0071791 17.1886279,36.2690896 17.4311602,36.5630249 C17.6610458,36.8416617 17.8872597,37.1859801 17.8872597,37.5798657 C17.8870557,37.9739552 17.6612498,38.3180697 17.4313642,38.5967065 C17.1886279,38.8906418 16.9150905,39.1525522 16.6468567,39.42099 L16.5118219,39.5560249 C16.2435881,39.8242587 15.9818816,40.097592 15.6877423,40.3403284 C15.4091055,40.5702139 15.064991,40.7962239 14.6706975,40.7962239 C14.276608,40.7962239 13.9326975,40.5702139 13.6540607,40.3403284 C13.3601254,40.097796 13.0982149,39.8242587 12.8297771,39.5560249 L1.2402398,27.9664876 C0.97200597,27.6980498 0.698468657,27.4363433 0.455936318,27.142204 C0.226050746,26.8635672 4.07960199e-05,26.5194527 4.07960199e-05,26.1251592 C4.07960199e-05,25.7310697 0.226050746,25.3873632 0.455732338,25.1087264 C0.698468657,24.8143831 0.97200597,24.5526766 1.2402398,24.2844428 L1.37527463,24.149408 C1.64350846,23.8809701 1.90541891,23.6076368 2.19935423,23.3651045 C2.47819502,23.1352189 2.82230945,22.909209 3.216399,22.909209 C3.61048856,22.909209 3.954399,23.1350149 4.23303582,23.3649005 C4.52697114,23.6074328 4.78908557,23.8809701 5.0573194,24.149408 L16.6468567,35.7389453 Z" id="Fill-9" fill-opacity="0.4" fill="#FFFFFF"></path>
            <path d="M39.5559637,12.8296343 C39.8241975,13.0978682 40.0977348,13.3599826 40.3402672,13.6539179 C40.5701527,13.9325547 40.7963667,14.2768731 40.7963667,14.6707587 C40.7961627,15.0648483 40.5703567,15.4089627 40.3404711,15.6875995 C40.0977348,15.9815348 39.8244015,16.2434453 39.5559637,16.5118831 L39.4209289,16.6469179 C39.152695,16.9151517 38.8909886,17.1884851 38.5968493,17.4312214 C38.3182124,17.661107 37.974098,17.8871169 37.5798045,17.8871169 C37.1859189,17.8871169 36.8418045,17.661107 36.5631677,17.4312214 C36.2692323,17.1886891 36.0073219,16.9151517 35.7388841,16.6469179 L24.1493468,5.05717662 C23.8811129,4.78894279 23.6075756,4.52723632 23.3652473,4.23309701 C23.1351577,3.9544602 22.9091478,3.61034577 22.9091478,3.21605224 C22.9091478,2.82196269 23.1351577,2.47805224 23.3650433,2.1996194 C23.6075756,1.90527612 23.8811129,1.64356965 24.1493468,1.37513184 L24.2843816,1.240301 C24.5526154,0.971863184 24.8145259,0.698529851 25.1084612,0.455997512 C25.387302,0.22611194 25.7314164,-0.00010199005 26.125506,0.00010199005 C26.5195955,0.00010199005 26.863506,0.22590796 27.1421428,0.455793532 C27.4362821,0.698325871 27.6981925,0.971863184 27.9664264,1.240301 L39.5559637,12.8296343 Z" id="Fill-11" fill="#FFFFFF"></path>
            <path d="M81.5572408,24.1493264 C81.8254746,23.8810925 82.0873851,23.6077592 82.3813204,23.3650229 C82.6599572,23.1351373 83.0042756,22.9091274 83.3981612,22.9091274 C83.7922507,22.9091274 84.1363652,23.1349333 84.415002,23.3648189 C84.7089373,23.6075552 84.9708478,23.8810925 85.2392856,24.1493264 L85.3743204,24.2843612 C85.6425542,24.552595 85.9158876,24.8145055 86.1586239,25.1084408 C86.3885095,25.3870776 86.6145194,25.731396 86.6145194,26.1254856 C86.6145194,26.5193711 86.3885095,26.8634856 86.1586239,27.1421224 C85.9160915,27.4360577 85.6425542,27.6979682 85.3743204,27.966406 L73.7847831,39.5559433 C73.5163453,39.8243811 73.2546388,40.0977144 72.9604995,40.3402468 C72.6818627,40.5701323 72.3377483,40.7961423 71.9434547,40.7961423 C71.5493652,40.7961423 71.2056587,40.5701323 70.9270219,40.3402468 C70.6326786,40.0979184 70.3709721,39.8243811 70.1027383,39.5559433 L69.9677035,39.4209085 C69.6992657,39.1526746 69.4259323,38.8909682 69.1834,38.5968289 C68.9535144,38.318192 68.7275045,37.9738736 68.7275045,37.5797841 C68.7275045,37.1856945 68.9533104,36.8419881 69.183196,36.5631473 C69.4257284,36.269008 69.6992657,36.0073015 69.9677035,35.7388637 L81.5572408,24.1493264 Z" id="Fill-13" fill-opacity="0.4" fill="#FFFFFF"></path>
            <path d="M85.3743,12.8296343 C85.6425338,13.0978682 85.9158672,13.3599826 86.1586035,13.6539179 C86.3884891,13.9325547 86.614499,14.2768731 86.614499,14.6707587 C86.614499,15.0648483 86.3884891,15.4089627 86.1586035,15.6875995 C85.9160711,15.9815348 85.6425338,16.2434453 85.3743,16.5118831 L85.2392652,16.6469179 C84.9708274,16.9151517 84.7091209,17.1884851 84.4151856,17.4312214 C84.1365488,17.661107 83.7922303,17.8871169 83.3981408,17.8871169 C83.0040512,17.8871169 82.6601408,17.661107 82.381504,17.4312214 C82.0873647,17.1886891 81.8256582,16.9151517 81.5572204,16.6469179 L69.9676831,5.05717662 C69.6992453,4.78894279 69.4259119,4.52723632 69.1833796,4.23309701 C68.953494,3.9544602 68.7274841,3.61034577 68.7274841,3.21605224 C68.7274841,2.82196269 68.95329,2.47805224 69.1831756,2.1996194 C69.425708,1.90527612 69.6992453,1.64356965 69.9676831,1.37513184 L70.1027179,1.240301 C70.3707478,0.971863184 70.6326582,0.698529851 70.9267975,0.455997512 C71.2054343,0.22611194 71.5497527,-0.00010199005 71.9436383,0.00010199005 C72.3377279,0.00010199005 72.6816383,0.22590796 72.9604791,0.455793532 C73.2544144,0.698325871 73.5163249,0.971863184 73.7847627,1.240301 L85.3743,12.8296343 Z" id="Fill-15" fill-opacity="0.4" fill="#FFFFFF"></path>
            <path d="M180.481225,31.8252811 C180.147309,31.8505746 179.889479,32.1288035 179.889479,32.4635348 L179.889479,35.1452612 C179.889479,35.3233358 179.963727,35.4934552 180.094479,35.6146194 C180.224822,35.7355796 180.400245,35.7969776 180.577707,35.7833109 L199.720016,34.337908 C200.053931,34.3128184 200.311966,34.0345896 200.311966,33.6996542 L200.311966,31.0181318 C200.311966,30.8400572 200.237717,30.6699378 200.10717,30.5487736 C199.976419,30.4276095 199.801404,30.3666194 199.623737,30.3798781 L180.481225,31.8252811 Z" id="Fill-17" fill="#FFFFFF"></path>
            <path d="M183.486729,31.943406 L187.691167,31.8767045 C187.946958,31.8726249 188.175823,31.7165801 188.273122,31.4799632 L192.414122,21.3947791 C192.480007,21.2342468 192.477764,21.0535204 192.408002,20.8946199 C192.338445,20.7357194 192.207082,20.6116995 192.044306,20.5515254 L189.278948,19.5273413 C188.955843,19.407809 188.59643,19.5648736 188.464863,19.8832866 L183.486729,31.943406 Z" id="Fill-19" fill="#FFFFFF"></path>
            <path d="M203.146718,24.4114816 C202.998221,24.1055114 202.636564,23.9690488 202.323047,24.1008199 L199.830206,25.1476458 C199.668654,25.2153672 199.541982,25.3465264 199.479768,25.5103224 C199.417554,25.6741184 199.425305,25.8562726 199.500982,26.0141532 L204.812828,37.1031234 C204.963773,37.4182726 205.339912,37.5541234 205.657713,37.4078697 L208.163405,36.2551781 C208.31945,36.1833771 208.44041,36.051606 208.49834,35.8896458 C208.556475,35.7278896 208.546888,35.549407 208.471619,35.3945861 L203.146718,24.4114816 Z" id="Fill-21" fill="#FFFFFF"></path>
            <g id="Group-25" transform="translate(177.666667, 13.666871)">
                <mask id="mask-10" fill="white">
                    <use xlink:href="#path-9"></use>
                </mask>
                <g id="Clip-24"></g>
                <path d="M0.74148806,0.02449801 C0.387990547,0.02449801 0.101398507,0.31088607 0.101398507,0.664587562 L0.101398507,3.05605025 C0.101398507,3.40954776 0.387990547,3.6961398 0.74148806,3.6961398 L31.8451896,3.6961398 C32.1986871,3.6961398 32.4852791,3.40954776 32.4852791,3.05605025 L32.4852791,0.664587562 C32.4852791,0.31088607 32.1986871,0.02449801 31.8451896,0.02449801 L0.74148806,0.02449801 Z" id="Fill-23" fill="#FFFFFF" mask="url(#mask-10)"></path>
            </g>
            <path d="M182.300095,3.67184577 C181.946598,3.67184577 181.660005,3.95823383 181.660005,4.31193532 L181.660005,6.70339801 C181.660005,7.0570995 181.946598,7.34348756 182.300095,7.34348756 L205.619916,7.34348756 C205.973617,7.34348756 206.260005,7.0570995 206.260005,6.70339801 L206.260005,4.31193532 C206.260005,3.95823383 205.973617,3.67184577 205.619916,3.67184577 L182.300095,3.67184577 Z" id="Fill-26" fill="#FFFFFF"></path>
            <path d="M148.647764,31.8250771 C148.314053,31.8503706 148.056426,32.1285995 148.056426,32.4633308 L148.056426,35.1448532 C148.056426,35.3231318 148.130471,35.4932512 148.261018,35.6144154 C148.391769,35.7355796 148.566988,35.7967736 148.744859,35.783107 L164.876421,34.5584104 C165.210132,34.5331169 165.467963,34.255092 165.467963,33.9203607 L165.467963,31.2386343 C165.467963,31.0605597 165.393714,30.8904403 165.262963,30.7692761 C165.132416,30.6481119 164.957197,30.5871219 164.77953,30.6005846 L148.647764,31.8250771 Z" id="Fill-28" fill="#FFFFFF"></path>
            <path d="M151.433174,31.943406 L155.629656,31.8769085 C155.889731,31.8726249 156.121044,31.7118886 156.215691,31.4699682 L159.494059,23.0774109 C159.556477,22.9174905 159.552194,22.7392119 159.48182,22.5823512 C159.411447,22.4258985 159.281308,22.3039184 159.120368,22.2443562 L156.352562,21.2193562 C156.026398,21.0986 155.663313,21.2605602 155.535213,21.5838687 L151.433174,31.943406 Z" id="Fill-30" fill="#FFFFFF"></path>
            <path d="M139.526835,3.6202592 C139.252278,3.40424428 138.855332,3.44850796 138.63483,3.71918955 L136.87285,5.88423433 C136.764536,6.01722935 136.714153,6.18816468 136.733123,6.35889602 C136.752094,6.52942338 136.838785,6.6850602 136.973616,6.79112985 L143.530964,11.9479507 C143.805521,12.1637617 144.202467,12.119702 144.422969,11.8488164 L146.184949,9.6841796 C146.293263,9.5509806 146.343646,9.37984129 146.324676,9.20931393 C146.305705,9.03878657 146.219218,8.88314975 146.083979,8.77687612 L139.526835,3.6202592 Z" id="Fill-32" fill="#FFFFFF"></path>
            <path d="M138.350563,37.3492866 C138.60921,37.5710129 138.995956,37.5512269 139.230737,37.3046149 L145.651215,30.5600129 C145.890688,30.3083015 145.885792,29.9117642 145.6402,29.6661721 L143.681379,27.7071473 C143.559399,27.5853711 143.393563,27.5178537 143.2212,27.5198935 C143.048633,27.5219333 142.884633,27.5935303 142.765712,27.7181622 L136.19327,34.6126896 C136.072105,34.7397692 136.008668,34.9111124 136.017439,35.0865353 C136.026006,35.2619582 136.106782,35.4259582 136.239981,35.5401871 L138.350563,37.3492866 Z" id="Fill-34" fill="#FFFFFF"></path>
            <path d="M168.671083,25.3626612 C168.521974,25.0583229 168.161133,24.9230841 167.848635,25.0542433 L165.355795,26.1012731 C165.194038,26.1691985 165.067163,26.3009697 165.004949,26.4649697 C164.942939,26.6293776 164.951098,26.8119398 165.027591,26.9700244 L169.967581,37.1798403 C170.11975,37.4935617 170.494461,37.6281886 170.811242,37.4823428 L173.31673,36.3298552 C173.473591,36.2578502 173.594551,36.1256711 173.652277,35.963099 C173.710207,35.8005269 173.699804,35.6216363 173.623924,35.4666114 L168.671083,25.3626612 Z" id="Fill-36" fill="#FFFFFF"></path>
            <path d="M159.27884,1.83602488 C158.925342,1.83602488 158.63875,2.12241294 158.63875,2.47611443 L158.63875,18.0122587 C158.63875,18.3655522 158.925342,18.6521443 159.27884,18.6521443 L162.404631,18.6521443 C162.758332,18.6521443 163.04472,18.3655522 163.04472,18.0122587 L163.04472,2.47611443 C163.04472,2.12241294 162.758332,1.83602488 162.404631,1.83602488 L159.27884,1.83602488 Z" id="Fill-38" fill="#FFFFFF"></path>
            <path d="M148.924667,16.0086642 C148.571374,16.0086642 148.284578,16.2950522 148.284578,16.6485498 L148.284578,19.0402164 C148.284578,19.3937139 148.571374,19.680306 148.924667,19.680306 L172.685289,19.680306 C173.038787,19.680306 173.325379,19.3937139 173.325379,19.0402164 L173.325379,16.6485498 C173.325379,16.2950522 173.038787,16.0086642 172.685289,16.0086642 L148.924667,16.0086642 Z" id="Fill-40" fill="#FFFFFF"></path>
            <path d="M150.613663,7.26997313 C150.26037,7.26997313 149.973574,7.55656517 149.973574,7.91006269 L149.973574,10.3015254 C149.973574,10.6552269 150.26037,10.9416149 150.613663,10.9416149 L170.996375,10.9416149 C171.349668,10.9416149 171.636464,10.6552269 171.636464,10.3015254 L171.636464,7.91006269 C171.636464,7.55656517 171.349668,7.26997313 170.996375,7.26997313 L150.613663,7.26997313 Z" id="Fill-42" fill="#FFFFFF"></path>
            <path d="M139.527426,14.5668512 C139.253073,14.3485925 138.853884,14.3916323 138.632566,14.6637418 L136.870586,16.8283786 C136.762476,16.9609657 136.712093,17.1312891 136.730655,17.3012045 C136.749013,17.4713239 136.834685,17.6267567 136.968496,17.7332343 L142.7958,22.3703139 C143.070357,22.5885726 143.469342,22.5453289 143.690864,22.2734234 L145.452844,20.1085826 C145.56075,19.9761995 145.611133,19.8058761 145.592775,19.6359607 C145.57462,19.4658413 145.488949,19.3104085 145.354934,19.2037269 L139.527426,14.5668512 Z" id="Fill-44" fill="#FFFFFF"></path>
            <path d="M120.322027,25.7068776 C120.12437,25.6224299 119.897544,25.6430318 119.718042,25.7615443 C119.538743,25.8798527 119.430838,26.0803652 119.430838,26.2955642 L119.430838,29.013599 C119.430838,29.2712259 119.585251,29.5035592 119.822684,29.6035095 L130.857395,34.2460965 C130.99447,34.3038229 131.151534,34.2889323 131.27535,34.2067284 C131.39937,34.1245244 131.473823,33.9856139 131.473823,33.8367085 L131.473823,30.8894 C131.473823,30.632997 131.320838,30.4014796 131.085037,30.3007134 L120.322027,25.7068776 Z" id="Fill-46" fill="#FFFFFF"></path>
            <path d="M112.360418,30.9071667 C112.006921,30.9071667 111.720329,31.1937587 111.720329,31.5472562 L111.720329,37.0965348 C111.720329,37.4500323 112.006921,37.7364204 112.360418,37.7364204 L115.780145,37.7364204 C116.133438,37.7364204 116.42003,37.4500323 116.42003,37.0965348 L116.42003,31.5472562 C116.42003,31.1937587 116.133438,30.9071667 115.780145,30.9071667 L112.360418,30.9071667 Z" id="Fill-48" fill="#FFFFFF"></path>
            <path d="M123.102459,16.0204134 C123.102459,15.6669159 122.816071,15.3803239 122.46237,15.3803239 L120.14434,15.3803239 C119.790842,15.3803239 119.50425,15.6669159 119.50425,16.0204134 L119.50425,23.405309 C119.50425,23.7590104 119.790842,24.0453985 120.14434,24.0453985 L122.46237,24.0453985 C122.816071,24.0453985 123.102459,23.7590104 123.102459,23.405309 L123.102459,16.0204134 Z" id="Fill-50" fill="#FFFFFF"></path>
            <path d="M130.225424,21.5278761 C130.225424,21.1743786 129.939036,20.8877866 129.585334,20.8877866 L120.144319,20.8877866 C119.790822,20.8877866 119.50423,21.1743786 119.50423,21.5278761 L119.50423,23.4787418 C119.50423,23.8322393 119.790822,24.1188313 120.144319,24.1188313 L129.585334,24.1188313 C129.939036,24.1188313 130.225424,23.8322393 130.225424,23.4787418 L130.225424,21.5278761 Z" id="Fill-52" fill="#FFFFFF"></path>
            <path d="M128.095974,15.7266005 C128.095974,15.373307 127.809382,15.0865109 127.455884,15.0865109 L120.144421,15.0865109 C119.79072,15.0865109 119.504332,15.373307 119.504332,15.7266005 L119.504332,17.6774662 C119.504332,18.0311677 119.79072,18.3175557 120.144421,18.3175557 L127.455884,18.3175557 C127.809382,18.3175557 128.095974,18.0311677 128.095974,17.6774662 L128.095974,15.7266005 Z" id="Fill-54" fill="#FFFFFF"></path>
            <path d="M105.604577,15.3803851 C105.251284,15.3803851 104.964488,15.6667731 104.964488,16.0204746 L104.964488,23.4053701 C104.964488,23.7588677 105.251284,24.0452557 105.604577,24.0452557 L107.922607,24.0452557 C108.276308,24.0452557 108.562697,23.7588677 108.562697,23.4053701 L108.562697,16.0204746 C108.562697,15.6667731 108.276308,15.3803851 107.922607,15.3803851 L105.604577,15.3803851 Z" id="Fill-56" fill="#FFFFFF"></path>
            <path d="M98.4816124,20.8878478 C98.1281149,20.8878478 97.8415229,21.1742358 97.8415229,21.5279373 L97.8415229,23.478803 C97.8415229,23.8323005 98.1281149,24.1188925 98.4816124,24.1188925 L107.922627,24.1188925 C108.276329,24.1188925 108.562717,23.8323005 108.562717,23.478803 L108.562717,21.5279373 C108.562717,21.1742358 108.276329,20.8878478 107.922627,20.8878478 L98.4816124,20.8878478 Z" id="Fill-58" fill="#FFFFFF"></path>
            <path d="M100.611063,15.0865721 C100.257769,15.0865721 99.9711771,15.3731642 99.9711771,15.7266617 L99.9711771,17.6775274 C99.9711771,18.0312289 100.257769,18.3176169 100.611063,18.3176169 L108.540789,18.3176169 C108.553028,18.3176169 108.562615,18.3078259 108.562615,18.2955871 L108.562615,15.7266617 C108.562615,15.3731642 108.276227,15.0865721 107.922729,15.0865721 L100.611063,15.0865721 Z" id="Fill-60" fill="#FFFFFF"></path>
            <path d="M112.360418,3.63916816 C112.006921,3.63916816 111.720329,3.9257602 111.720329,4.27925771 L111.720329,24.65381 C111.720329,24.9251035 111.549598,25.1666159 111.29401,25.2569791 L97.0194831,30.3154816 C96.763896,30.4062527 96.5931647,30.6477652 96.5931647,30.9188547 L96.5931647,33.9140985 C96.5931647,34.0507652 96.6590502,34.1788647 96.7700154,34.2582129 C96.8811846,34.3377652 97.0237667,34.3587751 97.1528861,34.3147154 L114.897727,28.2683373 C115.807886,27.9582876 116.42003,27.102999 116.42003,26.1412328 L116.42003,4.27925771 C116.42003,3.9257602 116.133438,3.63916816 115.780145,3.63916816 L112.360418,3.63916816 Z" id="Fill-62" fill="#FFFFFF"></path>
            <path d="M101.345513,2.24398507 C100.992016,2.24398507 100.705424,2.53037313 100.705424,2.88407463 L100.705424,5.27553731 C100.705424,5.62923881 100.992016,5.91562687 101.345513,5.91562687 L126.721454,5.91562687 C127.075155,5.91562687 127.361543,5.62923881 127.361543,5.27553731 L127.361543,2.88407463 C127.361543,2.53037313 127.075155,2.24398507 126.721454,2.24398507 L101.345513,2.24398507 Z" id="Fill-64" fill="#FFFFFF"></path>
            <path d="M95.6177318,9.22014527 C95.2642343,9.22014527 94.9776423,9.50653333 94.9776423,9.86023483 L94.9776423,12.2516975 C94.9776423,12.605195 95.2642343,12.8917871 95.6177318,12.8917871 L132.449195,12.8917871 C132.802896,12.8917871 133.089284,12.605195 133.089284,12.2516975 L133.089284,9.86023483 C133.089284,9.50653333 132.802896,9.22014527 132.449195,9.22014527 L95.6177318,9.22014527 Z" id="Fill-66" fill="#FFFFFF"></path>
        </g>
        <g id="Group-68-Copy-2" transform="translate(105.630521, 368.566775)">
            <path d="M58.6480318,1.2402194 C58.9162657,0.971985572 59.1781761,0.698652239 59.4723154,0.45591592 C59.7509522,0.226030348 60.0950667,-0.00018358209 60.4891562,2.03980099e-05 C60.8832458,2.03980099e-05 61.2271562,0.225826368 61.505793,0.45571194 C61.7999323,0.698448259 62.0618428,0.971985572 62.3300766,1.2402194 L62.4651114,1.37505025 C62.7335493,1.64348806 63.0068826,1.90539851 63.2494149,2.19933383 C63.4793005,2.47797065 63.7053104,2.82228905 63.7053104,3.21637861 C63.7053104,3.61026418 63.4793005,3.95437861 63.2494149,4.23301542 C63.0070866,4.52695075 62.7335493,4.78886119 62.4651114,5.057299 L50.8755741,16.6468363 C50.6073403,16.9152741 50.3454299,17.1886075 50.0514945,17.4311398 C49.7726537,17.6610254 49.4285393,17.8870353 49.0344498,17.8870353 C48.6403602,17.8870353 48.2964498,17.6610254 48.0178129,17.4311398 C47.7236736,17.1888114 47.4617632,16.9152741 47.1935294,16.6468363 L47.0584945,16.5118015 C46.7902607,16.2435677 46.5167234,15.9818612 46.274191,15.6877219 C46.0443055,15.4090851 45.8182955,15.0647667 45.8182955,14.6706771 C45.8182955,14.2765876 46.0443055,13.9326771 46.274191,13.6540403 C46.5167234,13.359901 46.7902607,13.0981945 47.0584945,12.8297567 L58.6480318,1.2402194 Z" id="Fill-1" fill="#FFFFFF"></path>
            <path d="M35.7389045,24.1493264 C36.0071383,23.8810925 36.2690488,23.6077592 36.5629841,23.3650229 C36.8418249,23.1351373 37.1859393,22.9091274 37.5800289,22.9091274 C37.9741184,22.9091274 38.3180289,23.1349333 38.5966657,23.3648189 C38.890805,23.6075552 39.1527154,23.8810925 39.4209493,24.1493264 L39.5559841,24.2843612 C39.8242179,24.552595 40.0977552,24.8145055 40.3402876,25.1084408 C40.5701731,25.3870776 40.7961831,25.731396 40.7961831,26.1254856 C40.7961831,26.5193711 40.5703771,26.8634856 40.3404915,27.1421224 C40.0977552,27.4360577 39.8244219,27.6979682 39.5559841,27.966406 L27.9664468,39.5559433 C27.6982129,39.8243811 27.4363025,40.0977144 27.1423672,40.3402468 C26.8635264,40.5701323 26.5194119,40.7961423 26.1253224,40.7961423 C25.7312328,40.7961423 25.3873224,40.5701323 25.1086856,40.3402468 C24.8145463,40.0979184 24.5526358,39.8243811 24.284402,39.5559433 L24.1493672,39.4209085 C23.8811333,39.1526746 23.607596,38.8909682 23.3650637,38.5968289 C23.1351781,38.318192 22.9091682,37.9738736 22.9091682,37.5797841 C22.9091682,37.1856945 23.1351781,36.8419881 23.3650637,36.5631473 C23.607596,36.269008 23.8811333,36.0073015 24.1493672,35.7388637 L35.7389045,24.1493264 Z" id="Fill-3" fill="#FFFFFF"></path>
            <path d="M62.465193,35.7389453 C62.7334269,36.0071791 63.0067602,36.2690896 63.2494965,36.5630249 C63.4793821,36.8416617 63.705392,37.1859801 63.705392,37.5798657 C63.705392,37.9739552 63.4793821,38.3180697 63.2494965,38.5967065 C63.0069642,38.8906418 62.7334269,39.1525522 62.465193,39.42099 L62.3301582,39.5560249 C62.0617204,39.8242587 61.8000139,40.097592 61.5060786,40.3403284 C61.2272378,40.5702139 60.8831234,40.7962239 60.4890338,40.7962239 C60.0949443,40.7962239 59.7510338,40.5702139 59.472397,40.3403284 C59.1782577,40.097796 58.9165512,39.8242587 58.6481134,39.5560249 L47.0585761,27.9664876 C46.7901383,27.6980498 46.516805,27.4363433 46.2742726,27.142204 C46.0443871,26.8635672 45.8181731,26.5194527 45.8183771,26.1251592 C45.8183771,25.7310697 46.0443871,25.3873632 46.2740687,25.1087264 C46.516601,24.8143831 46.7901383,24.5526766 47.0585761,24.2844428 L47.193407,24.149408 C47.4618448,23.8809701 47.7235512,23.6076368 48.0174866,23.3651045 C48.2963274,23.1352189 48.6404418,22.909209 49.0347353,22.909209 C49.4286209,22.909209 49.7725313,23.1350149 50.0513721,23.3649005 C50.3453075,23.6074328 50.6072179,23.8809701 50.8756557,24.149408 L62.465193,35.7389453 Z" id="Fill-5" fill="#FFFFFF"></path>
            <path d="M12.8297975,1.2402194 C13.0980313,0.971985572 13.3599418,0.698652239 13.6538771,0.45591592 C13.9327179,0.226030348 14.2768323,-0.00018358209 14.6709219,2.03980099e-05 C15.0650114,2.03980099e-05 15.4089219,0.225826368 15.6875587,0.45571194 C15.981698,0.698448259 16.2436085,0.971985572 16.5118423,1.2402194 L16.6468771,1.37505025 C16.9151109,1.64348806 17.1886483,1.90539851 17.4311806,2.19933383 C17.6610662,2.47797065 17.8870761,2.82228905 17.8870761,3.21637861 C17.8870761,3.61026418 17.6612701,3.95437861 17.4313846,4.23301542 C17.1886483,4.52695075 16.9151109,4.78886119 16.6468771,5.057299 L5.0573398,16.6468363 C4.78910597,16.9152741 4.52719552,17.1886075 4.2332602,17.4311398 C3.9544194,17.6610254 3.61030498,17.8870353 3.21621542,17.8870353 C2.82212587,17.8870353 2.47821542,17.6610254 2.19957861,17.4311398 C1.9054393,17.1888114 1.64352886,16.9152741 1.37529502,16.6468363 L1.2402602,16.5118015 C0.972026368,16.2435677 0.698489055,15.9818612 0.455956716,15.6877219 C0.226071144,15.4090851 6.11940299e-05,15.0647667 6.11940299e-05,14.6706771 C6.11940299e-05,14.2765876 0.226071144,13.9328811 0.455752736,13.6540403 C0.698489055,13.359901 0.972026368,13.0981945 1.2402602,12.8297567 L12.8297975,1.2402194 Z" id="Fill-7" fill-opacity="0.4" fill="#FFFFFF"></path>
            <path d="M16.6468567,35.7389453 C16.9150905,36.0071791 17.1886279,36.2690896 17.4311602,36.5630249 C17.6610458,36.8416617 17.8872597,37.1859801 17.8872597,37.5798657 C17.8870557,37.9739552 17.6612498,38.3180697 17.4313642,38.5967065 C17.1886279,38.8906418 16.9150905,39.1525522 16.6468567,39.42099 L16.5118219,39.5560249 C16.2435881,39.8242587 15.9818816,40.097592 15.6877423,40.3403284 C15.4091055,40.5702139 15.064991,40.7962239 14.6706975,40.7962239 C14.276608,40.7962239 13.9326975,40.5702139 13.6540607,40.3403284 C13.3601254,40.097796 13.0982149,39.8242587 12.8297771,39.5560249 L1.2402398,27.9664876 C0.97200597,27.6980498 0.698468657,27.4363433 0.455936318,27.142204 C0.226050746,26.8635672 4.07960199e-05,26.5194527 4.07960199e-05,26.1251592 C4.07960199e-05,25.7310697 0.226050746,25.3873632 0.455732338,25.1087264 C0.698468657,24.8143831 0.97200597,24.5526766 1.2402398,24.2844428 L1.37527463,24.149408 C1.64350846,23.8809701 1.90541891,23.6076368 2.19935423,23.3651045 C2.47819502,23.1352189 2.82230945,22.909209 3.216399,22.909209 C3.61048856,22.909209 3.954399,23.1350149 4.23303582,23.3649005 C4.52697114,23.6074328 4.78908557,23.8809701 5.0573194,24.149408 L16.6468567,35.7389453 Z" id="Fill-9" fill-opacity="0.4" fill="#FFFFFF"></path>
            <path d="M39.5559637,12.8296343 C39.8241975,13.0978682 40.0977348,13.3599826 40.3402672,13.6539179 C40.5701527,13.9325547 40.7963667,14.2768731 40.7963667,14.6707587 C40.7961627,15.0648483 40.5703567,15.4089627 40.3404711,15.6875995 C40.0977348,15.9815348 39.8244015,16.2434453 39.5559637,16.5118831 L39.4209289,16.6469179 C39.152695,16.9151517 38.8909886,17.1884851 38.5968493,17.4312214 C38.3182124,17.661107 37.974098,17.8871169 37.5798045,17.8871169 C37.1859189,17.8871169 36.8418045,17.661107 36.5631677,17.4312214 C36.2692323,17.1886891 36.0073219,16.9151517 35.7388841,16.6469179 L24.1493468,5.05717662 C23.8811129,4.78894279 23.6075756,4.52723632 23.3652473,4.23309701 C23.1351577,3.9544602 22.9091478,3.61034577 22.9091478,3.21605224 C22.9091478,2.82196269 23.1351577,2.47805224 23.3650433,2.1996194 C23.6075756,1.90527612 23.8811129,1.64356965 24.1493468,1.37513184 L24.2843816,1.240301 C24.5526154,0.971863184 24.8145259,0.698529851 25.1084612,0.455997512 C25.387302,0.22611194 25.7314164,-0.00010199005 26.125506,0.00010199005 C26.5195955,0.00010199005 26.863506,0.22590796 27.1421428,0.455793532 C27.4362821,0.698325871 27.6981925,0.971863184 27.9664264,1.240301 L39.5559637,12.8296343 Z" id="Fill-11" fill="#FFFFFF"></path>
            <path d="M81.5572408,24.1493264 C81.8254746,23.8810925 82.0873851,23.6077592 82.3813204,23.3650229 C82.6599572,23.1351373 83.0042756,22.9091274 83.3981612,22.9091274 C83.7922507,22.9091274 84.1363652,23.1349333 84.415002,23.3648189 C84.7089373,23.6075552 84.9708478,23.8810925 85.2392856,24.1493264 L85.3743204,24.2843612 C85.6425542,24.552595 85.9158876,24.8145055 86.1586239,25.1084408 C86.3885095,25.3870776 86.6145194,25.731396 86.6145194,26.1254856 C86.6145194,26.5193711 86.3885095,26.8634856 86.1586239,27.1421224 C85.9160915,27.4360577 85.6425542,27.6979682 85.3743204,27.966406 L73.7847831,39.5559433 C73.5163453,39.8243811 73.2546388,40.0977144 72.9604995,40.3402468 C72.6818627,40.5701323 72.3377483,40.7961423 71.9434547,40.7961423 C71.5493652,40.7961423 71.2056587,40.5701323 70.9270219,40.3402468 C70.6326786,40.0979184 70.3709721,39.8243811 70.1027383,39.5559433 L69.9677035,39.4209085 C69.6992657,39.1526746 69.4259323,38.8909682 69.1834,38.5968289 C68.9535144,38.318192 68.7275045,37.9738736 68.7275045,37.5797841 C68.7275045,37.1856945 68.9533104,36.8419881 69.183196,36.5631473 C69.4257284,36.269008 69.6992657,36.0073015 69.9677035,35.7388637 L81.5572408,24.1493264 Z" id="Fill-13" fill-opacity="0.4" fill="#FFFFFF"></path>
            <path d="M85.3743,12.8296343 C85.6425338,13.0978682 85.9158672,13.3599826 86.1586035,13.6539179 C86.3884891,13.9325547 86.614499,14.2768731 86.614499,14.6707587 C86.614499,15.0648483 86.3884891,15.4089627 86.1586035,15.6875995 C85.9160711,15.9815348 85.6425338,16.2434453 85.3743,16.5118831 L85.2392652,16.6469179 C84.9708274,16.9151517 84.7091209,17.1884851 84.4151856,17.4312214 C84.1365488,17.661107 83.7922303,17.8871169 83.3981408,17.8871169 C83.0040512,17.8871169 82.6601408,17.661107 82.381504,17.4312214 C82.0873647,17.1886891 81.8256582,16.9151517 81.5572204,16.6469179 L69.9676831,5.05717662 C69.6992453,4.78894279 69.4259119,4.52723632 69.1833796,4.23309701 C68.953494,3.9544602 68.7274841,3.61034577 68.7274841,3.21605224 C68.7274841,2.82196269 68.95329,2.47805224 69.1831756,2.1996194 C69.425708,1.90527612 69.6992453,1.64356965 69.9676831,1.37513184 L70.1027179,1.240301 C70.3707478,0.971863184 70.6326582,0.698529851 70.9267975,0.455997512 C71.2054343,0.22611194 71.5497527,-0.00010199005 71.9436383,0.00010199005 C72.3377279,0.00010199005 72.6816383,0.22590796 72.9604791,0.455793532 C73.2544144,0.698325871 73.5163249,0.971863184 73.7847627,1.240301 L85.3743,12.8296343 Z" id="Fill-15" fill-opacity="0.4" fill="#FFFFFF"></path>
            <path d="M180.481225,31.8252811 C180.147309,31.8505746 179.889479,32.1288035 179.889479,32.4635348 L179.889479,35.1452612 C179.889479,35.3233358 179.963727,35.4934552 180.094479,35.6146194 C180.224822,35.7355796 180.400245,35.7969776 180.577707,35.7833109 L199.720016,34.337908 C200.053931,34.3128184 200.311966,34.0345896 200.311966,33.6996542 L200.311966,31.0181318 C200.311966,30.8400572 200.237717,30.6699378 200.10717,30.5487736 C199.976419,30.4276095 199.801404,30.3666194 199.623737,30.3798781 L180.481225,31.8252811 Z" id="Fill-17" fill="#FFFFFF"></path>
            <path d="M183.486729,31.943406 L187.691167,31.8767045 C187.946958,31.8726249 188.175823,31.7165801 188.273122,31.4799632 L192.414122,21.3947791 C192.480007,21.2342468 192.477764,21.0535204 192.408002,20.8946199 C192.338445,20.7357194 192.207082,20.6116995 192.044306,20.5515254 L189.278948,19.5273413 C188.955843,19.407809 188.59643,19.5648736 188.464863,19.8832866 L183.486729,31.943406 Z" id="Fill-19" fill="#FFFFFF"></path>
            <path d="M203.146718,24.4114816 C202.998221,24.1055114 202.636564,23.9690488 202.323047,24.1008199 L199.830206,25.1476458 C199.668654,25.2153672 199.541982,25.3465264 199.479768,25.5103224 C199.417554,25.6741184 199.425305,25.8562726 199.500982,26.0141532 L204.812828,37.1031234 C204.963773,37.4182726 205.339912,37.5541234 205.657713,37.4078697 L208.163405,36.2551781 C208.31945,36.1833771 208.44041,36.051606 208.49834,35.8896458 C208.556475,35.7278896 208.546888,35.549407 208.471619,35.3945861 L203.146718,24.4114816 Z" id="Fill-21" fill="#FFFFFF"></path>
            <g id="Group-25" transform="translate(177.666667, 13.666871)">
                <mask id="mask-12" fill="white">
                    <use xlink:href="#path-11"></use>
                </mask>
                <g id="Clip-24"></g>
                <path d="M0.74148806,0.02449801 C0.387990547,0.02449801 0.101398507,0.31088607 0.101398507,0.664587562 L0.101398507,3.05605025 C0.101398507,3.40954776 0.387990547,3.6961398 0.74148806,3.6961398 L31.8451896,3.6961398 C32.1986871,3.6961398 32.4852791,3.40954776 32.4852791,3.05605025 L32.4852791,0.664587562 C32.4852791,0.31088607 32.1986871,0.02449801 31.8451896,0.02449801 L0.74148806,0.02449801 Z" id="Fill-23" fill="#FFFFFF" mask="url(#mask-12)"></path>
            </g>
            <path d="M182.300095,3.67184577 C181.946598,3.67184577 181.660005,3.95823383 181.660005,4.31193532 L181.660005,6.70339801 C181.660005,7.0570995 181.946598,7.34348756 182.300095,7.34348756 L205.619916,7.34348756 C205.973617,7.34348756 206.260005,7.0570995 206.260005,6.70339801 L206.260005,4.31193532 C206.260005,3.95823383 205.973617,3.67184577 205.619916,3.67184577 L182.300095,3.67184577 Z" id="Fill-26" fill="#FFFFFF"></path>
            <path d="M148.647764,31.8250771 C148.314053,31.8503706 148.056426,32.1285995 148.056426,32.4633308 L148.056426,35.1448532 C148.056426,35.3231318 148.130471,35.4932512 148.261018,35.6144154 C148.391769,35.7355796 148.566988,35.7967736 148.744859,35.783107 L164.876421,34.5584104 C165.210132,34.5331169 165.467963,34.255092 165.467963,33.9203607 L165.467963,31.2386343 C165.467963,31.0605597 165.393714,30.8904403 165.262963,30.7692761 C165.132416,30.6481119 164.957197,30.5871219 164.77953,30.6005846 L148.647764,31.8250771 Z" id="Fill-28" fill="#FFFFFF"></path>
            <path d="M151.433174,31.943406 L155.629656,31.8769085 C155.889731,31.8726249 156.121044,31.7118886 156.215691,31.4699682 L159.494059,23.0774109 C159.556477,22.9174905 159.552194,22.7392119 159.48182,22.5823512 C159.411447,22.4258985 159.281308,22.3039184 159.120368,22.2443562 L156.352562,21.2193562 C156.026398,21.0986 155.663313,21.2605602 155.535213,21.5838687 L151.433174,31.943406 Z" id="Fill-30" fill="#FFFFFF"></path>
            <path d="M139.526835,3.6202592 C139.252278,3.40424428 138.855332,3.44850796 138.63483,3.71918955 L136.87285,5.88423433 C136.764536,6.01722935 136.714153,6.18816468 136.733123,6.35889602 C136.752094,6.52942338 136.838785,6.6850602 136.973616,6.79112985 L143.530964,11.9479507 C143.805521,12.1637617 144.202467,12.119702 144.422969,11.8488164 L146.184949,9.6841796 C146.293263,9.5509806 146.343646,9.37984129 146.324676,9.20931393 C146.305705,9.03878657 146.219218,8.88314975 146.083979,8.77687612 L139.526835,3.6202592 Z" id="Fill-32" fill="#FFFFFF"></path>
            <path d="M138.350563,37.3492866 C138.60921,37.5710129 138.995956,37.5512269 139.230737,37.3046149 L145.651215,30.5600129 C145.890688,30.3083015 145.885792,29.9117642 145.6402,29.6661721 L143.681379,27.7071473 C143.559399,27.5853711 143.393563,27.5178537 143.2212,27.5198935 C143.048633,27.5219333 142.884633,27.5935303 142.765712,27.7181622 L136.19327,34.6126896 C136.072105,34.7397692 136.008668,34.9111124 136.017439,35.0865353 C136.026006,35.2619582 136.106782,35.4259582 136.239981,35.5401871 L138.350563,37.3492866 Z" id="Fill-34" fill="#FFFFFF"></path>
            <path d="M168.671083,25.3626612 C168.521974,25.0583229 168.161133,24.9230841 167.848635,25.0542433 L165.355795,26.1012731 C165.194038,26.1691985 165.067163,26.3009697 165.004949,26.4649697 C164.942939,26.6293776 164.951098,26.8119398 165.027591,26.9700244 L169.967581,37.1798403 C170.11975,37.4935617 170.494461,37.6281886 170.811242,37.4823428 L173.31673,36.3298552 C173.473591,36.2578502 173.594551,36.1256711 173.652277,35.963099 C173.710207,35.8005269 173.699804,35.6216363 173.623924,35.4666114 L168.671083,25.3626612 Z" id="Fill-36" fill="#FFFFFF"></path>
            <path d="M159.27884,1.83602488 C158.925342,1.83602488 158.63875,2.12241294 158.63875,2.47611443 L158.63875,18.0122587 C158.63875,18.3655522 158.925342,18.6521443 159.27884,18.6521443 L162.404631,18.6521443 C162.758332,18.6521443 163.04472,18.3655522 163.04472,18.0122587 L163.04472,2.47611443 C163.04472,2.12241294 162.758332,1.83602488 162.404631,1.83602488 L159.27884,1.83602488 Z" id="Fill-38" fill="#FFFFFF"></path>
            <path d="M148.924667,16.0086642 C148.571374,16.0086642 148.284578,16.2950522 148.284578,16.6485498 L148.284578,19.0402164 C148.284578,19.3937139 148.571374,19.680306 148.924667,19.680306 L172.685289,19.680306 C173.038787,19.680306 173.325379,19.3937139 173.325379,19.0402164 L173.325379,16.6485498 C173.325379,16.2950522 173.038787,16.0086642 172.685289,16.0086642 L148.924667,16.0086642 Z" id="Fill-40" fill="#FFFFFF"></path>
            <path d="M150.613663,7.26997313 C150.26037,7.26997313 149.973574,7.55656517 149.973574,7.91006269 L149.973574,10.3015254 C149.973574,10.6552269 150.26037,10.9416149 150.613663,10.9416149 L170.996375,10.9416149 C171.349668,10.9416149 171.636464,10.6552269 171.636464,10.3015254 L171.636464,7.91006269 C171.636464,7.55656517 171.349668,7.26997313 170.996375,7.26997313 L150.613663,7.26997313 Z" id="Fill-42" fill="#FFFFFF"></path>
            <path d="M139.527426,14.5668512 C139.253073,14.3485925 138.853884,14.3916323 138.632566,14.6637418 L136.870586,16.8283786 C136.762476,16.9609657 136.712093,17.1312891 136.730655,17.3012045 C136.749013,17.4713239 136.834685,17.6267567 136.968496,17.7332343 L142.7958,22.3703139 C143.070357,22.5885726 143.469342,22.5453289 143.690864,22.2734234 L145.452844,20.1085826 C145.56075,19.9761995 145.611133,19.8058761 145.592775,19.6359607 C145.57462,19.4658413 145.488949,19.3104085 145.354934,19.2037269 L139.527426,14.5668512 Z" id="Fill-44" fill="#FFFFFF"></path>
            <path d="M120.322027,25.7068776 C120.12437,25.6224299 119.897544,25.6430318 119.718042,25.7615443 C119.538743,25.8798527 119.430838,26.0803652 119.430838,26.2955642 L119.430838,29.013599 C119.430838,29.2712259 119.585251,29.5035592 119.822684,29.6035095 L130.857395,34.2460965 C130.99447,34.3038229 131.151534,34.2889323 131.27535,34.2067284 C131.39937,34.1245244 131.473823,33.9856139 131.473823,33.8367085 L131.473823,30.8894 C131.473823,30.632997 131.320838,30.4014796 131.085037,30.3007134 L120.322027,25.7068776 Z" id="Fill-46" fill="#FFFFFF"></path>
            <path d="M112.360418,30.9071667 C112.006921,30.9071667 111.720329,31.1937587 111.720329,31.5472562 L111.720329,37.0965348 C111.720329,37.4500323 112.006921,37.7364204 112.360418,37.7364204 L115.780145,37.7364204 C116.133438,37.7364204 116.42003,37.4500323 116.42003,37.0965348 L116.42003,31.5472562 C116.42003,31.1937587 116.133438,30.9071667 115.780145,30.9071667 L112.360418,30.9071667 Z" id="Fill-48" fill="#FFFFFF"></path>
            <path d="M123.102459,16.0204134 C123.102459,15.6669159 122.816071,15.3803239 122.46237,15.3803239 L120.14434,15.3803239 C119.790842,15.3803239 119.50425,15.6669159 119.50425,16.0204134 L119.50425,23.405309 C119.50425,23.7590104 119.790842,24.0453985 120.14434,24.0453985 L122.46237,24.0453985 C122.816071,24.0453985 123.102459,23.7590104 123.102459,23.405309 L123.102459,16.0204134 Z" id="Fill-50" fill="#FFFFFF"></path>
            <path d="M130.225424,21.5278761 C130.225424,21.1743786 129.939036,20.8877866 129.585334,20.8877866 L120.144319,20.8877866 C119.790822,20.8877866 119.50423,21.1743786 119.50423,21.5278761 L119.50423,23.4787418 C119.50423,23.8322393 119.790822,24.1188313 120.144319,24.1188313 L129.585334,24.1188313 C129.939036,24.1188313 130.225424,23.8322393 130.225424,23.4787418 L130.225424,21.5278761 Z" id="Fill-52" fill="#FFFFFF"></path>
            <path d="M128.095974,15.7266005 C128.095974,15.373307 127.809382,15.0865109 127.455884,15.0865109 L120.144421,15.0865109 C119.79072,15.0865109 119.504332,15.373307 119.504332,15.7266005 L119.504332,17.6774662 C119.504332,18.0311677 119.79072,18.3175557 120.144421,18.3175557 L127.455884,18.3175557 C127.809382,18.3175557 128.095974,18.0311677 128.095974,17.6774662 L128.095974,15.7266005 Z" id="Fill-54" fill="#FFFFFF"></path>
            <path d="M105.604577,15.3803851 C105.251284,15.3803851 104.964488,15.6667731 104.964488,16.0204746 L104.964488,23.4053701 C104.964488,23.7588677 105.251284,24.0452557 105.604577,24.0452557 L107.922607,24.0452557 C108.276308,24.0452557 108.562697,23.7588677 108.562697,23.4053701 L108.562697,16.0204746 C108.562697,15.6667731 108.276308,15.3803851 107.922607,15.3803851 L105.604577,15.3803851 Z" id="Fill-56" fill="#FFFFFF"></path>
            <path d="M98.4816124,20.8878478 C98.1281149,20.8878478 97.8415229,21.1742358 97.8415229,21.5279373 L97.8415229,23.478803 C97.8415229,23.8323005 98.1281149,24.1188925 98.4816124,24.1188925 L107.922627,24.1188925 C108.276329,24.1188925 108.562717,23.8323005 108.562717,23.478803 L108.562717,21.5279373 C108.562717,21.1742358 108.276329,20.8878478 107.922627,20.8878478 L98.4816124,20.8878478 Z" id="Fill-58" fill="#FFFFFF"></path>
            <path d="M100.611063,15.0865721 C100.257769,15.0865721 99.9711771,15.3731642 99.9711771,15.7266617 L99.9711771,17.6775274 C99.9711771,18.0312289 100.257769,18.3176169 100.611063,18.3176169 L108.540789,18.3176169 C108.553028,18.3176169 108.562615,18.3078259 108.562615,18.2955871 L108.562615,15.7266617 C108.562615,15.3731642 108.276227,15.0865721 107.922729,15.0865721 L100.611063,15.0865721 Z" id="Fill-60" fill="#FFFFFF"></path>
            <path d="M112.360418,3.63916816 C112.006921,3.63916816 111.720329,3.9257602 111.720329,4.27925771 L111.720329,24.65381 C111.720329,24.9251035 111.549598,25.1666159 111.29401,25.2569791 L97.0194831,30.3154816 C96.763896,30.4062527 96.5931647,30.6477652 96.5931647,30.9188547 L96.5931647,33.9140985 C96.5931647,34.0507652 96.6590502,34.1788647 96.7700154,34.2582129 C96.8811846,34.3377652 97.0237667,34.3587751 97.1528861,34.3147154 L114.897727,28.2683373 C115.807886,27.9582876 116.42003,27.102999 116.42003,26.1412328 L116.42003,4.27925771 C116.42003,3.9257602 116.133438,3.63916816 115.780145,3.63916816 L112.360418,3.63916816 Z" id="Fill-62" fill="#FFFFFF"></path>
            <path d="M101.345513,2.24398507 C100.992016,2.24398507 100.705424,2.53037313 100.705424,2.88407463 L100.705424,5.27553731 C100.705424,5.62923881 100.992016,5.91562687 101.345513,5.91562687 L126.721454,5.91562687 C127.075155,5.91562687 127.361543,5.62923881 127.361543,5.27553731 L127.361543,2.88407463 C127.361543,2.53037313 127.075155,2.24398507 126.721454,2.24398507 L101.345513,2.24398507 Z" id="Fill-64" fill="#FFFFFF"></path>
            <path d="M95.6177318,9.22014527 C95.2642343,9.22014527 94.9776423,9.50653333 94.9776423,9.86023483 L94.9776423,12.2516975 C94.9776423,12.605195 95.2642343,12.8917871 95.6177318,12.8917871 L132.449195,12.8917871 C132.802896,12.8917871 133.089284,12.605195 133.089284,12.2516975 L133.089284,9.86023483 C133.089284,9.50653333 132.802896,9.22014527 132.449195,9.22014527 L95.6177318,9.22014527 Z" id="Fill-66" fill="#FFFFFF"></path>
        </g>
    </g>
</svg>