<?xml version="1.0" encoding="UTF-8"?>
<svg width="881px" height="554px" viewBox="0 0 881 554" version="1.1" xmlns="http://www.w3.org/2000/svg" xmlns:xlink="http://www.w3.org/1999/xlink">
    <!-- Generator: Sketch 51.3 (57544) - http://www.bohemiancoding.com/sketch -->
    <title>Doc Webpage</title>
    <desc>Created with Sketch.</desc>
    <defs></defs>
    <g id="Schemes" stroke="none" stroke-width="1" fill="none" fill-rule="evenodd">
        <g id="Doc-Webpage" transform="translate(1.000000, 0.000000)">
            <rect id="Rectangle" stroke="#DDDDDD" fill="#FFFFFF" x="0.796628411" y="32.9949492" width="419.799696" height="191.531988" rx="10"></rect>
            <rect id="Rectangle-Copy" fill="#2B4EEF" x="459.384112" y="32.4949492" width="420.799696" height="192.531988" rx="10"></rect>
            <rect id="Rectangle-Copy-2" fill="#283266" x="0" y="291.881668" width="420.799696" height="192.531988" rx="10"></rect>
            <rect id="Rectangle-Copy-3" fill="#1D1E22" x="459.397569" y="291.881668" width="420.799696" height="192.531988" rx="10"></rect>
            <g id="logo-mul" transform="translate(146.899848, 99.018841)" fill="#2B4EEF">
                <path d="M85.6393555,1.95521256 C86.0277271,1.56684103 86.4069431,1.17108601 86.8325274,0.81963193 C87.2362566,0.48678424 87.7344944,0.159252662 88.3050905,0.159548001 C88.8756865,0.159548001 89.373629,0.4864889 89.7770628,0.81933659 C90.2029425,1.17079067 90.5821585,1.56684103 90.97053,1.95521256 L91.1660448,2.15043201 C91.5544164,2.53909888 91.9504667,2.91831488 92.3016255,3.34389919 C92.6344731,3.74733304 92.9617094,4.24586623 92.9617094,4.81646227 C92.9617094,5.38676297 92.6344731,5.88500081 92.3019208,6.28843466 C91.9504667,6.71401897 91.5544164,7.09323498 91.1660448,7.48190184 L74.3857367,24.2622099 C73.9973652,24.6508768 73.6181492,25.0466318 73.1925649,25.3977906 C72.7888357,25.7306382 72.2905979,26.0578745 71.7200018,26.0578745 C71.1494058,26.0578745 70.6514633,25.7306382 70.2480294,25.3977906 C69.8221498,25.0469272 69.4429338,24.6508768 69.0545622,24.2622099 L68.8590475,24.0666951 C68.4706759,23.6783236 68.0746256,23.2994029 67.7234668,22.8735233 C67.3906191,22.4700894 67.0633829,21.9715563 67.0633829,21.4009602 C67.0633829,20.8303642 67.3903238,20.3324217 67.7231715,19.9289878 C68.0746256,19.5031082 68.4703806,19.1241875 68.8590475,18.7355206 L85.6393555,1.95521256 Z" id="Fill-52"></path>
                <path d="M52.4695918,35.1249468 C52.8579633,34.7365753 53.2371793,34.3408203 53.6627636,33.9893662 C54.0664928,33.6565185 54.5647306,33.3292823 55.1353267,33.3292823 C55.7059227,33.3292823 56.2038652,33.6562232 56.6072991,33.9890708 C57.0331787,34.3405249 57.4123947,34.7365753 57.8007662,35.1249468 L57.996281,35.3204616 C58.3846526,35.7088331 58.7807029,36.0880491 59.1318617,36.5136334 C59.4647094,36.9170673 59.7919456,37.4156005 59.7919456,37.9861965 C59.7919456,38.5564972 59.4647094,39.0547351 59.1318617,39.4581689 C58.7807029,39.8837532 58.3846526,40.2629692 57.996281,40.6516361 L41.215973,57.4319442 C40.8276014,57.8206111 40.4483854,58.2163661 40.0225058,58.5675248 C39.6190719,58.9003725 39.1208341,59.2276087 38.550238,59.2276087 C37.979642,59.2276087 37.4816995,58.9003725 37.0782656,58.5675248 C36.652386,58.2166614 36.27317,57.8206111 35.8847985,57.4319442 L35.6892837,57.2364294 C35.3009121,56.8480579 34.9048618,56.4691372 34.553703,56.0432575 C34.2208553,55.6398237 33.8936191,55.1412905 33.8936191,54.5706945 C33.8936191,54.0000984 34.22056,53.5024513 34.5534077,53.0987221 C34.9048618,52.6728424 35.3006168,52.2939218 35.6892837,51.9052549 L52.4695918,35.1249468 Z" id="Fill-54"></path>
                <path d="M91.1659858,51.905373 C91.5543573,52.2937446 91.9504076,52.6729606 92.3015664,53.0985449 C92.6344141,53.5019787 92.9619457,54.0005119 92.9619457,54.5708126 C92.9616503,55.1414086 92.6344141,55.6396465 92.3018617,56.0430803 C91.9504076,56.4686647 91.5543573,56.8478807 91.1659858,57.2365475 L90.970471,57.4320623 C90.5820994,57.8204338 90.2028834,58.2161889 89.7772991,58.5676429 C89.3738653,58.9004906 88.8756274,59.2277269 88.304736,59.2277269 C87.73414,59.2277269 87.2361975,58.9004906 86.8327637,58.5676429 C86.4071793,58.2164842 86.0279633,57.8204338 85.6392965,57.4320623 L68.8589884,40.6517542 C68.4706169,40.2630874 68.0745665,39.8841667 67.7234078,39.4582871 C67.3905601,39.0548532 67.0633238,38.5566154 67.0633238,37.985724 C67.0633238,37.4151279 67.3905601,36.9174808 67.7234078,36.5140469 C68.0745665,36.0878719 68.4703215,35.7089513 68.8589884,35.3205797 L69.0545032,35.1250649 C69.4428747,34.7363981 69.8217954,34.3406431 70.247675,33.9894843 C70.6514042,33.6566366 71.1496421,33.3294004 71.7202381,33.3294004 C72.2908341,33.3294004 72.7887766,33.6563413 73.1922105,33.989189 C73.6177948,34.3403477 73.9973061,34.7363981 74.3856777,35.1250649 L91.1659858,51.905373 Z" id="Fill-56"></path>
                <path d="M19.2998575,1.95521256 C19.688229,1.56684103 20.067445,1.17108601 20.4930293,0.81963193 C20.8967585,0.48678424 21.3949964,0.159252662 21.9655924,0.159548001 C22.5361885,0.159548001 23.034131,0.4864889 23.4375648,0.81933659 C23.8634445,1.17079067 24.2423651,1.56684103 24.631032,1.95521256 L24.8265468,2.15043201 C25.2149183,2.53909888 25.6109687,2.91831488 25.9621274,3.34389919 C26.2949751,3.74733304 26.6222113,4.24586623 26.6222113,4.81646227 C26.6222113,5.38676297 26.2949751,5.88500081 25.9621274,6.28843466 C25.6109687,6.71401897 25.2149183,7.09323498 24.8265468,7.48190184 L8.0462387,24.2622099 C7.65786717,24.6508768 7.27865117,25.0466318 6.85277152,25.3977906 C6.44933767,25.7306382 5.95109982,26.0578745 5.38050378,26.0578745 C4.80990774,26.0578745 4.31196523,25.7306382 3.90853139,25.3977906 C3.48265174,25.0469272 3.10343573,24.6508768 2.71506421,24.2622099 L2.51954941,24.0666951 C2.13117788,23.6783236 1.73512753,23.2994029 1.38396878,22.8735233 C1.05112109,22.4700894 0.723884856,21.9715563 0.723884856,21.4009602 C0.723884856,20.8303642 1.05082575,20.332717 1.38367344,19.9289878 C1.73512753,19.5031082 2.13088254,19.1241875 2.51954941,18.7355206 L19.2998575,1.95521256 Z" id="Fill-58" fill-opacity="0.2"></path>
                <path d="M24.8265172,51.905373 C25.2148888,52.2937446 25.6109391,52.6729606 25.9620979,53.0985449 C26.2949456,53.5019787 26.6224771,54.0005119 26.6221818,54.5708126 C26.6221818,55.1414086 26.2949456,55.6396465 25.9620979,56.0430803 C25.6109391,56.4686647 25.2148888,56.8478807 24.8265172,57.2365475 L24.6310025,57.4320623 C24.2426309,57.8204338 23.8634149,58.2161889 23.4378306,58.5676429 C23.0343968,58.9004906 22.5361589,59.2277269 21.9652675,59.2277269 C21.3946715,59.2277269 20.896729,58.9004906 20.4932951,58.5676429 C20.0674155,58.2164842 19.6884948,57.8204338 19.299828,57.4320623 L2.51951988,40.6517542 C2.13114835,40.2630874 1.73509799,39.8841667 1.38393925,39.4582871 C1.05109156,39.0548532 0.723855322,38.5566154 0.723855322,37.985724 C0.723855322,37.4151279 1.05109156,36.9174808 1.38393925,36.5140469 C1.73509799,36.0878719 2.13085301,35.7089513 2.51951988,35.3205797 L2.71503467,35.1250649 C3.1034062,34.7363981 3.48232686,34.3406431 3.90820652,33.9894843 C4.3119357,33.6566366 4.81017355,33.3294004 5.38076959,33.3294004 C5.95107029,33.3294004 6.44930814,33.6563413 6.85274198,33.989189 C7.2783263,34.3403477 7.6575423,34.7363981 8.04620917,35.1250649 L24.8265172,51.905373 Z" id="Fill-60" fill-opacity="0.2"></path>
                <path d="M57.9962515,18.7353434 C58.384623,19.123715 58.7806734,19.5032263 59.1318321,19.9288106 C59.4646798,20.3322445 59.7922114,20.8307777 59.7922114,21.4010784 C59.7919161,21.9716744 59.4646798,22.4699122 59.1318321,22.8733461 C58.7806734,23.2989304 58.384623,23.6781464 57.9962515,24.0668133 L57.8007367,24.2623281 C57.4123652,24.6506996 57.0331492,25.0464546 56.6075649,25.3979087 C56.204131,25.7307564 55.7058932,26.0579926 55.1350018,26.0579926 C54.5644058,26.0579926 54.0664632,25.7307564 53.6630294,25.3979087 C53.2371497,25.04675 52.8582291,24.6506996 52.4695622,24.2623281 L35.6892541,7.48172464 C35.3008826,7.09335311 34.9048322,6.71443245 34.5536735,6.2885528 C34.2208258,5.88511895 33.8935896,5.3868811 33.8935896,4.81598972 C33.8935896,4.24539368 34.2208258,3.74745118 34.5536735,3.34431267 C34.9048322,2.91813768 35.3005873,2.53921702 35.6892541,2.15055015 L35.8847689,1.95533069 C36.2731405,1.56666383 36.6520611,1.17090881 37.0779408,0.819750066 C37.48167,0.486902375 37.9799078,0.159370797 38.5505038,0.159666137 C39.1208045,0.159666137 39.6190424,0.486607036 40.0224762,0.819454726 C40.4480605,1.17061347 40.8272766,1.56666383 41.2159434,1.95533069 L57.9962515,18.7353434 Z" id="Fill-62"></path>
                <path d="M118.80909,35.1249468 C119.197461,34.7365753 119.576677,34.3408203 120.002262,33.9893662 C120.405991,33.6565185 120.904229,33.3292823 121.474825,33.3292823 C122.045421,33.3292823 122.543363,33.6562232 122.946797,33.9890708 C123.372677,34.3405249 123.751893,34.7365753 124.140264,35.1249468 L124.335779,35.3204616 C124.724151,35.7088331 125.120201,36.0880491 125.47136,36.5136334 C125.804207,36.9170673 126.131444,37.4156005 126.131444,37.9861965 C126.131444,38.5564972 125.804207,39.0547351 125.471655,39.4581689 C125.120201,39.8837532 124.724151,40.2629692 124.335779,40.6516361 L107.555471,57.4319442 C107.167099,57.8206111 106.787883,58.2163661 106.362299,58.5675248 C105.95857,58.9003725 105.460332,59.2276087 104.889736,59.2276087 C104.31914,59.2276087 103.821198,58.9003725 103.417764,58.5675248 C102.991884,58.2166614 102.612668,57.8206111 102.224297,57.4319442 L102.028782,57.2364294 C101.64041,56.8480579 101.24436,56.4691372 100.893201,56.0432575 C100.560353,55.6398237 100.233117,55.1412905 100.233117,54.5706945 C100.233117,54.0000984 100.560058,53.5024513 100.892906,53.0987221 C101.24436,52.6728424 101.64041,52.2939218 102.028782,51.9052549 L118.80909,35.1249468 Z" id="Fill-64" fill-opacity="0.2"></path>
                <path d="M124.33575,18.7353434 C124.724121,19.123715 125.120171,19.5032263 125.47133,19.9288106 C125.804178,20.3322445 126.131709,20.8307777 126.131709,21.4010784 C126.131414,21.9716744 125.804178,22.4699122 125.471626,22.8733461 C125.120171,23.2989304 124.724121,23.6781464 124.33575,24.0668133 L124.140235,24.2623281 C123.751863,24.6506996 123.372647,25.0464546 122.947063,25.3979087 C122.543629,25.7307564 122.045391,26.0579926 121.4745,26.0579926 C120.903904,26.0579926 120.405961,25.7307564 120.002527,25.3979087 C119.576943,25.04675 119.197727,24.6506996 118.80906,24.2623281 L102.028752,7.48172464 C101.640381,7.09335311 101.24433,6.71443245 100.893172,6.2885528 C100.560324,5.88511895 100.233088,5.3868811 100.233088,4.81598972 C100.233088,4.24539368 100.560324,3.74745118 100.893172,3.34431267 C101.24433,2.91813768 101.640381,2.53921702 102.028752,2.15055015 L102.224267,1.95533069 C102.612638,1.56666383 102.991559,1.17090881 103.417439,0.819750066 C103.821168,0.486902375 104.319406,0.159370797 104.890002,0.159666137 C105.460598,0.159666137 105.95854,0.486607036 106.361974,0.819454726 C106.787559,1.17061347 107.16707,1.56666383 107.555441,1.95533069 L124.33575,18.7353434 Z" id="Fill-66" fill-opacity="0.2"></path>
            </g>
            <g id="logo-mul-copy" transform="translate(606.283960, 99.018841)" fill="#FFFFFF">
                <path d="M86.1944507,1.96788581 C86.5853396,1.57699694 86.9670136,1.17867673 87.3953564,0.824944601 C87.8017025,0.489939466 88.3031698,0.160284902 88.8774643,0.160582156 C89.4517588,0.160582156 89.9529289,0.489642212 90.3589777,0.824647347 C90.7876178,1.17837948 91.1692918,1.57699694 91.5601807,1.96788581 L91.7569628,2.16437063 C92.1478516,2.55555675 92.5464691,2.93723075 92.899904,3.3655736 C93.2349091,3.77162242 93.5642664,4.27338698 93.5642664,4.8476815 C93.5642664,5.42167876 93.2349091,5.92314608 92.9002012,6.32919489 C92.5464691,6.75753775 92.1478516,7.13921174 91.7569628,7.53039786 L74.8678885,24.4194722 C74.4769996,24.8106583 74.0953256,25.2089785 73.6669828,25.5624134 C73.2606367,25.8974185 72.7591694,26.2267758 72.1848749,26.2267758 C71.6105803,26.2267758 71.1094103,25.8974185 70.7033615,25.5624134 C70.2747214,25.2092757 69.8930474,24.8106583 69.5021585,24.4194722 L69.3053764,24.2226901 C68.9144876,23.8318012 68.5158701,23.4504245 68.1624352,23.0217844 C67.8274301,22.6157355 67.4980728,22.113971 67.4980728,21.5396765 C67.4980728,20.9653819 67.8271328,20.4642119 68.162138,20.0581631 C68.5158701,19.629523 68.9141903,19.2481462 69.3053764,18.8569601 L86.1944507,1.96788581 Z" id="Fill-52"></path>
                <path d="M52.8096879,35.3526189 C53.2005768,34.96173 53.5822508,34.5634098 54.0105936,34.2096777 C54.4169397,33.8746725 54.918407,33.5453152 55.4927015,33.5453152 C56.0669961,33.5453152 56.5681661,33.8743753 56.9742149,34.2093804 C57.402855,34.5631125 57.784529,34.96173 58.1754179,35.3526189 L58.3722,35.5494009 C58.7630888,35.9402898 59.1617063,36.3219638 59.5151412,36.7503067 C59.8501463,37.1563555 60.1795036,37.65812 60.1795036,38.2324146 C60.1795036,38.8064118 59.8501463,39.3078791 59.5151412,39.713928 C59.1617063,40.1422708 58.7630888,40.5239448 58.3722,40.9151309 L41.4831257,57.8042052 C41.0922368,58.1953913 40.7105628,58.5937116 40.2819227,58.9471464 C39.8758739,59.2821516 39.3744066,59.6115089 38.8001121,59.6115089 C38.2258176,59.6115089 37.7246475,59.2821516 37.3185987,58.9471464 C36.8899586,58.5940088 36.5082846,58.1953913 36.1173957,57.8042052 L35.9206136,57.6074231 C35.5297248,57.2165343 35.1311073,56.8351575 34.7776724,56.4065174 C34.4426673,56.0004686 34.11331,55.498704 34.11331,54.9244095 C34.11331,54.350115 34.44237,53.8492422 34.7773752,53.4428961 C35.1311073,53.014256 35.5294275,52.6328793 35.9206136,52.2416932 L52.8096879,35.3526189 Z" id="Fill-54"></path>
                <path d="M91.7569033,52.2418121 C92.1477922,52.6327009 92.5464096,53.0143749 92.8998445,53.4427178 C93.2348497,53.8487666 93.5645042,54.3505312 93.5645042,54.9245284 C93.564207,55.4988229 93.2348497,56.0002903 92.9001418,56.4063391 C92.5464096,56.8346819 92.1477922,57.2163559 91.7569033,57.607542 L91.5601212,57.8043241 C91.1692324,58.195213 90.7875584,58.5935332 90.3592155,58.9472653 C89.9531667,59.2822705 89.4516994,59.6116278 88.8771076,59.6116278 C88.3028131,59.6116278 87.801643,59.2822705 87.3955942,58.9472653 C86.9672514,58.5938305 86.5855774,58.195213 86.1943913,57.8043241 L69.305317,40.9152498 C68.9144281,40.5240637 68.5158106,40.142687 68.1623758,39.7140469 C67.8273706,39.307998 67.4980133,38.8065307 67.4980133,38.231939 C67.4980133,37.6576444 67.8273706,37.1567716 68.1623758,36.7507228 C68.5158106,36.3217855 68.9141308,35.9404087 69.305317,35.5495198 L69.502099,35.3527378 C69.8929879,34.9615517 70.2743647,34.5632314 70.7030048,34.2097966 C71.1093508,33.8747914 71.6108181,33.5454341 72.1851127,33.5454341 C72.7594072,33.5454341 73.2605772,33.8744942 73.666626,34.2094993 C74.0949689,34.5629342 74.4769402,34.9615517 74.867829,35.3527378 L91.7569033,52.2418121 Z" id="Fill-56"></path>
                <path d="M19.4249549,1.96788581 C19.8158437,1.57699694 20.1975177,1.17867673 20.6258606,0.824944601 C21.0322066,0.489939466 21.533674,0.160284902 22.1079685,0.160582156 C22.682263,0.160582156 23.1834331,0.489642212 23.5894819,0.824647347 C24.018122,1.17837948 24.3994987,1.57699694 24.7906848,1.96788581 L24.9874669,2.16437063 C25.3783558,2.55555675 25.7769732,2.93723075 26.1304081,3.3655736 C26.4654133,3.77162242 26.7947706,4.27338698 26.7947706,4.8476815 C26.7947706,5.42167876 26.4654133,5.92314608 26.1304081,6.32919489 C25.7769732,6.75753775 25.3783558,7.13921174 24.9874669,7.53039786 L8.09839262,24.4194722 C7.70750376,24.8106583 7.32582976,25.2089785 6.89718965,25.5624134 C6.49114084,25.8974185 5.98967352,26.2267758 5.41537901,26.2267758 C4.84108449,26.2267758 4.33991443,25.8974185 3.93386562,25.5624134 C3.50522551,25.2092757 3.12355151,24.8106583 2.73266264,24.4194722 L2.53588057,24.2226901 C2.1449917,23.8318012 1.74637424,23.4504245 1.39293936,23.0217844 C1.05793423,22.6157355 0.728576915,22.113971 0.728576915,21.5396765 C0.728576915,20.9653819 1.05763697,20.4645091 1.39264211,20.0581631 C1.74637424,19.629523 2.14469445,19.2481462 2.53588057,18.8569601 L19.4249549,1.96788581 Z" id="Fill-58" fill-opacity="0.2"></path>
                <path d="M24.9874372,52.2418121 C25.3783261,52.6327009 25.7769435,53.0143749 26.1303784,53.4427178 C26.4653835,53.8487666 26.7950381,54.3505312 26.7947408,54.9245284 C26.7947408,55.4988229 26.4653835,56.0002903 26.1303784,56.4063391 C25.7769435,56.8346819 25.3783261,57.2163559 24.9874372,57.607542 L24.7906551,57.8043241 C24.3997662,58.195213 24.0180923,58.5935332 23.5897494,58.9472653 C23.1837006,59.2822705 22.6822333,59.6116278 22.1076415,59.6116278 C21.533347,59.6116278 21.0321769,59.2822705 20.6261281,58.9472653 C20.197488,58.5938305 19.8161113,58.195213 19.4249251,57.8043241 L2.53585084,40.9152498 C2.14496198,40.5240637 1.74634451,40.142687 1.39290964,39.7140469 C1.0579045,39.307998 0.72854719,38.8065307 0.72854719,38.231939 C0.72854719,37.6576444 1.0579045,37.1567716 1.39290964,36.7507228 C1.74634451,36.3217855 2.14466472,35.9404087 2.53585084,35.5495198 L2.73263292,35.3527378 C3.12352179,34.9615517 3.50489853,34.5632314 3.93353864,34.2097966 C4.33988471,33.8747914 4.84135202,33.5454341 5.41564653,33.5454341 C5.9896438,33.5454341 6.49111111,33.8744942 6.89715992,34.2094993 C7.32550278,34.5629342 7.70717678,34.9615517 8.0983629,35.3527378 L24.9874372,52.2418121 Z" id="Fill-60" fill-opacity="0.2"></path>
                <path d="M58.3721703,18.8567818 C58.7630591,19.2476706 59.1616766,19.6296419 59.5151115,20.0579847 C59.8501166,20.4640335 60.1797712,20.9657981 60.1797712,21.5397954 C60.1794739,22.1140899 59.8501166,22.6155572 59.5151115,23.021606 C59.1616766,23.4499489 58.7630591,23.8316229 58.3721703,24.222809 L58.1753882,24.4195911 C57.7844993,24.8104799 57.4028253,25.2088001 56.9744825,25.5625323 C56.5684336,25.8975374 56.0669663,26.2268947 55.4923746,26.2268947 C54.91808,26.2268947 54.41691,25.8975374 54.0108612,25.5625323 C53.5822211,25.2090974 53.2008443,24.8104799 52.8096582,24.4195911 L35.9205839,7.53021951 C35.529695,7.13933064 35.1310776,6.7579539 34.7776427,6.32931379 C34.4426376,5.92326498 34.1132803,5.42179766 34.1132803,4.84720589 C34.1132803,4.27291138 34.4426376,3.77174132 34.7776427,3.36598976 C35.1310776,2.93705239 35.5293978,2.55567565 35.9205839,2.16448953 L36.117366,1.96800471 C36.5082548,1.57681859 36.8896316,1.17849838 37.3182717,0.825063502 C37.7246178,0.490058368 38.2260851,0.160403803 38.8003796,0.160701057 C39.3743769,0.160701057 39.8758442,0.489761114 40.281893,0.824766249 C40.7102358,1.17820112 41.0919098,1.57681859 41.483096,1.96800471 L58.3721703,18.8567818 Z" id="Fill-62"></path>
                <path d="M119.579184,35.3526189 C119.970073,34.96173 120.351747,34.5634098 120.780089,34.2096777 C121.186436,33.8746725 121.687903,33.5453152 122.262197,33.5453152 C122.836492,33.5453152 123.337662,33.8743753 123.743711,34.2093804 C124.172351,34.5631125 124.554025,34.96173 124.944914,35.3526189 L125.141696,35.5494009 C125.532585,35.9402898 125.931202,36.3219638 126.284637,36.7503067 C126.619642,37.1563555 126.948999,37.65812 126.948999,38.2324146 C126.948999,38.8064118 126.619642,39.3078791 126.284934,39.713928 C125.931202,40.1422708 125.532585,40.5239448 125.141696,40.9151309 L108.252622,57.8042052 C107.861733,58.1953913 107.480059,58.5937116 107.051716,58.9471464 C106.64537,59.2821516 106.143902,59.6115089 105.569608,59.6115089 C104.995313,59.6115089 104.494143,59.2821516 104.088095,58.9471464 C103.659454,58.5940088 103.27778,58.1953913 102.886892,57.8042052 L102.690109,57.6074231 C102.299221,57.2165343 101.900603,56.8351575 101.547168,56.4065174 C101.212163,56.0004686 100.882806,55.498704 100.882806,54.9244095 C100.882806,54.350115 101.211866,53.8492422 101.546871,53.4428961 C101.900603,53.014256 102.299221,52.6328793 102.690109,52.2416932 L119.579184,35.3526189 Z" id="Fill-64" fill-opacity="0.2"></path>
                <path d="M125.141666,18.8567818 C125.532555,19.2476706 125.931172,19.6296419 126.284607,20.0579847 C126.619612,20.4640335 126.949267,20.9657981 126.949267,21.5397954 C126.94897,22.1140899 126.619612,22.6155572 126.284905,23.021606 C125.931172,23.4499489 125.532555,23.8316229 125.141666,24.222809 L124.944884,24.4195911 C124.553995,24.8104799 124.172321,25.2088001 123.743978,25.5625323 C123.337929,25.8975374 122.836462,26.2268947 122.26187,26.2268947 C121.687576,26.2268947 121.186406,25.8975374 120.780357,25.5625323 C120.352014,25.2090974 119.97034,24.8104799 119.579154,24.4195911 L102.69008,7.53021951 C102.299191,7.13933064 101.900573,6.7579539 101.547139,6.32931379 C101.212133,5.92326498 100.882776,5.42179766 100.882776,4.84720589 C100.882776,4.27291138 101.212133,3.77174132 101.547139,3.36598976 C101.900573,2.93705239 102.299191,2.55567565 102.69008,2.16448953 L102.886862,1.96800471 C103.277751,1.57681859 103.659127,1.17849838 104.087768,0.825063502 C104.494114,0.490058368 104.995581,0.160403803 105.569875,0.160701057 C106.14417,0.160701057 106.64534,0.489761114 107.051389,0.824766249 C107.479732,1.17820112 107.861703,1.57681859 108.252592,1.96800471 L125.141666,18.8567818 Z" id="Fill-66" fill-opacity="0.2"></path>
            </g>
            <g id="logo-mul-copy-2" transform="translate(146.899848, 358.405560)" fill="#FFFFFF">
                <path d="M86.1944507,1.96788581 C86.5853396,1.57699694 86.9670136,1.17867673 87.3953564,0.824944601 C87.8017025,0.489939466 88.3031698,0.160284902 88.8774643,0.160582156 C89.4517588,0.160582156 89.9529289,0.489642212 90.3589777,0.824647347 C90.7876178,1.17837948 91.1692918,1.57699694 91.5601807,1.96788581 L91.7569628,2.16437063 C92.1478516,2.55555675 92.5464691,2.93723075 92.899904,3.3655736 C93.2349091,3.77162242 93.5642664,4.27338698 93.5642664,4.8476815 C93.5642664,5.42167876 93.2349091,5.92314608 92.9002012,6.32919489 C92.5464691,6.75753775 92.1478516,7.13921174 91.7569628,7.53039786 L74.8678885,24.4194722 C74.4769996,24.8106583 74.0953256,25.2089785 73.6669828,25.5624134 C73.2606367,25.8974185 72.7591694,26.2267758 72.1848749,26.2267758 C71.6105803,26.2267758 71.1094103,25.8974185 70.7033615,25.5624134 C70.2747214,25.2092757 69.8930474,24.8106583 69.5021585,24.4194722 L69.3053764,24.2226901 C68.9144876,23.8318012 68.5158701,23.4504245 68.1624352,23.0217844 C67.8274301,22.6157355 67.4980728,22.113971 67.4980728,21.5396765 C67.4980728,20.9653819 67.8271328,20.4642119 68.162138,20.0581631 C68.5158701,19.629523 68.9141903,19.2481462 69.3053764,18.8569601 L86.1944507,1.96788581 Z" id="Fill-52"></path>
                <path d="M52.8096879,35.3526189 C53.2005768,34.96173 53.5822508,34.5634098 54.0105936,34.2096777 C54.4169397,33.8746725 54.918407,33.5453152 55.4927015,33.5453152 C56.0669961,33.5453152 56.5681661,33.8743753 56.9742149,34.2093804 C57.402855,34.5631125 57.784529,34.96173 58.1754179,35.3526189 L58.3722,35.5494009 C58.7630888,35.9402898 59.1617063,36.3219638 59.5151412,36.7503067 C59.8501463,37.1563555 60.1795036,37.65812 60.1795036,38.2324146 C60.1795036,38.8064118 59.8501463,39.3078791 59.5151412,39.713928 C59.1617063,40.1422708 58.7630888,40.5239448 58.3722,40.9151309 L41.4831257,57.8042052 C41.0922368,58.1953913 40.7105628,58.5937116 40.2819227,58.9471464 C39.8758739,59.2821516 39.3744066,59.6115089 38.8001121,59.6115089 C38.2258176,59.6115089 37.7246475,59.2821516 37.3185987,58.9471464 C36.8899586,58.5940088 36.5082846,58.1953913 36.1173957,57.8042052 L35.9206136,57.6074231 C35.5297248,57.2165343 35.1311073,56.8351575 34.7776724,56.4065174 C34.4426673,56.0004686 34.11331,55.498704 34.11331,54.9244095 C34.11331,54.350115 34.44237,53.8492422 34.7773752,53.4428961 C35.1311073,53.014256 35.5294275,52.6328793 35.9206136,52.2416932 L52.8096879,35.3526189 Z" id="Fill-54"></path>
                <path d="M91.7569033,52.2418121 C92.1477922,52.6327009 92.5464096,53.0143749 92.8998445,53.4427178 C93.2348497,53.8487666 93.5645042,54.3505312 93.5645042,54.9245284 C93.564207,55.4988229 93.2348497,56.0002903 92.9001418,56.4063391 C92.5464096,56.8346819 92.1477922,57.2163559 91.7569033,57.607542 L91.5601212,57.8043241 C91.1692324,58.195213 90.7875584,58.5935332 90.3592155,58.9472653 C89.9531667,59.2822705 89.4516994,59.6116278 88.8771076,59.6116278 C88.3028131,59.6116278 87.801643,59.2822705 87.3955942,58.9472653 C86.9672514,58.5938305 86.5855774,58.195213 86.1943913,57.8043241 L69.305317,40.9152498 C68.9144281,40.5240637 68.5158106,40.142687 68.1623758,39.7140469 C67.8273706,39.307998 67.4980133,38.8065307 67.4980133,38.231939 C67.4980133,37.6576444 67.8273706,37.1567716 68.1623758,36.7507228 C68.5158106,36.3217855 68.9141308,35.9404087 69.305317,35.5495198 L69.502099,35.3527378 C69.8929879,34.9615517 70.2743647,34.5632314 70.7030048,34.2097966 C71.1093508,33.8747914 71.6108181,33.5454341 72.1851127,33.5454341 C72.7594072,33.5454341 73.2605772,33.8744942 73.666626,34.2094993 C74.0949689,34.5629342 74.4769402,34.9615517 74.867829,35.3527378 L91.7569033,52.2418121 Z" id="Fill-56"></path>
                <path d="M19.4249549,1.96788581 C19.8158437,1.57699694 20.1975177,1.17867673 20.6258606,0.824944601 C21.0322066,0.489939466 21.533674,0.160284902 22.1079685,0.160582156 C22.682263,0.160582156 23.1834331,0.489642212 23.5894819,0.824647347 C24.018122,1.17837948 24.3994987,1.57699694 24.7906848,1.96788581 L24.9874669,2.16437063 C25.3783558,2.55555675 25.7769732,2.93723075 26.1304081,3.3655736 C26.4654133,3.77162242 26.7947706,4.27338698 26.7947706,4.8476815 C26.7947706,5.42167876 26.4654133,5.92314608 26.1304081,6.32919489 C25.7769732,6.75753775 25.3783558,7.13921174 24.9874669,7.53039786 L8.09839262,24.4194722 C7.70750376,24.8106583 7.32582976,25.2089785 6.89718965,25.5624134 C6.49114084,25.8974185 5.98967352,26.2267758 5.41537901,26.2267758 C4.84108449,26.2267758 4.33991443,25.8974185 3.93386562,25.5624134 C3.50522551,25.2092757 3.12355151,24.8106583 2.73266264,24.4194722 L2.53588057,24.2226901 C2.1449917,23.8318012 1.74637424,23.4504245 1.39293936,23.0217844 C1.05793423,22.6157355 0.728576915,22.113971 0.728576915,21.5396765 C0.728576915,20.9653819 1.05763697,20.4645091 1.39264211,20.0581631 C1.74637424,19.629523 2.14469445,19.2481462 2.53588057,18.8569601 L19.4249549,1.96788581 Z" id="Fill-58" fill-opacity="0.2"></path>
                <path d="M24.9874372,52.2418121 C25.3783261,52.6327009 25.7769435,53.0143749 26.1303784,53.4427178 C26.4653835,53.8487666 26.7950381,54.3505312 26.7947408,54.9245284 C26.7947408,55.4988229 26.4653835,56.0002903 26.1303784,56.4063391 C25.7769435,56.8346819 25.3783261,57.2163559 24.9874372,57.607542 L24.7906551,57.8043241 C24.3997662,58.195213 24.0180923,58.5935332 23.5897494,58.9472653 C23.1837006,59.2822705 22.6822333,59.6116278 22.1076415,59.6116278 C21.533347,59.6116278 21.0321769,59.2822705 20.6261281,58.9472653 C20.197488,58.5938305 19.8161113,58.195213 19.4249251,57.8043241 L2.53585084,40.9152498 C2.14496198,40.5240637 1.74634451,40.142687 1.39290964,39.7140469 C1.0579045,39.307998 0.72854719,38.8065307 0.72854719,38.231939 C0.72854719,37.6576444 1.0579045,37.1567716 1.39290964,36.7507228 C1.74634451,36.3217855 2.14466472,35.9404087 2.53585084,35.5495198 L2.73263292,35.3527378 C3.12352179,34.9615517 3.50489853,34.5632314 3.93353864,34.2097966 C4.33988471,33.8747914 4.84135202,33.5454341 5.41564653,33.5454341 C5.9896438,33.5454341 6.49111111,33.8744942 6.89715992,34.2094993 C7.32550278,34.5629342 7.70717678,34.9615517 8.0983629,35.3527378 L24.9874372,52.2418121 Z" id="Fill-60" fill-opacity="0.2"></path>
                <path d="M58.3721703,18.8567818 C58.7630591,19.2476706 59.1616766,19.6296419 59.5151115,20.0579847 C59.8501166,20.4640335 60.1797712,20.9657981 60.1797712,21.5397954 C60.1794739,22.1140899 59.8501166,22.6155572 59.5151115,23.021606 C59.1616766,23.4499489 58.7630591,23.8316229 58.3721703,24.222809 L58.1753882,24.4195911 C57.7844993,24.8104799 57.4028253,25.2088001 56.9744825,25.5625323 C56.5684336,25.8975374 56.0669663,26.2268947 55.4923746,26.2268947 C54.91808,26.2268947 54.41691,25.8975374 54.0108612,25.5625323 C53.5822211,25.2090974 53.2008443,24.8104799 52.8096582,24.4195911 L35.9205839,7.53021951 C35.529695,7.13933064 35.1310776,6.7579539 34.7776427,6.32931379 C34.4426376,5.92326498 34.1132803,5.42179766 34.1132803,4.84720589 C34.1132803,4.27291138 34.4426376,3.77174132 34.7776427,3.36598976 C35.1310776,2.93705239 35.5293978,2.55567565 35.9205839,2.16448953 L36.117366,1.96800471 C36.5082548,1.57681859 36.8896316,1.17849838 37.3182717,0.825063502 C37.7246178,0.490058368 38.2260851,0.160403803 38.8003796,0.160701057 C39.3743769,0.160701057 39.8758442,0.489761114 40.281893,0.824766249 C40.7102358,1.17820112 41.0919098,1.57681859 41.483096,1.96800471 L58.3721703,18.8567818 Z" id="Fill-62"></path>
                <path d="M119.579184,35.3526189 C119.970073,34.96173 120.351747,34.5634098 120.780089,34.2096777 C121.186436,33.8746725 121.687903,33.5453152 122.262197,33.5453152 C122.836492,33.5453152 123.337662,33.8743753 123.743711,34.2093804 C124.172351,34.5631125 124.554025,34.96173 124.944914,35.3526189 L125.141696,35.5494009 C125.532585,35.9402898 125.931202,36.3219638 126.284637,36.7503067 C126.619642,37.1563555 126.948999,37.65812 126.948999,38.2324146 C126.948999,38.8064118 126.619642,39.3078791 126.284934,39.713928 C125.931202,40.1422708 125.532585,40.5239448 125.141696,40.9151309 L108.252622,57.8042052 C107.861733,58.1953913 107.480059,58.5937116 107.051716,58.9471464 C106.64537,59.2821516 106.143902,59.6115089 105.569608,59.6115089 C104.995313,59.6115089 104.494143,59.2821516 104.088095,58.9471464 C103.659454,58.5940088 103.27778,58.1953913 102.886892,57.8042052 L102.690109,57.6074231 C102.299221,57.2165343 101.900603,56.8351575 101.547168,56.4065174 C101.212163,56.0004686 100.882806,55.498704 100.882806,54.9244095 C100.882806,54.350115 101.211866,53.8492422 101.546871,53.4428961 C101.900603,53.014256 102.299221,52.6328793 102.690109,52.2416932 L119.579184,35.3526189 Z" id="Fill-64" fill-opacity="0.2"></path>
                <path d="M125.141666,18.8567818 C125.532555,19.2476706 125.931172,19.6296419 126.284607,20.0579847 C126.619612,20.4640335 126.949267,20.9657981 126.949267,21.5397954 C126.94897,22.1140899 126.619612,22.6155572 126.284905,23.021606 C125.931172,23.4499489 125.532555,23.8316229 125.141666,24.222809 L124.944884,24.4195911 C124.553995,24.8104799 124.172321,25.2088001 123.743978,25.5625323 C123.337929,25.8975374 122.836462,26.2268947 122.26187,26.2268947 C121.687576,26.2268947 121.186406,25.8975374 120.780357,25.5625323 C120.352014,25.2090974 119.97034,24.8104799 119.579154,24.4195911 L102.69008,7.53021951 C102.299191,7.13933064 101.900573,6.7579539 101.547139,6.32931379 C101.212133,5.92326498 100.882776,5.42179766 100.882776,4.84720589 C100.882776,4.27291138 101.212133,3.77174132 101.547139,3.36598976 C101.900573,2.93705239 102.299191,2.55567565 102.69008,2.16448953 L102.886862,1.96800471 C103.277751,1.57681859 103.659127,1.17849838 104.087768,0.825063502 C104.494114,0.490058368 104.995581,0.160403803 105.569875,0.160701057 C106.14417,0.160701057 106.64534,0.489761114 107.051389,0.824766249 C107.479732,1.17820112 107.861703,1.57681859 108.252592,1.96800471 L125.141666,18.8567818 Z" id="Fill-66" fill-opacity="0.2"></path>
            </g>
            <g id="logo-mul-copy-3" transform="translate(606.283960, 358.405560)" fill="#FFFFFF">
                <path d="M86.1944507,1.96788581 C86.5853396,1.57699694 86.9670136,1.17867673 87.3953564,0.824944601 C87.8017025,0.489939466 88.3031698,0.160284902 88.8774643,0.160582156 C89.4517588,0.160582156 89.9529289,0.489642212 90.3589777,0.824647347 C90.7876178,1.17837948 91.1692918,1.57699694 91.5601807,1.96788581 L91.7569628,2.16437063 C92.1478516,2.55555675 92.5464691,2.93723075 92.899904,3.3655736 C93.2349091,3.77162242 93.5642664,4.27338698 93.5642664,4.8476815 C93.5642664,5.42167876 93.2349091,5.92314608 92.9002012,6.32919489 C92.5464691,6.75753775 92.1478516,7.13921174 91.7569628,7.53039786 L74.8678885,24.4194722 C74.4769996,24.8106583 74.0953256,25.2089785 73.6669828,25.5624134 C73.2606367,25.8974185 72.7591694,26.2267758 72.1848749,26.2267758 C71.6105803,26.2267758 71.1094103,25.8974185 70.7033615,25.5624134 C70.2747214,25.2092757 69.8930474,24.8106583 69.5021585,24.4194722 L69.3053764,24.2226901 C68.9144876,23.8318012 68.5158701,23.4504245 68.1624352,23.0217844 C67.8274301,22.6157355 67.4980728,22.113971 67.4980728,21.5396765 C67.4980728,20.9653819 67.8271328,20.4642119 68.162138,20.0581631 C68.5158701,19.629523 68.9141903,19.2481462 69.3053764,18.8569601 L86.1944507,1.96788581 Z" id="Fill-52"></path>
                <path d="M52.8096879,35.3526189 C53.2005768,34.96173 53.5822508,34.5634098 54.0105936,34.2096777 C54.4169397,33.8746725 54.918407,33.5453152 55.4927015,33.5453152 C56.0669961,33.5453152 56.5681661,33.8743753 56.9742149,34.2093804 C57.402855,34.5631125 57.784529,34.96173 58.1754179,35.3526189 L58.3722,35.5494009 C58.7630888,35.9402898 59.1617063,36.3219638 59.5151412,36.7503067 C59.8501463,37.1563555 60.1795036,37.65812 60.1795036,38.2324146 C60.1795036,38.8064118 59.8501463,39.3078791 59.5151412,39.713928 C59.1617063,40.1422708 58.7630888,40.5239448 58.3722,40.9151309 L41.4831257,57.8042052 C41.0922368,58.1953913 40.7105628,58.5937116 40.2819227,58.9471464 C39.8758739,59.2821516 39.3744066,59.6115089 38.8001121,59.6115089 C38.2258176,59.6115089 37.7246475,59.2821516 37.3185987,58.9471464 C36.8899586,58.5940088 36.5082846,58.1953913 36.1173957,57.8042052 L35.9206136,57.6074231 C35.5297248,57.2165343 35.1311073,56.8351575 34.7776724,56.4065174 C34.4426673,56.0004686 34.11331,55.498704 34.11331,54.9244095 C34.11331,54.350115 34.44237,53.8492422 34.7773752,53.4428961 C35.1311073,53.014256 35.5294275,52.6328793 35.9206136,52.2416932 L52.8096879,35.3526189 Z" id="Fill-54"></path>
                <path d="M91.7569033,52.2418121 C92.1477922,52.6327009 92.5464096,53.0143749 92.8998445,53.4427178 C93.2348497,53.8487666 93.5645042,54.3505312 93.5645042,54.9245284 C93.564207,55.4988229 93.2348497,56.0002903 92.9001418,56.4063391 C92.5464096,56.8346819 92.1477922,57.2163559 91.7569033,57.607542 L91.5601212,57.8043241 C91.1692324,58.195213 90.7875584,58.5935332 90.3592155,58.9472653 C89.9531667,59.2822705 89.4516994,59.6116278 88.8771076,59.6116278 C88.3028131,59.6116278 87.801643,59.2822705 87.3955942,58.9472653 C86.9672514,58.5938305 86.5855774,58.195213 86.1943913,57.8043241 L69.305317,40.9152498 C68.9144281,40.5240637 68.5158106,40.142687 68.1623758,39.7140469 C67.8273706,39.307998 67.4980133,38.8065307 67.4980133,38.231939 C67.4980133,37.6576444 67.8273706,37.1567716 68.1623758,36.7507228 C68.5158106,36.3217855 68.9141308,35.9404087 69.305317,35.5495198 L69.502099,35.3527378 C69.8929879,34.9615517 70.2743647,34.5632314 70.7030048,34.2097966 C71.1093508,33.8747914 71.6108181,33.5454341 72.1851127,33.5454341 C72.7594072,33.5454341 73.2605772,33.8744942 73.666626,34.2094993 C74.0949689,34.5629342 74.4769402,34.9615517 74.867829,35.3527378 L91.7569033,52.2418121 Z" id="Fill-56"></path>
                <path d="M19.4249549,1.96788581 C19.8158437,1.57699694 20.1975177,1.17867673 20.6258606,0.824944601 C21.0322066,0.489939466 21.533674,0.160284902 22.1079685,0.160582156 C22.682263,0.160582156 23.1834331,0.489642212 23.5894819,0.824647347 C24.018122,1.17837948 24.3994987,1.57699694 24.7906848,1.96788581 L24.9874669,2.16437063 C25.3783558,2.55555675 25.7769732,2.93723075 26.1304081,3.3655736 C26.4654133,3.77162242 26.7947706,4.27338698 26.7947706,4.8476815 C26.7947706,5.42167876 26.4654133,5.92314608 26.1304081,6.32919489 C25.7769732,6.75753775 25.3783558,7.13921174 24.9874669,7.53039786 L8.09839262,24.4194722 C7.70750376,24.8106583 7.32582976,25.2089785 6.89718965,25.5624134 C6.49114084,25.8974185 5.98967352,26.2267758 5.41537901,26.2267758 C4.84108449,26.2267758 4.33991443,25.8974185 3.93386562,25.5624134 C3.50522551,25.2092757 3.12355151,24.8106583 2.73266264,24.4194722 L2.53588057,24.2226901 C2.1449917,23.8318012 1.74637424,23.4504245 1.39293936,23.0217844 C1.05793423,22.6157355 0.728576915,22.113971 0.728576915,21.5396765 C0.728576915,20.9653819 1.05763697,20.4645091 1.39264211,20.0581631 C1.74637424,19.629523 2.14469445,19.2481462 2.53588057,18.8569601 L19.4249549,1.96788581 Z" id="Fill-58" fill-opacity="0.2"></path>
                <path d="M24.9874372,52.2418121 C25.3783261,52.6327009 25.7769435,53.0143749 26.1303784,53.4427178 C26.4653835,53.8487666 26.7950381,54.3505312 26.7947408,54.9245284 C26.7947408,55.4988229 26.4653835,56.0002903 26.1303784,56.4063391 C25.7769435,56.8346819 25.3783261,57.2163559 24.9874372,57.607542 L24.7906551,57.8043241 C24.3997662,58.195213 24.0180923,58.5935332 23.5897494,58.9472653 C23.1837006,59.2822705 22.6822333,59.6116278 22.1076415,59.6116278 C21.533347,59.6116278 21.0321769,59.2822705 20.6261281,58.9472653 C20.197488,58.5938305 19.8161113,58.195213 19.4249251,57.8043241 L2.53585084,40.9152498 C2.14496198,40.5240637 1.74634451,40.142687 1.39290964,39.7140469 C1.0579045,39.307998 0.72854719,38.8065307 0.72854719,38.231939 C0.72854719,37.6576444 1.0579045,37.1567716 1.39290964,36.7507228 C1.74634451,36.3217855 2.14466472,35.9404087 2.53585084,35.5495198 L2.73263292,35.3527378 C3.12352179,34.9615517 3.50489853,34.5632314 3.93353864,34.2097966 C4.33988471,33.8747914 4.84135202,33.5454341 5.41564653,33.5454341 C5.9896438,33.5454341 6.49111111,33.8744942 6.89715992,34.2094993 C7.32550278,34.5629342 7.70717678,34.9615517 8.0983629,35.3527378 L24.9874372,52.2418121 Z" id="Fill-60" fill-opacity="0.2"></path>
                <path d="M58.3721703,18.8567818 C58.7630591,19.2476706 59.1616766,19.6296419 59.5151115,20.0579847 C59.8501166,20.4640335 60.1797712,20.9657981 60.1797712,21.5397954 C60.1794739,22.1140899 59.8501166,22.6155572 59.5151115,23.021606 C59.1616766,23.4499489 58.7630591,23.8316229 58.3721703,24.222809 L58.1753882,24.4195911 C57.7844993,24.8104799 57.4028253,25.2088001 56.9744825,25.5625323 C56.5684336,25.8975374 56.0669663,26.2268947 55.4923746,26.2268947 C54.91808,26.2268947 54.41691,25.8975374 54.0108612,25.5625323 C53.5822211,25.2090974 53.2008443,24.8104799 52.8096582,24.4195911 L35.9205839,7.53021951 C35.529695,7.13933064 35.1310776,6.7579539 34.7776427,6.32931379 C34.4426376,5.92326498 34.1132803,5.42179766 34.1132803,4.84720589 C34.1132803,4.27291138 34.4426376,3.77174132 34.7776427,3.36598976 C35.1310776,2.93705239 35.5293978,2.55567565 35.9205839,2.16448953 L36.117366,1.96800471 C36.5082548,1.57681859 36.8896316,1.17849838 37.3182717,0.825063502 C37.7246178,0.490058368 38.2260851,0.160403803 38.8003796,0.160701057 C39.3743769,0.160701057 39.8758442,0.489761114 40.281893,0.824766249 C40.7102358,1.17820112 41.0919098,1.57681859 41.483096,1.96800471 L58.3721703,18.8567818 Z" id="Fill-62"></path>
                <path d="M119.579184,35.3526189 C119.970073,34.96173 120.351747,34.5634098 120.780089,34.2096777 C121.186436,33.8746725 121.687903,33.5453152 122.262197,33.5453152 C122.836492,33.5453152 123.337662,33.8743753 123.743711,34.2093804 C124.172351,34.5631125 124.554025,34.96173 124.944914,35.3526189 L125.141696,35.5494009 C125.532585,35.9402898 125.931202,36.3219638 126.284637,36.7503067 C126.619642,37.1563555 126.948999,37.65812 126.948999,38.2324146 C126.948999,38.8064118 126.619642,39.3078791 126.284934,39.713928 C125.931202,40.1422708 125.532585,40.5239448 125.141696,40.9151309 L108.252622,57.8042052 C107.861733,58.1953913 107.480059,58.5937116 107.051716,58.9471464 C106.64537,59.2821516 106.143902,59.6115089 105.569608,59.6115089 C104.995313,59.6115089 104.494143,59.2821516 104.088095,58.9471464 C103.659454,58.5940088 103.27778,58.1953913 102.886892,57.8042052 L102.690109,57.6074231 C102.299221,57.2165343 101.900603,56.8351575 101.547168,56.4065174 C101.212163,56.0004686 100.882806,55.498704 100.882806,54.9244095 C100.882806,54.350115 101.211866,53.8492422 101.546871,53.4428961 C101.900603,53.014256 102.299221,52.6328793 102.690109,52.2416932 L119.579184,35.3526189 Z" id="Fill-64" fill-opacity="0.2"></path>
                <path d="M125.141666,18.8567818 C125.532555,19.2476706 125.931172,19.6296419 126.284607,20.0579847 C126.619612,20.4640335 126.949267,20.9657981 126.949267,21.5397954 C126.94897,22.1140899 126.619612,22.6155572 126.284905,23.021606 C125.931172,23.4499489 125.532555,23.8316229 125.141666,24.222809 L124.944884,24.4195911 C124.553995,24.8104799 124.172321,25.2088001 123.743978,25.5625323 C123.337929,25.8975374 122.836462,26.2268947 122.26187,26.2268947 C121.687576,26.2268947 121.186406,25.8975374 120.780357,25.5625323 C120.352014,25.2090974 119.97034,24.8104799 119.579154,24.4195911 L102.69008,7.53021951 C102.299191,7.13933064 101.900573,6.7579539 101.547139,6.32931379 C101.212133,5.92326498 100.882776,5.42179766 100.882776,4.84720589 C100.882776,4.27291138 101.212133,3.77174132 101.547139,3.36598976 C101.900573,2.93705239 102.299191,2.55567565 102.69008,2.16448953 L102.886862,1.96800471 C103.277751,1.57681859 103.659127,1.17849838 104.087768,0.825063502 C104.494114,0.490058368 104.995581,0.160403803 105.569875,0.160701057 C106.14417,0.160701057 106.64534,0.489761114 107.051389,0.824766249 C107.479732,1.17820112 107.861703,1.57681859 108.252592,1.96800471 L125.141666,18.8567818 Z" id="Fill-66" fill-opacity="0.2"></path>
            </g>
            <text id="Standard" font-family="KentosT16-Regular, Kentos T16" font-size="15" font-weight="normal" fill="#B3B7CB">
                <tspan x="174.296292" y="256.156638">Standard</tspan>
            </text>
            <text id="Dawn" font-family="KentosT16-Regular, Kentos T16" font-size="15" font-weight="normal" fill="#B3B7CB">
                <tspan x="649.299918" y="256.156638">Dawn</tspan>
            </text>
            <text id="Dusk" font-family="KentosT16-Regular, Kentos T16" font-size="15" font-weight="normal" fill="#B3B7CB">
                <tspan x="652.352418" y="515.543357">Dusk</tspan>
            </text>
            <text id="Star-Night" font-family="KentosT16-Regular, Kentos T16" font-size="15" font-weight="normal" fill="#B3B7CB">
                <tspan x="175.498021" y="515.543357">Star Night</tspan>
            </text>
        </g>
    </g>
</svg>