<?xml version="1.0" encoding="utf-8"?>
<!-- Generator: Adobe Illustrator 21.1.0, SVG Export Plug-In . SVG Version: 6.00 Build 0)  -->
<svg version="1.1" id="图层_1" xmlns="http://www.w3.org/2000/svg" xmlns:xlink="http://www.w3.org/1999/xlink" x="0px" y="0px"
	 viewBox="0 0 880 320" style="enable-background:new 0 0 880 320;" xml:space="preserve">
<style type="text/css">
	.st0{opacity:0.4;}
</style>
<g>
	<path d="M312.3,125.3c0.5-0.5,1-1,1.5-1.4c0.5-0.4,1.1-0.8,1.8-0.8c0.7,0,1.3,0.4,1.8,0.8c0.5,0.4,1,0.9,1.5,1.4l0.2,0.2
		c0.5,0.5,1,1,1.4,1.5c0.4,0.5,0.8,1.1,0.8,1.8c0,0.7-0.4,1.3-0.8,1.8c-0.4,0.5-0.9,1-1.4,1.5l-21,21c-0.5,0.5-1,1-1.5,1.4
		c-0.5,0.4-1.1,0.8-1.8,0.8c-0.7,0-1.3-0.4-1.8-0.8c-0.5-0.4-1-0.9-1.5-1.4l-0.2-0.2c-0.5-0.5-1-1-1.4-1.5c-0.4-0.5-0.8-1.1-0.8-1.8
		c0-0.7,0.4-1.3,0.8-1.8c0.4-0.5,0.9-1,1.4-1.5L312.3,125.3z"/>
	<path d="M270.8,166.8c0.5-0.5,1-1,1.5-1.4c0.5-0.4,1.1-0.8,1.8-0.8c0.7,0,1.3,0.4,1.8,0.8c0.5,0.4,1,0.9,1.5,1.4l0.2,0.2
		c0.5,0.5,1,1,1.4,1.5c0.4,0.5,0.8,1.1,0.8,1.8c0,0.7-0.4,1.3-0.8,1.8c-0.4,0.5-0.9,1-1.4,1.5l-21,21c-0.5,0.5-1,1-1.5,1.4
		c-0.5,0.4-1.1,0.8-1.8,0.8c-0.7,0-1.3-0.4-1.8-0.8c-0.5-0.4-1-0.9-1.5-1.4l-0.2-0.2c-0.5-0.5-1-1-1.4-1.5c-0.4-0.5-0.8-1.1-0.8-1.8
		c0-0.7,0.4-1.3,0.8-1.8c0.4-0.5,0.9-1,1.4-1.5L270.8,166.8z"/>
	<path d="M319.3,187.8c0.5,0.5,1,1,1.4,1.5c0.4,0.5,0.8,1.1,0.8,1.8c0,0.7-0.4,1.3-0.8,1.8c-0.4,0.5-0.9,1-1.4,1.5l-0.2,0.2
		c-0.5,0.5-1,1-1.5,1.4c-0.5,0.4-1.1,0.8-1.8,0.8c-0.7,0-1.3-0.4-1.8-0.8c-0.5-0.4-1-0.9-1.5-1.4l-21-21c-0.5-0.5-1-1-1.4-1.5
		c-0.4-0.5-0.8-1.1-0.8-1.8c0-0.7,0.4-1.3,0.8-1.8c0.4-0.5,0.9-1,1.4-1.5l0.2-0.2c0.5-0.5,1-1,1.5-1.4c0.5-0.4,1.1-0.8,1.8-0.8
		c0.7,0,1.3,0.4,1.8,0.8c0.5,0.4,1,0.9,1.5,1.4L319.3,187.8z"/>
	<path class="st0" d="M229.2,125.3c0.5-0.5,1-1,1.5-1.4c0.5-0.4,1.1-0.8,1.8-0.8c0.7,0,1.3,0.4,1.8,0.8c0.5,0.4,1,0.9,1.5,1.4
		l0.2,0.2c0.5,0.5,1,1,1.4,1.5c0.4,0.5,0.8,1.1,0.8,1.8c0,0.7-0.4,1.3-0.8,1.8c-0.4,0.5-0.9,1-1.4,1.5l-21,21c-0.5,0.5-1,1-1.5,1.4
		c-0.5,0.4-1.1,0.8-1.8,0.8c-0.7,0-1.3-0.4-1.8-0.8c-0.5-0.4-1-0.9-1.5-1.4l-0.2-0.2c-0.5-0.5-1-1-1.4-1.5c-0.4-0.5-0.8-1.1-0.8-1.8
		c0-0.7,0.4-1.3,0.8-1.8c0.4-0.5,0.9-1,1.4-1.5L229.2,125.3z"/>
	<path class="st0" d="M236.2,187.8c0.5,0.5,1,1,1.4,1.5c0.4,0.5,0.8,1.1,0.8,1.8c0,0.7-0.4,1.3-0.8,1.8c-0.4,0.5-0.9,1-1.4,1.5
		l-0.2,0.2c-0.5,0.5-1,1-1.5,1.4c-0.5,0.4-1.1,0.8-1.8,0.8c-0.7,0-1.3-0.4-1.8-0.8c-0.5-0.4-1-0.9-1.5-1.4l-21-21
		c-0.5-0.5-1-1-1.4-1.5c-0.4-0.5-0.8-1.1-0.8-1.8c0-0.7,0.4-1.3,0.8-1.8c0.4-0.5,0.9-1,1.4-1.5l0.2-0.2c0.5-0.5,1-1,1.5-1.4
		c0.5-0.4,1.1-0.8,1.8-0.8c0.7,0,1.3,0.4,1.8,0.8c0.5,0.4,1,0.9,1.5,1.4L236.2,187.8z"/>
	<path d="M277.7,146.3c0.5,0.5,1,1,1.4,1.5c0.4,0.5,0.8,1.1,0.8,1.8c0,0.7-0.4,1.3-0.8,1.8c-0.4,0.5-0.9,1-1.4,1.5l-0.2,0.2
		c-0.5,0.5-1,1-1.5,1.4c-0.5,0.4-1.1,0.8-1.8,0.8c-0.7,0-1.3-0.4-1.8-0.8c-0.5-0.4-1-0.9-1.5-1.4l-21-21c-0.5-0.5-1-1-1.4-1.5
		c-0.4-0.5-0.8-1.1-0.8-1.8c0-0.7,0.4-1.3,0.8-1.8c0.4-0.5,0.9-1,1.4-1.5l0.2-0.2c0.5-0.5,1-1,1.5-1.4c0.5-0.4,1.1-0.8,1.8-0.8
		c0.7,0,1.3,0.4,1.8,0.8c0.5,0.4,1,0.9,1.5,1.4L277.7,146.3z"/>
	<path class="st0" d="M353.9,166.8c0.5-0.5,1-1,1.5-1.4c0.5-0.4,1.1-0.8,1.8-0.8c0.7,0,1.3,0.4,1.8,0.8c0.5,0.4,1,0.9,1.5,1.4
		l0.2,0.2c0.5,0.5,1,1,1.4,1.5c0.4,0.5,0.8,1.1,0.8,1.8c0,0.7-0.4,1.3-0.8,1.8c-0.4,0.5-0.9,1-1.4,1.5l-21,21c-0.5,0.5-1,1-1.5,1.4
		c-0.5,0.4-1.1,0.8-1.8,0.8c-0.7,0-1.3-0.4-1.8-0.8c-0.5-0.4-1-0.9-1.5-1.4l-0.2-0.2c-0.5-0.5-1-1-1.4-1.5c-0.4-0.5-0.8-1.1-0.8-1.8
		c0-0.7,0.4-1.3,0.8-1.8c0.4-0.5,0.9-1,1.4-1.5L353.9,166.8z"/>
	<path class="st0" d="M360.8,146.3c0.5,0.5,1,1,1.4,1.5c0.4,0.5,0.8,1.1,0.8,1.8c0,0.7-0.4,1.3-0.8,1.8c-0.4,0.5-0.9,1-1.4,1.5
		l-0.2,0.2c-0.5,0.5-1,1-1.5,1.4c-0.5,0.4-1.1,0.8-1.8,0.8c-0.7,0-1.3-0.4-1.8-0.8c-0.5-0.4-1-0.9-1.5-1.4l-21-21
		c-0.5-0.5-1-1-1.4-1.5c-0.4-0.5-0.8-1.1-0.8-1.8c0-0.7,0.4-1.3,0.8-1.8c0.4-0.5,0.9-1,1.4-1.5l0.2-0.2c0.5-0.5,1-1,1.5-1.4
		c0.5-0.4,1.1-0.8,1.8-0.8c0.7,0,1.3,0.4,1.8,0.8c0.5,0.4,1,0.9,1.5,1.4L360.8,146.3z"/>
	<g>
		<g>
			<path d="M438.4,156.2v22H430v-20.5c0-5.4-3-8.7-7.9-8.7c-3.2,0-6.6,2.2-8.2,4.9l0.2,1.3v23H406v-20.5c0-5.4-3.2-8.7-7.7-8.7
				c-3.7,0-6.7,2.1-8.2,5v24.2h-8.2v-36h8.2v4.7c1.8-2.4,5.4-5.4,11-5.4c4.9,0,8.5,1.8,10.8,5.8c2.4-2.9,6.6-5.8,11.8-5.8
				C432.3,141.5,438.4,147.3,438.4,156.2z"/>
			<path d="M479.3,161.6c0,10.3-6.8,17.4-16.8,17.4c-9.9,0-16.9-7.1-16.9-17.4v-19.4h8.2v19.4c0,5.8,3.3,9.5,8.6,9.5
				c5.2,0,8.6-3.7,8.6-9.5v-19.4h8.2V161.6z"/>
			<path d="M494.8,178.3h-8.2v-51.5h8.2V178.3z"/>
			<path d="M500.2,160.3c0-10.7,8.1-18.8,18.6-18.8c8.7,0,16.1,5.8,17.2,13.6h-8.4c-0.9-3.3-4.6-5.7-8.8-5.7
				c-6,0-10.5,4.7-10.5,10.9c0,6.1,4.6,10.8,10.5,10.8c4.3,0,8-2.4,8.9-6h8.4c-1,8.2-8.5,13.9-17.3,13.9
				C508.3,179,500.2,171,500.2,160.3z"/>
			<path d="M549.7,178.3h-8.2v-51.5h8.2V178.3z"/>
			<path d="M592.4,160.3c0,10.7-8.2,18.7-18.7,18.7c-10.5,0-18.6-8-18.6-18.7c0-10.7,8.1-18.8,18.6-18.8
				C584.2,141.5,592.4,149.6,592.4,160.3z M563.2,160.3c0,6.1,4.6,10.8,10.5,10.8c6,0,10.6-4.7,10.6-10.8c0-6.2-4.6-10.9-10.6-10.9
				C567.7,149.4,563.2,154.1,563.2,160.3z"/>
			<path d="M631.6,161.6c0,10.3-6.8,17.4-16.8,17.4c-9.9,0-16.9-7.1-16.9-17.4v-19.4h8.2v19.4c0,5.8,3.3,9.5,8.6,9.5
				c5.2,0,8.6-3.7,8.6-9.5v-19.4h8.2V161.6z"/>
			<path d="M674,126.7v51.5h-8.2v-4.9c-1.9,3.2-6.7,5.6-11.5,5.6c-9.7,0-17.3-8.2-17.3-18.8c0-10.5,7.6-18.7,17.3-18.7
				c4.8,0,9.6,2.4,11.5,5.6v-20.4H674z M665.9,165.8v-11c-1.8-3.2-5.7-5.4-9.8-5.4c-6.2,0-10.9,4.6-10.9,10.9c0,6.3,4.7,11,10.9,11
				C660.1,171.2,664.1,168.9,665.9,165.8z"/>
		</g>
	</g>
</g>
</svg>
