<?xml version="1.0" encoding="utf-8"?>
<!-- Generator: Adobe Illustrator 21.1.0, SVG Export Plug-In . SVG Version: 6.00 Build 0)  -->
<svg version="1.1" id="图层_1" xmlns="http://www.w3.org/2000/svg" xmlns:xlink="http://www.w3.org/1999/xlink" x="0px" y="0px"
	 viewBox="0 0 880 320" style="enable-background:new 0 0 880 320;" xml:space="preserve">
<style type="text/css">
	.st0{fill:#2B4EEF;}
	.st1{opacity:0.4;fill:#2B4EEF;}
	.st2{opacity:0.58;fill:#14AE67;}
	.st3{opacity:0.58;fill:#F39800;}
	.st4{fill:#283266;}
	.st5{fill:none;stroke:#727272;stroke-width:0.75;stroke-miterlimit:10;}
	.st6{opacity:0.69;enable-background:new    ;}
	.st7{font-family:'KentosR1-Regular';}
	.st8{font-size:14px;}
</style>
<g>
	<g>
		<path class="st0" d="M362.7,129.6c0.4-0.4,0.8-0.9,1.3-1.2c0.4-0.4,1-0.7,1.6-0.7c0.6,0,1.2,0.4,1.6,0.7c0.5,0.4,0.9,0.8,1.3,1.2
			l0.2,0.2c0.4,0.4,0.9,0.8,1.2,1.3c0.4,0.4,0.7,1,0.7,1.6c0,0.6-0.4,1.2-0.7,1.6c-0.4,0.5-0.8,0.9-1.2,1.3l-18.4,18.4
			c-0.4,0.4-0.8,0.9-1.3,1.2c-0.4,0.4-1,0.7-1.6,0.7c-0.6,0-1.2-0.4-1.6-0.7c-0.5-0.4-0.9-0.8-1.3-1.2l-0.2-0.2
			c-0.4-0.4-0.9-0.8-1.2-1.3c-0.4-0.4-0.7-1-0.7-1.6c0-0.6,0.4-1.2,0.7-1.6c0.4-0.5,0.8-0.9,1.2-1.3L362.7,129.6z"/>
		<path class="st0" d="M326.4,165.9c0.4-0.4,0.8-0.9,1.3-1.2c0.4-0.4,1-0.7,1.6-0.7c0.6,0,1.2,0.4,1.6,0.7c0.5,0.4,0.9,0.8,1.3,1.2
			l0.2,0.2c0.4,0.4,0.9,0.8,1.2,1.3c0.4,0.4,0.7,1,0.7,1.6c0,0.6-0.4,1.2-0.7,1.6c-0.4,0.5-0.8,0.9-1.2,1.3l-18.4,18.4
			c-0.4,0.4-0.8,0.9-1.3,1.2c-0.4,0.4-1,0.7-1.6,0.7c-0.6,0-1.2-0.4-1.6-0.7c-0.5-0.4-0.9-0.8-1.3-1.2l-0.2-0.2
			c-0.4-0.4-0.9-0.8-1.2-1.3c-0.4-0.4-0.7-1-0.7-1.6c0-0.6,0.4-1.2,0.7-1.6c0.4-0.5,0.8-0.9,1.2-1.3L326.4,165.9z"/>
		<path class="st0" d="M368.7,184.3c0.4,0.4,0.9,0.8,1.2,1.3c0.4,0.4,0.7,1,0.7,1.6c0,0.6-0.4,1.2-0.7,1.6c-0.4,0.5-0.8,0.9-1.2,1.3
			l-0.2,0.2c-0.4,0.4-0.8,0.9-1.3,1.2c-0.4,0.4-1,0.7-1.6,0.7c-0.6,0-1.2-0.4-1.6-0.7c-0.5-0.4-0.9-0.8-1.3-1.2L344.3,172
			c-0.4-0.4-0.9-0.8-1.2-1.3c-0.4-0.4-0.7-1-0.7-1.6c0-0.6,0.4-1.2,0.7-1.6c0.4-0.5,0.8-0.9,1.2-1.3l0.2-0.2
			c0.4-0.4,0.8-0.9,1.3-1.2c0.4-0.4,1-0.7,1.6-0.7c0.6,0,1.2,0.4,1.6,0.7c0.5,0.4,0.9,0.8,1.3,1.2L368.7,184.3z"/>
		<path class="st1" d="M290.1,129.6c0.4-0.4,0.8-0.9,1.3-1.2c0.4-0.4,1-0.7,1.6-0.7c0.6,0,1.2,0.4,1.6,0.7c0.5,0.4,0.9,0.8,1.3,1.2
			l0.2,0.2c0.4,0.4,0.9,0.8,1.2,1.3c0.4,0.4,0.7,1,0.7,1.6c0,0.6-0.4,1.2-0.7,1.6c-0.4,0.5-0.8,0.9-1.2,1.3l-18.4,18.4
			c-0.4,0.4-0.8,0.9-1.3,1.2c-0.4,0.4-1,0.7-1.6,0.7c-0.6,0-1.2-0.4-1.6-0.7c-0.5-0.4-0.9-0.8-1.3-1.2l-0.2-0.2
			c-0.4-0.4-0.9-0.8-1.2-1.3c-0.4-0.4-0.7-1-0.7-1.6c0-0.6,0.4-1.2,0.7-1.6c0.4-0.5,0.8-0.9,1.2-1.3L290.1,129.6z"/>
		<path class="st1" d="M296.1,184.3c0.4,0.4,0.9,0.8,1.2,1.3c0.4,0.4,0.7,1,0.7,1.6c0,0.6-0.4,1.2-0.7,1.6c-0.4,0.5-0.8,0.9-1.2,1.3
			l-0.2,0.2c-0.4,0.4-0.8,0.9-1.3,1.2c-0.4,0.4-1,0.7-1.6,0.7c-0.6,0-1.2-0.4-1.6-0.7c-0.5-0.4-0.9-0.8-1.3-1.2L271.7,172
			c-0.4-0.4-0.9-0.8-1.2-1.3c-0.4-0.4-0.7-1-0.7-1.6c0-0.6,0.4-1.2,0.7-1.6c0.4-0.5,0.8-0.9,1.2-1.3l0.2-0.2
			c0.4-0.4,0.8-0.9,1.3-1.2c0.4-0.4,1-0.7,1.6-0.7c0.6,0,1.2,0.4,1.6,0.7c0.5,0.4,0.9,0.8,1.3,1.2L296.1,184.3z"/>
		<path class="st0" d="M332.4,148c0.4,0.4,0.9,0.8,1.2,1.3c0.4,0.4,0.7,1,0.7,1.6c0,0.6-0.4,1.2-0.7,1.6c-0.4,0.5-0.8,0.9-1.2,1.3
			l-0.2,0.2c-0.4,0.4-0.8,0.9-1.3,1.2c-0.4,0.4-1,0.7-1.6,0.7c-0.6,0-1.2-0.4-1.6-0.7c-0.5-0.4-0.9-0.8-1.3-1.2L308,135.7
			c-0.4-0.4-0.9-0.8-1.2-1.3c-0.4-0.4-0.7-1-0.7-1.6c0-0.6,0.4-1.2,0.7-1.6c0.4-0.5,0.8-0.9,1.2-1.3l0.2-0.2
			c0.4-0.4,0.8-0.9,1.3-1.2c0.4-0.4,1-0.7,1.6-0.7c0.6,0,1.2,0.4,1.6,0.7c0.5,0.4,0.9,0.8,1.3,1.2L332.4,148z"/>
		<path class="st1" d="M399,165.9c0.4-0.4,0.8-0.9,1.3-1.2c0.4-0.4,1-0.7,1.6-0.7c0.6,0,1.2,0.4,1.6,0.7c0.5,0.4,0.9,0.8,1.3,1.2
			l0.2,0.2c0.4,0.4,0.9,0.8,1.2,1.3c0.4,0.4,0.7,1,0.7,1.6c0,0.6-0.4,1.2-0.7,1.6c-0.4,0.5-0.8,0.9-1.2,1.3l-18.4,18.4
			c-0.4,0.4-0.8,0.9-1.3,1.2c-0.4,0.4-1,0.7-1.6,0.7c-0.6,0-1.2-0.4-1.6-0.7c-0.5-0.4-0.9-0.8-1.3-1.2l-0.2-0.2
			c-0.4-0.4-0.9-0.8-1.2-1.3c-0.4-0.4-0.7-1-0.7-1.6c0-0.6,0.4-1.2,0.7-1.6c0.4-0.5,0.8-0.9,1.2-1.3L399,165.9z"/>
		<path class="st1" d="M405.1,148c0.4,0.4,0.9,0.8,1.2,1.3c0.4,0.4,0.7,1,0.7,1.6c0,0.6-0.4,1.2-0.7,1.6c-0.4,0.5-0.8,0.9-1.2,1.3
			l-0.2,0.2c-0.4,0.4-0.8,0.9-1.3,1.2c-0.4,0.4-1,0.7-1.6,0.7c-0.6,0-1.2-0.4-1.6-0.7c-0.5-0.4-0.9-0.8-1.3-1.2l-18.4-18.4
			c-0.4-0.4-0.9-0.8-1.2-1.3c-0.4-0.4-0.7-1-0.7-1.6c0-0.6,0.4-1.2,0.7-1.6c0.4-0.5,0.8-0.9,1.2-1.3l0.2-0.2
			c0.4-0.4,0.8-0.9,1.3-1.2c0.4-0.4,1-0.7,1.6-0.7c0.6,0,1.2,0.4,1.6,0.7c0.5,0.4,0.9,0.8,1.3,1.2L405.1,148z"/>
	</g>
	<rect x="407" y="127.7" class="st2" width="12.9" height="64.7"/>
	<rect x="420" y="127.7" class="st3" width="190.7" height="3.2"/>
	<rect x="420" y="189.1" class="st3" width="190.7" height="3.2"/>
	<rect x="256.4" y="127.7" class="st2" width="12.9" height="64.7"/>
	<rect x="610.7" y="114.7" class="st2" width="12.9" height="90.5"/>
	
		<rect x="427.1" y="-56" transform="matrix(-1.836970e-16 1 -1 -1.836970e-16 554.7378 -312.3301)" class="st2" width="12.9" height="354.3"/>
	
		<rect x="427.1" y="21.6" transform="matrix(-1.836970e-16 1 -1 -1.836970e-16 632.3301 -234.7378)" class="st2" width="12.9" height="354.3"/>
	<g>
		<g>
			<path class="st4" d="M560,179.4c-0.5,0-1,0.5-1,1v4.4c0,0.3,0.1,0.6,0.3,0.8c0.2,0.2,0.5,0.3,0.8,0.3l31.4-2.4c0.5,0,1-0.5,1-1
				v-4.4c0-0.3-0.1-0.6-0.3-0.8c-0.2-0.2-0.5-0.3-0.8-0.3L560,179.4z"/>
			<path class="st4" d="M565,179.6l6.9-0.1c0.4,0,0.8-0.3,1-0.7l6.8-16.5c0.1-0.3,0.1-0.6,0-0.8c-0.1-0.3-0.3-0.5-0.6-0.6l-4.5-1.7
				c-0.5-0.2-1.1,0.1-1.3,0.6L565,179.6z"/>
			<path class="st4" d="M597.2,167.2c-0.2-0.5-0.8-0.7-1.3-0.5l-4.1,1.7c-0.3,0.1-0.5,0.3-0.6,0.6c-0.1,0.3-0.1,0.6,0,0.8l8.7,18.2
				c0.2,0.5,0.9,0.7,1.4,0.5l4.1-1.9c0.3-0.1,0.5-0.3,0.5-0.6c0.1-0.3,0.1-0.6,0-0.8L597.2,167.2z"/>
			<path class="st4" d="M556.6,149.7c-0.6,0-1,0.5-1,1v3.9c0,0.6,0.5,1,1,1h51c0.6,0,1-0.5,1-1v-3.9c0-0.6-0.5-1-1-1H556.6z"/>
			<path class="st4" d="M563,133.3c-0.6,0-1,0.5-1,1v3.9c0,0.6,0.5,1,1,1h38.2c0.6,0,1-0.5,1-1v-3.9c0-0.6-0.5-1-1-1H563z"/>
		</g>
		<g>
			<path class="st4" d="M507.9,179.4c-0.5,0-1,0.5-1,1v4.4c0,0.3,0.1,0.6,0.3,0.8c0.2,0.2,0.5,0.3,0.8,0.3l26.4-2c0.5,0,1-0.5,1-1
				v-4.4c0-0.3-0.1-0.6-0.3-0.8s-0.5-0.3-0.8-0.3L507.9,179.4z"/>
			<path class="st4" d="M512.5,179.6l6.9-0.1c0.4,0,0.8-0.3,1-0.7l5.4-13.7c0.1-0.3,0.1-0.6,0-0.8s-0.3-0.5-0.6-0.6l-4.5-1.7
				c-0.5-0.2-1.1,0.1-1.3,0.6L512.5,179.6z"/>
			<path class="st4" d="M492.9,133.2c-0.4-0.4-1.1-0.3-1.5,0.2l-2.9,3.5c-0.2,0.2-0.3,0.5-0.2,0.8s0.2,0.5,0.4,0.7l10.7,8.4
				c0.4,0.4,1.1,0.3,1.5-0.2l2.9-3.5c0.2-0.2,0.3-0.5,0.2-0.8s-0.2-0.5-0.4-0.7L492.9,133.2z"/>
			<path class="st4" d="M491,188.4c0.4,0.4,1.1,0.3,1.4-0.1l10.5-11.1c0.4-0.4,0.4-1.1,0-1.5l-3.2-3.2c-0.2-0.2-0.5-0.3-0.8-0.3
				c-0.3,0-0.6,0.1-0.7,0.3L487.5,184c-0.2,0.2-0.3,0.5-0.3,0.8c0,0.3,0.1,0.6,0.4,0.7L491,188.4z"/>
			<path class="st4" d="M540.7,168.8c-0.2-0.5-0.8-0.7-1.3-0.5l-4.1,1.7c-0.3,0.1-0.5,0.3-0.6,0.6c-0.1,0.3-0.1,0.6,0,0.8l8.1,16.7
				c0.2,0.5,0.9,0.7,1.4,0.5l4.1-1.9c0.3-0.1,0.5-0.3,0.5-0.6c0.1-0.3,0.1-0.6,0-0.8L540.7,168.8z"/>
			<path class="st4" d="M525.3,130.3c-0.6,0-1,0.5-1,1v25.5c0,0.6,0.5,1,1,1h5.1c0.6,0,1-0.5,1-1v-25.5c0-0.6-0.5-1-1-1H525.3z"/>
			<path class="st4" d="M508.3,153.5c-0.6,0-1,0.5-1,1v3.9c0,0.6,0.5,1,1,1h38.9c0.6,0,1-0.5,1-1v-3.9c0-0.6-0.5-1-1-1H508.3z"/>
			<path class="st4" d="M511.1,139.2c-0.6,0-1,0.5-1,1v3.9c0,0.6,0.5,1,1,1h33.4c0.6,0,1-0.5,1-1v-3.9c0-0.6-0.5-1-1-1H511.1z"/>
			<path class="st4" d="M492.9,151.1c-0.4-0.4-1.1-0.3-1.5,0.2l-2.9,3.5c-0.2,0.2-0.3,0.5-0.2,0.8c0,0.3,0.2,0.5,0.4,0.7l9.5,7.6
				c0.4,0.4,1.1,0.3,1.5-0.2l2.9-3.5c0.2-0.2,0.3-0.5,0.2-0.8s-0.2-0.5-0.4-0.7L492.9,151.1z"/>
		</g>
		<g>
			<path class="st4" d="M461.5,169.4c-0.3-0.1-0.7-0.1-1,0.1c-0.3,0.2-0.5,0.5-0.5,0.9v4.5c0,0.4,0.3,0.8,0.6,1l18.1,7.6
				c0.2,0.1,0.5,0.1,0.7-0.1c0.2-0.1,0.3-0.4,0.3-0.6v-4.8c0-0.4-0.3-0.8-0.6-1L461.5,169.4z"/>
			<path class="st4" d="M448.4,177.9c-0.6,0-1,0.5-1,1v9.1c0,0.6,0.5,1,1,1h5.6c0.6,0,1-0.5,1-1v-9.1c0-0.6-0.5-1-1-1H448.4z"/>
			<path class="st4" d="M466,153.5c0-0.6-0.5-1-1-1h-3.8c-0.6,0-1,0.5-1,1v12.1c0,0.6,0.5,1,1,1h3.8c0.6,0,1-0.5,1-1V153.5z"/>
			<path class="st4" d="M477.7,162.5c0-0.6-0.5-1-1-1h-15.5c-0.6,0-1,0.5-1,1v3.2c0,0.6,0.5,1,1,1h15.5c0.6,0,1-0.5,1-1V162.5z"/>
			<path class="st4" d="M474.2,153c0-0.6-0.5-1-1-1h-12c-0.6,0-1,0.5-1,1v3.2c0,0.6,0.5,1,1,1h12c0.6,0,1-0.5,1-1V153z"/>
			<path class="st4" d="M437.4,152.4c-0.6,0-1,0.5-1,1v12.1c0,0.6,0.5,1,1,1h3.8c0.6,0,1-0.5,1-1v-12.1c0-0.6-0.5-1-1-1H437.4z"/>
			<path class="st4" d="M425.7,161.5c-0.6,0-1,0.5-1,1v3.2c0,0.6,0.5,1,1,1h15.5c0.6,0,1-0.5,1-1v-3.2c0-0.6-0.5-1-1-1H425.7z"/>
			<path class="st4" d="M429.2,152c-0.6,0-1,0.5-1,1v3.2c0,0.6,0.5,1,1,1h13c0,0,0,0,0,0V153c0-0.6-0.5-1-1-1H429.2z"/>
			<path class="st4" d="M448.4,133.2c-0.6,0-1,0.5-1,1v33.4c0,0.4-0.3,0.8-0.7,1l-23.4,8.3c-0.4,0.1-0.7,0.5-0.7,1v4.9
				c0,0.2,0.1,0.4,0.3,0.6c0.2,0.1,0.4,0.2,0.6,0.1l29.1-9.9c1.5-0.5,2.5-1.9,2.5-3.5v-35.8c0-0.6-0.5-1-1-1H448.4z"/>
			<path class="st4" d="M430.4,130.9c-0.6,0-1,0.5-1,1v3.9c0,0.6,0.5,1,1,1H472c0.6,0,1-0.5,1-1V132c0-0.6-0.5-1-1-1H430.4z"/>
			<path class="st4" d="M421,142.4c-0.6,0-1,0.5-1,1v3.9c0,0.6,0.5,1,1,1h60.3c0.6,0,1-0.5,1-1v-3.9c0-0.6-0.5-1-1-1H421z"/>
		</g>
	</g>
</g>
<g>
	<line class="st5" x1="628" y1="189.8" x2="628" y2="192.8"/>
	<line class="st5" x1="644.7" y1="189.8" x2="611.3" y2="189.8"/>
	<line class="st5" x1="644.7" y1="192.8" x2="611.3" y2="192.8"/>
</g>
<text transform="matrix(1 0 0 1 650.9755 195.5638)" class="st6 st7 st8">0.25x</text>
<text transform="matrix(1 0 0 1 784.1915 265.5638)" class="st6 st7 st8">1x</text>
<rect x="761" y="255" class="st2" width="13" height="13"/>
<text transform="matrix(1 0 0 1 784.1915 290.5638)" class="st6 st7 st8">0.25x</text>
<rect x="761" y="280" class="st3" width="13" height="13"/>
</svg>
