<?xml version="1.0" encoding="utf-8"?>
<!-- Generator: Adobe Illustrator 21.1.0, SVG Export Plug-In . SVG Version: 6.00 Build 0)  -->
<svg version="1.1" id="图层_1" xmlns="http://www.w3.org/2000/svg" xmlns:xlink="http://www.w3.org/1999/xlink" x="0px" y="0px"
	 viewBox="0 0 880 320" style="enable-background:new 0 0 880 320;" xml:space="preserve">
<style type="text/css">
	.st0{fill:none;}
	.st1{fill:none;stroke:#463C36;stroke-width:0.75;stroke-miterlimit:10;}
	.st2{fill:url(#SVGID_1_);stroke:#463C36;stroke-width:0.75;stroke-miterlimit:10;enable-background:new    ;}
	.st3{fill:url(#SVGID_2_);stroke:#463C36;stroke-width:0.75;stroke-miterlimit:10;enable-background:new    ;}
	.st4{fill:url(#SVGID_3_);stroke:#463C36;stroke-width:0.75;stroke-miterlimit:10;enable-background:new    ;}
	.st5{fill:url(#SVGID_4_);stroke:#463C36;stroke-width:0.75;stroke-miterlimit:10;enable-background:new    ;}
</style>
<pattern  y="320" width="35" height="30" patternUnits="userSpaceOnUse" id="A" viewBox="8.8 -41.3 35 30" style="overflow:visible;">
	<g>
		<rect x="8.8" y="-41.3" class="st0" width="35" height="30"/>
		<g>
			<line class="st1" x1="52.3" y1="-12.3" x2="40.3" y2="-0.3"/>
		</g>
		<g>
			<line class="st1" x1="17.3" y1="-12.3" x2="5.3" y2="-0.3"/>
			<line class="st1" x1="22.3" y1="-12.3" x2="10.3" y2="-0.3"/>
			<line class="st1" x1="27.3" y1="-12.3" x2="15.3" y2="-0.3"/>
			<line class="st1" x1="32.3" y1="-12.3" x2="20.3" y2="-0.3"/>
			<line class="st1" x1="37.3" y1="-12.3" x2="25.3" y2="-0.3"/>
			<line class="st1" x1="42.3" y1="-12.3" x2="30.3" y2="-0.3"/>
			<line class="st1" x1="47.3" y1="-12.3" x2="35.3" y2="-0.3"/>
		</g>
		<g>
			<line class="st1" x1="12.3" y1="-12.3" x2="0.3" y2="-0.3"/>
		</g>
		<g>
			<line class="st1" x1="52.3" y1="-22.3" x2="40.3" y2="-10.3"/>
		</g>
		<g>
			<line class="st1" x1="17.3" y1="-22.3" x2="5.3" y2="-10.3"/>
			<line class="st1" x1="22.3" y1="-22.3" x2="10.3" y2="-10.3"/>
			<line class="st1" x1="27.3" y1="-22.3" x2="15.3" y2="-10.3"/>
			<line class="st1" x1="32.3" y1="-22.3" x2="20.3" y2="-10.3"/>
			<line class="st1" x1="37.3" y1="-22.3" x2="25.3" y2="-10.3"/>
			<line class="st1" x1="42.3" y1="-22.3" x2="30.3" y2="-10.3"/>
			<line class="st1" x1="47.3" y1="-22.3" x2="35.3" y2="-10.3"/>
		</g>
		<g>
			<line class="st1" x1="12.3" y1="-22.3" x2="0.3" y2="-10.3"/>
		</g>
		<g>
			<line class="st1" x1="52.3" y1="-32.3" x2="40.3" y2="-20.3"/>
		</g>
		<g>
			<line class="st1" x1="17.3" y1="-32.3" x2="5.3" y2="-20.3"/>
			<line class="st1" x1="22.3" y1="-32.3" x2="10.3" y2="-20.3"/>
			<line class="st1" x1="27.3" y1="-32.3" x2="15.3" y2="-20.3"/>
			<line class="st1" x1="32.3" y1="-32.3" x2="20.3" y2="-20.3"/>
			<line class="st1" x1="37.3" y1="-32.3" x2="25.3" y2="-20.3"/>
			<line class="st1" x1="42.3" y1="-32.3" x2="30.3" y2="-20.3"/>
			<line class="st1" x1="47.3" y1="-32.3" x2="35.3" y2="-20.3"/>
		</g>
		<g>
			<line class="st1" x1="12.3" y1="-32.3" x2="0.3" y2="-20.3"/>
		</g>
		<g>
			<line class="st1" x1="52.3" y1="-42.3" x2="40.3" y2="-30.3"/>
		</g>
		<g>
			<line class="st1" x1="17.3" y1="-42.3" x2="5.3" y2="-30.3"/>
			<line class="st1" x1="22.3" y1="-42.3" x2="10.3" y2="-30.3"/>
			<line class="st1" x1="27.3" y1="-42.3" x2="15.3" y2="-30.3"/>
			<line class="st1" x1="32.3" y1="-42.3" x2="20.3" y2="-30.3"/>
			<line class="st1" x1="37.3" y1="-42.3" x2="25.3" y2="-30.3"/>
			<line class="st1" x1="42.3" y1="-42.3" x2="30.3" y2="-30.3"/>
			<line class="st1" x1="47.3" y1="-42.3" x2="35.3" y2="-30.3"/>
		</g>
		<g>
			<line class="st1" x1="12.3" y1="-42.3" x2="0.3" y2="-30.3"/>
		</g>
		<g>
			<line class="st1" x1="52.3" y1="-52.3" x2="40.3" y2="-40.3"/>
		</g>
		<g>
			<line class="st1" x1="17.3" y1="-52.3" x2="5.3" y2="-40.3"/>
			<line class="st1" x1="22.3" y1="-52.3" x2="10.3" y2="-40.3"/>
			<line class="st1" x1="27.3" y1="-52.3" x2="15.3" y2="-40.3"/>
			<line class="st1" x1="32.3" y1="-52.3" x2="20.3" y2="-40.3"/>
			<line class="st1" x1="37.3" y1="-52.3" x2="25.3" y2="-40.3"/>
			<line class="st1" x1="42.3" y1="-52.3" x2="30.3" y2="-40.3"/>
			<line class="st1" x1="47.3" y1="-52.3" x2="35.3" y2="-40.3"/>
		</g>
		<g>
			<line class="st1" x1="12.3" y1="-52.3" x2="0.3" y2="-40.3"/>
		</g>
	</g>
</pattern>
<g>
	<path class="st1" d="M489.4,98.5c0.9-0.9,1.8-1.8,2.7-2.5c0.9-0.7,2-1.4,3.2-1.4c1.2,0,2.3,0.7,3.2,1.4s1.8,1.6,2.7,2.5l0.4,0.4
		c0.9,0.9,1.8,1.8,2.5,2.7c0.7,0.9,1.4,2,1.4,3.2c0,1.2-0.7,2.3-1.4,3.2c-0.7,0.9-1.6,1.8-2.5,2.7l-37.3,37.3
		c-0.9,0.9-1.8,1.8-2.7,2.5c-0.9,0.7-2,1.4-3.2,1.4c-1.2,0-2.3-0.7-3.2-1.4c-0.9-0.7-1.8-1.6-2.7-2.5l-0.4-0.4
		c-0.9-0.9-1.8-1.8-2.5-2.7c-0.7-0.9-1.4-2-1.4-3.2c0-1.2,0.7-2.3,1.4-3.2s1.6-1.8,2.5-2.7L489.4,98.5z"/>
	<path class="st1" d="M415.6,172.2c0.9-0.9,1.8-1.8,2.7-2.5c0.9-0.7,2-1.4,3.2-1.4c1.2,0,2.3,0.7,3.2,1.4c0.9,0.7,1.8,1.6,2.7,2.5
		l0.4,0.4c0.9,0.9,1.8,1.8,2.5,2.7c0.7,0.9,1.4,2,1.4,3.2c0,1.2-0.7,2.3-1.4,3.2c-0.7,0.9-1.6,1.8-2.5,2.7l-37.3,37.3
		c-0.9,0.9-1.8,1.8-2.7,2.5c-0.9,0.7-2,1.4-3.2,1.4c-1.2,0-2.3-0.7-3.2-1.4c-0.9-0.7-1.8-1.6-2.7-2.5l-0.4-0.4
		c-0.9-0.9-1.8-1.8-2.5-2.7s-1.4-2-1.4-3.2c0-1.2,0.7-2.3,1.4-3.2s1.6-1.8,2.5-2.7L415.6,172.2z"/>
	<path class="st1" d="M501.7,209.4c0.9,0.9,1.8,1.8,2.5,2.7c0.7,0.9,1.4,2,1.4,3.2c0,1.2-0.7,2.3-1.4,3.2c-0.7,0.9-1.6,1.8-2.5,2.7
		l-0.4,0.4c-0.9,0.9-1.8,1.8-2.7,2.5c-0.9,0.7-2,1.4-3.2,1.4c-1.2,0-2.3-0.7-3.2-1.4c-0.9-0.7-1.8-1.6-2.7-2.5l-37.3-37.3
		c-0.9-0.9-1.8-1.8-2.5-2.7c-0.7-0.9-1.4-2-1.4-3.2c0-1.2,0.7-2.3,1.4-3.2c0.7-0.9,1.6-1.8,2.5-2.7l0.4-0.4c0.9-0.9,1.8-1.8,2.7-2.5
		s2-1.4,3.2-1.4c1.2,0,2.3,0.7,3.2,1.4c0.9,0.7,1.8,1.6,2.7,2.5L501.7,209.4z"/>
	<pattern  id="SVGID_1_" xlink:href="#A" patternTransform="matrix(1 0 0 1 0 6.8386)">
	</pattern>
	<path class="st2" d="M341.9,98.5c0.9-0.9,1.8-1.8,2.7-2.5s2-1.4,3.2-1.4c1.2,0,2.3,0.7,3.2,1.4c0.9,0.7,1.8,1.6,2.7,2.5l0.4,0.4
		c0.9,0.9,1.8,1.8,2.5,2.7c0.7,0.9,1.4,2,1.4,3.2c0,1.2-0.7,2.3-1.4,3.2c-0.7,0.9-1.6,1.8-2.5,2.7l-37.3,37.3
		c-0.9,0.9-1.8,1.8-2.7,2.5c-0.9,0.7-2,1.4-3.2,1.4s-2.3-0.7-3.2-1.4c-0.9-0.7-1.8-1.6-2.7-2.5l-0.4-0.4c-0.9-0.9-1.8-1.8-2.5-2.7
		c-0.7-0.9-1.4-2-1.4-3.2c0-1.2,0.7-2.3,1.4-3.2c0.7-0.9,1.6-1.8,2.5-2.7L341.9,98.5z"/>
	<pattern  id="SVGID_2_" xlink:href="#A" patternTransform="matrix(1 0 0 1 0 6.8386)">
	</pattern>
	<path class="st3" d="M354.2,209.4c0.9,0.9,1.8,1.8,2.5,2.7c0.7,0.9,1.4,2,1.4,3.2c0,1.2-0.7,2.3-1.4,3.2c-0.7,0.9-1.6,1.8-2.5,2.7
		l-0.4,0.4c-0.9,0.9-1.8,1.8-2.7,2.5c-0.9,0.7-2,1.4-3.2,1.4c-1.2,0-2.3-0.7-3.2-1.4c-0.9-0.7-1.8-1.6-2.7-2.5l-37.3-37.3
		c-0.9-0.9-1.8-1.8-2.5-2.7c-0.7-0.9-1.4-2-1.4-3.2c0-1.2,0.7-2.3,1.4-3.2c0.7-0.9,1.6-1.8,2.5-2.7l0.4-0.4c0.9-0.9,1.8-1.8,2.7-2.5
		c0.9-0.7,2-1.4,3.2-1.4s2.3,0.7,3.2,1.4c0.9,0.7,1.8,1.6,2.7,2.5L354.2,209.4z"/>
	<path class="st1" d="M427.8,135.8c0.9,0.9,1.8,1.8,2.5,2.7c0.7,0.9,1.4,2,1.4,3.2c0,1.2-0.7,2.3-1.4,3.2c-0.7,0.9-1.6,1.8-2.5,2.7
		l-0.4,0.4c-0.9,0.9-1.8,1.8-2.7,2.5c-0.9,0.7-2,1.4-3.2,1.4c-1.2,0-2.3-0.7-3.2-1.4c-0.9-0.7-1.8-1.6-2.7-2.5l-37.3-37.3
		c-0.9-0.9-1.8-1.8-2.5-2.7c-0.7-0.9-1.4-2-1.4-3.2c0-1.2,0.7-2.3,1.4-3.2c0.7-0.9,1.6-1.8,2.5-2.7l0.4-0.4c0.9-0.9,1.8-1.8,2.7-2.5
		s2-1.4,3.2-1.4c1.2,0,2.3,0.7,3.2,1.4c0.9,0.7,1.8,1.6,2.7,2.5L427.8,135.8z"/>
	<pattern  id="SVGID_3_" xlink:href="#A" patternTransform="matrix(1 0 0 1 0 6.8386)">
	</pattern>
	<path class="st4" d="M563.1,172.2c0.9-0.9,1.8-1.8,2.7-2.5s2-1.4,3.2-1.4c1.2,0,2.3,0.7,3.2,1.4c0.9,0.7,1.8,1.6,2.7,2.5l0.4,0.4
		c0.9,0.9,1.8,1.8,2.5,2.7s1.4,2,1.4,3.2c0,1.2-0.7,2.3-1.4,3.2s-1.6,1.8-2.5,2.7l-37.3,37.3c-0.9,0.9-1.8,1.8-2.7,2.5
		c-0.9,0.7-2,1.4-3.2,1.4s-2.3-0.7-3.2-1.4c-0.9-0.7-1.8-1.6-2.7-2.5l-0.4-0.4c-0.9-0.9-1.8-1.8-2.5-2.7s-1.4-2-1.4-3.2
		c0-1.2,0.7-2.3,1.4-3.2s1.6-1.8,2.5-2.7L563.1,172.2z"/>
	<pattern  id="SVGID_4_" xlink:href="#A" patternTransform="matrix(1 0 0 1 0 6.8386)">
	</pattern>
	<path class="st5" d="M575.4,135.8c0.9,0.9,1.8,1.8,2.5,2.7s1.4,2,1.4,3.2c0,1.2-0.7,2.3-1.4,3.2c-0.7,0.9-1.6,1.8-2.5,2.7l-0.4,0.4
		c-0.9,0.9-1.8,1.8-2.7,2.5s-2,1.4-3.2,1.4s-2.3-0.7-3.2-1.4c-0.9-0.7-1.8-1.6-2.7-2.5L526,110.6c-0.9-0.9-1.8-1.8-2.5-2.7
		c-0.7-0.9-1.4-2-1.4-3.2c0-1.2,0.7-2.3,1.4-3.2c0.7-0.9,1.6-1.8,2.5-2.7l0.4-0.4c0.9-0.9,1.8-1.8,2.7-2.5s2-1.4,3.2-1.4
		s2.3,0.7,3.2,1.4s1.8,1.6,2.7,2.5L575.4,135.8z"/>
</g>
</svg>
