<?xml version="1.0" encoding="UTF-8"?>
<svg width="880px" height="512px" viewBox="0 0 880 512" version="1.1" xmlns="http://www.w3.org/2000/svg" xmlns:xlink="http://www.w3.org/1999/xlink">
    <!-- Generator: Sketch 51.3 (57544) - http://www.bohemiancoding.com/sketch -->
    <title>Artboard 5 Copy 8</title>
    <desc>Created with Sketch.</desc>
    <defs>
        <polygon id="path-1" points="5.546307e-05 -7.10542736e-15 51.28503 -7.10542736e-15 51.28503 51.28503 5.546307e-05 51.28503"></polygon>
        <polygon id="path-3" points="5.546307e-05 -7.10542736e-15 51.28503 -7.10542736e-15 51.28503 51.28503 5.546307e-05 51.28503"></polygon>
    </defs>
    <g id="Artboard-5-Copy-8" stroke="none" stroke-width="1" fill="none" fill-rule="evenodd">
        <g id="Group-2" transform="translate(221.000000, 27.000000)">
            <rect id="Rectangle-35" fill="#2B4EEF" x="0.0619421864" y="0" width="218.890625" height="212"></rect>
            <rect id="Rectangle-35-Copy" fill="#E5E5E5" x="218.952567" y="0" width="218.890625" height="212"></rect>
            <g id="Group-Copy-2" transform="translate(268.897880, 77.500000)">
                <path d="M80.5501303,1.70363247 C80.9185363,1.3352265 81.2782574,0.959536462 81.6822433,0.626430227 C82.0649372,0.310693704 82.5375615,0 83.0788241,0 C83.6200867,0.000280156631 84.0924308,0.310693704 84.4751247,0.626430227 C84.8791106,0.959536462 85.2388317,1.3352265 85.6072377,1.70363247 L85.7927014,1.88909616 C86.1613875,2.25750213 86.5367974,2.61722325 86.8699036,3.02092895 C87.1856401,3.40362291 87.4960537,3.87624715 87.4960537,4.41778992 C87.4960537,4.95905253 87.1856401,5.43139661 86.8699036,5.81409057 C86.5370775,6.21807643 86.1613875,6.57751739 85.7927014,6.94620351 L69.8750421,22.8638628 C69.5066361,23.232549 69.146915,23.6079588 68.7432093,23.9410651 C68.3602351,24.2568016 67.8876109,24.5672151 67.3463483,24.5672151 C66.8050857,24.5672151 66.3327416,24.2568016 65.9500476,23.9410651 C65.5460618,23.608239 65.1863407,23.232549 64.8179347,22.8638628 L64.632471,22.6783991 C64.264065,22.3099932 63.888375,21.9505522 63.5552688,21.5465664 C63.2395322,21.1638724 62.9291187,20.690968 62.9291187,20.1497054 C62.9291187,19.6084428 63.2395322,19.1360987 63.5552688,18.7534047 C63.888375,18.3494189 64.264065,17.9899779 64.632471,17.6212918 L80.5501303,1.70363247 Z" id="Fill-1" fill="#6B1B1B"></path>
                <path d="M49.085571,33.1681638 C49.453977,32.7997578 49.8136981,32.424348 50.2174038,32.0909616 C50.6003779,31.775225 51.0730021,31.4648115 51.6142647,31.4648115 C52.1555273,31.4648115 52.6278714,31.7749449 53.0105654,32.0906814 C53.4145512,32.4240678 53.7742724,32.7997578 54.1426783,33.1681638 L54.328142,33.3536275 C54.696548,33.7220335 55.072238,34.0817546 55.4053443,34.4854603 C55.7210808,34.8681542 56.0314943,35.3410586 56.0314943,35.8823212 C56.0314943,36.4233037 55.7213609,36.8959279 55.4056244,37.2786219 C55.072238,37.6823276 54.6968281,38.0420487 54.328142,38.4107348 L38.4104827,54.3283942 C38.0420767,54.6970803 37.6823556,55.0724902 37.2786499,55.4055964 C36.8956758,55.7213329 36.4230516,56.0317465 35.881789,56.0317465 C35.3405263,56.0317465 34.8681823,55.7213329 34.4854883,55.4055964 C34.0815024,55.0727703 33.7217813,54.6970803 33.3533754,54.3283942 L33.1679117,54.1429305 C32.7995057,53.7745245 32.4238157,53.4150835 32.0907094,53.0110977 C31.7749729,52.6284037 31.4645593,52.1554993 31.4645593,51.6142367 C31.4645593,51.0729741 31.7749729,50.6009102 32.0907094,50.2179361 C32.4238157,49.8139502 32.7995057,49.4545092 33.1679117,49.0858231 L49.085571,33.1681638 Z" id="Fill-4" fill="#A25656"></path>
                <path d="M85.7928134,49.0859352 C86.1612194,49.4543412 86.5366293,49.8140623 86.8700157,50.217768 C87.1857522,50.6004619 87.4961657,51.0733663 87.4961657,51.6143488 C87.4961657,52.1556114 87.1857522,52.6282356 86.8700157,53.0109296 C86.5369094,53.4146353 86.1612194,53.7743564 85.7928134,54.1430425 L85.6073497,54.3285062 C85.2386636,54.6969122 84.8792227,55.0723221 84.475517,55.4057085 C84.0925428,55.721445 83.6199186,56.0318585 83.078656,56.0318585 C82.5373934,56.0318585 82.0650493,55.721445 81.6823553,55.4057085 C81.2783695,55.0726022 80.9189285,54.6969122 80.5502424,54.3285062 L64.6325831,38.4108469 C64.2638969,38.0421608 63.8884871,37.6827198 63.5553808,37.278734 C63.2396443,36.89604 62.9289506,36.4234158 62.9292308,35.881873 C62.9292308,35.3406104 63.2396443,34.8685465 63.5551007,34.4858525 C63.8882069,34.0815865 64.2638969,33.7221455 64.6325831,33.3537396 L64.8177666,33.1682759 C65.1864527,32.7995897 65.5458937,32.4241799 65.9495994,32.0910736 C66.3325735,31.7753371 66.8051978,31.4649236 67.3467405,31.4649236 C67.887723,31.4649236 68.3600671,31.7750569 68.7430412,32.0907935 C69.1467469,32.4238997 69.506468,32.7995897 69.8751541,33.1682759 L85.7928134,49.0859352 Z" id="Fill-6" fill="#DA9B9B"></path>
                <path d="M17.6210397,1.70363247 C17.9894456,1.3352265 18.3491667,0.959536462 18.7528724,0.626430227 C19.1358466,0.310693704 19.6084708,0 20.1497334,0 C20.690996,0.000280156631 21.1633401,0.310693704 21.5460341,0.626430227 C21.9500199,0.959536462 22.309741,1.3352265 22.678147,1.70363247 L22.8636107,1.88909616 C23.2320167,2.25750213 23.6077067,2.61722325 23.9408129,3.02092895 C24.2565495,3.40362291 24.566963,3.87624715 24.566963,4.41778992 C24.566963,4.95905253 24.2568296,5.43139661 23.9410931,5.81409057 C23.6077067,6.21807643 23.2320167,6.57751739 22.8636107,6.94620351 L6.94595137,22.8638628 C6.5775454,23.232549 6.21782429,23.6079588 5.81411858,23.9410651 C5.43114447,24.2568016 4.95852023,24.5672151 4.41725762,24.5672151 C3.87599501,24.5672151 3.40365093,24.2568016 3.02095697,23.9410651 C2.61697111,23.608239 2.25724999,23.232549 1.88884402,22.8638628 L1.70338033,22.6783991 C1.33497436,22.3099932 0.959284321,21.9505522 0.626178086,21.5465664 C0.310441563,21.1638724 2.80156632e-05,20.690968 2.80156632e-05,20.1497054 C2.80156632e-05,19.6084428 0.310441563,19.1363789 0.62589793,18.7534047 C0.959284321,18.3494189 1.33497436,17.9899779 1.70338033,17.6212918 L17.6210397,1.70363247 Z" id="Fill-8" fill="#6B1B1B"></path>
                <path d="M22.8635827,49.0859352 C23.2319886,49.4543412 23.6076787,49.8140623 23.9407849,50.217768 C24.2565214,50.6004619 24.5672151,51.0733663 24.5672151,51.6143488 C24.566935,52.1556114 24.2568016,52.6282356 23.9410651,53.0109296 C23.6076787,53.4146353 23.2319886,53.7743564 22.8635827,54.1430425 L22.678119,54.3285062 C22.309713,54.6969122 21.9502721,55.0723221 21.5462862,55.4057085 C21.1635922,55.721445 20.690968,56.0318585 20.1494252,56.0318585 C19.6081626,56.0318585 19.1358185,55.721445 18.7531246,55.4057085 C18.3494189,55.0726022 17.9896978,54.6969122 17.6210116,54.3285062 L1.70335232,38.4108469 C1.33494635,38.0421608 0.959256305,37.6827198 0.626150071,37.278734 C0.310413547,36.89604 0,36.4234158 0,35.881873 C0,35.3406104 0.310413547,34.8685465 0.625869914,34.4858525 C0.959256305,34.0815865 1.33494635,33.7221455 1.70335232,33.3537396 L1.88881601,33.1682759 C2.25722198,32.7995897 2.61694309,32.4241799 3.0206488,32.0910736 C3.40362291,31.7753371 3.87624715,31.4649236 4.41750976,31.4649236 C4.95877237,31.4649236 5.43111645,31.7750569 5.81381041,32.0907935 C6.21751612,32.4238997 6.57751739,32.7995897 6.94592336,33.1682759 L22.8635827,49.0859352 Z" id="Fill-11" fill="#6B1B1B"></path>
                <path d="M54.328114,17.6212638 C54.69652,17.9896697 55.07221,18.3493909 55.4053163,18.7533767 C55.7210528,19.1360707 56.0317465,19.6086949 56.0317465,20.1499575 C56.0314663,20.6912201 55.7213329,21.1635642 55.4055964,21.5462582 C55.07221,21.950244 54.6968001,22.3099652 54.328114,22.6783711 L54.1426503,22.8638348 C53.7742443,23.2325209 53.4148034,23.6079308 53.0108175,23.9410371 C52.6281236,24.2567736 52.1554993,24.5671871 51.6139566,24.5671871 C51.0729741,24.5671871 50.6003499,24.2567736 50.2176559,23.9410371 C49.8139502,23.608211 49.4542291,23.2325209 49.085543,22.8638348 L33.1678836,6.9461755 C32.7994777,6.57776953 32.4237876,6.21804841 32.0909616,5.81434271 C31.7749449,5.43136859 31.4645313,4.95874436 31.4645313,4.41748175 C31.4645313,3.87621913 31.7749449,3.40387505 32.0906814,3.0211811 C32.4237876,2.61719523 32.7994777,2.25747412 33.1678836,1.88906815 L33.3533473,1.70360446 C33.7217533,1.33519849 34.0814744,0.959508446 34.4851801,0.626402212 C34.8681542,0.310665688 35.3407785,0.000252140968 35.8820411,0.000252140968 C36.4233037,0.000252140968 36.8956478,0.310665688 37.2783417,0.626402212 C37.6823276,0.959508446 38.0420487,1.33519849 38.4104547,1.70360446 L54.328114,17.6212638 Z" id="Fill-13" fill="#A25656"></path>
                <path d="M112.014802,33.1681638 C112.383208,32.7997578 112.742929,32.424348 113.146635,32.0909616 C113.529328,31.775225 114.002233,31.4648115 114.543215,31.4648115 C115.084478,31.4648115 115.557102,31.7749449 115.939796,32.0906814 C116.343502,32.4240678 116.703223,32.7997578 117.071909,33.1681638 L117.257373,33.3536275 C117.625779,33.7220335 118.001189,34.0817546 118.334575,34.4854603 C118.650312,34.8681542 118.960725,35.3410586 118.960725,35.8823212 C118.960725,36.4233037 118.650312,36.8959279 118.334575,37.2786219 C118.001469,37.6823276 117.625779,38.0420487 117.257373,38.4107348 L101.339713,54.3283942 C100.971027,54.6970803 100.611586,55.0724902 100.207601,55.4055964 C99.8249066,55.7213329 99.3522823,56.0317465 98.8107396,56.0317465 C98.2694769,56.0317465 97.797413,55.7213329 97.4147191,55.4055964 C97.010453,55.0727703 96.6510121,54.6970803 96.2826061,54.3283942 L96.0971424,54.1429305 C95.7284563,53.7745245 95.3530464,53.4150835 95.0199402,53.0110977 C94.7042037,52.6284037 94.3937901,52.1554993 94.3937901,51.6142367 C94.3937901,51.0729741 94.7039235,50.6009102 95.01966,50.2179361 C95.3527663,49.8139502 95.7284563,49.4545092 96.0971424,49.0858231 L112.014802,33.1681638 Z" id="Fill-15" fill="#A25656"></path>
                <path d="M117.257345,17.6212638 C117.625751,17.9896697 118.001161,18.3493909 118.334547,18.7533767 C118.650284,19.1360707 118.960697,19.6086949 118.960697,20.1499575 C118.960697,20.6912201 118.650284,21.1635642 118.334547,21.5462582 C118.001441,21.950244 117.625751,22.3099652 117.257345,22.6783711 L117.071881,22.8638348 C116.703195,23.2325209 116.343754,23.6079308 115.940048,23.9410371 C115.557354,24.2567736 115.08445,24.5671871 114.543187,24.5671871 C114.001925,24.5671871 113.529581,24.2567736 113.146887,23.9410371 C112.742901,23.608211 112.38346,23.2325209 112.014774,22.8638348 L96.0971144,6.9461755 C95.7284283,6.57776953 95.3530184,6.21804841 95.0199122,5.81434271 C94.7041756,5.43136859 94.3937621,4.95874436 94.3937621,4.41748175 C94.3937621,3.87621913 94.7038955,3.40387505 95.019632,3.0211811 C95.3527382,2.61719523 95.7284283,2.25747412 96.0971144,1.88906815 L96.2825781,1.70360446 C96.6507039,1.33519849 97.010425,0.959508446 97.4144109,0.626402212 C97.7971048,0.310665688 98.2700092,0.000252140968 98.8109917,0.000252140968 C99.3522543,0.000252140968 99.8245984,0.310665688 100.207572,0.626402212 C100.611278,0.959508446 100.970999,1.33519849 101.339685,1.70360446 L117.257345,17.6212638 Z" id="Fill-17" fill="#6B1B1B"></path>
            </g>
            <g id="Group-Copy" transform="translate(50.007255, 77.500000)">
                <path d="M80.5501303,1.70363247 C80.9185363,1.3352265 81.2782574,0.959536462 81.6822433,0.626430227 C82.0649372,0.310693704 82.5375615,0 83.0788241,0 C83.6200867,0.000280156631 84.0924308,0.310693704 84.4751247,0.626430227 C84.8791106,0.959536462 85.2388317,1.3352265 85.6072377,1.70363247 L85.7927014,1.88909616 C86.1613875,2.25750213 86.5367974,2.61722325 86.8699036,3.02092895 C87.1856401,3.40362291 87.4960537,3.87624715 87.4960537,4.41778992 C87.4960537,4.95905253 87.1856401,5.43139661 86.8699036,5.81409057 C86.5370775,6.21807643 86.1613875,6.57751739 85.7927014,6.94620351 L69.8750421,22.8638628 C69.5066361,23.232549 69.146915,23.6079588 68.7432093,23.9410651 C68.3602351,24.2568016 67.8876109,24.5672151 67.3463483,24.5672151 C66.8050857,24.5672151 66.3327416,24.2568016 65.9500476,23.9410651 C65.5460618,23.608239 65.1863407,23.232549 64.8179347,22.8638628 L64.632471,22.6783991 C64.264065,22.3099932 63.888375,21.9505522 63.5552688,21.5465664 C63.2395322,21.1638724 62.9291187,20.690968 62.9291187,20.1497054 C62.9291187,19.6084428 63.2395322,19.1360987 63.5552688,18.7534047 C63.888375,18.3494189 64.264065,17.9899779 64.632471,17.6212918 L80.5501303,1.70363247 Z" id="Fill-1" fill="#25E8C7"></path>
                <path d="M49.085571,33.1681638 C49.453977,32.7997578 49.8136981,32.424348 50.2174038,32.0909616 C50.6003779,31.775225 51.0730021,31.4648115 51.6142647,31.4648115 C52.1555273,31.4648115 52.6278714,31.7749449 53.0105654,32.0906814 C53.4145512,32.4240678 53.7742724,32.7997578 54.1426783,33.1681638 L54.328142,33.3536275 C54.696548,33.7220335 55.072238,34.0817546 55.4053443,34.4854603 C55.7210808,34.8681542 56.0314943,35.3410586 56.0314943,35.8823212 C56.0314943,36.4233037 55.7213609,36.8959279 55.4056244,37.2786219 C55.072238,37.6823276 54.6968281,38.0420487 54.328142,38.4107348 L38.4104827,54.3283942 C38.0420767,54.6970803 37.6823556,55.0724902 37.2786499,55.4055964 C36.8956758,55.7213329 36.4230516,56.0317465 35.881789,56.0317465 C35.3405263,56.0317465 34.8681823,55.7213329 34.4854883,55.4055964 C34.0815024,55.0727703 33.7217813,54.6970803 33.3533754,54.3283942 L33.1679117,54.1429305 C32.7995057,53.7745245 32.4238157,53.4150835 32.0907094,53.0110977 C31.7749729,52.6284037 31.4645593,52.1554993 31.4645593,51.6142367 C31.4645593,51.0729741 31.7749729,50.6009102 32.0907094,50.2179361 C32.4238157,49.8139502 32.7995057,49.4545092 33.1679117,49.0858231 L49.085571,33.1681638 Z" id="Fill-4" fill="#25E8C7"></path>
                <path d="M85.7928134,49.0859352 C86.1612194,49.4543412 86.5366293,49.8140623 86.8700157,50.217768 C87.1857522,50.6004619 87.4961657,51.0733663 87.4961657,51.6143488 C87.4961657,52.1556114 87.1857522,52.6282356 86.8700157,53.0109296 C86.5369094,53.4146353 86.1612194,53.7743564 85.7928134,54.1430425 L85.6073497,54.3285062 C85.2386636,54.6969122 84.8792227,55.0723221 84.475517,55.4057085 C84.0925428,55.721445 83.6199186,56.0318585 83.078656,56.0318585 C82.5373934,56.0318585 82.0650493,55.721445 81.6823553,55.4057085 C81.2783695,55.0726022 80.9189285,54.6969122 80.5502424,54.3285062 L64.6325831,38.4108469 C64.2638969,38.0421608 63.8884871,37.6827198 63.5553808,37.278734 C63.2396443,36.89604 62.9289506,36.4234158 62.9292308,35.881873 C62.9292308,35.3406104 63.2396443,34.8685465 63.5551007,34.4858525 C63.8882069,34.0815865 64.2638969,33.7221455 64.6325831,33.3537396 L64.8177666,33.1682759 C65.1864527,32.7995897 65.5458937,32.4241799 65.9495994,32.0910736 C66.3325735,31.7753371 66.8051978,31.4649236 67.3467405,31.4649236 C67.887723,31.4649236 68.3600671,31.7750569 68.7430412,32.0907935 C69.1467469,32.4238997 69.506468,32.7995897 69.8751541,33.1682759 L85.7928134,49.0859352 Z" id="Fill-6" fill="#7B7E89"></path>
                <path d="M17.6210397,1.70363247 C17.9894456,1.3352265 18.3491667,0.959536462 18.7528724,0.626430227 C19.1358466,0.310693704 19.6084708,0 20.1497334,0 C20.690996,0.000280156631 21.1633401,0.310693704 21.5460341,0.626430227 C21.9500199,0.959536462 22.309741,1.3352265 22.678147,1.70363247 L22.8636107,1.88909616 C23.2320167,2.25750213 23.6077067,2.61722325 23.9408129,3.02092895 C24.2565495,3.40362291 24.566963,3.87624715 24.566963,4.41778992 C24.566963,4.95905253 24.2568296,5.43139661 23.9410931,5.81409057 C23.6077067,6.21807643 23.2320167,6.57751739 22.8636107,6.94620351 L6.94595137,22.8638628 C6.5775454,23.232549 6.21782429,23.6079588 5.81411858,23.9410651 C5.43114447,24.2568016 4.95852023,24.5672151 4.41725762,24.5672151 C3.87599501,24.5672151 3.40365093,24.2568016 3.02095697,23.9410651 C2.61697111,23.608239 2.25724999,23.232549 1.88884402,22.8638628 L1.70338033,22.6783991 C1.33497436,22.3099932 0.959284321,21.9505522 0.626178086,21.5465664 C0.310441563,21.1638724 2.80156632e-05,20.690968 2.80156632e-05,20.1497054 C2.80156632e-05,19.6084428 0.310441563,19.1363789 0.62589793,18.7534047 C0.959284321,18.3494189 1.33497436,17.9899779 1.70338033,17.6212918 L17.6210397,1.70363247 Z" id="Fill-8" fill="#25E8C7"></path>
                <path d="M22.8635827,49.0859352 C23.2319886,49.4543412 23.6076787,49.8140623 23.9407849,50.217768 C24.2565214,50.6004619 24.5672151,51.0733663 24.5672151,51.6143488 C24.566935,52.1556114 24.2568016,52.6282356 23.9410651,53.0109296 C23.6076787,53.4146353 23.2319886,53.7743564 22.8635827,54.1430425 L22.678119,54.3285062 C22.309713,54.6969122 21.9502721,55.0723221 21.5462862,55.4057085 C21.1635922,55.721445 20.690968,56.0318585 20.1494252,56.0318585 C19.6081626,56.0318585 19.1358185,55.721445 18.7531246,55.4057085 C18.3494189,55.0726022 17.9896978,54.6969122 17.6210116,54.3285062 L1.70335232,38.4108469 C1.33494635,38.0421608 0.959256305,37.6827198 0.626150071,37.278734 C0.310413547,36.89604 0,36.4234158 0,35.881873 C0,35.3406104 0.310413547,34.8685465 0.625869914,34.4858525 C0.959256305,34.0815865 1.33494635,33.7221455 1.70335232,33.3537396 L1.88881601,33.1682759 C2.25722198,32.7995897 2.61694309,32.4241799 3.0206488,32.0910736 C3.40362291,31.7753371 3.87624715,31.4649236 4.41750976,31.4649236 C4.95877237,31.4649236 5.43111645,31.7750569 5.81381041,32.0907935 C6.21751612,32.4238997 6.57751739,32.7995897 6.94592336,33.1682759 L22.8635827,49.0859352 Z" id="Fill-11" fill-opacity="0.4" fill="#6A7296"></path>
                <path d="M54.328114,17.6212638 C54.69652,17.9896697 55.07221,18.3493909 55.4053163,18.7533767 C55.7210528,19.1360707 56.0317465,19.6086949 56.0317465,20.1499575 C56.0314663,20.6912201 55.7213329,21.1635642 55.4055964,21.5462582 C55.07221,21.950244 54.6968001,22.3099652 54.328114,22.6783711 L54.1426503,22.8638348 C53.7742443,23.2325209 53.4148034,23.6079308 53.0108175,23.9410371 C52.6281236,24.2567736 52.1554993,24.5671871 51.6139566,24.5671871 C51.0729741,24.5671871 50.6003499,24.2567736 50.2176559,23.9410371 C49.8139502,23.608211 49.4542291,23.2325209 49.085543,22.8638348 L33.1678836,6.9461755 C32.7994777,6.57776953 32.4237876,6.21804841 32.0909616,5.81434271 C31.7749449,5.43136859 31.4645313,4.95874436 31.4645313,4.41748175 C31.4645313,3.87621913 31.7749449,3.40387505 32.0906814,3.0211811 C32.4237876,2.61719523 32.7994777,2.25747412 33.1678836,1.88906815 L33.3533473,1.70360446 C33.7217533,1.33519849 34.0814744,0.959508446 34.4851801,0.626402212 C34.8681542,0.310665688 35.3407785,0.000252140968 35.8820411,0.000252140968 C36.4233037,0.000252140968 36.8956478,0.310665688 37.2783417,0.626402212 C37.6823276,0.959508446 38.0420487,1.33519849 38.4104547,1.70360446 L54.328114,17.6212638 Z" id="Fill-13" fill="#7B7E89"></path>
                <path d="M112.014802,33.1681638 C112.383208,32.7997578 112.742929,32.424348 113.146635,32.0909616 C113.529328,31.775225 114.002233,31.4648115 114.543215,31.4648115 C115.084478,31.4648115 115.557102,31.7749449 115.939796,32.0906814 C116.343502,32.4240678 116.703223,32.7997578 117.071909,33.1681638 L117.257373,33.3536275 C117.625779,33.7220335 118.001189,34.0817546 118.334575,34.4854603 C118.650312,34.8681542 118.960725,35.3410586 118.960725,35.8823212 C118.960725,36.4233037 118.650312,36.8959279 118.334575,37.2786219 C118.001469,37.6823276 117.625779,38.0420487 117.257373,38.4107348 L101.339713,54.3283942 C100.971027,54.6970803 100.611586,55.0724902 100.207601,55.4055964 C99.8249066,55.7213329 99.3522823,56.0317465 98.8107396,56.0317465 C98.2694769,56.0317465 97.797413,55.7213329 97.4147191,55.4055964 C97.010453,55.0727703 96.6510121,54.6970803 96.2826061,54.3283942 L96.0971424,54.1429305 C95.7284563,53.7745245 95.3530464,53.4150835 95.0199402,53.0110977 C94.7042037,52.6284037 94.3937901,52.1554993 94.3937901,51.6142367 C94.3937901,51.0729741 94.7039235,50.6009102 95.01966,50.2179361 C95.3527663,49.8139502 95.7284563,49.4545092 96.0971424,49.0858231 L112.014802,33.1681638 Z" id="Fill-15" fill="#25E8C7"></path>
                <path d="M117.257345,17.6212638 C117.625751,17.9896697 118.001161,18.3493909 118.334547,18.7533767 C118.650284,19.1360707 118.960697,19.6086949 118.960697,20.1499575 C118.960697,20.6912201 118.650284,21.1635642 118.334547,21.5462582 C118.001441,21.950244 117.625751,22.3099652 117.257345,22.6783711 L117.071881,22.8638348 C116.703195,23.2325209 116.343754,23.6079308 115.940048,23.9410371 C115.557354,24.2567736 115.08445,24.5671871 114.543187,24.5671871 C114.001925,24.5671871 113.529581,24.2567736 113.146887,23.9410371 C112.742901,23.608211 112.38346,23.2325209 112.014774,22.8638348 L96.0971144,6.9461755 C95.7284283,6.57776953 95.3530184,6.21804841 95.0199122,5.81434271 C94.7041756,5.43136859 94.3937621,4.95874436 94.3937621,4.41748175 C94.3937621,3.87621913 94.7038955,3.40387505 95.019632,3.0211811 C95.3527382,2.61719523 95.7284283,2.25747412 96.0971144,1.88906815 L96.2825781,1.70360446 C96.6507039,1.33519849 97.010425,0.959508446 97.4144109,0.626402212 C97.7971048,0.310665688 98.2700092,0.000252140968 98.8109917,0.000252140968 C99.3522543,0.000252140968 99.8245984,0.310665688 100.207572,0.626402212 C100.611278,0.959508446 100.970999,1.33519849 101.339685,1.70360446 L117.257345,17.6212638 Z" id="Fill-17" fill-opacity="0.4" fill="#6A7296"></path>
            </g>
        </g>
        <g id="Group-2-Copy" transform="translate(221.000000, 263.128906)">
            <rect id="Rectangle-35" fill="#E5E5E5" x="0.0619421864" y="0" width="218.890625" height="212"></rect>
            <rect id="Rectangle-35-Copy" fill="#2B4EEF" x="218.952567" y="0" width="218.890625" height="212"></rect>
            <g id="Group-Copy-2" transform="translate(268.897880, 77.500000)" fill="#FFFFFF">
                <path d="M80.5501303,1.70363247 C80.9185363,1.3352265 81.2782574,0.959536462 81.6822433,0.626430227 C82.0649372,0.310693704 82.5375615,0 83.0788241,0 C83.6200867,0.000280156631 84.0924308,0.310693704 84.4751247,0.626430227 C84.8791106,0.959536462 85.2388317,1.3352265 85.6072377,1.70363247 L85.7927014,1.88909616 C86.1613875,2.25750213 86.5367974,2.61722325 86.8699036,3.02092895 C87.1856401,3.40362291 87.4960537,3.87624715 87.4960537,4.41778992 C87.4960537,4.95905253 87.1856401,5.43139661 86.8699036,5.81409057 C86.5370775,6.21807643 86.1613875,6.57751739 85.7927014,6.94620351 L69.8750421,22.8638628 C69.5066361,23.232549 69.146915,23.6079588 68.7432093,23.9410651 C68.3602351,24.2568016 67.8876109,24.5672151 67.3463483,24.5672151 C66.8050857,24.5672151 66.3327416,24.2568016 65.9500476,23.9410651 C65.5460618,23.608239 65.1863407,23.232549 64.8179347,22.8638628 L64.632471,22.6783991 C64.264065,22.3099932 63.888375,21.9505522 63.5552688,21.5465664 C63.2395322,21.1638724 62.9291187,20.690968 62.9291187,20.1497054 C62.9291187,19.6084428 63.2395322,19.1360987 63.5552688,18.7534047 C63.888375,18.3494189 64.264065,17.9899779 64.632471,17.6212918 L80.5501303,1.70363247 Z" id="Fill-1"></path>
                <path d="M49.085571,33.1681638 C49.453977,32.7997578 49.8136981,32.424348 50.2174038,32.0909616 C50.6003779,31.775225 51.0730021,31.4648115 51.6142647,31.4648115 C52.1555273,31.4648115 52.6278714,31.7749449 53.0105654,32.0906814 C53.4145512,32.4240678 53.7742724,32.7997578 54.1426783,33.1681638 L54.328142,33.3536275 C54.696548,33.7220335 55.072238,34.0817546 55.4053443,34.4854603 C55.7210808,34.8681542 56.0314943,35.3410586 56.0314943,35.8823212 C56.0314943,36.4233037 55.7213609,36.8959279 55.4056244,37.2786219 C55.072238,37.6823276 54.6968281,38.0420487 54.328142,38.4107348 L38.4104827,54.3283942 C38.0420767,54.6970803 37.6823556,55.0724902 37.2786499,55.4055964 C36.8956758,55.7213329 36.4230516,56.0317465 35.881789,56.0317465 C35.3405263,56.0317465 34.8681823,55.7213329 34.4854883,55.4055964 C34.0815024,55.0727703 33.7217813,54.6970803 33.3533754,54.3283942 L33.1679117,54.1429305 C32.7995057,53.7745245 32.4238157,53.4150835 32.0907094,53.0110977 C31.7749729,52.6284037 31.4645593,52.1554993 31.4645593,51.6142367 C31.4645593,51.0729741 31.7749729,50.6009102 32.0907094,50.2179361 C32.4238157,49.8139502 32.7995057,49.4545092 33.1679117,49.0858231 L49.085571,33.1681638 Z" id="Fill-4"></path>
                <path d="M85.7928134,49.0859352 C86.1612194,49.4543412 86.5366293,49.8140623 86.8700157,50.217768 C87.1857522,50.6004619 87.4961657,51.0733663 87.4961657,51.6143488 C87.4961657,52.1556114 87.1857522,52.6282356 86.8700157,53.0109296 C86.5369094,53.4146353 86.1612194,53.7743564 85.7928134,54.1430425 L85.6073497,54.3285062 C85.2386636,54.6969122 84.8792227,55.0723221 84.475517,55.4057085 C84.0925428,55.721445 83.6199186,56.0318585 83.078656,56.0318585 C82.5373934,56.0318585 82.0650493,55.721445 81.6823553,55.4057085 C81.2783695,55.0726022 80.9189285,54.6969122 80.5502424,54.3285062 L64.6325831,38.4108469 C64.2638969,38.0421608 63.8884871,37.6827198 63.5553808,37.278734 C63.2396443,36.89604 62.9289506,36.4234158 62.9292308,35.881873 C62.9292308,35.3406104 63.2396443,34.8685465 63.5551007,34.4858525 C63.8882069,34.0815865 64.2638969,33.7221455 64.6325831,33.3537396 L64.8177666,33.1682759 C65.1864527,32.7995897 65.5458937,32.4241799 65.9495994,32.0910736 C66.3325735,31.7753371 66.8051978,31.4649236 67.3467405,31.4649236 C67.887723,31.4649236 68.3600671,31.7750569 68.7430412,32.0907935 C69.1467469,32.4238997 69.506468,32.7995897 69.8751541,33.1682759 L85.7928134,49.0859352 Z" id="Fill-6"></path>
                <path d="M17.6210397,1.70363247 C17.9894456,1.3352265 18.3491667,0.959536462 18.7528724,0.626430227 C19.1358466,0.310693704 19.6084708,0 20.1497334,0 C20.690996,0.000280156631 21.1633401,0.310693704 21.5460341,0.626430227 C21.9500199,0.959536462 22.309741,1.3352265 22.678147,1.70363247 L22.8636107,1.88909616 C23.2320167,2.25750213 23.6077067,2.61722325 23.9408129,3.02092895 C24.2565495,3.40362291 24.566963,3.87624715 24.566963,4.41778992 C24.566963,4.95905253 24.2568296,5.43139661 23.9410931,5.81409057 C23.6077067,6.21807643 23.2320167,6.57751739 22.8636107,6.94620351 L6.94595137,22.8638628 C6.5775454,23.232549 6.21782429,23.6079588 5.81411858,23.9410651 C5.43114447,24.2568016 4.95852023,24.5672151 4.41725762,24.5672151 C3.87599501,24.5672151 3.40365093,24.2568016 3.02095697,23.9410651 C2.61697111,23.608239 2.25724999,23.232549 1.88884402,22.8638628 L1.70338033,22.6783991 C1.33497436,22.3099932 0.959284321,21.9505522 0.626178086,21.5465664 C0.310441563,21.1638724 2.80156632e-05,20.690968 2.80156632e-05,20.1497054 C2.80156632e-05,19.6084428 0.310441563,19.1363789 0.62589793,18.7534047 C0.959284321,18.3494189 1.33497436,17.9899779 1.70338033,17.6212918 L17.6210397,1.70363247 Z" id="Fill-8" fill-opacity="0.4"></path>
                <path d="M22.8635827,49.0859352 C23.2319886,49.4543412 23.6076787,49.8140623 23.9407849,50.217768 C24.2565214,50.6004619 24.5672151,51.0733663 24.5672151,51.6143488 C24.566935,52.1556114 24.2568016,52.6282356 23.9410651,53.0109296 C23.6076787,53.4146353 23.2319886,53.7743564 22.8635827,54.1430425 L22.678119,54.3285062 C22.309713,54.6969122 21.9502721,55.0723221 21.5462862,55.4057085 C21.1635922,55.721445 20.690968,56.0318585 20.1494252,56.0318585 C19.6081626,56.0318585 19.1358185,55.721445 18.7531246,55.4057085 C18.3494189,55.0726022 17.9896978,54.6969122 17.6210116,54.3285062 L1.70335232,38.4108469 C1.33494635,38.0421608 0.959256305,37.6827198 0.626150071,37.278734 C0.310413547,36.89604 0,36.4234158 0,35.881873 C0,35.3406104 0.310413547,34.8685465 0.625869914,34.4858525 C0.959256305,34.0815865 1.33494635,33.7221455 1.70335232,33.3537396 L1.88881601,33.1682759 C2.25722198,32.7995897 2.61694309,32.4241799 3.0206488,32.0910736 C3.40362291,31.7753371 3.87624715,31.4649236 4.41750976,31.4649236 C4.95877237,31.4649236 5.43111645,31.7750569 5.81381041,32.0907935 C6.21751612,32.4238997 6.57751739,32.7995897 6.94592336,33.1682759 L22.8635827,49.0859352 Z" id="Fill-11" fill-opacity="0.4"></path>
                <path d="M54.328114,17.6212638 C54.69652,17.9896697 55.07221,18.3493909 55.4053163,18.7533767 C55.7210528,19.1360707 56.0317465,19.6086949 56.0317465,20.1499575 C56.0314663,20.6912201 55.7213329,21.1635642 55.4055964,21.5462582 C55.07221,21.950244 54.6968001,22.3099652 54.328114,22.6783711 L54.1426503,22.8638348 C53.7742443,23.2325209 53.4148034,23.6079308 53.0108175,23.9410371 C52.6281236,24.2567736 52.1554993,24.5671871 51.6139566,24.5671871 C51.0729741,24.5671871 50.6003499,24.2567736 50.2176559,23.9410371 C49.8139502,23.608211 49.4542291,23.2325209 49.085543,22.8638348 L33.1678836,6.9461755 C32.7994777,6.57776953 32.4237876,6.21804841 32.0909616,5.81434271 C31.7749449,5.43136859 31.4645313,4.95874436 31.4645313,4.41748175 C31.4645313,3.87621913 31.7749449,3.40387505 32.0906814,3.0211811 C32.4237876,2.61719523 32.7994777,2.25747412 33.1678836,1.88906815 L33.3533473,1.70360446 C33.7217533,1.33519849 34.0814744,0.959508446 34.4851801,0.626402212 C34.8681542,0.310665688 35.3407785,0.000252140968 35.8820411,0.000252140968 C36.4233037,0.000252140968 36.8956478,0.310665688 37.2783417,0.626402212 C37.6823276,0.959508446 38.0420487,1.33519849 38.4104547,1.70360446 L54.328114,17.6212638 Z" id="Fill-13"></path>
                <path d="M112.014802,33.1681638 C112.383208,32.7997578 112.742929,32.424348 113.146635,32.0909616 C113.529328,31.775225 114.002233,31.4648115 114.543215,31.4648115 C115.084478,31.4648115 115.557102,31.7749449 115.939796,32.0906814 C116.343502,32.4240678 116.703223,32.7997578 117.071909,33.1681638 L117.257373,33.3536275 C117.625779,33.7220335 118.001189,34.0817546 118.334575,34.4854603 C118.650312,34.8681542 118.960725,35.3410586 118.960725,35.8823212 C118.960725,36.4233037 118.650312,36.8959279 118.334575,37.2786219 C118.001469,37.6823276 117.625779,38.0420487 117.257373,38.4107348 L101.339713,54.3283942 C100.971027,54.6970803 100.611586,55.0724902 100.207601,55.4055964 C99.8249066,55.7213329 99.3522823,56.0317465 98.8107396,56.0317465 C98.2694769,56.0317465 97.797413,55.7213329 97.4147191,55.4055964 C97.010453,55.0727703 96.6510121,54.6970803 96.2826061,54.3283942 L96.0971424,54.1429305 C95.7284563,53.7745245 95.3530464,53.4150835 95.0199402,53.0110977 C94.7042037,52.6284037 94.3937901,52.1554993 94.3937901,51.6142367 C94.3937901,51.0729741 94.7039235,50.6009102 95.01966,50.2179361 C95.3527663,49.8139502 95.7284563,49.4545092 96.0971424,49.0858231 L112.014802,33.1681638 Z" id="Fill-15" fill-opacity="0.4"></path>
                <path d="M117.257345,17.6212638 C117.625751,17.9896697 118.001161,18.3493909 118.334547,18.7533767 C118.650284,19.1360707 118.960697,19.6086949 118.960697,20.1499575 C118.960697,20.6912201 118.650284,21.1635642 118.334547,21.5462582 C118.001441,21.950244 117.625751,22.3099652 117.257345,22.6783711 L117.071881,22.8638348 C116.703195,23.2325209 116.343754,23.6079308 115.940048,23.9410371 C115.557354,24.2567736 115.08445,24.5671871 114.543187,24.5671871 C114.001925,24.5671871 113.529581,24.2567736 113.146887,23.9410371 C112.742901,23.608211 112.38346,23.2325209 112.014774,22.8638348 L96.0971144,6.9461755 C95.7284283,6.57776953 95.3530184,6.21804841 95.0199122,5.81434271 C94.7041756,5.43136859 94.3937621,4.95874436 94.3937621,4.41748175 C94.3937621,3.87621913 94.7038955,3.40387505 95.019632,3.0211811 C95.3527382,2.61719523 95.7284283,2.25747412 96.0971144,1.88906815 L96.2825781,1.70360446 C96.6507039,1.33519849 97.010425,0.959508446 97.4144109,0.626402212 C97.7971048,0.310665688 98.2700092,0.000252140968 98.8109917,0.000252140968 C99.3522543,0.000252140968 99.8245984,0.310665688 100.207572,0.626402212 C100.611278,0.959508446 100.970999,1.33519849 101.339685,1.70360446 L117.257345,17.6212638 Z" id="Fill-17" fill-opacity="0.4"></path>
            </g>
            <g id="Group-Copy" transform="translate(50.007255, 77.500000)" fill="#2B4EEF">
                <path d="M80.5501303,1.70363247 C80.9185363,1.3352265 81.2782574,0.959536462 81.6822433,0.626430227 C82.0649372,0.310693704 82.5375615,0 83.0788241,0 C83.6200867,0.000280156631 84.0924308,0.310693704 84.4751247,0.626430227 C84.8791106,0.959536462 85.2388317,1.3352265 85.6072377,1.70363247 L85.7927014,1.88909616 C86.1613875,2.25750213 86.5367974,2.61722325 86.8699036,3.02092895 C87.1856401,3.40362291 87.4960537,3.87624715 87.4960537,4.41778992 C87.4960537,4.95905253 87.1856401,5.43139661 86.8699036,5.81409057 C86.5370775,6.21807643 86.1613875,6.57751739 85.7927014,6.94620351 L69.8750421,22.8638628 C69.5066361,23.232549 69.146915,23.6079588 68.7432093,23.9410651 C68.3602351,24.2568016 67.8876109,24.5672151 67.3463483,24.5672151 C66.8050857,24.5672151 66.3327416,24.2568016 65.9500476,23.9410651 C65.5460618,23.608239 65.1863407,23.232549 64.8179347,22.8638628 L64.632471,22.6783991 C64.264065,22.3099932 63.888375,21.9505522 63.5552688,21.5465664 C63.2395322,21.1638724 62.9291187,20.690968 62.9291187,20.1497054 C62.9291187,19.6084428 63.2395322,19.1360987 63.5552688,18.7534047 C63.888375,18.3494189 64.264065,17.9899779 64.632471,17.6212918 L80.5501303,1.70363247 Z" id="Fill-1"></path>
                <path d="M49.085571,33.1681638 C49.453977,32.7997578 49.8136981,32.424348 50.2174038,32.0909616 C50.6003779,31.775225 51.0730021,31.4648115 51.6142647,31.4648115 C52.1555273,31.4648115 52.6278714,31.7749449 53.0105654,32.0906814 C53.4145512,32.4240678 53.7742724,32.7997578 54.1426783,33.1681638 L54.328142,33.3536275 C54.696548,33.7220335 55.072238,34.0817546 55.4053443,34.4854603 C55.7210808,34.8681542 56.0314943,35.3410586 56.0314943,35.8823212 C56.0314943,36.4233037 55.7213609,36.8959279 55.4056244,37.2786219 C55.072238,37.6823276 54.6968281,38.0420487 54.328142,38.4107348 L38.4104827,54.3283942 C38.0420767,54.6970803 37.6823556,55.0724902 37.2786499,55.4055964 C36.8956758,55.7213329 36.4230516,56.0317465 35.881789,56.0317465 C35.3405263,56.0317465 34.8681823,55.7213329 34.4854883,55.4055964 C34.0815024,55.0727703 33.7217813,54.6970803 33.3533754,54.3283942 L33.1679117,54.1429305 C32.7995057,53.7745245 32.4238157,53.4150835 32.0907094,53.0110977 C31.7749729,52.6284037 31.4645593,52.1554993 31.4645593,51.6142367 C31.4645593,51.0729741 31.7749729,50.6009102 32.0907094,50.2179361 C32.4238157,49.8139502 32.7995057,49.4545092 33.1679117,49.0858231 L49.085571,33.1681638 Z" id="Fill-4"></path>
                <path d="M85.7928134,49.0859352 C86.1612194,49.4543412 86.5366293,49.8140623 86.8700157,50.217768 C87.1857522,50.6004619 87.4961657,51.0733663 87.4961657,51.6143488 C87.4961657,52.1556114 87.1857522,52.6282356 86.8700157,53.0109296 C86.5369094,53.4146353 86.1612194,53.7743564 85.7928134,54.1430425 L85.6073497,54.3285062 C85.2386636,54.6969122 84.8792227,55.0723221 84.475517,55.4057085 C84.0925428,55.721445 83.6199186,56.0318585 83.078656,56.0318585 C82.5373934,56.0318585 82.0650493,55.721445 81.6823553,55.4057085 C81.2783695,55.0726022 80.9189285,54.6969122 80.5502424,54.3285062 L64.6325831,38.4108469 C64.2638969,38.0421608 63.8884871,37.6827198 63.5553808,37.278734 C63.2396443,36.89604 62.9289506,36.4234158 62.9292308,35.881873 C62.9292308,35.3406104 63.2396443,34.8685465 63.5551007,34.4858525 C63.8882069,34.0815865 64.2638969,33.7221455 64.6325831,33.3537396 L64.8177666,33.1682759 C65.1864527,32.7995897 65.5458937,32.4241799 65.9495994,32.0910736 C66.3325735,31.7753371 66.8051978,31.4649236 67.3467405,31.4649236 C67.887723,31.4649236 68.3600671,31.7750569 68.7430412,32.0907935 C69.1467469,32.4238997 69.506468,32.7995897 69.8751541,33.1682759 L85.7928134,49.0859352 Z" id="Fill-6"></path>
                <path d="M17.6210397,1.70363247 C17.9894456,1.3352265 18.3491667,0.959536462 18.7528724,0.626430227 C19.1358466,0.310693704 19.6084708,0 20.1497334,0 C20.690996,0.000280156631 21.1633401,0.310693704 21.5460341,0.626430227 C21.9500199,0.959536462 22.309741,1.3352265 22.678147,1.70363247 L22.8636107,1.88909616 C23.2320167,2.25750213 23.6077067,2.61722325 23.9408129,3.02092895 C24.2565495,3.40362291 24.566963,3.87624715 24.566963,4.41778992 C24.566963,4.95905253 24.2568296,5.43139661 23.9410931,5.81409057 C23.6077067,6.21807643 23.2320167,6.57751739 22.8636107,6.94620351 L6.94595137,22.8638628 C6.5775454,23.232549 6.21782429,23.6079588 5.81411858,23.9410651 C5.43114447,24.2568016 4.95852023,24.5672151 4.41725762,24.5672151 C3.87599501,24.5672151 3.40365093,24.2568016 3.02095697,23.9410651 C2.61697111,23.608239 2.25724999,23.232549 1.88884402,22.8638628 L1.70338033,22.6783991 C1.33497436,22.3099932 0.959284321,21.9505522 0.626178086,21.5465664 C0.310441563,21.1638724 2.80156632e-05,20.690968 2.80156632e-05,20.1497054 C2.80156632e-05,19.6084428 0.310441563,19.1363789 0.62589793,18.7534047 C0.959284321,18.3494189 1.33497436,17.9899779 1.70338033,17.6212918 L17.6210397,1.70363247 Z" id="Fill-8" fill-opacity="0.4"></path>
                <path d="M22.8635827,49.0859352 C23.2319886,49.4543412 23.6076787,49.8140623 23.9407849,50.217768 C24.2565214,50.6004619 24.5672151,51.0733663 24.5672151,51.6143488 C24.566935,52.1556114 24.2568016,52.6282356 23.9410651,53.0109296 C23.6076787,53.4146353 23.2319886,53.7743564 22.8635827,54.1430425 L22.678119,54.3285062 C22.309713,54.6969122 21.9502721,55.0723221 21.5462862,55.4057085 C21.1635922,55.721445 20.690968,56.0318585 20.1494252,56.0318585 C19.6081626,56.0318585 19.1358185,55.721445 18.7531246,55.4057085 C18.3494189,55.0726022 17.9896978,54.6969122 17.6210116,54.3285062 L1.70335232,38.4108469 C1.33494635,38.0421608 0.959256305,37.6827198 0.626150071,37.278734 C0.310413547,36.89604 0,36.4234158 0,35.881873 C0,35.3406104 0.310413547,34.8685465 0.625869914,34.4858525 C0.959256305,34.0815865 1.33494635,33.7221455 1.70335232,33.3537396 L1.88881601,33.1682759 C2.25722198,32.7995897 2.61694309,32.4241799 3.0206488,32.0910736 C3.40362291,31.7753371 3.87624715,31.4649236 4.41750976,31.4649236 C4.95877237,31.4649236 5.43111645,31.7750569 5.81381041,32.0907935 C6.21751612,32.4238997 6.57751739,32.7995897 6.94592336,33.1682759 L22.8635827,49.0859352 Z" id="Fill-11" fill-opacity="0.4"></path>
                <path d="M54.328114,17.6212638 C54.69652,17.9896697 55.07221,18.3493909 55.4053163,18.7533767 C55.7210528,19.1360707 56.0317465,19.6086949 56.0317465,20.1499575 C56.0314663,20.6912201 55.7213329,21.1635642 55.4055964,21.5462582 C55.07221,21.950244 54.6968001,22.3099652 54.328114,22.6783711 L54.1426503,22.8638348 C53.7742443,23.2325209 53.4148034,23.6079308 53.0108175,23.9410371 C52.6281236,24.2567736 52.1554993,24.5671871 51.6139566,24.5671871 C51.0729741,24.5671871 50.6003499,24.2567736 50.2176559,23.9410371 C49.8139502,23.608211 49.4542291,23.2325209 49.085543,22.8638348 L33.1678836,6.9461755 C32.7994777,6.57776953 32.4237876,6.21804841 32.0909616,5.81434271 C31.7749449,5.43136859 31.4645313,4.95874436 31.4645313,4.41748175 C31.4645313,3.87621913 31.7749449,3.40387505 32.0906814,3.0211811 C32.4237876,2.61719523 32.7994777,2.25747412 33.1678836,1.88906815 L33.3533473,1.70360446 C33.7217533,1.33519849 34.0814744,0.959508446 34.4851801,0.626402212 C34.8681542,0.310665688 35.3407785,0.000252140968 35.8820411,0.000252140968 C36.4233037,0.000252140968 36.8956478,0.310665688 37.2783417,0.626402212 C37.6823276,0.959508446 38.0420487,1.33519849 38.4104547,1.70360446 L54.328114,17.6212638 Z" id="Fill-13"></path>
                <path d="M112.014802,33.1681638 C112.383208,32.7997578 112.742929,32.424348 113.146635,32.0909616 C113.529328,31.775225 114.002233,31.4648115 114.543215,31.4648115 C115.084478,31.4648115 115.557102,31.7749449 115.939796,32.0906814 C116.343502,32.4240678 116.703223,32.7997578 117.071909,33.1681638 L117.257373,33.3536275 C117.625779,33.7220335 118.001189,34.0817546 118.334575,34.4854603 C118.650312,34.8681542 118.960725,35.3410586 118.960725,35.8823212 C118.960725,36.4233037 118.650312,36.8959279 118.334575,37.2786219 C118.001469,37.6823276 117.625779,38.0420487 117.257373,38.4107348 L101.339713,54.3283942 C100.971027,54.6970803 100.611586,55.0724902 100.207601,55.4055964 C99.8249066,55.7213329 99.3522823,56.0317465 98.8107396,56.0317465 C98.2694769,56.0317465 97.797413,55.7213329 97.4147191,55.4055964 C97.010453,55.0727703 96.6510121,54.6970803 96.2826061,54.3283942 L96.0971424,54.1429305 C95.7284563,53.7745245 95.3530464,53.4150835 95.0199402,53.0110977 C94.7042037,52.6284037 94.3937901,52.1554993 94.3937901,51.6142367 C94.3937901,51.0729741 94.7039235,50.6009102 95.01966,50.2179361 C95.3527663,49.8139502 95.7284563,49.4545092 96.0971424,49.0858231 L112.014802,33.1681638 Z" id="Fill-15" fill-opacity="0.4"></path>
                <path d="M117.257345,17.6212638 C117.625751,17.9896697 118.001161,18.3493909 118.334547,18.7533767 C118.650284,19.1360707 118.960697,19.6086949 118.960697,20.1499575 C118.960697,20.6912201 118.650284,21.1635642 118.334547,21.5462582 C118.001441,21.950244 117.625751,22.3099652 117.257345,22.6783711 L117.071881,22.8638348 C116.703195,23.2325209 116.343754,23.6079308 115.940048,23.9410371 C115.557354,24.2567736 115.08445,24.5671871 114.543187,24.5671871 C114.001925,24.5671871 113.529581,24.2567736 113.146887,23.9410371 C112.742901,23.608211 112.38346,23.2325209 112.014774,22.8638348 L96.0971144,6.9461755 C95.7284283,6.57776953 95.3530184,6.21804841 95.0199122,5.81434271 C94.7041756,5.43136859 94.3937621,4.95874436 94.3937621,4.41748175 C94.3937621,3.87621913 94.7038955,3.40387505 95.019632,3.0211811 C95.3527382,2.61719523 95.7284283,2.25747412 96.0971144,1.88906815 L96.2825781,1.70360446 C96.6507039,1.33519849 97.010425,0.959508446 97.4144109,0.626402212 C97.7971048,0.310665688 98.2700092,0.000252140968 98.8109917,0.000252140968 C99.3522543,0.000252140968 99.8245984,0.310665688 100.207572,0.626402212 C100.611278,0.959508446 100.970999,1.33519849 101.339685,1.70360446 L117.257345,17.6212638 Z" id="Fill-17" fill-opacity="0.4"></path>
            </g>
        </g>
        <g id="Group-5" transform="translate(414.000000, 109.757646)">
            <mask id="mask-2" fill="white">
                <use xlink:href="#path-1"></use>
            </mask>
            <g id="Clip-2"></g>
            <path d="M51.28509,25.64248 C51.28509,39.80442 39.8046,51.2850855 25.64248,51.2850855 C11.48054,51.2850855 5.546307e-05,39.80442 5.546307e-05,25.64248 C5.546307e-05,11.48054 11.48054,-0.00013 25.64248,-0.00013 C39.8046,-0.00013 51.28509,11.48054 51.28509,25.64248" id="Fill-1" fill="#F4374E" mask="url(#mask-2)"></path>
            <path d="M14.74587,14.7458 L36.539159,36.539089" id="Stroke-3" stroke="#FFFFFF" stroke-width="6" mask="url(#mask-2)"></path>
            <path d="M36.53923,14.7458 L14.745941,36.539089" id="Stroke-4" stroke="#FFFFFF" stroke-width="6" mask="url(#mask-2)"></path>
        </g>
        <g id="Group-4" transform="translate(414.000000, 343.128906)">
            <mask id="mask-4" fill="white">
                <use xlink:href="#path-3"></use>
            </mask>
            <g id="Clip-2"></g>
            <path d="M51.28509,25.64248 C51.28509,39.80442 39.8046,51.2850855 25.64248,51.2850855 C11.48054,51.2850855 5.546307e-05,39.80442 5.546307e-05,25.64248 C5.546307e-05,11.48054 11.48054,-0.00013 25.64248,-0.00013 C39.8046,-0.00013 51.28509,11.48054 51.28509,25.64248" id="Fill-1" fill="#70D670" mask="url(#mask-4)"></path>
            <polyline id="Stroke-3" stroke="#FFFFFF" stroke-width="6" mask="url(#mask-4)" points="40.18475 16.35323 21.2618598 35.2761202 11.1002858 25.1145463"></polyline>
        </g>
    </g>
</svg>