<?xml version="1.0" encoding="utf-8"?>
<!-- Generator: Adobe Illustrator 21.1.0, SVG Export Plug-In . SVG Version: 6.00 Build 0)  -->
<svg version="1.1" id="图层_1" xmlns="http://www.w3.org/2000/svg" xmlns:xlink="http://www.w3.org/1999/xlink" x="0px" y="0px"
	 viewBox="0 0 880 442" style="enable-background:new 0 0 880 442;" xml:space="preserve">
<style type="text/css">
	.st0{fill:none;stroke:#CCCCCC;stroke-miterlimit:10;}
	.st1{fill:none;stroke:#CCCCCC;stroke-miterlimit:10;stroke-dasharray:3.0015,3.0015;}
	.st2{fill:none;stroke:#CCCCCC;stroke-miterlimit:10;stroke-dasharray:3,3;}
	.st3{fill:#B3B3B3;}
	.st4{opacity:0.4;fill:#B3B3B3;}
	.st5{opacity:0.5;fill:#2B4EEF;}
	.st6{fill:#FFFFFF;}
	.st7{font-family:'KentosR1-SemiBold';}
	.st8{font-size:14px;}
</style>
<g>
	<g>
		<g>
			<line class="st0" x1="632" y1="18" x2="630.9" y2="19.1"/>
			<line class="st1" x1="628.8" y1="21.2" x2="235.1" y2="414.9"/>
			<line class="st0" x1="234.1" y1="415.9" x2="233" y2="417"/>
		</g>
	</g>
	<g>
		<g>
			<line class="st0" x1="669" y1="18" x2="667.9" y2="19.1"/>
			<line class="st1" x1="665.8" y1="21.2" x2="272.1" y2="414.9"/>
			<line class="st0" x1="271.1" y1="415.9" x2="270" y2="417"/>
		</g>
	</g>
	<g>
		<g>
			<line class="st0" x1="270" y1="18" x2="271.1" y2="19.1"/>
			<line class="st1" x1="273.2" y1="21.2" x2="666.9" y2="414.9"/>
			<line class="st0" x1="667.9" y1="415.9" x2="669" y2="417"/>
		</g>
	</g>
	<g>
		<g>
			<line class="st0" x1="233" y1="18" x2="234.1" y2="19.1"/>
			<line class="st1" x1="236.2" y1="21.2" x2="629.9" y2="414.9"/>
			<line class="st0" x1="630.9" y1="415.9" x2="632" y2="417"/>
		</g>
	</g>
	<g>
		<line class="st2" x1="739.5" y1="135.5" x2="676" y2="199"/>
		<line class="st2" x1="458" y1="417" x2="657.5" y2="217.5"/>
		<line class="st2" x1="676" y1="199" x2="657.5" y2="217.5"/>
		<line class="st2" x1="694.5" y1="217.5" x2="676" y2="236"/>
		<line class="st2" x1="495" y1="417" x2="676" y2="236"/>
		<line class="st2" x1="739.5" y1="172.5" x2="694.5" y2="217.5"/>
		<line class="st2" x1="495" y1="18" x2="676" y2="199"/>
		<line class="st2" x1="739.5" y1="262.5" x2="694.5" y2="217.5"/>
		<line class="st2" x1="676" y1="199" x2="694.5" y2="217.5"/>
		<line class="st2" x1="657.5" y1="217.5" x2="676" y2="236"/>
		<line class="st2" x1="676" y1="236" x2="739.5" y2="299.5"/>
		<line class="st2" x1="657.5" y1="217.5" x2="458" y2="18"/>
	</g>
	<g>
		<line class="st2" x1="225.5" y1="199.5" x2="207" y2="218"/>
		<line class="st2" x1="139.5" y1="285.5" x2="207" y2="218"/>
		<line class="st2" x1="407" y1="18" x2="225.5" y2="199.5"/>
		<line class="st2" x1="444" y1="18" x2="244" y2="218"/>
		<line class="st2" x1="225.5" y1="236.5" x2="244" y2="218"/>
		<line class="st2" x1="225.5" y1="236.5" x2="139.5" y2="322.5"/>
		<line class="st2" x1="443" y1="417" x2="244" y2="218"/>
		<line class="st2" x1="225.5" y1="199.5" x2="244" y2="218"/>
		<line class="st2" x1="139.5" y1="113.5" x2="225.5" y2="199.5"/>
		<line class="st2" x1="139.5" y1="150.5" x2="207" y2="218"/>
		<line class="st2" x1="207" y1="218" x2="225.5" y2="236.5"/>
		<line class="st2" x1="225.5" y1="236.5" x2="406" y2="417"/>
	</g>
</g>
<g>
	<path class="st3" d="M525.9,124.1c1.3-1.3,2.6-2.7,4-3.8c1.4-1.1,3.1-2.2,5-2.2c1.9,0,3.6,1.1,5,2.2c1.4,1.2,2.7,2.5,4,3.8l0.7,0.7
		c1.3,1.3,2.7,2.6,3.8,4c1.1,1.4,2.2,3.1,2.2,5c0,1.9-1.1,3.6-2.2,5c-1.2,1.4-2.5,2.7-3.8,4l-56.8,56.8c-1.3,1.3-2.6,2.7-4,3.8
		c-1.4,1.1-3.1,2.2-5,2.2c-1.9,0-3.6-1.1-5-2.2c-1.4-1.2-2.7-2.5-4-3.8l-0.7-0.7c-1.3-1.3-2.7-2.6-3.8-4c-1.1-1.4-2.2-3.1-2.2-5
		c0-1.9,1.1-3.6,2.2-5c1.2-1.4,2.5-2.7,3.8-4L525.9,124.1z"/>
	<path class="st3" d="M413.6,236.4c1.3-1.3,2.6-2.7,4-3.8c1.4-1.1,3.1-2.2,5-2.2c1.9,0,3.6,1.1,5,2.2c1.4,1.2,2.7,2.5,4,3.8l0.7,0.7
		c1.3,1.3,2.7,2.6,3.8,4c1.1,1.4,2.2,3.1,2.2,5c0,1.9-1.1,3.6-2.2,5c-1.2,1.4-2.5,2.7-3.8,4l-56.8,56.8c-1.3,1.3-2.6,2.7-4,3.8
		c-1.4,1.1-3.1,2.2-5,2.2c-1.9,0-3.6-1.1-5-2.2c-1.4-1.2-2.7-2.5-4-3.8l-0.7-0.7c-1.3-1.3-2.7-2.6-3.8-4c-1.1-1.4-2.2-3.1-2.2-5
		c0-1.9,1.1-3.6,2.2-5c1.2-1.4,2.5-2.7,3.8-4L413.6,236.4z"/>
	<path class="st3" d="M544.6,293.2c1.3,1.3,2.7,2.6,3.8,4c1.1,1.4,2.2,3.1,2.2,5c0,1.9-1.1,3.6-2.2,5c-1.2,1.4-2.5,2.7-3.8,4
		l-0.7,0.7c-1.3,1.3-2.6,2.7-4,3.8c-1.4,1.1-3.1,2.2-5,2.2c-1.9,0-3.6-1.1-5-2.2c-1.4-1.2-2.7-2.5-4-3.8l-56.8-56.8
		c-1.3-1.3-2.7-2.6-3.8-4c-1.1-1.4-2.2-3.1-2.2-5c0-1.9,1.1-3.6,2.2-5c1.2-1.4,2.5-2.7,3.8-4l0.7-0.7c1.3-1.3,2.6-2.7,4-3.8
		c1.4-1.1,3.1-2.2,5-2.2c1.9,0,3.6,1.1,5,2.2c1.4,1.2,2.7,2.5,4,3.8L544.6,293.2z"/>
	<path class="st4" d="M301.3,124.1c1.3-1.3,2.6-2.7,4-3.8c1.4-1.1,3.1-2.2,5-2.2c1.9,0,3.6,1.1,5,2.2c1.4,1.2,2.7,2.5,4,3.8l0.7,0.7
		c1.3,1.3,2.7,2.6,3.8,4c1.1,1.4,2.2,3.1,2.2,5c0,1.9-1.1,3.6-2.2,5c-1.2,1.4-2.5,2.7-3.8,4l-56.8,56.8c-1.3,1.3-2.6,2.7-4,3.8
		c-1.4,1.1-3.1,2.2-5,2.2c-1.9,0-3.6-1.1-5-2.2c-1.4-1.2-2.7-2.5-4-3.8l-0.7-0.7c-1.3-1.3-2.7-2.6-3.8-4c-1.1-1.4-2.2-3.1-2.2-5
		c0-1.9,1.1-3.6,2.2-5c1.2-1.4,2.5-2.7,3.8-4L301.3,124.1z"/>
	<path class="st4" d="M320,293.2c1.3,1.3,2.7,2.6,3.8,4c1.1,1.4,2.2,3.1,2.2,5c0,1.9-1.1,3.6-2.2,5c-1.2,1.4-2.5,2.7-3.8,4l-0.7,0.7
		c-1.3,1.3-2.6,2.7-4,3.8c-1.4,1.1-3.1,2.2-5,2.2c-1.9,0-3.6-1.1-5-2.2c-1.4-1.2-2.7-2.5-4-3.8l-56.8-56.8c-1.3-1.3-2.7-2.6-3.8-4
		c-1.1-1.4-2.2-3.1-2.2-5c0-1.9,1.1-3.6,2.2-5c1.2-1.4,2.5-2.7,3.8-4l0.7-0.7c1.3-1.3,2.6-2.7,4-3.8c1.4-1.1,3.1-2.2,5-2.2
		c1.9,0,3.6,1.1,5,2.2c1.4,1.2,2.7,2.5,4,3.8L320,293.2z"/>
	<path class="st3" d="M432.3,180.9c1.3,1.3,2.7,2.6,3.8,4c1.1,1.4,2.2,3.1,2.2,5c0,1.9-1.1,3.6-2.2,5c-1.2,1.4-2.5,2.7-3.8,4
		l-0.7,0.7c-1.3,1.3-2.6,2.7-4,3.8c-1.4,1.1-3.1,2.2-5,2.2c-1.9,0-3.6-1.1-5-2.2c-1.4-1.2-2.7-2.5-4-3.8l-56.8-56.8
		c-1.3-1.3-2.7-2.6-3.8-4c-1.1-1.4-2.2-3.1-2.2-5c0-1.9,1.1-3.6,2.2-5c1.2-1.4,2.5-2.7,3.8-4l0.7-0.7c1.3-1.3,2.6-2.7,4-3.8
		c1.4-1.1,3.1-2.2,5-2.2c1.9,0,3.6,1.1,5,2.2c1.4,1.2,2.7,2.5,4,3.8L432.3,180.9z"/>
	<path class="st4" d="M638.2,236.4c1.3-1.3,2.6-2.7,4-3.8c1.4-1.1,3.1-2.2,5-2.2c1.9,0,3.6,1.1,5,2.2c1.4,1.2,2.7,2.5,4,3.8l0.7,0.7
		c1.3,1.3,2.7,2.6,3.8,4c1.1,1.4,2.2,3.1,2.2,5c0,1.9-1.1,3.6-2.2,5c-1.2,1.4-2.5,2.7-3.8,4l-56.8,56.8c-1.3,1.3-2.6,2.7-4,3.8
		c-1.4,1.1-3.1,2.2-5,2.2c-1.9,0-3.6-1.1-5-2.2c-1.4-1.2-2.7-2.5-4-3.8l-0.7-0.7c-1.3-1.3-2.7-2.6-3.8-4c-1.1-1.4-2.2-3.1-2.2-5
		c0-1.9,1.1-3.6,2.2-5c1.2-1.4,2.5-2.7,3.8-4L638.2,236.4z"/>
	<path class="st4" d="M656.9,180.9c1.3,1.3,2.7,2.6,3.8,4c1.1,1.4,2.2,3.1,2.2,5c0,1.9-1.1,3.6-2.2,5c-1.2,1.4-2.5,2.7-3.8,4
		l-0.7,0.7c-1.3,1.3-2.6,2.7-4,3.8c-1.4,1.1-3.1,2.2-5,2.2c-1.9,0-3.6-1.1-5-2.2c-1.4-1.2-2.7-2.5-4-3.8l-56.8-56.8
		c-1.3-1.3-2.7-2.6-3.8-4c-1.1-1.4-2.2-3.1-2.2-5c0-1.9,1.1-3.6,2.2-5c1.2-1.4,2.5-2.7,3.8-4l0.7-0.7c1.3-1.3,2.6-2.7,4-3.8
		c1.4-1.1,3.1-2.2,5-2.2c1.9,0,3.6,1.1,5,2.2c1.4,1.2,2.7,2.5,4,3.8L656.9,180.9z"/>
</g>
<rect x="325.7" y="92.2" transform="matrix(0.7071 -0.7071 0.7071 0.7071 24.8981 270.1094)" class="st5" width="25.7" height="25.7"/>
<g>
	
		<rect x="550.7" y="92.2" transform="matrix(0.7071 -0.7071 0.7071 0.7071 90.7991 429.2085)" class="st5" width="25.7" height="25.7"/>
</g>
<rect x="325.7" y="317.7" transform="matrix(0.7071 -0.7071 0.7071 0.7071 -134.5544 336.1569)" class="st5" width="25.7" height="25.7"/>
<g>
	
		<rect x="550.7" y="317.7" transform="matrix(0.7071 -0.7071 0.7071 0.7071 -68.6535 495.2559)" class="st5" width="25.7" height="25.7"/>
</g>
<rect x="438.2" y="204.6" transform="matrix(0.7071 -0.7071 0.7071 0.7071 -21.6302 382.5801)" class="st5" width="25.7" height="25.7"/>
<rect x="213.2" y="204.6" transform="matrix(0.7071 -0.7071 0.7071 0.7071 -87.5311 223.4811)" class="st5" width="25.7" height="25.7"/>
<rect x="663.2" y="204.6" transform="matrix(0.7071 -0.7071 0.7071 0.7071 44.2708 541.6792)" class="st5" width="25.7" height="25.7"/>
<text transform="matrix(1 0 0 1 223.4312 221.3335)" class="st6 st7 st8">1</text>
<text transform="matrix(1 0 0 1 446.5059 221.3335)" class="st6 st7 st8">4</text>
<text transform="matrix(1 0 0 1 672.1709 221.3335)" class="st6 st7 st8">7</text>
<text transform="matrix(1 0 0 1 334.8003 108.3335)" class="st6 st7 st8">2</text>
<text transform="matrix(1 0 0 1 334.8281 335.3335)" class="st6 st7 st8">3</text>
<text transform="matrix(1 0 0 1 559.8418 108.3335)" class="st6 st7 st8">5</text>
<text transform="matrix(1 0 0 1 559.8003 335.3335)" class="st6 st7 st8">6</text>
</svg>
