<?xml version="1.0" encoding="utf-8"?>
<!-- Generator: Adobe Illustrator 21.1.0, SVG Export Plug-In . SVG Version: 6.00 Build 0)  -->
<svg version="1.1" id="图层_1" xmlns="http://www.w3.org/2000/svg" xmlns:xlink="http://www.w3.org/1999/xlink" x="0px" y="0px"
	 viewBox="0 0 880 442" style="enable-background:new 0 0 880 442;" xml:space="preserve">
<style type="text/css">
	.st0{fill:none;stroke:#C1C1C1;stroke-width:0.75;stroke-miterlimit:10;}
	.st1{fill:none;stroke:#C1C1C1;stroke-width:0.75;stroke-miterlimit:10;stroke-dasharray:3,3;}
	.st2{fill:none;stroke:#727272;stroke-width:0.75;stroke-miterlimit:10;}
	.st3{opacity:0.69;}
	.st4{font-family:'KentosR1-Regular';}
	.st5{font-size:14px;}
	.st6{fill:#2B4EEF;}
	.st7{opacity:0.4;fill:#2B4EEF;enable-background:new    ;}
	.st8{fill:none;stroke:#C1C1C1;stroke-width:0.5;stroke-miterlimit:10;}
</style>
<g>
	<line class="st0" x1="83.9" y1="72.6" x2="83.9" y2="372.6"/>
	<line class="st0" x1="383.9" y1="72.6" x2="383.9" y2="372.6"/>
	<line class="st0" x1="93.9" y1="72.6" x2="93.9" y2="232.6"/>
	<line class="st0" x1="103.9" y1="72.6" x2="103.9" y2="232.6"/>
	<line class="st0" x1="113.9" y1="72.6" x2="113.9" y2="232.6"/>
	<line class="st0" x1="123.9" y1="72.6" x2="123.9" y2="232.6"/>
	<line class="st0" x1="133.9" y1="72.6" x2="133.9" y2="232.6"/>
	<line class="st0" x1="143.9" y1="72.6" x2="143.9" y2="232.6"/>
	<line class="st0" x1="153.9" y1="72.6" x2="153.9" y2="232.6"/>
	<line class="st0" x1="163.9" y1="72.6" x2="163.9" y2="232.6"/>
	<line class="st0" x1="173.9" y1="72.6" x2="173.9" y2="232.6"/>
	<line class="st0" x1="183.9" y1="72.6" x2="183.9" y2="232.6"/>
	<line class="st0" x1="193.9" y1="72.6" x2="193.9" y2="232.6"/>
	<line class="st0" x1="203.9" y1="72.6" x2="203.9" y2="232.6"/>
	<line class="st0" x1="213.9" y1="72.6" x2="213.9" y2="232.6"/>
	<line class="st0" x1="223.9" y1="72.6" x2="223.9" y2="232.6"/>
	<line class="st0" x1="233.9" y1="72.6" x2="233.9" y2="232.6"/>
	<line class="st0" x1="243.9" y1="72.6" x2="243.9" y2="372.6"/>
	<line class="st0" x1="383.9" y1="72.6" x2="83.9" y2="72.6"/>
	<line class="st0" x1="383.9" y1="372.6" x2="83.9" y2="372.6"/>
	<line class="st0" x1="243.9" y1="82.6" x2="83.9" y2="82.6"/>
	<line class="st0" x1="243.9" y1="92.6" x2="83.9" y2="92.6"/>
	<line class="st0" x1="243.9" y1="102.6" x2="83.9" y2="102.6"/>
	<line class="st0" x1="243.9" y1="112.6" x2="83.9" y2="112.6"/>
	<line class="st0" x1="243.9" y1="122.6" x2="83.9" y2="122.6"/>
	<line class="st0" x1="243.9" y1="132.6" x2="83.9" y2="132.6"/>
	<line class="st0" x1="243.9" y1="142.6" x2="83.9" y2="142.6"/>
	<line class="st0" x1="243.9" y1="152.6" x2="83.9" y2="152.6"/>
	<line class="st0" x1="243.9" y1="162.6" x2="83.9" y2="162.6"/>
	<line class="st0" x1="243.9" y1="172.6" x2="83.9" y2="172.6"/>
	<line class="st0" x1="243.9" y1="182.6" x2="83.9" y2="182.6"/>
	<line class="st0" x1="243.9" y1="192.6" x2="83.9" y2="192.6"/>
	<line class="st0" x1="243.9" y1="202.6" x2="83.9" y2="202.6"/>
	<line class="st0" x1="243.9" y1="212.6" x2="83.9" y2="212.6"/>
	<line class="st0" x1="243.9" y1="222.6" x2="83.9" y2="222.6"/>
	<line class="st0" x1="383.9" y1="232.6" x2="83.9" y2="232.6"/>
	<line class="st1" x1="83.9" y1="72.6" x2="383.9" y2="372.6"/>
	<g>
		<line class="st2" x1="83.9" y1="62.6" x2="243.9" y2="62.6"/>
		<line class="st2" x1="83.9" y1="57.6" x2="83.9" y2="67.6"/>
		<line class="st2" x1="243.9" y1="57.6" x2="243.9" y2="67.6"/>
	</g>
	<g>
		<line class="st2" x1="73.2" y1="72.6" x2="73.2" y2="232.6"/>
		<line class="st2" x1="78.2" y1="72.6" x2="68.2" y2="72.6"/>
		<line class="st2" x1="78.2" y1="232.6" x2="68.2" y2="232.6"/>
	</g>
</g>
<text transform="matrix(1 0 0 1 149.2878 52.5658)" class="st3 st4 st5">16px</text>
<g class="st3">
	<path d="M392.1,388.7c0.6,0,0.7-0.3,0.8-1.9c0.2,0.2,0.6,0.3,0.9,0.4c-0.1,1.9-0.4,2.4-1.5,2.4h-2.2c-1.2,0-1.6-0.3-1.6-1.4v-4.1
		h-0.3c-0.5,2.3-1.7,4.5-4.8,5.8c-0.1-0.2-0.4-0.6-0.6-0.7c2.8-1.1,4-3,4.5-5h-4.3v-0.9h4.5c0.1-0.9,0.2-1.8,0.2-2.7h-3.9v-0.9h9.3
		v0.9h-4.4c0,0.9-0.1,1.8-0.2,2.7h5.3v0.9h-4.3v4.1c0,0.4,0.1,0.5,0.7,0.5H392.1z"/>
	<path d="M398.9,379.7c-0.4,1-0.8,2.1-1.2,3.1c0.9,1,1.1,1.9,1.1,2.6c0,0.6-0.1,1.2-0.5,1.4c-0.2,0.1-0.4,0.2-0.6,0.2
		c-0.2,0-0.5,0-0.8,0c0-0.2-0.1-0.6-0.2-0.8c0.3,0,0.5,0,0.7,0c0.1,0,0.3,0,0.4-0.1c0.2-0.1,0.3-0.5,0.3-0.8c0-0.6-0.2-1.5-1.1-2.4
		c0.3-0.9,0.7-1.9,0.9-2.7h-1.7v9.6h-0.8v-10.4h2.9l0.1,0L398.9,379.7z M405.5,385.6c-0.6,0.5-1.4,1-2.1,1.4
		c0.6,0.9,1.4,1.5,2.3,1.9c-0.2,0.2-0.5,0.5-0.6,0.8c-1.9-0.9-3-2.7-3.6-5.1h-1.2v3.9l2.1-0.5c0,0.3,0,0.6,0,0.8
		c-2.5,0.7-2.8,0.8-3.1,0.9c-0.1-0.2-0.3-0.6-0.4-0.7c0.2-0.1,0.4-0.3,0.4-0.8v-8.9h5.2v5.2h-2.4c0.2,0.6,0.4,1.3,0.7,1.8
		c0.6-0.4,1.4-1,1.9-1.4L405.5,385.6z M400.4,380.2v1.4h3.5v-1.4H400.4z M400.4,383.8h3.5v-1.5h-3.5V383.8z"/>
	<path d="M412.9,383.2c0.8,2.6,2.4,4.8,4.7,5.8c-0.2,0.2-0.5,0.6-0.7,0.8c-2.3-1.1-3.8-3.2-4.8-5.9c-0.6,2.3-1.9,4.6-4.8,5.9
		c-0.1-0.2-0.4-0.6-0.7-0.7c3-1.3,4.2-3.6,4.7-5.9H407v-0.9h4.6c0.2-1.3,0.2-2.5,0.2-3.4h1c0,1,0,2.1-0.2,3.4h5v0.9H412.9z"/>
</g>
<text transform="matrix(1 0 0 1 35.2878 152.5638)" class="st3 st4 st5">16px</text>
<g>
	<path class="st6" d="M192.2,117.5c0.5-0.5,1-1,1.5-1.4c0.5-0.4,1.2-0.8,1.9-0.8s1.4,0.4,1.9,0.8c0.5,0.5,1,0.9,1.5,1.4l0.3,0.3
		c0.5,0.5,1,1,1.4,1.5s0.8,1.2,0.8,1.9s-0.4,1.4-0.8,1.9c-0.5,0.5-0.9,1-1.4,1.5L177.9,146c-0.5,0.5-1,1-1.5,1.4s-1.2,0.8-1.9,0.8
		c-0.7,0-1.4-0.4-1.9-0.8c-0.5-0.5-1-0.9-1.5-1.4l-0.3-0.3c-0.5-0.5-1-1-1.4-1.5c-0.4-0.5-0.8-1.2-0.8-1.9s0.4-1.4,0.8-1.9
		c0.5-0.5,0.9-1,1.4-1.5L192.2,117.5z"/>
	<path class="st6" d="M149.9,159.8c0.5-0.5,1-1,1.5-1.4s1.2-0.8,1.9-0.8c0.7,0,1.4,0.4,1.9,0.8c0.5,0.5,1,0.9,1.5,1.4l0.3,0.3
		c0.5,0.5,1,1,1.4,1.5s0.8,1.2,0.8,1.9c0,0.7-0.4,1.4-0.8,1.9c-0.5,0.5-0.9,1-1.4,1.5l-21.4,21.4c-0.5,0.5-1,1-1.5,1.4
		c-0.5,0.4-1.2,0.8-1.9,0.8c-0.7,0-1.4-0.4-1.9-0.8c-0.5-0.5-1-0.9-1.5-1.4l-0.3-0.3c-0.5-0.5-1-1-1.4-1.5c-0.4-0.5-0.8-1.2-0.8-1.9
		c0-0.7,0.4-1.4,0.8-1.9c0.5-0.5,0.9-1,1.4-1.5L149.9,159.8z"/>
	<path class="st6" d="M199.3,181.3c0.5,0.5,1,1,1.4,1.5c0.4,0.5,0.8,1.2,0.8,1.9c0,0.7-0.4,1.4-0.8,1.9c-0.5,0.5-0.9,1-1.4,1.5
		l-0.3,0.3c-0.5,0.5-1,1-1.5,1.4c-0.5,0.4-1.2,0.8-1.9,0.8c-0.7,0-1.4-0.4-1.9-0.8c-0.5-0.5-1-0.9-1.5-1.4l-21.4-21.4
		c-0.5-0.5-1-1-1.4-1.5s-0.8-1.2-0.8-1.9c0-0.7,0.4-1.4,0.8-1.9c0.5-0.5,0.9-1,1.4-1.5l0.3-0.3c0.5-0.5,1-1,1.5-1.4
		c0.5-0.4,1.2-0.8,1.9-0.8s1.4,0.4,1.9,0.8c0.5,0.5,1,0.9,1.5,1.4L199.3,181.3z"/>
	<path class="st7" d="M107.5,117.5c0.5-0.5,1-1,1.5-1.4c0.5-0.4,1.2-0.8,1.9-0.8s1.4,0.4,1.9,0.8c0.5,0.5,1,0.9,1.5,1.4l0.3,0.3
		c0.5,0.5,1,1,1.4,1.5c0.4,0.5,0.8,1.2,0.8,1.9s-0.4,1.4-0.8,1.9c-0.5,0.5-0.9,1-1.4,1.5L93.2,146c-0.5,0.5-1,1-1.5,1.4
		s-1.2,0.8-1.9,0.8c-0.7,0-1.4-0.4-1.9-0.8c-0.5-0.5-1-0.9-1.5-1.4l-0.3-0.3c-0.5-0.5-1-1-1.4-1.5c-0.4-0.5-0.8-1.2-0.8-1.9
		s0.4-1.4,0.8-1.9c0.5-0.5,0.9-1,1.4-1.5L107.5,117.5z"/>
	<path class="st7" d="M114.6,181.3c0.5,0.5,1,1,1.4,1.5c0.4,0.5,0.8,1.2,0.8,1.9c0,0.7-0.4,1.4-0.8,1.9c-0.5,0.5-0.9,1-1.4,1.5
		l-0.3,0.3c-0.5,0.5-1,1-1.5,1.4c-0.5,0.4-1.2,0.8-1.9,0.8s-1.4-0.4-1.9-0.8c-0.5-0.5-1-0.9-1.5-1.4l-21.4-21.4
		c-0.5-0.5-1-1-1.4-1.5s-0.8-1.2-0.8-1.9c0-0.7,0.4-1.4,0.8-1.9c0.5-0.5,0.9-1,1.4-1.5l0.3-0.3c0.5-0.5,1-1,1.5-1.4
		c0.5-0.4,1.2-0.8,1.9-0.8s1.4,0.4,1.9,0.8c0.5,0.5,1,0.9,1.5,1.4L114.6,181.3z"/>
	<path class="st6" d="M156.9,138.9c0.5,0.5,1,1,1.4,1.5c0.4,0.5,0.8,1.2,0.8,1.9s-0.4,1.4-0.8,1.9c-0.5,0.5-0.9,1-1.4,1.5l-0.3,0.3
		c-0.5,0.5-1,1-1.5,1.4s-1.2,0.8-1.9,0.8s-1.4-0.4-1.9-0.8c-0.5-0.5-1-0.9-1.5-1.4l-21.4-21.4c-0.5-0.5-1-1-1.4-1.5
		c-0.4-0.5-0.8-1.2-0.8-1.9s0.4-1.4,0.8-1.9c0.5-0.5,0.9-1,1.4-1.5l0.3-0.3c0.5-0.5,1-1,1.5-1.4s1.2-0.8,1.9-0.8
		c0.7,0,1.4,0.4,1.9,0.8c0.5,0.5,1,0.9,1.5,1.4L156.9,138.9z"/>
	<path class="st7" d="M234.6,159.8c0.5-0.5,1-1,1.5-1.4s1.2-0.8,1.9-0.8c0.7,0,1.4,0.4,1.9,0.8c0.5,0.5,1,0.9,1.5,1.4l0.3,0.3
		c0.5,0.5,1,1,1.4,1.5c0.4,0.5,0.8,1.2,0.8,1.9c0,0.7-0.4,1.4-0.8,1.9c-0.5,0.5-0.9,1-1.4,1.5l-21.4,21.4c-0.5,0.5-1,1-1.5,1.4
		c-0.5,0.4-1.2,0.8-1.9,0.8s-1.4-0.4-1.9-0.8c-0.5-0.5-1-0.9-1.5-1.4l-0.3-0.3c-0.5-0.5-1-1-1.4-1.5s-0.8-1.2-0.8-1.9
		c0-0.7,0.4-1.4,0.8-1.9c0.5-0.5,0.9-1,1.4-1.5L234.6,159.8z"/>
	<path class="st7" d="M241.6,138.9c0.5,0.5,1,1,1.4,1.5c0.4,0.5,0.8,1.2,0.8,1.9s-0.4,1.4-0.8,1.9c-0.5,0.5-0.9,1-1.4,1.5l-0.3,0.3
		c-0.5,0.5-1,1-1.5,1.4c-0.5,0.4-1.2,0.8-1.9,0.8c-0.7,0-1.4-0.4-1.9-0.8c-0.5-0.5-1-0.9-1.5-1.4l-21.4-21.4c-0.5-0.5-1-1-1.4-1.5
		s-0.8-1.2-0.8-1.9s0.4-1.4,0.8-1.9c0.5-0.5,0.9-1,1.4-1.5l0.3-0.3c0.5-0.5,1-1,1.5-1.4s1.2-0.8,1.9-0.8s1.4,0.4,1.9,0.8
		c0.5,0.5,1,0.9,1.5,1.4L241.6,138.9z"/>
</g>
<line class="st0" x1="510.4" y1="72.6" x2="510.4" y2="372.6"/>
<line class="st0" x1="810.4" y1="72.6" x2="810.4" y2="372.6"/>
<line class="st0" x1="670.4" y1="72.6" x2="670.4" y2="372.6"/>
<line class="st0" x1="810.4" y1="72.6" x2="510.4" y2="72.6"/>
<line class="st8" x1="810.4" y1="372.6" x2="510.4" y2="372.6"/>
<line class="st0" x1="810.4" y1="232.6" x2="510.4" y2="232.6"/>
<line class="st1" x1="510.4" y1="72.6" x2="810.4" y2="372.6"/>
<g>
	<line class="st2" x1="510.4" y1="62.6" x2="670.4" y2="62.6"/>
	<line class="st2" x1="510.4" y1="57.6" x2="510.4" y2="67.6"/>
	<line class="st2" x1="670.4" y1="57.6" x2="670.4" y2="67.6"/>
</g>
<g>
	<line class="st2" x1="499.7" y1="72.6" x2="499.7" y2="232.6"/>
	<line class="st2" x1="504.7" y1="72.6" x2="494.7" y2="72.6"/>
	<line class="st2" x1="504.7" y1="232.6" x2="494.7" y2="232.6"/>
</g>
<text transform="matrix(1 0 0 1 571.1915 52.5658)" class="st3 st4 st5">10mm</text>
<g class="st3">
	<path d="M818.6,388.7c0.6,0,0.7-0.3,0.8-1.9c0.2,0.2,0.6,0.3,0.9,0.4c-0.1,1.9-0.4,2.4-1.5,2.4h-2.2c-1.2,0-1.6-0.3-1.6-1.4v-4.1
		h-0.3c-0.5,2.3-1.7,4.5-4.8,5.8c-0.1-0.2-0.4-0.6-0.6-0.7c2.8-1.1,4-3,4.5-5h-4.3v-0.9h4.5c0.1-0.9,0.2-1.8,0.2-2.7h-3.9v-0.9h9.3
		v0.9h-4.4c0,0.9-0.1,1.8-0.2,2.7h5.3v0.9h-4.3v4.1c0,0.4,0.1,0.5,0.7,0.5H818.6z"/>
	<path d="M825.4,379.7c-0.4,1-0.8,2.1-1.2,3.1c0.9,1,1.1,1.9,1.1,2.6c0,0.6-0.1,1.2-0.5,1.4c-0.2,0.1-0.4,0.2-0.6,0.2
		c-0.2,0-0.5,0-0.8,0c0-0.2-0.1-0.6-0.2-0.8c0.3,0,0.5,0,0.7,0c0.1,0,0.3,0,0.4-0.1c0.2-0.1,0.3-0.5,0.3-0.8c0-0.6-0.2-1.5-1.1-2.4
		c0.3-0.9,0.7-1.9,0.9-2.7h-1.7v9.6h-0.8v-10.4h2.9l0.1,0L825.4,379.7z M832,385.6c-0.6,0.5-1.4,1-2.1,1.4c0.6,0.9,1.4,1.5,2.3,1.9
		c-0.2,0.2-0.5,0.5-0.6,0.8c-1.9-0.9-3-2.7-3.6-5.1h-1.2v3.9l2.1-0.5c0,0.3,0,0.6,0,0.8c-2.5,0.7-2.8,0.8-3.1,0.9
		c-0.1-0.2-0.3-0.6-0.4-0.7c0.2-0.1,0.4-0.3,0.4-0.8v-8.9h5.2v5.2h-2.4c0.2,0.6,0.4,1.3,0.7,1.8c0.6-0.4,1.4-1,1.9-1.4L832,385.6z
		 M826.9,380.2v1.4h3.5v-1.4H826.9z M826.9,383.8h3.5v-1.5h-3.5V383.8z"/>
	<path d="M839.5,383.2c0.8,2.6,2.4,4.8,4.7,5.8c-0.2,0.2-0.5,0.6-0.7,0.8c-2.3-1.1-3.8-3.2-4.8-5.9c-0.6,2.3-1.9,4.6-4.8,5.9
		c-0.1-0.2-0.4-0.6-0.7-0.7c3-1.3,4.2-3.6,4.7-5.9h-4.4v-0.9h4.6c0.2-1.3,0.2-2.5,0.2-3.4h1c0,1,0,2.1-0.2,3.4h5v0.9H839.5z"/>
</g>
<text transform="matrix(1 0 0 1 457.1915 152.5638)" class="st3 st4 st5">10mm</text>
<g>
	<path class="st6" d="M618.7,117.5c0.5-0.5,1-1,1.5-1.4c0.5-0.4,1.2-0.8,1.9-0.8c0.7,0,1.4,0.4,1.9,0.8c0.5,0.5,1,0.9,1.5,1.4
		l0.3,0.3c0.5,0.5,1,1,1.4,1.5c0.4,0.5,0.8,1.2,0.8,1.9s-0.4,1.4-0.8,1.9c-0.5,0.5-0.9,1-1.4,1.5L604.4,146c-0.5,0.5-1,1-1.5,1.4
		c-0.5,0.4-1.2,0.8-1.9,0.8c-0.7,0-1.4-0.4-1.9-0.8c-0.5-0.5-1-0.9-1.5-1.4l-0.3-0.3c-0.5-0.5-1-1-1.4-1.5c-0.4-0.5-0.8-1.2-0.8-1.9
		s0.4-1.4,0.8-1.9c0.5-0.5,0.9-1,1.4-1.5L618.7,117.5z"/>
	<path class="st6" d="M576.4,159.8c0.5-0.5,1-1,1.5-1.4c0.5-0.4,1.2-0.8,1.9-0.8s1.4,0.4,1.9,0.8c0.5,0.5,1,0.9,1.5,1.4l0.3,0.3
		c0.5,0.5,1,1,1.4,1.5c0.4,0.5,0.8,1.2,0.8,1.9c0,0.7-0.4,1.4-0.8,1.9c-0.5,0.5-0.9,1-1.4,1.5L562,188.3c-0.5,0.5-1,1-1.5,1.4
		c-0.5,0.4-1.2,0.8-1.9,0.8s-1.4-0.4-1.9-0.8c-0.5-0.5-1-0.9-1.5-1.4L555,188c-0.5-0.5-1-1-1.4-1.5c-0.4-0.5-0.8-1.2-0.8-1.9
		c0-0.7,0.4-1.4,0.8-1.9c0.5-0.5,0.9-1,1.4-1.5L576.4,159.8z"/>
	<path class="st6" d="M625.8,181.3c0.5,0.5,1,1,1.4,1.5c0.4,0.5,0.8,1.2,0.8,1.9c0,0.7-0.4,1.4-0.8,1.9c-0.5,0.5-0.9,1-1.4,1.5
		l-0.3,0.3c-0.5,0.5-1,1-1.5,1.4c-0.5,0.4-1.2,0.8-1.9,0.8s-1.4-0.4-1.9-0.8c-0.5-0.5-1-0.9-1.5-1.4l-21.4-21.4
		c-0.5-0.5-1-1-1.4-1.5s-0.8-1.2-0.8-1.9c0-0.7,0.4-1.4,0.8-1.9c0.5-0.5,0.9-1,1.4-1.5l0.3-0.3c0.5-0.5,1-1,1.5-1.4
		c0.5-0.4,1.2-0.8,1.9-0.8s1.4,0.4,1.9,0.8c0.5,0.5,1,0.9,1.5,1.4L625.8,181.3z"/>
	<path class="st7" d="M534.1,117.5c0.5-0.5,1-1,1.5-1.4c0.5-0.4,1.2-0.8,1.9-0.8s1.4,0.4,1.9,0.8c0.5,0.5,1,0.9,1.5,1.4l0.3,0.3
		c0.5,0.5,1,1,1.4,1.5s0.8,1.2,0.8,1.9s-0.4,1.4-0.8,1.9c-0.5,0.5-0.9,1-1.4,1.5L519.7,146c-0.5,0.5-1,1-1.5,1.4
		c-0.5,0.4-1.2,0.8-1.9,0.8s-1.4-0.4-1.9-0.8c-0.5-0.5-1-0.9-1.5-1.4l-0.3-0.3c-0.5-0.5-1-1-1.4-1.5s-0.8-1.2-0.8-1.9
		s0.4-1.4,0.8-1.9c0.5-0.5,0.9-1,1.4-1.5L534.1,117.5z"/>
	<path class="st7" d="M541.1,181.3c0.5,0.5,1,1,1.4,1.5s0.8,1.2,0.8,1.9c0,0.7-0.4,1.4-0.8,1.9c-0.5,0.5-0.9,1-1.4,1.5l-0.3,0.3
		c-0.5,0.5-1,1-1.5,1.4c-0.5,0.4-1.2,0.8-1.9,0.8s-1.4-0.4-1.9-0.8c-0.5-0.5-1-0.9-1.5-1.4l-21.4-21.4c-0.5-0.5-1-1-1.4-1.5
		s-0.8-1.2-0.8-1.9c0-0.7,0.4-1.4,0.8-1.9c0.5-0.5,0.9-1,1.4-1.5l0.3-0.3c0.5-0.5,1-1,1.5-1.4c0.5-0.4,1.2-0.8,1.9-0.8
		s1.4,0.4,1.9,0.8c0.5,0.5,1,0.9,1.5,1.4L541.1,181.3z"/>
	<path class="st6" d="M583.4,138.9c0.5,0.5,1,1,1.4,1.5c0.4,0.5,0.8,1.2,0.8,1.9s-0.4,1.4-0.8,1.9c-0.5,0.5-0.9,1-1.4,1.5l-0.3,0.3
		c-0.5,0.5-1,1-1.5,1.4c-0.5,0.4-1.2,0.8-1.9,0.8s-1.4-0.4-1.9-0.8c-0.5-0.5-1-0.9-1.5-1.4L555,124.6c-0.5-0.5-1-1-1.4-1.5
		c-0.4-0.5-0.8-1.2-0.8-1.9s0.4-1.4,0.8-1.9c0.5-0.5,0.9-1,1.4-1.5l0.3-0.3c0.5-0.5,1-1,1.5-1.4c0.5-0.4,1.2-0.8,1.9-0.8
		s1.4,0.4,1.9,0.8c0.5,0.5,1,0.9,1.5,1.4L583.4,138.9z"/>
	<path class="st7" d="M661.1,159.8c0.5-0.5,1-1,1.5-1.4c0.5-0.4,1.2-0.8,1.9-0.8s1.4,0.4,1.9,0.8c0.5,0.5,1,0.9,1.5,1.4l0.3,0.3
		c0.5,0.5,1,1,1.4,1.5c0.4,0.5,0.8,1.2,0.8,1.9c0,0.7-0.4,1.4-0.8,1.9c-0.5,0.5-0.9,1-1.4,1.5l-21.4,21.4c-0.5,0.5-1,1-1.5,1.4
		c-0.5,0.4-1.2,0.8-1.9,0.8c-0.7,0-1.4-0.4-1.9-0.8c-0.5-0.5-1-0.9-1.5-1.4l-0.3-0.3c-0.5-0.5-1-1-1.4-1.5c-0.4-0.5-0.8-1.2-0.8-1.9
		c0-0.7,0.4-1.4,0.8-1.9c0.5-0.5,0.9-1,1.4-1.5L661.1,159.8z"/>
	<path class="st7" d="M668.1,138.9c0.5,0.5,1,1,1.4,1.5c0.4,0.5,0.8,1.2,0.8,1.9s-0.4,1.4-0.8,1.9c-0.5,0.5-0.9,1-1.4,1.5l-0.3,0.3
		c-0.5,0.5-1,1-1.5,1.4c-0.5,0.4-1.2,0.8-1.9,0.8s-1.4-0.4-1.9-0.8c-0.5-0.5-1-0.9-1.5-1.4l-21.4-21.4c-0.5-0.5-1-1-1.4-1.5
		c-0.4-0.5-0.8-1.2-0.8-1.9s0.4-1.4,0.8-1.9c0.5-0.5,0.9-1,1.4-1.5l0.3-0.3c0.5-0.5,1-1,1.5-1.4c0.5-0.4,1.2-0.8,1.9-0.8
		c0.7,0,1.4,0.4,1.9,0.8c0.5,0.5,1,0.9,1.5,1.4L668.1,138.9z"/>
</g>
</svg>
