<?xml version="1.0" encoding="UTF-8"?>
<svg width="880px" height="409px" viewBox="0 0 880 409" version="1.1" xmlns="http://www.w3.org/2000/svg" xmlns:xlink="http://www.w3.org/1999/xlink">
    <!-- Generator: Sketch 51.3 (57544) - http://www.bohemiancoding.com/sketch -->
    <title>Artboard 5</title>
    <desc>Created with Sketch.</desc>
    <defs>
        <path d="M12.2873535,0 L183.620486,0 C190.406604,-1.24658965e-15 195.90784,5.50123555 195.90784,12.2873535 L195.90784,183.620486 C195.90784,190.406604 190.406604,195.90784 183.620486,195.90784 L12.2873535,195.90784 C5.50123555,195.90784 1.1744422e-14,190.406604 1.09133622e-14,183.620486 L0,12.2873535 C-8.31059764e-16,5.50123555 5.50123555,1.21599519e-14 12.2873535,0 Z" id="path-1"></path>
    </defs>
    <g id="Artboard-5" stroke="none" stroke-width="1" fill="none" fill-rule="evenodd">
        <g id="App-Icon" transform="translate(483.804688, 106.000000)">
            <mask id="mask-2" fill="white">
                <use xlink:href="#path-1"></use>
            </mask>
            <use id="Rectangle-31" fill="#D8D8D8" xlink:href="#path-1"></use>
            <g id="60pt" mask="url(#mask-2)">
                <g id="Icon-Template-512-pt">
                    <g id="Template" fill="#2B4EEF">
                        <rect id="BG" x="0" y="0" width="196" height="196"></rect>
                    </g>
                    <g id="Group" transform="translate(12.782713, 57.724049)" fill="#FFFFFF">
                        <path d="M115.32984,2.43922213 C115.857315,1.91174686 116.372356,1.37384243 116.950774,0.896908517 C117.498706,0.444844161 118.175399,0 118.950366,0 C119.725334,0.000401121877 120.401625,0.444844161 120.949557,0.896908517 C121.527975,1.37384243 122.043016,1.91174686 122.570491,2.43922213 L122.836034,2.70476482 C123.36391,3.23224008 123.901413,3.74728057 124.378347,4.3252972 C124.830412,4.87322968 125.274855,5.54992229 125.274855,6.32529088 C125.274855,7.10025834 124.830412,7.77654983 124.378347,8.32448231 C123.901815,8.90290006 123.36391,9.41753942 122.836034,9.94541581 L100.045492,32.7359575 C99.5180167,33.2638339 99.0029763,33.8013372 98.4249596,34.2782711 C97.876626,34.7303355 97.1999334,35.1747785 96.4249659,35.1747785 C95.6499985,35.1747785 94.973707,34.7303355 94.4257745,34.2782711 C93.8473568,33.8017383 93.3323163,33.2638339 92.804841,32.7359575 L92.5392983,32.4704148 C92.0118231,31.9429395 91.4739186,31.4283002 90.9969847,30.8498824 C90.5449204,30.3019499 90.1004773,29.6248562 90.1004773,28.8498887 C90.1004773,28.0749213 90.5449204,27.3986298 90.9969847,26.8506973 C91.4739186,26.2722796 92.0118231,25.7576402 92.5392983,25.2297638 L115.32984,2.43922213 Z" id="Fill-1"></path>
                        <path d="M70.2796013,47.4894207 C70.8070766,46.9619454 71.3221171,46.4244421 71.9001337,45.9471071 C72.4484673,45.4950427 73.1251599,45.0505997 73.9001274,45.0505997 C74.6750949,45.0505997 75.3513864,45.4946416 75.8993188,45.9467059 C76.4777366,46.424041 76.9927771,46.9619454 77.5202523,47.4894207 L77.785795,47.7549634 C78.3132703,48.2824386 78.8511747,48.7974791 79.3281086,49.3754957 C79.780173,49.9234282 80.224616,50.600522 80.224616,51.3754894 C80.224616,52.1500558 79.7805741,52.8267484 79.3285098,53.3746809 C78.8511747,53.9526975 78.3136714,54.467738 77.785795,54.9956144 L54.9952534,77.786156 C54.4677781,78.3140324 53.9527376,78.8515357 53.374721,79.3284697 C52.8263874,79.780534 52.1496948,80.224977 51.3747273,80.224977 C50.5997598,80.224977 49.9234683,79.780534 49.3755359,79.3284697 C48.7971181,78.8519369 48.2820776,78.3140324 47.7546024,77.786156 L47.4890597,77.5206134 C46.9615844,76.9931381 46.42368,76.4784987 45.9467461,75.900081 C45.4946817,75.3521485 45.0502387,74.6750548 45.0502387,73.9000873 C45.0502387,73.1251198 45.4946817,72.4492295 45.9467461,71.9008959 C46.42368,71.3224781 46.9615844,70.8078387 47.4890597,70.2799624 L70.2796013,47.4894207 Z" id="Fill-4"></path>
                        <path d="M122.836194,70.2801228 C123.363669,70.8075981 123.901173,71.3226386 124.378508,71.9006552 C124.830572,72.4485877 125.275015,73.1256814 125.275015,73.9002477 C125.275015,74.6752152 124.830572,75.3519078 124.378508,75.8998403 C123.901574,76.4778569 123.363669,76.9928974 122.836194,77.5207738 L122.570651,77.7863165 C122.042775,78.3137918 121.528136,78.8512951 120.950119,79.3286301 C120.401785,79.7806945 119.725093,80.2251375 118.950125,80.2251375 C118.175158,80.2251375 117.498866,79.7806945 116.950934,79.3286301 C116.372516,78.8516962 115.857877,78.3137918 115.33,77.7863165 L92.5394588,54.9957748 C92.0115824,54.4678984 91.4740791,53.9532591 90.9971452,53.3748413 C90.5450808,52.8269088 90.1002366,52.1502162 90.1006378,51.3748476 C90.1006378,50.5998802 90.5450808,49.9239898 90.996744,49.3760573 C91.4736779,48.7972384 92.0115824,48.2825991 92.5394588,47.7551238 L92.8046003,47.4895811 C93.3324767,46.9617047 93.8471161,46.4242014 94.4251327,45.9472675 C94.9734663,45.4952032 95.6501589,45.0507601 96.4255275,45.0507601 C97.2000939,45.0507601 97.8763853,45.494802 98.424719,45.9468664 C99.0027356,46.4238003 99.5177761,46.9617047 100.045652,47.4895811 L122.836194,70.2801228 Z" id="Fill-6"></path>
                        <path d="M25.2294028,2.43922213 C25.7568781,1.91174686 26.2719186,1.37384243 26.8499352,0.896908517 C27.3982688,0.444844161 28.0749614,0 28.8499289,0 C29.6248963,0.000401121877 30.3011878,0.444844161 30.8491203,0.896908517 C31.427538,1.37384243 31.9425785,1.91174686 32.4700538,2.43922213 L32.7355965,2.70476482 C33.2630717,3.23224008 33.8009762,3.74728057 34.2779101,4.3252972 C34.7299745,4.87322968 35.1744175,5.54992229 35.1744175,6.32529088 C35.1744175,7.10025834 34.7303756,7.77654983 34.2783112,8.32448231 C33.8009762,8.90290006 33.2630717,9.41753942 32.7355965,9.94541581 L9.9450548,32.7359575 C9.41757954,33.2638339 8.90253905,33.8013372 8.32452242,34.2782711 C7.77618882,34.7303355 7.09949621,35.1747785 6.32452874,35.1747785 C5.54956128,35.1747785 4.87326979,34.7303355 4.32533731,34.2782711 C3.74691956,33.8017383 3.23187907,33.2638339 2.70440381,32.7359575 L2.43886112,32.4704148 C1.91138586,31.9429395 1.37348142,31.4283002 0.896547507,30.8498824 C0.444483152,30.3019499 4.01121877e-05,29.6248562 4.01121877e-05,28.8498887 C4.01121877e-05,28.0749213 0.444483152,27.3990309 0.896146385,26.8506973 C1.37348142,26.2722796 1.91138586,25.7576402 2.43886112,25.2297638 L25.2294028,2.43922213 Z" id="Fill-8" fill-opacity="0.4"></path>
                        <path d="M32.7355564,70.2801228 C33.2630316,70.8075981 33.8009361,71.3226386 34.27787,71.9006552 C34.7299343,72.4485877 35.1747785,73.1256814 35.1747785,73.9002477 C35.1743774,74.6752152 34.7303355,75.3519078 34.2782711,75.8998403 C33.8009361,76.4778569 33.2630316,76.9928974 32.7355564,77.5207738 L32.4700137,77.7863165 C31.9425384,78.3137918 31.427899,78.8512951 30.8494813,79.3286301 C30.3015488,79.7806945 29.6248562,80.2251375 28.8494876,80.2251375 C28.0745202,80.2251375 27.3982287,79.7806945 26.8502962,79.3286301 C26.2722796,78.8516962 25.7572391,78.3137918 25.2293627,77.7863165 L2.43882101,54.9957748 C1.91134574,54.4678984 1.37344131,53.9532591 0.896507395,53.3748413 C0.44444304,52.8269088 0,52.1502162 0,51.3748476 C0,50.5998802 0.44444304,49.9239898 0.896106273,49.3760573 C1.37344131,48.7972384 1.91134574,48.2825991 2.43882101,47.7551238 L2.70436369,47.4895811 C3.23183896,46.9617047 3.74687945,46.4242014 4.32489608,45.9472675 C4.87322968,45.4952032 5.54992229,45.0507601 6.32488975,45.0507601 C7.09985722,45.0507601 7.7761487,45.494802 8.32408119,45.9468664 C8.90209781,46.4238003 9.41753942,46.9617047 9.94501469,47.4895811 L32.7355564,70.2801228 Z" id="Fill-11" fill-opacity="0.4"></path>
                        <path d="M77.7857549,25.2297237 C78.3132302,25.757199 78.8511346,26.2722395 79.3280685,26.8506572 C79.7801329,27.3985897 80.224977,28.0752823 80.224977,28.8502498 C80.2245759,29.6252172 79.780534,30.3015087 79.3284697,30.8494412 C78.8511346,31.4278589 78.3136313,31.9428994 77.7857549,32.4703747 L77.5202122,32.7359174 C76.992737,33.2637938 76.4780976,33.8012971 75.8996798,34.278231 C75.3517474,34.7302953 74.6750548,35.1747384 73.8996862,35.1747384 C73.1251198,35.1747384 72.4484272,34.7302953 71.9004947,34.278231 C71.3224781,33.8016982 70.8074376,33.2637938 70.2795612,32.7359174 L47.4890196,9.9453757 C46.9615443,9.41790043 46.4236399,8.90285994 45.9471071,8.32484332 C45.4946416,7.77650971 45.0501985,7.09981711 45.0501985,6.32484964 C45.0501985,5.54988218 45.4946416,4.87359069 45.9467059,4.32565821 C46.4236399,3.74724046 46.9615443,3.23219997 47.4890196,2.7047247 L47.7545622,2.43918202 C48.2820375,1.91170675 48.797078,1.37380232 49.3750946,0.896868404 C49.9234282,0.444804049 50.6001208,0.000361009689 51.3750883,0.000361009689 C52.1500558,0.000361009689 52.8263473,0.444804049 53.3742797,0.896868404 C53.9526975,1.37380232 54.467738,1.91170675 54.9952132,2.43918202 L77.7857549,25.2297237 Z" id="Fill-13"></path>
                        <path d="M160.380239,47.4894207 C160.907714,46.9619454 161.422755,46.4244421 162.000771,45.9471071 C162.548704,45.4950427 163.225798,45.0505997 164.000364,45.0505997 C164.775332,45.0505997 165.452024,45.4946416 165.999957,45.9467059 C166.577973,46.424041 167.093014,46.9619454 167.62089,47.4894207 L167.886433,47.7549634 C168.413908,48.2824386 168.951411,48.7974791 169.428746,49.3754957 C169.880811,49.9234282 170.325254,50.600522 170.325254,51.3754894 C170.325254,52.1500558 169.880811,52.8267484 169.428746,53.3746809 C168.951812,53.9526975 168.413908,54.467738 167.886433,54.9956144 L145.095891,77.786156 C144.568015,78.3140324 144.053375,78.8515357 143.474958,79.3284697 C142.927025,79.780534 142.250333,80.224977 141.474964,80.224977 C140.699996,80.224977 140.024106,79.780534 139.476174,79.3284697 C138.897355,78.8519369 138.382715,78.3140324 137.85524,77.786156 L137.589697,77.5206134 C137.061821,76.9931381 136.524318,76.4784987 136.047384,75.900081 C135.595319,75.3521485 135.150876,74.6750548 135.150876,73.9000873 C135.150876,73.1251198 135.594918,72.4492295 136.046983,71.9008959 C136.523917,71.3224781 137.061821,70.8078387 137.589697,70.2799624 L160.380239,47.4894207 Z" id="Fill-15" fill-opacity="0.4"></path>
                        <path d="M167.886393,25.2297237 C168.413868,25.757199 168.951371,26.2722395 169.428706,26.8506572 C169.880771,27.3985897 170.325214,28.0752823 170.325214,28.8502498 C170.325214,29.6252172 169.880771,30.3015087 169.428706,30.8494412 C168.951772,31.4278589 168.413868,31.9428994 167.886393,32.4703747 L167.62085,32.7359174 C167.092974,33.2637938 166.578334,33.8012971 166.000318,34.278231 C165.452385,34.7302953 164.775291,35.1747384 164.000324,35.1747384 C163.225356,35.1747384 162.549065,34.7302953 162.001133,34.278231 C161.422715,33.8016982 160.908075,33.2637938 160.380199,32.7359174 L137.589657,9.9453757 C137.061781,9.41790043 136.524278,8.90285994 136.047344,8.32484332 C135.595279,7.77650971 135.150836,7.09981711 135.150836,6.32484964 C135.150836,5.54988218 135.594878,4.87359069 136.046943,4.32565821 C136.523876,3.74724046 137.061781,3.23219997 137.589657,2.7047247 L137.8552,2.43918202 C138.382274,1.91170675 138.897315,1.37380232 139.475732,0.896868404 C140.023665,0.444804049 140.700759,0.000361009689 141.475325,0.000361009689 C142.250292,0.000361009689 142.926584,0.444804049 143.474917,0.896868404 C144.052934,1.37380232 144.567975,1.91170675 145.095851,2.43918202 L167.886393,25.2297237 Z" id="Fill-17" fill-opacity="0.4"></path>
                    </g>
                </g>
            </g>
        </g>
        <g id="Group-3" transform="translate(200.195312, 105.500000)">
            <g id="Template" transform="translate(0.520872, 0.000000)" fill="#2B4EEF">
                <rect id="BG" x="0" y="0" width="196.684447" height="196.684447"></rect>
            </g>
            <g id="Group" transform="translate(13.348223, 57.925626)" fill="#FFFFFF">
                <path d="M115.732581,2.44774008 C116.261898,1.91842283 116.778737,1.37863999 117.359175,0.90004059 C117.90902,0.446397591 118.588076,0 119.36575,0 C120.143424,0.000402522625 120.822077,0.446397591 121.371923,0.90004059 C121.95236,1.37863999 122.469199,1.91842283 122.998517,2.44774008 L123.264987,2.71421006 C123.794706,3.24352731 124.334087,3.76036636 124.812686,4.34040147 C125.266329,4.89024737 125.712324,5.56930304 125.712324,6.34737928 C125.712324,7.12505299 125.266329,7.80370614 124.812686,8.35355204 C124.334489,8.93398967 123.794706,9.45042619 123.264987,9.98014597 L100.394859,32.850274 C99.8655413,33.3799937 99.3487022,33.9193741 98.7686671,34.3979735 C98.2184187,34.8516165 97.539363,35.2976115 96.7616893,35.2976115 C95.9840156,35.2976115 95.3053625,34.8516165 94.7555166,34.3979735 C94.1750789,33.9197766 93.6582399,33.3799937 93.1289226,32.850274 L92.8624527,32.583804 C92.3331354,32.0544867 91.7933526,31.5380502 91.3147532,30.9576126 C90.8611102,30.4077667 90.4151151,29.7283085 90.4151151,28.9506348 C90.4151151,28.1729611 90.8611102,27.4943079 91.3147532,26.944462 C91.7933526,26.3640244 92.3331354,25.8475879 92.8624527,25.3178681 L115.732581,2.44774008 Z" id="Fill-1"></path>
                <path d="M70.5250231,47.6552574 C71.0543404,47.1259401 71.5711794,46.5865598 72.1512145,46.1075579 C72.7014629,45.6539149 73.3805186,45.2079198 74.1581923,45.2079198 C74.935866,45.2079198 75.6145192,45.6535124 76.1643651,46.1071554 C76.7448027,46.5861573 77.2616418,47.1259401 77.790959,47.6552574 L78.057429,47.9217274 C78.5867462,48.4510446 79.1265291,48.9678837 79.6051285,49.5479188 C80.0587715,50.0977647 80.5047666,50.7772229 80.5047666,51.5548966 C80.5047666,52.3321678 80.059174,53.0112234 79.605531,53.5610693 C79.1265291,54.1411044 78.5871488,54.6579435 78.057429,55.1876633 L55.187301,78.0577913 C54.6579837,78.587511 54.1411447,79.1268914 53.5611096,79.6054908 C53.0108612,80.0591338 52.3318055,80.5051288 51.5541318,80.5051288 C50.7764581,80.5051288 50.0978049,80.0591338 49.547959,79.6054908 C48.9675214,79.1272939 48.4506823,78.587511 47.9213651,78.0577913 L47.6548951,77.7913213 C47.1255779,77.262004 46.585795,76.7455675 46.1071956,76.1651299 C45.6535526,75.615284 45.2075576,74.9358258 45.2075576,74.1581521 C45.2075576,73.3804784 45.6535526,72.7022277 46.1071956,72.1519793 C46.585795,71.5715417 47.1255779,71.0551052 47.6548951,70.5253854 L70.5250231,47.6552574 Z" id="Fill-4"></path>
                <path d="M123.265148,70.5255464 C123.794465,71.0548636 124.333845,71.5717027 124.812847,72.1517378 C125.26649,72.7015837 125.712485,73.3810419 125.712485,74.1583131 C125.712485,74.9359868 125.26649,75.6150425 124.812847,76.1648884 C124.334248,76.7449235 123.794465,77.2617625 123.265148,77.7914823 L122.998678,78.0579523 C122.468958,78.5872695 121.952521,79.1266498 121.372486,79.6056518 C120.822238,80.0592948 120.143182,80.5052898 119.365508,80.5052898 C118.587835,80.5052898 117.909182,80.0592948 117.359336,79.6056518 C116.778898,79.1270524 116.262461,78.5872695 115.732742,78.0579523 L92.8626137,55.1878243 C92.3328939,54.6581045 91.7935136,54.141668 91.3149142,53.5612304 C90.8612712,53.0113844 90.4148736,52.3323288 90.4152761,51.5542525 C90.4152761,50.7765788 90.8612712,50.0983282 91.3145117,49.5484823 C91.7931111,48.9676422 92.3328939,48.4512056 92.8626137,47.9218884 L93.1286811,47.6554184 C93.6584009,47.1256986 94.1748374,46.5863183 94.7548725,46.1077189 C95.305121,45.6540759 95.9841766,45.2080808 96.7622529,45.2080808 C97.5395241,45.2080808 98.2181772,45.6536734 98.7684256,46.1073164 C99.3484607,46.5859158 99.8652998,47.1256986 100.39502,47.6554184 L123.265148,70.5255464 Z" id="Fill-6"></path>
                <path d="M25.3175058,2.44774008 C25.8468231,1.91842283 26.3636621,1.37863999 26.9436972,0.90004059 C27.4939456,0.446397591 28.1730013,0 28.950675,0 C29.7283487,0.000402522625 30.4070019,0.446397591 30.9568478,0.90004059 C31.5372854,1.37863999 32.0541245,1.91842283 32.5834417,2.44774008 L32.8499117,2.71421006 C33.3792289,3.24352731 33.9190118,3.76036636 34.3976112,4.34040147 C34.8512542,4.89024737 35.2972493,5.56930304 35.2972493,6.34737928 C35.2972493,7.12505299 34.8516567,7.80370614 34.3980137,8.35355204 C33.9190118,8.93398967 33.3792289,9.45042619 32.8499117,9.98014597 L9.9797837,32.850274 C9.45046645,33.3799937 8.9336274,33.9193741 8.35359229,34.3979735 C7.80334386,34.8516165 7.1242882,35.2976115 6.34661448,35.2976115 C5.56894077,35.2976115 4.89028763,34.8516165 4.34044172,34.3979735 C3.76000409,33.9197766 3.24316504,33.3799937 2.71384779,32.850274 L2.44737781,32.583804 C1.91806056,32.0544867 1.37827772,31.5380502 0.89967832,30.9576126 C0.446035321,30.4077667 4.02522626e-05,29.7283085 4.02522626e-05,28.9506348 C4.02522626e-05,28.1729611 0.446035321,27.4947104 0.899275797,26.944462 C1.37827772,26.3640244 1.91806056,25.8475879 2.44737781,25.3178681 L25.3175058,2.44774008 Z" id="Fill-8" fill-opacity="0.4"></path>
                <path d="M32.8498714,70.5255464 C33.3791887,71.0548636 33.9189715,71.5717027 34.3975709,72.1517378 C34.8512139,72.7015837 35.2976115,73.3810419 35.2976115,74.1583131 C35.297209,74.9359868 34.8516165,75.6150425 34.3979735,76.1648884 C33.9189715,76.7449235 33.3791887,77.2617625 32.8498714,77.7914823 L32.5834015,78.0579523 C32.0540842,78.5872695 31.5376477,79.1266498 30.9572101,79.6056518 C30.4073642,80.0592948 29.7283085,80.5052898 28.9502323,80.5052898 C28.1725585,80.5052898 27.4939054,80.0592948 26.9440595,79.6056518 C26.3640244,79.1270524 25.8471853,78.5872695 25.3174656,78.0579523 L2.44733756,55.1878243 C1.91802031,54.6581045 1.37823747,54.141668 0.899638067,53.5612304 C0.445995069,53.0113844 0,52.3323288 0,51.5542525 C0,50.7765788 0.445995069,50.0983282 0.899235545,49.5484823 C1.37823747,48.9676422 1.91802031,48.4512056 2.44733756,47.9218884 L2.71380754,47.6554184 C3.24312479,47.1256986 3.75996384,46.5863183 4.33999895,46.1077189 C4.89024737,45.6540759 5.56930304,45.2080808 6.34697675,45.2080808 C7.12465047,45.2080808 7.80330361,45.6536734 8.35314952,46.1073164 C8.93318462,46.5859158 9.45042619,47.1256986 9.97974345,47.6554184 L32.8498714,70.5255464 Z" id="Fill-11" fill-opacity="0.4"></path>
                <path d="M78.0573887,25.3178278 C78.586706,25.8471451 79.1264888,26.3639841 79.6050882,26.9444218 C80.0587312,27.4942677 80.5051288,28.1733233 80.5051288,28.950997 C80.5047263,29.7286708 80.0591338,30.4073239 79.6054908,30.9571698 C79.1264888,31.5376074 78.5871085,32.0544465 78.0573887,32.5837637 L77.7909188,32.8502337 C77.2616015,33.3799535 76.745165,33.9193338 76.1647274,34.3979332 C75.6148815,34.8515762 74.9358258,35.2975713 74.1577496,35.2975713 C73.3804784,35.2975713 72.7014227,34.8515762 72.1515768,34.3979332 C71.5715417,33.9197363 71.0547026,33.3799535 70.5249829,32.8502337 L47.6548549,9.98010572 C47.1255376,9.45078847 46.5857548,8.93394941 46.1075579,8.35391431 C45.6535124,7.80366588 45.2075173,7.12461021 45.2075173,6.3469365 C45.2075173,5.56926279 45.6535124,4.89060964 46.1071554,4.34076374 C46.5857548,3.76032611 47.1255376,3.24348706 47.6548549,2.71416981 L47.9213248,2.44769983 C48.4506421,1.91838258 48.9674811,1.37859974 49.5475162,0.900000338 C50.0977647,0.446357339 50.7768203,0.000362270363 51.5544941,0.000362270363 C52.3321678,0.000362270363 53.0108209,0.446357339 53.5606668,0.900000338 C54.1411044,1.37859974 54.6579435,1.91838258 55.1872607,2.44769983 L78.0573887,25.3178278 Z" id="Fill-13"></path>
                <path d="M160.940299,47.6552574 C161.469616,47.1259401 161.986456,46.5865598 162.566491,46.1075579 C163.116337,45.6539149 163.795795,45.2079198 164.573066,45.2079198 C165.35074,45.2079198 166.029795,45.6535124 166.579641,46.1071554 C167.159676,46.5861573 167.676515,47.1259401 168.206235,47.6552574 L168.472705,47.9217274 C169.002022,48.4510446 169.541403,48.9678837 170.020405,49.5479188 C170.474048,50.0977647 170.920043,50.7772229 170.920043,51.5548966 C170.920043,52.3321678 170.474048,53.0112234 170.020405,53.5610693 C169.541805,54.1411044 169.002022,54.6579435 168.472705,55.1876633 L145.602577,78.0577913 C145.072857,78.587511 144.556421,79.1268914 143.975983,79.6054908 C143.426137,80.0591338 142.747082,80.5051288 141.969005,80.5051288 C141.191332,80.5051288 140.513081,80.0591338 139.963235,79.6054908 C139.382395,79.1272939 138.865958,78.587511 138.336641,78.0577913 L138.070171,77.7913213 C137.540451,77.262004 137.001071,76.7455675 136.522472,76.1651299 C136.068829,75.615284 135.622834,74.9358258 135.622834,74.1581521 C135.622834,73.3804784 136.068426,72.7022277 136.522069,72.1519793 C137.000669,71.5715417 137.540451,71.0551052 138.070171,70.5253854 L160.940299,47.6552574 Z" id="Fill-15" fill-opacity="0.4"></path>
                <path d="M168.472665,25.3178278 C169.001982,25.8471451 169.541362,26.3639841 170.020364,26.9444218 C170.474007,27.4942677 170.920002,28.1733233 170.920002,28.950997 C170.920002,29.7286708 170.474007,30.4073239 170.020364,30.9571698 C169.541765,31.5376074 169.001982,32.0544465 168.472665,32.5837637 L168.206195,32.8502337 C167.676475,33.3799535 167.160039,33.9193338 166.580003,34.3979332 C166.030158,34.8515762 165.350699,35.2975713 164.573026,35.2975713 C163.795352,35.2975713 163.116699,34.8515762 162.566853,34.3979332 C161.986415,33.9197363 161.469979,33.3799535 160.940259,32.8502337 L138.070131,9.98010572 C137.540411,9.45078847 137.001031,8.93394941 136.522431,8.35391431 C136.068788,7.80366588 135.622793,7.12461021 135.622793,6.3469365 C135.622793,5.56926279 136.068386,4.89060964 136.522029,4.34076374 C137.000628,3.76032611 137.540411,3.24348706 138.070131,2.71416981 L138.336601,2.44769983 C138.865516,1.91838258 139.382355,1.37859974 139.962792,0.900000338 C140.512638,0.446357339 141.192096,0.000362270363 141.969368,0.000362270363 C142.747041,0.000362270363 143.425695,0.446357339 143.975943,0.900000338 C144.555978,1.37859974 145.072817,1.91838258 145.602537,2.44769983 L168.472665,25.3178278 Z" id="Fill-17" fill-opacity="0.4"></path>
            </g>
            <g id="Group-2" transform="translate(0.868120, 0.000000)" stroke="#25E8C7">
                <circle id="Oval-3" cx="98.3422235" cy="98.3422235" r="98.3422235"></circle>
                <rect id="Rectangle-7" x="29.6953476" y="29.6953476" width="137.293752" height="137.293752"></rect>
                <rect id="Rectangle-7" transform="translate(98.342224, 98.342224) rotate(-45.000000) translate(-98.342224, -98.342224) " x="29.6953476" y="29.6953476" width="137.293752" height="137.293752"></rect>
                <path d="M0,98.3422235 L196.684447,98.3422235" id="Line" stroke-linecap="square"></path>
                <path d="M98.3422235,0 L98.3422235,196.684447" id="Line" stroke-linecap="square"></path>
                <path d="M28.8037704,28.8037704 L167.880677,167.880677" id="Line" stroke-linecap="square"></path>
                <path d="M167.936934,28.6679531 L28.8600278,167.744859" id="Line" stroke-linecap="square"></path>
            </g>
        </g>
    </g>
</svg>