<?xml version="1.0" encoding="utf-8"?>
<!-- Generator: Adobe Illustrator 21.1.0, SVG Export Plug-In . SVG Version: 6.00 Build 0)  -->
<svg version="1.1" id="图层_1" xmlns="http://www.w3.org/2000/svg" xmlns:xlink="http://www.w3.org/1999/xlink" x="0px" y="0px"
	 viewBox="0 0 880 320" style="enable-background:new 0 0 880 320;" xml:space="preserve">
<style type="text/css">
	.st0{fill:#8E9090;}
	.st1{opacity:0.69;}
	.st2{fill:#865E39;}
	.st3{fill:#A67C36;}
</style>
<g>
	<circle class="st0" cx="228.3" cy="134.5" r="59.7"/>
	<g class="st1">
		<path d="M211,225.8l1.2-0.4c0.3,1.3,1.3,1.9,2.5,1.9c1.1,0,2.2-0.7,2.2-1.7c0-2.9-5.6-1.2-5.6-4.8c0-1.7,1.4-2.8,3.4-2.8
			c1.6,0,2.9,1,3.2,2.4l-1.2,0.4c-0.2-1-1-1.7-2-1.7c-1.2,0-2,0.7-2,1.7c0,2.4,5.6,0.8,5.6,4.7c0,1.7-1.6,2.9-3.5,2.9
			C213.2,228.4,211.5,227.8,211,225.8z"/>
		<path d="M219.7,218.9c0-0.5,0.4-0.8,0.9-0.8c0.5,0,0.9,0.4,0.9,0.8c0,0.5-0.4,0.8-0.9,0.8C220.1,219.7,219.7,219.4,219.7,218.9z
			 M219.9,221.1h1.3v7.1h-1.3V221.1z"/>
		<path d="M223.3,218.1h1.3v10.1h-1.3V218.1z"/>
		<path d="M233.1,221.1l-2.7,7.1h-1.7l-2.8-7.1h1.3l2.3,6.1l2.3-6.1H233.1z"/>
		<path d="M240.6,225.1h-5.7c0.1,1.3,1.1,2.2,2.4,2.2c1.1,0,1.8-0.6,2.2-1.5l1,0.3c-0.4,1.3-1.6,2.2-3.2,2.2c-2.2,0-3.7-1.5-3.7-3.7
			c0-2.2,1.4-3.7,3.6-3.7c2.1,0,3.4,1.5,3.4,3.7C240.6,224.7,240.6,224.8,240.6,225.1z M234.9,224.1h4.5c-0.1-1.3-0.9-2.1-2.2-2.1
			C235.9,222,234.9,222.8,234.9,224.1z"/>
		<path d="M245.9,222.2h-2.5v6.1h-1.3v-7.1h3.8V222.2z"/>
		<path d="M224.4,242.2c0,1.8-1.6,3-3.5,3c-2,0-3.5-1.2-3.5-3c0-1.2,0.8-2.2,1.9-2.7c-0.9-0.4-1.5-1.1-1.5-2.2
			c0-1.5,1.4-2.6,3.1-2.6c1.7,0,3.1,1.1,3.1,2.6c0,1-0.6,1.8-1.5,2.2C223.6,240,224.4,240.9,224.4,242.2z M223,242.1
			c0-1.1-0.9-1.9-2.2-1.9c-1.3,0-2.2,0.8-2.2,1.9s0.9,1.9,2.2,1.9C222.1,244,223,243.2,223,242.1z M219.1,237.4
			c0,0.9,0.7,1.5,1.7,1.5c1,0,1.7-0.6,1.7-1.5c0-0.9-0.7-1.5-1.7-1.5C219.9,235.9,219.1,236.5,219.1,237.4z"/>
		<path d="M232.1,234.9v0.9l-4.4,9.2h-1.5l4.3-8.9h-5.2v-1.2H232.1z"/>
		<path d="M239.5,234.9v0.9l-4.4,9.2h-1.5l4.3-8.9h-5.2v-1.2H239.5z"/>
	</g>
	<circle class="st2" cx="440" cy="134.5" r="59.7"/>
	<g class="st1">
		<path d="M425.3,225.4c0,1.7-1.4,2.8-3.2,2.8h-3.9v-10.1l3.7,0c1.7,0,2.9,1.1,2.9,2.5c0,1-0.7,1.8-1.7,2.2
			C424.7,223.2,425.3,224.3,425.3,225.4z M421.8,219.3h-2.1v3.1h2c1,0,1.9-0.6,1.9-1.7C423.6,219.9,422.8,219.3,421.8,219.3z
			 M424,225.2c0-1-0.8-1.8-1.9-1.8h-2.4v3.6h2.4C423.1,227,424,226.3,424,225.2z"/>
		<path d="M430.8,222.2h-2.5v6.1H427v-7.1h3.8V222.2z"/>
		<path d="M431.5,224.7c0-2.2,1.6-3.7,3.7-3.7s3.7,1.6,3.7,3.7c0,2.1-1.6,3.7-3.7,3.7S431.5,226.8,431.5,224.7z M437.6,224.7
			c0-1.6-1-2.7-2.4-2.7c-1.4,0-2.4,1.1-2.4,2.7c0,1.5,1,2.6,2.4,2.6C436.6,227.3,437.6,226.2,437.6,224.7z"/>
		<path d="M446.6,223.7l0,4.5h-1.3c0-1.3,0-2.7,0-4.4c0-1.1-0.7-1.8-1.8-1.8s-1.9,0.9-1.9,2v4.2h-1.3v-7.1h1.3v0.9
			c0.5-0.6,1.3-1.1,2.2-1.1C445.5,220.9,446.6,222,446.6,223.7z"/>
		<path d="M448.1,227.3l4.2-5.1h-4.1v-1.1h5.7v0.9l-4.2,5.1h4.4v1.1h-6V227.3z"/>
		<path d="M462.2,225.1h-5.7c0.1,1.3,1.1,2.2,2.4,2.2c1.1,0,1.8-0.6,2.2-1.5l1,0.3c-0.4,1.3-1.6,2.2-3.2,2.2c-2.2,0-3.7-1.5-3.7-3.7
			c0-2.2,1.4-3.7,3.6-3.7c2.1,0,3.4,1.5,3.4,3.7C462.2,224.7,462.2,224.8,462.2,225.1z M456.5,224.1h4.5c-0.1-1.3-0.9-2.1-2.2-2.1
			C457.5,222,456.5,222.8,456.5,224.1z"/>
		<path d="M432.9,242.2c0,1.8-1.6,3-3.5,3c-2,0-3.5-1.2-3.5-3c0-1.2,0.8-2.2,1.9-2.7c-0.9-0.4-1.5-1.1-1.5-2.2
			c0-1.5,1.4-2.6,3.1-2.6c1.7,0,3.1,1.1,3.1,2.6c0,1-0.6,1.8-1.5,2.2C432.2,240,432.9,240.9,432.9,242.2z M431.6,242.1
			c0-1.1-0.9-1.9-2.2-1.9c-1.3,0-2.2,0.8-2.2,1.9s0.9,1.9,2.2,1.9C430.7,244,431.6,243.2,431.6,242.1z M427.7,237.4
			c0,0.9,0.7,1.5,1.7,1.5c1,0,1.7-0.6,1.7-1.5c0-0.9-0.7-1.5-1.7-1.5C428.4,235.9,427.7,236.5,427.7,237.4z"/>
		<path d="M437.7,245.2c-1.9,0-3.4-1.2-3.6-3h1.4c0.2,1,1,1.8,2.2,1.8c1.3,0,2.2-0.9,2.2-2.2c0-1.2-0.9-2.1-2.2-2.1
			c-0.5,0-1.3,0.3-1.8,0.9h-1.3l0.5-5.7h5.5v1.2h-4.4l-0.3,3.1c0.5-0.4,1.2-0.7,2-0.7c1.8,0,3.2,1.3,3.3,3.2
			C441.3,243.7,439.8,245.2,437.7,245.2z"/>
		<path d="M449.4,242.2c0,1.8-1.6,3-3.5,3c-2,0-3.5-1.2-3.5-3c0-1.2,0.8-2.2,1.9-2.7c-0.9-0.4-1.5-1.1-1.5-2.2
			c0-1.5,1.4-2.6,3.1-2.6c1.7,0,3.1,1.1,3.1,2.6c0,1-0.6,1.8-1.5,2.2C448.7,240,449.4,240.9,449.4,242.2z M448.1,242.1
			c0-1.1-0.9-1.9-2.2-1.9c-1.3,0-2.2,0.8-2.2,1.9s0.9,1.9,2.2,1.9C447.2,244,448.1,243.2,448.1,242.1z M444.2,237.4
			c0,0.9,0.7,1.5,1.7,1.5c1,0,1.7-0.6,1.7-1.5c0-0.9-0.7-1.5-1.7-1.5C444.9,235.9,444.2,236.5,444.2,237.4z"/>
		<path d="M453.6,234.9V245h-1.4v-8.5c-0.4,0.5-0.9,0.6-1.9,0.6v-1.3c1,0,1.5,0,1.9-0.9H453.6z"/>
	</g>
	<circle class="st3" cx="651.7" cy="134.5" r="59.7"/>
	<g class="st1">
		<path d="M641.7,228.4c-2.9,0-5.2-2.3-5.2-5.2c0-2.9,2.3-5.2,5.2-5.2c1.9,0,3.7,1,4.5,2.8l-1.2,0.4c-0.5-1.3-1.8-2.1-3.2-2.1
			c-2.1,0-3.8,1.8-3.8,4.1c0,2.3,1.7,4,3.8,4c2,0,3.3-1.3,3.5-3.2h-3.9v-1.1h4.9c0.2,0,0.2,0.1,0.2,0.2v0.2
			C646.6,226.3,644.8,228.4,641.7,228.4z"/>
		<path d="M647.7,224.7c0-2.2,1.6-3.7,3.7-3.7c2.1,0,3.7,1.6,3.7,3.7c0,2.1-1.6,3.7-3.7,3.7C649.3,228.4,647.7,226.8,647.7,224.7z
			 M653.8,224.7c0-1.6-1-2.7-2.4-2.7c-1.4,0-2.4,1.1-2.4,2.7c0,1.5,1,2.6,2.4,2.6C652.9,227.3,653.8,226.2,653.8,224.7z"/>
		<path d="M656.6,218.1h1.3v10.1h-1.3V218.1z"/>
		<path d="M666.5,218.1v10.1h-1.3v-1.1c-0.4,0.6-1.1,1.3-2.4,1.3c-2,0-3.5-1.6-3.5-3.7s1.4-3.7,3.3-3.7c1.2,0,2.1,0.6,2.6,1.3v-4.1
			H666.5z M665.2,224.7c0-1.7-0.9-2.7-2.3-2.7c-1.3,0-2.3,1.1-2.3,2.7c0,1.5,1,2.6,2.3,2.6C664.3,227.3,665.2,226.3,665.2,224.7z"/>
		<path d="M642.8,242.2c0,1.8-1.6,3-3.5,3c-2,0-3.5-1.2-3.5-3c0-1.2,0.8-2.2,1.9-2.7c-0.9-0.4-1.5-1.1-1.5-2.2
			c0-1.5,1.4-2.6,3.1-2.6c1.7,0,3.1,1.1,3.1,2.6c0,1-0.6,1.8-1.5,2.2C642,240,642.8,240.9,642.8,242.2z M641.4,242.1
			c0-1.1-0.9-1.9-2.2-1.9c-1.3,0-2.2,0.8-2.2,1.9s0.9,1.9,2.2,1.9C640.5,244,641.4,243.2,641.4,242.1z M637.5,237.4
			c0,0.9,0.7,1.5,1.7,1.5c1,0,1.7-0.6,1.7-1.5c0-0.9-0.7-1.5-1.7-1.5C638.3,235.9,637.5,236.5,637.5,237.4z"/>
		<path d="M651,242.2c0,1.8-1.6,3-3.5,3c-2,0-3.5-1.2-3.5-3h1.4c0,1.1,0.9,1.9,2.2,1.9c1.2,0,2.2-0.8,2.2-1.9s-0.9-1.9-2.2-1.9h-1.3
			v-1l1.1,0c1.3,0,2-0.8,2-1.7c0-1-0.7-1.6-1.7-1.6c-1,0-1.7,0.6-1.7,1.4l-1.4,0c0-1.6,1.4-2.6,3.1-2.6c1.7,0,3.1,1.1,3.1,2.6
			c0,1-0.6,1.8-1.5,2.2C650.3,240,651,241,651,242.2z"/>
		<path d="M659.3,242.2c0,1.8-1.6,3-3.5,3c-2,0-3.5-1.2-3.5-3c0-1.2,0.8-2.2,1.9-2.7c-0.9-0.4-1.5-1.1-1.5-2.2
			c0-1.5,1.4-2.6,3.1-2.6c1.7,0,3.1,1.1,3.1,2.6c0,1-0.6,1.8-1.5,2.2C658.5,240,659.3,240.9,659.3,242.2z M657.9,242.1
			c0-1.1-0.9-1.9-2.2-1.9c-1.3,0-2.2,0.8-2.2,1.9s0.9,1.9,2.2,1.9C657,244,657.9,243.2,657.9,242.1z M654,237.4
			c0,0.9,0.7,1.5,1.7,1.5c1,0,1.7-0.6,1.7-1.5c0-0.9-0.7-1.5-1.7-1.5C654.8,235.9,654,236.5,654,237.4z"/>
		<path d="M664.1,245.2c-1.9,0-3.4-1.2-3.6-3h1.4c0.2,1,1,1.8,2.2,1.8c1.3,0,2.2-0.9,2.2-2.2c0-1.2-0.9-2.1-2.2-2.1
			c-0.5,0-1.3,0.3-1.8,0.9H661l0.5-5.7h5.5v1.2h-4.4l-0.3,3.1c0.5-0.4,1.2-0.7,2-0.7c1.8,0,3.2,1.3,3.3,3.2
			C667.7,243.7,666.2,245.2,664.1,245.2z"/>
	</g>
</g>
</svg>
