<?xml version="1.0" encoding="UTF-8"?>
<svg width="880px" height="275px" viewBox="0 0 880 275" version="1.1" xmlns="http://www.w3.org/2000/svg" xmlns:xlink="http://www.w3.org/1999/xlink">
    <!-- Generator: Sketch 51.3 (57544) - http://www.bohemiancoding.com/sketch -->
    <title>Artboard 5 Copy 6</title>
    <desc>Created with Sketch.</desc>
    <defs>
        <linearGradient x1="100%" y1="50%" x2="0%" y2="50%" id="linearGradient-1">
            <stop stop-color="#000000" offset="0%"></stop>
            <stop stop-color="#FFFFFF" offset="100%"></stop>
        </linearGradient>
    </defs>
    <g id="Artboard-5-Copy-6" stroke="none" stroke-width="1" fill="none" fill-rule="evenodd">
        <rect id="Rectangle-33" fill="url(#linearGradient-1)" x="27.7050781" y="61" width="824.589844" height="149"></rect>
        <text id="0%" font-family="KentosT16-Normal, Kentos T16" font-size="14" font-weight="normal" letter-spacing="0.3" fill="#9599AF">
            <tspan x="27.7050781" y="242.640625">0%</tspan>
        </text>
        <text id="30%" font-family="KentosT16-Normal, Kentos T16" font-size="14" font-weight="normal" letter-spacing="0.3" fill="#9599AF">
            <tspan x="266.854213" y="242.640625">30%</tspan>
        </text>
        <text id="100%" font-family="KentosT16-Normal, Kentos T16" font-size="14" font-weight="normal" letter-spacing="0.3" fill="#9599AF">
            <tspan x="816.294922" y="242.640625">100%</tspan>
        </text>
        <g id="Group" transform="translate(700.585380, 116.257646)" fill="#FFFFFF">
            <path d="M55.2108563,1.1677077 C55.46337,0.915194033 55.7099308,0.657687697 55.9868318,0.429369253 C56.2491387,0.212956396 56.5730859,0 56.9440794,0 C57.3150729,0.000192025605 57.638828,0.212956396 57.901135,0.429369253 C58.1780359,0.657687697 58.4245968,0.915194033 58.6771105,1.1677077 L58.8042314,1.29482865 C59.0569371,1.54734232 59.3142514,1.7939032 59.5425699,2.0706121 C59.7589827,2.33291907 59.9717471,2.65686627 59.9717471,3.02805176 C59.9717471,3.39904523 59.7589827,3.7228004 59.5425699,3.98510738 C59.3144435,4.2620083 59.0569371,4.50837715 58.8042314,4.76108285 L47.8939126,15.6714016 C47.641399,15.9241073 47.3948381,16.1814217 47.1181292,16.4097401 C46.8556302,16.626153 46.531683,16.8389173 46.1606895,16.8389173 C45.7896961,16.8389173 45.4659409,16.626153 45.2036339,16.4097401 C44.926733,16.1816137 44.6801721,15.9241073 44.4276584,15.6714016 L44.3005375,15.5442807 C44.0480238,15.291767 43.7905175,15.0453982 43.562199,14.7684972 C43.3457862,14.5061903 43.1330218,14.1820511 43.1330218,13.8110576 C43.1330218,13.4400641 43.3457862,13.1163089 43.562199,12.854002 C43.7905175,12.577101 44.0480238,12.3307322 44.3005375,12.0780265 L55.2108563,1.1677077 Z" id="Fill-1"></path>
            <path d="M33.6443454,22.7341994 C33.896859,22.4816857 34.1434199,22.2243714 34.4201288,21.995861 C34.6826278,21.7794481 35.006575,21.5666837 35.3775685,21.5666837 C35.748562,21.5666837 36.0723171,21.7792561 36.3346241,21.9956689 C36.611525,22.2241794 36.8580859,22.4816857 37.1105996,22.7341994 L37.2377205,22.8613204 C37.4902342,23.113834 37.7477405,23.3603949 37.976059,23.6371038 C38.1924718,23.8994108 38.4052362,24.22355 38.4052362,24.5945435 C38.4052362,24.9653449 38.1926639,25.2892921 37.976251,25.5515991 C37.7477405,25.828308 37.4904262,26.0748689 37.2377205,26.3275746 L26.3274017,37.2378933 C26.0748881,37.490599 25.8283272,37.7479134 25.5516183,37.9762318 C25.2891193,38.1926447 24.9651721,38.405409 24.5941786,38.405409 C24.2231851,38.405409 23.89943,38.1926447 23.637123,37.9762318 C23.3602221,37.7481054 23.1136612,37.490599 22.8611475,37.2378933 L22.7340266,37.1107724 C22.4815129,36.8582587 22.2240066,36.6118899 21.9956881,36.334989 C21.7792753,36.072682 21.5665109,35.7485428 21.5665109,35.3775493 C21.5665109,35.0065558 21.7792753,34.6829927 21.9956881,34.4204937 C22.2240066,34.1435927 22.4815129,33.8972239 22.7340266,33.6445182 L33.6443454,22.7341994 Z" id="Fill-4"></path>
            <path d="M58.8043082,33.644595 C59.0568219,33.8971087 59.3141362,34.1436696 59.5426467,34.4203785 C59.7590595,34.6826854 59.9718239,35.0068247 59.9718239,35.3776261 C59.9718239,35.7486196 59.7590595,36.0725668 59.5426467,36.3348737 C59.3143282,36.6115826 59.0568219,36.8581435 58.8043082,37.1108492 L58.6771873,37.2379702 C58.4244816,37.4904838 58.1781127,37.7477981 57.9014038,37.9763086 C57.6389048,38.1927215 57.3149576,38.4054858 56.9439642,38.4054858 C56.5729707,38.4054858 56.2492155,38.1927215 55.9869086,37.9763086 C55.7100076,37.7479902 55.4636388,37.4904838 55.2109331,37.2379702 L44.3006143,26.3276514 C44.0479086,26.0749457 43.7905943,25.8285768 43.5622758,25.5516759 C43.345863,25.2893689 43.1329066,24.9654217 43.1330986,24.5942362 C43.1330986,24.2232428 43.345863,23.8996796 43.5620838,23.6373726 C43.7904023,23.3602797 44.0479086,23.1139108 44.3006143,22.8613972 L44.4275432,22.7342762 C44.6802489,22.4815705 44.9266178,22.2242562 45.2033267,21.9959378 C45.4658257,21.7795249 45.7897729,21.5667605 46.1609584,21.5667605 C46.5317598,21.5667605 46.855515,21.7793329 47.118014,21.9957457 C47.3947229,22.2240642 47.6412837,22.4815705 47.8939894,22.7342762 L58.8043082,33.644595 Z" id="Fill-6"></path>
            <path d="M12.0778537,1.1677077 C12.3303673,0.915194033 12.5769282,0.657687697 12.8536371,0.429369253 C13.1161361,0.212956396 13.4400833,0 13.8110768,0 C14.1820703,0.000192025605 14.5058254,0.212956396 14.7681324,0.429369253 C15.0450333,0.657687697 15.2915942,0.915194033 15.5441079,1.1677077 L15.6712288,1.29482865 C15.9237425,1.54734232 16.1812488,1.7939032 16.4095673,2.0706121 C16.6259801,2.33291907 16.8387445,2.65686627 16.8387445,3.02805176 C16.8387445,3.39904523 16.6261722,3.7228004 16.4097593,3.98510738 C16.1812488,4.2620083 15.9237425,4.50837715 15.6712288,4.76108285 L4.76091003,15.6714016 C4.50839635,15.9241073 4.26183548,16.1814217 3.98512658,16.4097401 C3.72262758,16.626153 3.39868038,16.8389173 3.02768692,16.8389173 C2.65669345,16.8389173 2.33293828,16.626153 2.0706313,16.4097401 C1.79373038,16.1816137 1.5471695,15.9241073 1.29465583,15.6714016 L1.16753488,15.5442807 C0.91502121,15.291767 0.657514874,15.0453982 0.42919643,14.7684972 C0.212783573,14.5061903 1.92025605e-05,14.1820511 1.92025605e-05,13.8110576 C1.92025605e-05,13.4400641 0.212783573,13.116501 0.429004404,12.854002 C0.657514874,12.577101 0.91502121,12.3307322 1.16753488,12.0780265 L12.0778537,1.1677077 Z" id="Fill-8" fill-opacity="0.4"></path>
            <path d="M15.6712096,33.644595 C15.9237233,33.8971087 16.1812296,34.1436696 16.4095481,34.4203785 C16.6259609,34.6826854 16.8389173,35.0068247 16.8389173,35.3776261 C16.8387253,35.7486196 16.626153,36.0725668 16.4097401,36.3348737 C16.1812296,36.6115826 15.9237233,36.8581435 15.6712096,37.1108492 L15.5440887,37.2379702 C15.291575,37.4904838 15.0452061,37.7477981 14.7683052,37.9763086 C14.5059982,38.1927215 14.1820511,38.4054858 13.8108656,38.4054858 C13.4398721,38.4054858 13.1161169,38.1927215 12.8538099,37.9763086 C12.577101,37.7479902 12.3305402,37.4904838 12.0778345,37.2379702 L1.16751568,26.3276514 C0.915002007,26.0749457 0.657495671,25.8285768 0.429177227,25.5516759 C0.21276437,25.2893689 0,24.9654217 0,24.5942362 C0,24.2232428 0.21276437,23.8996796 0.428985201,23.6373726 C0.657495671,23.3602797 0.915002007,23.1139108 1.16751568,22.8613972 L1.29463663,22.7342762 C1.5471503,22.4815705 1.79371118,22.2242562 2.07042007,21.9959378 C2.33291907,21.7795249 2.65686627,21.5667605 3.02785974,21.5667605 C3.39885321,21.5667605 3.72260838,21.7793329 3.98491535,21.9957457 C4.26162425,22.2240642 4.50837715,22.4815705 4.76089082,22.7342762 L15.6712096,33.644595 Z" id="Fill-11" fill-opacity="0.4"></path>
            <path d="M37.2377013,12.0780073 C37.490215,12.330521 37.7477213,12.5770818 37.9760398,12.8539828 C38.1924526,13.1162897 38.405409,13.4402369 38.405409,13.8112304 C38.405217,14.1822239 38.1926447,14.505979 37.9762318,14.768286 C37.7477213,15.0451869 37.490407,15.2917478 37.2377013,15.5442615 L37.1105804,15.6713824 C36.8580667,15.9240881 36.6116978,16.1814024 36.3347969,16.4097209 C36.0724899,16.6261337 35.7485428,16.8388981 35.3773573,16.8388981 C35.0065558,16.8388981 34.6826086,16.6261337 34.4203016,16.4097209 C34.1435927,16.1815945 33.8970319,15.9240881 33.6443262,15.6713824 L22.7340074,4.76106365 C22.4814937,4.50854998 22.2239874,4.2619891 21.995861,3.9852802 C21.7792561,3.7227812 21.5664917,3.398834 21.5664917,3.02784054 C21.5664917,2.65684707 21.7792561,2.3330919 21.9956689,2.07078492 C22.2239874,1.793884 22.4814937,1.54732312 22.7340074,1.29480945 L22.8611283,1.1676885 C23.113642,0.915174831 23.3602029,0.657668494 23.6369118,0.42935005 C23.8994108,0.212937193 24.223358,0.000172823044 24.5943514,0.000172823044 C24.9653449,0.000172823044 25.2891001,0.212937193 25.5514071,0.42935005 C25.828308,0.657668494 26.0748689,0.915174831 26.3273825,1.1676885 L37.2377013,12.0780073 Z" id="Fill-13"></path>
            <path d="M76.777444,22.7341994 C77.0299577,22.4816857 77.2765185,22.2243714 77.5532274,21.995861 C77.8155344,21.7794481 78.1396736,21.5666837 78.5104751,21.5666837 C78.8814685,21.5666837 79.2054157,21.7792561 79.4677227,21.9956689 C79.7444316,22.2241794 79.9909925,22.4816857 80.2436982,22.7341994 L80.3708191,22.8613204 C80.6233328,23.113834 80.8806471,23.3603949 81.1091576,23.6371038 C81.3255704,23.8994108 81.5383348,24.22355 81.5383348,24.5945435 C81.5383348,24.9653449 81.3255704,25.2892921 81.1091576,25.5515991 C80.8808391,25.828308 80.6233328,26.0748689 80.3708191,26.3275746 L69.4605003,37.2378933 C69.2077946,37.490599 68.9614258,37.7479134 68.6845249,37.9762318 C68.4222179,38.1926447 68.0982707,38.405409 67.7270852,38.405409 C67.3560917,38.405409 67.0325286,38.1926447 66.7702216,37.9762318 C66.4931287,37.7481054 66.2467598,37.490599 65.9942462,37.2378933 L65.8671252,37.1107724 C65.6144195,36.8582587 65.3571052,36.6118899 65.1287867,36.334989 C64.9123739,36.072682 64.6996095,35.7485428 64.6996095,35.3775493 C64.6996095,35.0065558 64.9121819,34.6829927 65.1285947,34.4204937 C65.3569132,34.1435927 65.6144195,33.8972239 65.8671252,33.6445182 L76.777444,22.7341994 Z" id="Fill-15" fill-opacity="0.4"></path>
            <path d="M80.3707999,12.0780073 C80.6233136,12.330521 80.8806279,12.5770818 81.1091384,12.8539828 C81.3255512,13.1162897 81.5383156,13.4402369 81.5383156,13.8112304 C81.5383156,14.1822239 81.3255512,14.505979 81.1091384,14.768286 C80.8808199,15.0451869 80.6233136,15.2917478 80.3707999,15.5442615 L80.243679,15.6713824 C79.9909733,15.9240881 79.7446044,16.1814024 79.4678955,16.4097209 C79.2055886,16.6261337 78.8814493,16.8388981 78.5104559,16.8388981 C78.1394624,16.8388981 77.8157072,16.6261337 77.5534003,16.4097209 C77.2764993,16.1815945 77.0301305,15.9240881 76.7774248,15.6713824 L65.867106,4.76106365 C65.6144003,4.50854998 65.357086,4.2619891 65.1287675,3.9852802 C64.9123547,3.7227812 64.6995903,3.398834 64.6995903,3.02784054 C64.6995903,2.65684707 64.9121627,2.3330919 65.1285755,2.07078492 C65.356894,1.793884 65.6144003,1.54732312 65.867106,1.29480945 L65.9942269,1.1676885 C66.2465486,0.915174831 66.4931095,0.657668494 66.7700104,0.42935005 C67.0323174,0.212937193 67.3564566,0.000172823044 67.727258,0.000172823044 C68.0982515,0.000172823044 68.4220067,0.212937193 68.6845057,0.42935005 C68.9612146,0.657668494 69.2077754,0.915174831 69.4604811,1.1676885 L80.3707999,12.0780073 Z" id="Fill-17" fill-opacity="0.4"></path>
        </g>
        <g id="Group-Copy-2" transform="translate(305.953125, 116.257646)" fill="#FFFFFF">
            <path d="M55.2108563,1.1677077 C55.46337,0.915194033 55.7099308,0.657687697 55.9868318,0.429369253 C56.2491387,0.212956396 56.5730859,0 56.9440794,0 C57.3150729,0.000192025605 57.638828,0.212956396 57.901135,0.429369253 C58.1780359,0.657687697 58.4245968,0.915194033 58.6771105,1.1677077 L58.8042314,1.29482865 C59.0569371,1.54734232 59.3142514,1.7939032 59.5425699,2.0706121 C59.7589827,2.33291907 59.9717471,2.65686627 59.9717471,3.02805176 C59.9717471,3.39904523 59.7589827,3.7228004 59.5425699,3.98510738 C59.3144435,4.2620083 59.0569371,4.50837715 58.8042314,4.76108285 L47.8939126,15.6714016 C47.641399,15.9241073 47.3948381,16.1814217 47.1181292,16.4097401 C46.8556302,16.626153 46.531683,16.8389173 46.1606895,16.8389173 C45.7896961,16.8389173 45.4659409,16.626153 45.2036339,16.4097401 C44.926733,16.1816137 44.6801721,15.9241073 44.4276584,15.6714016 L44.3005375,15.5442807 C44.0480238,15.291767 43.7905175,15.0453982 43.562199,14.7684972 C43.3457862,14.5061903 43.1330218,14.1820511 43.1330218,13.8110576 C43.1330218,13.4400641 43.3457862,13.1163089 43.562199,12.854002 C43.7905175,12.577101 44.0480238,12.3307322 44.3005375,12.0780265 L55.2108563,1.1677077 Z" id="Fill-1"></path>
            <path d="M33.6443454,22.7341994 C33.896859,22.4816857 34.1434199,22.2243714 34.4201288,21.995861 C34.6826278,21.7794481 35.006575,21.5666837 35.3775685,21.5666837 C35.748562,21.5666837 36.0723171,21.7792561 36.3346241,21.9956689 C36.611525,22.2241794 36.8580859,22.4816857 37.1105996,22.7341994 L37.2377205,22.8613204 C37.4902342,23.113834 37.7477405,23.3603949 37.976059,23.6371038 C38.1924718,23.8994108 38.4052362,24.22355 38.4052362,24.5945435 C38.4052362,24.9653449 38.1926639,25.2892921 37.976251,25.5515991 C37.7477405,25.828308 37.4904262,26.0748689 37.2377205,26.3275746 L26.3274017,37.2378933 C26.0748881,37.490599 25.8283272,37.7479134 25.5516183,37.9762318 C25.2891193,38.1926447 24.9651721,38.405409 24.5941786,38.405409 C24.2231851,38.405409 23.89943,38.1926447 23.637123,37.9762318 C23.3602221,37.7481054 23.1136612,37.490599 22.8611475,37.2378933 L22.7340266,37.1107724 C22.4815129,36.8582587 22.2240066,36.6118899 21.9956881,36.334989 C21.7792753,36.072682 21.5665109,35.7485428 21.5665109,35.3775493 C21.5665109,35.0065558 21.7792753,34.6829927 21.9956881,34.4204937 C22.2240066,34.1435927 22.4815129,33.8972239 22.7340266,33.6445182 L33.6443454,22.7341994 Z" id="Fill-4"></path>
            <path d="M58.8043082,33.644595 C59.0568219,33.8971087 59.3141362,34.1436696 59.5426467,34.4203785 C59.7590595,34.6826854 59.9718239,35.0068247 59.9718239,35.3776261 C59.9718239,35.7486196 59.7590595,36.0725668 59.5426467,36.3348737 C59.3143282,36.6115826 59.0568219,36.8581435 58.8043082,37.1108492 L58.6771873,37.2379702 C58.4244816,37.4904838 58.1781127,37.7477981 57.9014038,37.9763086 C57.6389048,38.1927215 57.3149576,38.4054858 56.9439642,38.4054858 C56.5729707,38.4054858 56.2492155,38.1927215 55.9869086,37.9763086 C55.7100076,37.7479902 55.4636388,37.4904838 55.2109331,37.2379702 L44.3006143,26.3276514 C44.0479086,26.0749457 43.7905943,25.8285768 43.5622758,25.5516759 C43.345863,25.2893689 43.1329066,24.9654217 43.1330986,24.5942362 C43.1330986,24.2232428 43.345863,23.8996796 43.5620838,23.6373726 C43.7904023,23.3602797 44.0479086,23.1139108 44.3006143,22.8613972 L44.4275432,22.7342762 C44.6802489,22.4815705 44.9266178,22.2242562 45.2033267,21.9959378 C45.4658257,21.7795249 45.7897729,21.5667605 46.1609584,21.5667605 C46.5317598,21.5667605 46.855515,21.7793329 47.118014,21.9957457 C47.3947229,22.2240642 47.6412837,22.4815705 47.8939894,22.7342762 L58.8043082,33.644595 Z" id="Fill-6"></path>
            <path d="M12.0778537,1.1677077 C12.3303673,0.915194033 12.5769282,0.657687697 12.8536371,0.429369253 C13.1161361,0.212956396 13.4400833,0 13.8110768,0 C14.1820703,0.000192025605 14.5058254,0.212956396 14.7681324,0.429369253 C15.0450333,0.657687697 15.2915942,0.915194033 15.5441079,1.1677077 L15.6712288,1.29482865 C15.9237425,1.54734232 16.1812488,1.7939032 16.4095673,2.0706121 C16.6259801,2.33291907 16.8387445,2.65686627 16.8387445,3.02805176 C16.8387445,3.39904523 16.6261722,3.7228004 16.4097593,3.98510738 C16.1812488,4.2620083 15.9237425,4.50837715 15.6712288,4.76108285 L4.76091003,15.6714016 C4.50839635,15.9241073 4.26183548,16.1814217 3.98512658,16.4097401 C3.72262758,16.626153 3.39868038,16.8389173 3.02768692,16.8389173 C2.65669345,16.8389173 2.33293828,16.626153 2.0706313,16.4097401 C1.79373038,16.1816137 1.5471695,15.9241073 1.29465583,15.6714016 L1.16753488,15.5442807 C0.91502121,15.291767 0.657514874,15.0453982 0.42919643,14.7684972 C0.212783573,14.5061903 1.92025605e-05,14.1820511 1.92025605e-05,13.8110576 C1.92025605e-05,13.4400641 0.212783573,13.116501 0.429004404,12.854002 C0.657514874,12.577101 0.91502121,12.3307322 1.16753488,12.0780265 L12.0778537,1.1677077 Z" id="Fill-8" fill-opacity="0.4"></path>
            <path d="M15.6712096,33.644595 C15.9237233,33.8971087 16.1812296,34.1436696 16.4095481,34.4203785 C16.6259609,34.6826854 16.8389173,35.0068247 16.8389173,35.3776261 C16.8387253,35.7486196 16.626153,36.0725668 16.4097401,36.3348737 C16.1812296,36.6115826 15.9237233,36.8581435 15.6712096,37.1108492 L15.5440887,37.2379702 C15.291575,37.4904838 15.0452061,37.7477981 14.7683052,37.9763086 C14.5059982,38.1927215 14.1820511,38.4054858 13.8108656,38.4054858 C13.4398721,38.4054858 13.1161169,38.1927215 12.8538099,37.9763086 C12.577101,37.7479902 12.3305402,37.4904838 12.0778345,37.2379702 L1.16751568,26.3276514 C0.915002007,26.0749457 0.657495671,25.8285768 0.429177227,25.5516759 C0.21276437,25.2893689 0,24.9654217 0,24.5942362 C0,24.2232428 0.21276437,23.8996796 0.428985201,23.6373726 C0.657495671,23.3602797 0.915002007,23.1139108 1.16751568,22.8613972 L1.29463663,22.7342762 C1.5471503,22.4815705 1.79371118,22.2242562 2.07042007,21.9959378 C2.33291907,21.7795249 2.65686627,21.5667605 3.02785974,21.5667605 C3.39885321,21.5667605 3.72260838,21.7793329 3.98491535,21.9957457 C4.26162425,22.2240642 4.50837715,22.4815705 4.76089082,22.7342762 L15.6712096,33.644595 Z" id="Fill-11" fill-opacity="0.4"></path>
            <path d="M37.2377013,12.0780073 C37.490215,12.330521 37.7477213,12.5770818 37.9760398,12.8539828 C38.1924526,13.1162897 38.405409,13.4402369 38.405409,13.8112304 C38.405217,14.1822239 38.1926447,14.505979 37.9762318,14.768286 C37.7477213,15.0451869 37.490407,15.2917478 37.2377013,15.5442615 L37.1105804,15.6713824 C36.8580667,15.9240881 36.6116978,16.1814024 36.3347969,16.4097209 C36.0724899,16.6261337 35.7485428,16.8388981 35.3773573,16.8388981 C35.0065558,16.8388981 34.6826086,16.6261337 34.4203016,16.4097209 C34.1435927,16.1815945 33.8970319,15.9240881 33.6443262,15.6713824 L22.7340074,4.76106365 C22.4814937,4.50854998 22.2239874,4.2619891 21.995861,3.9852802 C21.7792561,3.7227812 21.5664917,3.398834 21.5664917,3.02784054 C21.5664917,2.65684707 21.7792561,2.3330919 21.9956689,2.07078492 C22.2239874,1.793884 22.4814937,1.54732312 22.7340074,1.29480945 L22.8611283,1.1676885 C23.113642,0.915174831 23.3602029,0.657668494 23.6369118,0.42935005 C23.8994108,0.212937193 24.223358,0.000172823044 24.5943514,0.000172823044 C24.9653449,0.000172823044 25.2891001,0.212937193 25.5514071,0.42935005 C25.828308,0.657668494 26.0748689,0.915174831 26.3273825,1.1676885 L37.2377013,12.0780073 Z" id="Fill-13"></path>
            <path d="M76.777444,22.7341994 C77.0299577,22.4816857 77.2765185,22.2243714 77.5532274,21.995861 C77.8155344,21.7794481 78.1396736,21.5666837 78.5104751,21.5666837 C78.8814685,21.5666837 79.2054157,21.7792561 79.4677227,21.9956689 C79.7444316,22.2241794 79.9909925,22.4816857 80.2436982,22.7341994 L80.3708191,22.8613204 C80.6233328,23.113834 80.8806471,23.3603949 81.1091576,23.6371038 C81.3255704,23.8994108 81.5383348,24.22355 81.5383348,24.5945435 C81.5383348,24.9653449 81.3255704,25.2892921 81.1091576,25.5515991 C80.8808391,25.828308 80.6233328,26.0748689 80.3708191,26.3275746 L69.4605003,37.2378933 C69.2077946,37.490599 68.9614258,37.7479134 68.6845249,37.9762318 C68.4222179,38.1926447 68.0982707,38.405409 67.7270852,38.405409 C67.3560917,38.405409 67.0325286,38.1926447 66.7702216,37.9762318 C66.4931287,37.7481054 66.2467598,37.490599 65.9942462,37.2378933 L65.8671252,37.1107724 C65.6144195,36.8582587 65.3571052,36.6118899 65.1287867,36.334989 C64.9123739,36.072682 64.6996095,35.7485428 64.6996095,35.3775493 C64.6996095,35.0065558 64.9121819,34.6829927 65.1285947,34.4204937 C65.3569132,34.1435927 65.6144195,33.8972239 65.8671252,33.6445182 L76.777444,22.7341994 Z" id="Fill-15" fill-opacity="0.4"></path>
            <path d="M80.3707999,12.0780073 C80.6233136,12.330521 80.8806279,12.5770818 81.1091384,12.8539828 C81.3255512,13.1162897 81.5383156,13.4402369 81.5383156,13.8112304 C81.5383156,14.1822239 81.3255512,14.505979 81.1091384,14.768286 C80.8808199,15.0451869 80.6233136,15.2917478 80.3707999,15.5442615 L80.243679,15.6713824 C79.9909733,15.9240881 79.7446044,16.1814024 79.4678955,16.4097209 C79.2055886,16.6261337 78.8814493,16.8388981 78.5104559,16.8388981 C78.1394624,16.8388981 77.8157072,16.6261337 77.5534003,16.4097209 C77.2764993,16.1815945 77.0301305,15.9240881 76.7774248,15.6713824 L65.867106,4.76106365 C65.6144003,4.50854998 65.357086,4.2619891 65.1287675,3.9852802 C64.9123547,3.7227812 64.6995903,3.398834 64.6995903,3.02784054 C64.6995903,2.65684707 64.9121627,2.3330919 65.1285755,2.07078492 C65.356894,1.793884 65.6144003,1.54732312 65.867106,1.29480945 L65.9942269,1.1676885 C66.2465486,0.915174831 66.4931095,0.657668494 66.7700104,0.42935005 C67.0323174,0.212937193 67.3564566,0.000172823044 67.727258,0.000172823044 C68.0982515,0.000172823044 68.4220067,0.212937193 68.6845057,0.42935005 C68.9612146,0.657668494 69.2077754,0.915174831 69.4604811,1.1676885 L80.3707999,12.0780073 Z" id="Fill-17" fill-opacity="0.4"></path>
        </g>
        <g id="Group-Copy" transform="translate(97.414620, 116.257646)" fill="#2B4EEF">
            <path d="M55.2108563,1.1677077 C55.46337,0.915194033 55.7099308,0.657687697 55.9868318,0.429369253 C56.2491387,0.212956396 56.5730859,0 56.9440794,0 C57.3150729,0.000192025605 57.638828,0.212956396 57.901135,0.429369253 C58.1780359,0.657687697 58.4245968,0.915194033 58.6771105,1.1677077 L58.8042314,1.29482865 C59.0569371,1.54734232 59.3142514,1.7939032 59.5425699,2.0706121 C59.7589827,2.33291907 59.9717471,2.65686627 59.9717471,3.02805176 C59.9717471,3.39904523 59.7589827,3.7228004 59.5425699,3.98510738 C59.3144435,4.2620083 59.0569371,4.50837715 58.8042314,4.76108285 L47.8939126,15.6714016 C47.641399,15.9241073 47.3948381,16.1814217 47.1181292,16.4097401 C46.8556302,16.626153 46.531683,16.8389173 46.1606895,16.8389173 C45.7896961,16.8389173 45.4659409,16.626153 45.2036339,16.4097401 C44.926733,16.1816137 44.6801721,15.9241073 44.4276584,15.6714016 L44.3005375,15.5442807 C44.0480238,15.291767 43.7905175,15.0453982 43.562199,14.7684972 C43.3457862,14.5061903 43.1330218,14.1820511 43.1330218,13.8110576 C43.1330218,13.4400641 43.3457862,13.1163089 43.562199,12.854002 C43.7905175,12.577101 44.0480238,12.3307322 44.3005375,12.0780265 L55.2108563,1.1677077 Z" id="Fill-1"></path>
            <path d="M33.6443454,22.7341994 C33.896859,22.4816857 34.1434199,22.2243714 34.4201288,21.995861 C34.6826278,21.7794481 35.006575,21.5666837 35.3775685,21.5666837 C35.748562,21.5666837 36.0723171,21.7792561 36.3346241,21.9956689 C36.611525,22.2241794 36.8580859,22.4816857 37.1105996,22.7341994 L37.2377205,22.8613204 C37.4902342,23.113834 37.7477405,23.3603949 37.976059,23.6371038 C38.1924718,23.8994108 38.4052362,24.22355 38.4052362,24.5945435 C38.4052362,24.9653449 38.1926639,25.2892921 37.976251,25.5515991 C37.7477405,25.828308 37.4904262,26.0748689 37.2377205,26.3275746 L26.3274017,37.2378933 C26.0748881,37.490599 25.8283272,37.7479134 25.5516183,37.9762318 C25.2891193,38.1926447 24.9651721,38.405409 24.5941786,38.405409 C24.2231851,38.405409 23.89943,38.1926447 23.637123,37.9762318 C23.3602221,37.7481054 23.1136612,37.490599 22.8611475,37.2378933 L22.7340266,37.1107724 C22.4815129,36.8582587 22.2240066,36.6118899 21.9956881,36.334989 C21.7792753,36.072682 21.5665109,35.7485428 21.5665109,35.3775493 C21.5665109,35.0065558 21.7792753,34.6829927 21.9956881,34.4204937 C22.2240066,34.1435927 22.4815129,33.8972239 22.7340266,33.6445182 L33.6443454,22.7341994 Z" id="Fill-4"></path>
            <path d="M58.8043082,33.644595 C59.0568219,33.8971087 59.3141362,34.1436696 59.5426467,34.4203785 C59.7590595,34.6826854 59.9718239,35.0068247 59.9718239,35.3776261 C59.9718239,35.7486196 59.7590595,36.0725668 59.5426467,36.3348737 C59.3143282,36.6115826 59.0568219,36.8581435 58.8043082,37.1108492 L58.6771873,37.2379702 C58.4244816,37.4904838 58.1781127,37.7477981 57.9014038,37.9763086 C57.6389048,38.1927215 57.3149576,38.4054858 56.9439642,38.4054858 C56.5729707,38.4054858 56.2492155,38.1927215 55.9869086,37.9763086 C55.7100076,37.7479902 55.4636388,37.4904838 55.2109331,37.2379702 L44.3006143,26.3276514 C44.0479086,26.0749457 43.7905943,25.8285768 43.5622758,25.5516759 C43.345863,25.2893689 43.1329066,24.9654217 43.1330986,24.5942362 C43.1330986,24.2232428 43.345863,23.8996796 43.5620838,23.6373726 C43.7904023,23.3602797 44.0479086,23.1139108 44.3006143,22.8613972 L44.4275432,22.7342762 C44.6802489,22.4815705 44.9266178,22.2242562 45.2033267,21.9959378 C45.4658257,21.7795249 45.7897729,21.5667605 46.1609584,21.5667605 C46.5317598,21.5667605 46.855515,21.7793329 47.118014,21.9957457 C47.3947229,22.2240642 47.6412837,22.4815705 47.8939894,22.7342762 L58.8043082,33.644595 Z" id="Fill-6"></path>
            <path d="M12.0778537,1.1677077 C12.3303673,0.915194033 12.5769282,0.657687697 12.8536371,0.429369253 C13.1161361,0.212956396 13.4400833,0 13.8110768,0 C14.1820703,0.000192025605 14.5058254,0.212956396 14.7681324,0.429369253 C15.0450333,0.657687697 15.2915942,0.915194033 15.5441079,1.1677077 L15.6712288,1.29482865 C15.9237425,1.54734232 16.1812488,1.7939032 16.4095673,2.0706121 C16.6259801,2.33291907 16.8387445,2.65686627 16.8387445,3.02805176 C16.8387445,3.39904523 16.6261722,3.7228004 16.4097593,3.98510738 C16.1812488,4.2620083 15.9237425,4.50837715 15.6712288,4.76108285 L4.76091003,15.6714016 C4.50839635,15.9241073 4.26183548,16.1814217 3.98512658,16.4097401 C3.72262758,16.626153 3.39868038,16.8389173 3.02768692,16.8389173 C2.65669345,16.8389173 2.33293828,16.626153 2.0706313,16.4097401 C1.79373038,16.1816137 1.5471695,15.9241073 1.29465583,15.6714016 L1.16753488,15.5442807 C0.91502121,15.291767 0.657514874,15.0453982 0.42919643,14.7684972 C0.212783573,14.5061903 1.92025605e-05,14.1820511 1.92025605e-05,13.8110576 C1.92025605e-05,13.4400641 0.212783573,13.116501 0.429004404,12.854002 C0.657514874,12.577101 0.91502121,12.3307322 1.16753488,12.0780265 L12.0778537,1.1677077 Z" id="Fill-8" fill-opacity="0.4"></path>
            <path d="M15.6712096,33.644595 C15.9237233,33.8971087 16.1812296,34.1436696 16.4095481,34.4203785 C16.6259609,34.6826854 16.8389173,35.0068247 16.8389173,35.3776261 C16.8387253,35.7486196 16.626153,36.0725668 16.4097401,36.3348737 C16.1812296,36.6115826 15.9237233,36.8581435 15.6712096,37.1108492 L15.5440887,37.2379702 C15.291575,37.4904838 15.0452061,37.7477981 14.7683052,37.9763086 C14.5059982,38.1927215 14.1820511,38.4054858 13.8108656,38.4054858 C13.4398721,38.4054858 13.1161169,38.1927215 12.8538099,37.9763086 C12.577101,37.7479902 12.3305402,37.4904838 12.0778345,37.2379702 L1.16751568,26.3276514 C0.915002007,26.0749457 0.657495671,25.8285768 0.429177227,25.5516759 C0.21276437,25.2893689 0,24.9654217 0,24.5942362 C0,24.2232428 0.21276437,23.8996796 0.428985201,23.6373726 C0.657495671,23.3602797 0.915002007,23.1139108 1.16751568,22.8613972 L1.29463663,22.7342762 C1.5471503,22.4815705 1.79371118,22.2242562 2.07042007,21.9959378 C2.33291907,21.7795249 2.65686627,21.5667605 3.02785974,21.5667605 C3.39885321,21.5667605 3.72260838,21.7793329 3.98491535,21.9957457 C4.26162425,22.2240642 4.50837715,22.4815705 4.76089082,22.7342762 L15.6712096,33.644595 Z" id="Fill-11" fill-opacity="0.4"></path>
            <path d="M37.2377013,12.0780073 C37.490215,12.330521 37.7477213,12.5770818 37.9760398,12.8539828 C38.1924526,13.1162897 38.405409,13.4402369 38.405409,13.8112304 C38.405217,14.1822239 38.1926447,14.505979 37.9762318,14.768286 C37.7477213,15.0451869 37.490407,15.2917478 37.2377013,15.5442615 L37.1105804,15.6713824 C36.8580667,15.9240881 36.6116978,16.1814024 36.3347969,16.4097209 C36.0724899,16.6261337 35.7485428,16.8388981 35.3773573,16.8388981 C35.0065558,16.8388981 34.6826086,16.6261337 34.4203016,16.4097209 C34.1435927,16.1815945 33.8970319,15.9240881 33.6443262,15.6713824 L22.7340074,4.76106365 C22.4814937,4.50854998 22.2239874,4.2619891 21.995861,3.9852802 C21.7792561,3.7227812 21.5664917,3.398834 21.5664917,3.02784054 C21.5664917,2.65684707 21.7792561,2.3330919 21.9956689,2.07078492 C22.2239874,1.793884 22.4814937,1.54732312 22.7340074,1.29480945 L22.8611283,1.1676885 C23.113642,0.915174831 23.3602029,0.657668494 23.6369118,0.42935005 C23.8994108,0.212937193 24.223358,0.000172823044 24.5943514,0.000172823044 C24.9653449,0.000172823044 25.2891001,0.212937193 25.5514071,0.42935005 C25.828308,0.657668494 26.0748689,0.915174831 26.3273825,1.1676885 L37.2377013,12.0780073 Z" id="Fill-13"></path>
            <path d="M76.777444,22.7341994 C77.0299577,22.4816857 77.2765185,22.2243714 77.5532274,21.995861 C77.8155344,21.7794481 78.1396736,21.5666837 78.5104751,21.5666837 C78.8814685,21.5666837 79.2054157,21.7792561 79.4677227,21.9956689 C79.7444316,22.2241794 79.9909925,22.4816857 80.2436982,22.7341994 L80.3708191,22.8613204 C80.6233328,23.113834 80.8806471,23.3603949 81.1091576,23.6371038 C81.3255704,23.8994108 81.5383348,24.22355 81.5383348,24.5945435 C81.5383348,24.9653449 81.3255704,25.2892921 81.1091576,25.5515991 C80.8808391,25.828308 80.6233328,26.0748689 80.3708191,26.3275746 L69.4605003,37.2378933 C69.2077946,37.490599 68.9614258,37.7479134 68.6845249,37.9762318 C68.4222179,38.1926447 68.0982707,38.405409 67.7270852,38.405409 C67.3560917,38.405409 67.0325286,38.1926447 66.7702216,37.9762318 C66.4931287,37.7481054 66.2467598,37.490599 65.9942462,37.2378933 L65.8671252,37.1107724 C65.6144195,36.8582587 65.3571052,36.6118899 65.1287867,36.334989 C64.9123739,36.072682 64.6996095,35.7485428 64.6996095,35.3775493 C64.6996095,35.0065558 64.9121819,34.6829927 65.1285947,34.4204937 C65.3569132,34.1435927 65.6144195,33.8972239 65.8671252,33.6445182 L76.777444,22.7341994 Z" id="Fill-15" fill-opacity="0.4"></path>
            <path d="M80.3707999,12.0780073 C80.6233136,12.330521 80.8806279,12.5770818 81.1091384,12.8539828 C81.3255512,13.1162897 81.5383156,13.4402369 81.5383156,13.8112304 C81.5383156,14.1822239 81.3255512,14.505979 81.1091384,14.768286 C80.8808199,15.0451869 80.6233136,15.2917478 80.3707999,15.5442615 L80.243679,15.6713824 C79.9909733,15.9240881 79.7446044,16.1814024 79.4678955,16.4097209 C79.2055886,16.6261337 78.8814493,16.8388981 78.5104559,16.8388981 C78.1394624,16.8388981 77.8157072,16.6261337 77.5534003,16.4097209 C77.2764993,16.1815945 77.0301305,15.9240881 76.7774248,15.6713824 L65.867106,4.76106365 C65.6144003,4.50854998 65.357086,4.2619891 65.1287675,3.9852802 C64.9123547,3.7227812 64.6995903,3.398834 64.6995903,3.02784054 C64.6995903,2.65684707 64.9121627,2.3330919 65.1285755,2.07078492 C65.356894,1.793884 65.6144003,1.54732312 65.867106,1.29480945 L65.9942269,1.1676885 C66.2465486,0.915174831 66.4931095,0.657668494 66.7700104,0.42935005 C67.0323174,0.212937193 67.3564566,0.000172823044 67.727258,0.000172823044 C68.0982515,0.000172823044 68.4220067,0.212937193 68.6845057,0.42935005 C68.9612146,0.657668494 69.2077754,0.915174831 69.4604811,1.1676885 L80.3707999,12.0780073 Z" id="Fill-17" fill-opacity="0.4"></path>
        </g>
        <rect id="Rectangle-34" fill-opacity="0.742980072" fill="#F5A623" x="278.744838" y="61" width="4.609375" height="149"></rect>
        <polygon id="Triangle" fill="#F5A623" points="281.057338 210.534647 285.963588 218.640625 276.151088 218.640625"></polygon>
    </g>
</svg>