<?xml version="1.0" encoding="UTF-8"?>
<svg width="880px" height="512px" viewBox="0 0 880 512" version="1.1" xmlns="http://www.w3.org/2000/svg" xmlns:xlink="http://www.w3.org/1999/xlink">
    <!-- Generator: Sketch 51.3 (57544) - http://www.bohemiancoding.com/sketch -->
    <title>Icon Template 512 pt</title>
    <desc>Created with Sketch.</desc>
    <defs>
        <path d="M288,104 L591,104 L591,407 L288,407 L288,104 Z" id="path-1"></path>
        <mask id="mask-2" maskContentUnits="userSpaceOnUse" maskUnits="objectBoundingBox" x="0" y="0" width="303" height="303" fill="white">
            <use xlink:href="#path-1"></use>
        </mask>
    </defs>
    <g id="Icon-Template-512-pt" stroke="none" stroke-width="1" fill="none" fill-rule="evenodd">
        <g id="Group-3" transform="translate(289.041016, 105.041016)">
            <g id="Template" fill="#FFFFFF" fill-opacity="0">
                <rect id="BG" x="0" y="0" width="300.722946" height="300.722946"></rect>
            </g>
            <g id="Group" transform="translate(19.612526, 88.566051)" fill="#B4B4B4">
                <path d="M176.95066,3.74250034 C177.759965,2.93319464 178.550192,2.10788746 179.437659,1.37612741 C180.278352,0.682524729 181.316602,0 182.505635,0 C183.694669,0.000615441595 184.732303,0.682524729 185.572996,1.37612741 C186.460463,2.10788746 187.25069,2.93319464 188.059996,3.74250034 L188.467418,4.14992268 C189.277339,4.95922837 190.102031,5.74945538 190.833791,6.63630672 C191.527394,7.47699994 192.209303,8.51524991 192.209303,9.70489851 C192.209303,10.8939317 191.527394,11.9315662 190.833791,12.7722594 C190.102647,13.6597262 189.277339,14.4493378 188.467418,15.2592589 L153.499873,50.226804 C152.690567,51.0367252 151.90034,51.8614169 151.013489,52.593177 C150.17218,53.2867796 149.13393,53.9686889 147.944897,53.9686889 C146.755864,53.9686889 145.71823,53.2867796 144.877536,52.593177 C143.99007,51.8620323 143.199843,51.0367252 142.390537,50.226804 L141.983115,49.8193817 C141.173809,49.010076 140.348502,48.2204644 139.616742,47.3329976 C138.923139,46.4923044 138.24123,45.453439 138.24123,44.2644058 C138.24123,43.0753727 138.923139,42.0377382 139.616742,41.1970449 C140.348502,40.3095782 141.173809,39.5199666 141.983115,38.7100455 L176.95066,3.74250034 Z" id="Fill-1"></path>
                <path d="M107.830045,72.8630536 C108.639351,72.0537479 109.429578,71.2290562 110.316429,70.4966807 C111.157738,69.803078 112.195988,69.1211687 113.385021,69.1211687 C114.574054,69.1211687 115.611688,69.8024626 116.452382,70.4960652 C117.339848,71.2284407 118.130075,72.0537479 118.939381,72.8630536 L119.346803,73.2704759 C120.156109,74.0797816 120.981416,74.8700087 121.713176,75.75686 C122.406779,76.5975532 123.088688,77.6364186 123.088688,78.8254518 C123.088688,80.0138695 122.407394,81.0521195 121.713792,81.8928127 C120.981416,82.779664 120.156725,83.569891 119.346803,84.3798122 L84.3792583,119.347357 C83.5699526,120.157278 82.7797256,120.98197 81.8928742,121.71373 C81.0515656,122.407333 80.0133156,123.089242 78.8242824,123.089242 C77.6352493,123.089242 76.5976148,122.407333 75.7569215,121.71373 C74.8694548,120.982586 74.0792277,120.157278 73.2699221,119.347357 L72.8624997,118.939935 C72.053194,118.130629 71.2278868,117.341018 70.4961268,116.453551 C69.8025241,115.612858 69.1206148,114.573992 69.1206148,113.384959 C69.1206148,112.195926 69.8025241,111.158907 70.4961268,110.317598 C71.2278868,109.430131 72.053194,108.64052 72.8624997,107.830599 L107.830045,72.8630536 Z" id="Fill-4"></path>
                <path d="M188.467664,107.830845 C189.27697,108.640151 190.101662,109.430378 190.834037,110.317229 C191.52764,111.157922 192.209549,112.196788 192.209549,113.385205 C192.209549,114.574238 191.52764,115.612488 190.834037,116.453182 C190.102277,117.340033 189.27697,118.13026 188.467664,118.940181 L188.060242,119.347603 C187.250321,120.156909 186.460709,120.981601 185.573858,121.713976 C184.732549,122.407579 183.694299,123.089488 182.505266,123.089488 C181.316233,123.089488 180.278599,122.407579 179.437905,121.713976 C178.550439,120.982216 177.760827,120.156909 176.950906,119.347603 L141.983361,84.3800584 C141.17344,83.5701372 140.348748,82.7805257 139.616988,81.8930589 C138.923385,81.0523657 138.24086,80.0141157 138.241476,78.8244671 C138.241476,77.6354339 138.923385,76.5984148 139.616372,75.7577216 C140.348132,74.8696394 141.17344,74.0800278 141.983361,73.2707221 L142.390168,72.8632998 C143.200089,72.0533786 143.9897,71.2286869 144.876552,70.4969269 C145.71786,69.8033242 146.75611,69.1214149 147.945759,69.1214149 C149.134177,69.1214149 150.171811,69.8027087 151.01312,70.4963114 C151.899971,71.2280715 152.690198,72.0533786 153.500119,72.8632998 L188.467664,107.830845 Z" id="Fill-6"></path>
                <path d="M38.7094916,3.74250034 C39.5187973,2.93319464 40.3090243,2.10788746 41.1958756,1.37612741 C42.0371843,0.682524729 43.0754342,0 44.2644674,0 C45.4535006,0.000615441595 46.4911351,0.682524729 47.3318283,1.37612741 C48.2192951,2.10788746 49.0095221,2.93319464 49.8188278,3.74250034 L50.2262501,4.14992268 C51.0355558,4.95922837 51.860863,5.74945538 52.5926231,6.63630672 C53.2862257,7.47699994 53.968135,8.51524991 53.968135,9.70489851 C53.968135,10.8939317 53.2868412,11.9315662 52.5932385,12.7722594 C51.860863,13.6597262 51.0355558,14.4493378 50.2262501,15.2592589 L15.258705,50.226804 C14.4493993,51.0367252 13.6591723,51.8614169 12.772321,52.593177 C11.9310123,53.2867796 10.8927623,53.9686889 9.70372917,53.9686889 C8.51469601,53.9686889 7.47706148,53.2867796 6.63636826,52.593177 C5.74890148,51.8620323 4.95867448,51.0367252 4.14936878,50.226804 L3.74194644,49.8193817 C2.93264075,49.010076 2.10733357,48.2204644 1.37557351,47.3329976 C0.681970832,46.4923044 6.15441596e-05,45.453439 6.15441596e-05,44.2644058 C6.15441596e-05,43.0753727 0.681970832,42.0383536 1.37495807,41.1970449 C2.10733357,40.3095782 2.93264075,39.5199666 3.74194644,38.7100455 L38.7094916,3.74250034 Z" id="Fill-8" fill-opacity="0.4"></path>
                <path d="M50.2261886,107.830845 C51.0354943,108.640151 51.8608015,109.430378 52.5925615,110.317229 C53.2861642,111.157922 53.9686889,112.196788 53.9686889,113.385205 C53.9680735,114.574238 53.2867796,115.612488 52.593177,116.453182 C51.8608015,117.340033 51.0354943,118.13026 50.2261886,118.940181 L49.8187662,119.347603 C49.0094605,120.156909 48.219849,120.981601 47.3323822,121.713976 C46.491689,122.407579 45.453439,123.089488 44.2637904,123.089488 C43.0747572,123.089488 42.0371227,122.407579 41.1964295,121.713976 C40.3095782,120.982216 39.5193511,120.156909 38.70943,119.347603 L3.7418849,84.3800584 C2.9325792,83.5701372 2.10727202,82.7805257 1.37551197,81.8930589 C0.681909287,81.0523657 0,80.0141157 0,78.8244671 C0,77.6354339 0.681909287,76.5984148 1.37489652,75.7577216 C2.10727202,74.8696394 2.9325792,74.0800278 3.7418849,73.2707221 L4.14930723,72.8632998 C4.95861293,72.0533786 5.74883994,71.2286869 6.63569128,70.4969269 C7.47699994,69.8033242 8.51524991,69.1214149 9.70428307,69.1214149 C10.8933162,69.1214149 11.9309508,69.8027087 12.771644,70.4963114 C13.6584953,71.2280715 14.4493378,72.0533786 15.2586435,72.8632998 L50.2261886,107.830845 Z" id="Fill-11" fill-opacity="0.4"></path>
                <path d="M119.346742,38.7099839 C120.156048,39.5192896 120.981355,40.3095166 121.713115,41.1969834 C122.406717,42.0376766 123.089242,43.0759266 123.089242,44.2649597 C123.088627,45.4539929 122.407333,46.4916274 121.71373,47.3323207 C120.981355,48.2197874 120.156663,49.0100144 119.346742,49.8193201 L118.93932,50.2267425 C118.130014,51.0366636 117.340402,51.8613554 116.452935,52.5931154 C115.612242,53.2867181 114.573992,53.9686274 113.384344,53.9686274 C112.195926,53.9686274 111.157676,53.2867181 110.316983,52.5931154 C109.430131,51.8619708 108.639904,51.0366636 107.829983,50.2267425 L72.8624382,15.2591974 C72.0531325,14.4498917 71.2278253,13.6596647 70.4966807,12.7728133 C69.8024626,11.9315047 69.1205533,10.8932547 69.1205533,9.70422153 C69.1205533,8.51518837 69.8024626,7.47755384 70.4960652,6.63686062 C71.2278253,5.74939384 72.0531325,4.95916683 72.8624382,4.14986113 L73.2698605,3.7424388 C74.0791662,2.9331331 74.8693932,2.10782592 75.7562446,1.37606586 C76.5975532,0.682463185 77.6358032,0.000553897436 78.8248363,0.000553897436 C80.0138695,0.000553897436 81.051504,0.682463185 81.8921973,1.37606586 C82.779664,2.10782592 83.569891,2.9331331 84.3791967,3.7424388 L119.346742,38.7099839 Z" id="Fill-13"></path>
                <path d="M246.071521,72.8630536 C246.880826,72.0537479 247.671053,71.2290562 248.557905,70.4966807 C249.398598,69.803078 250.437463,69.1211687 251.625881,69.1211687 C252.814914,69.1211687 253.853164,69.8024626 254.693857,70.4960652 C255.580709,71.2284407 256.370936,72.0537479 257.180857,72.8630536 L257.588279,73.2704759 C258.397585,74.0797816 259.222277,74.8700087 259.954652,75.75686 C260.648255,76.5975532 261.330164,77.6364186 261.330164,78.8254518 C261.330164,80.0138695 260.648255,81.0521195 259.954652,81.8928127 C259.222892,82.779664 258.397585,83.569891 257.588279,84.3798122 L222.620734,119.347357 C221.810813,120.157278 221.021201,120.98197 220.133735,121.71373 C219.293041,122.407333 218.254791,123.089242 217.065143,123.089242 C215.87611,123.089242 214.839091,122.407333 213.998397,121.71373 C213.110315,120.982586 212.320704,120.157278 211.511398,119.347357 L211.103976,118.939935 C210.294054,118.130629 209.469363,117.341018 208.737603,116.453551 C208.044,115.612858 207.362091,114.573992 207.362091,113.384959 C207.362091,112.195926 208.043384,111.158907 208.736987,110.317598 C209.468747,109.430131 210.294054,108.64052 211.103976,107.830599 L246.071521,72.8630536 Z" id="Fill-15" fill-opacity="0.4"></path>
                <path d="M257.588218,38.7099839 C258.397523,39.5192896 259.222215,40.3095166 259.954591,41.1969834 C260.648193,42.0376766 261.330103,43.0759266 261.330103,44.2649597 C261.330103,45.4539929 260.648193,46.4916274 259.954591,47.3323207 C259.222831,48.2197874 258.397523,49.0100144 257.588218,49.8193201 L257.180795,50.2267425 C256.370874,51.0366636 255.581263,51.8613554 254.694411,52.5931154 C253.853718,53.2867181 252.814853,53.9686274 251.625819,53.9686274 C250.436786,53.9686274 249.399152,53.2867181 248.558459,52.5931154 C247.670992,51.8619708 246.88138,51.0366636 246.071459,50.2267425 L211.103914,15.2591974 C210.293993,14.4498917 209.469301,13.6596647 208.737541,12.7728133 C208.043938,11.9315047 207.362029,10.8932547 207.362029,9.70422153 C207.362029,8.51518837 208.043323,7.47755384 208.736926,6.63686062 C209.468686,5.74939384 210.293993,4.95916683 211.103914,4.14986113 L211.511336,3.7424388 C212.320027,2.9331331 213.110254,2.10782592 213.99772,1.37606586 C214.838414,0.682463185 215.877279,0.000553897436 217.065697,0.000553897436 C218.25473,0.000553897436 219.292364,0.682463185 220.133673,1.37606586 C221.020524,2.10782592 221.810751,2.9331331 222.620673,3.7424388 L257.588218,38.7099839 Z" id="Fill-17" fill-opacity="0.4"></path>
            </g>
            <g id="Group-2">
                <circle id="Oval-3" stroke="#B3B7CB" cx="150.361473" cy="150.361473" r="150.361473"></circle>
                <rect id="Rectangle-7" stroke="#DCDCDC" fill-opacity="0" fill="#D8D8D8" x="45.1385624" y="45.1385624" width="210.445822" height="210.445822"></rect>
                <rect id="Rectangle-7" stroke="#DCDCDC" fill-opacity="0" fill="#D8D8D8" transform="translate(150.361473, 150.361473) rotate(-45.000000) translate(-150.361473, -150.361473) " x="45.1385624" y="45.1385624" width="210.445822" height="210.445822"></rect>
                <path d="M0,150.361473 L300.722946,150.361473" id="Line" stroke="#929292" stroke-linecap="square"></path>
                <path d="M150.361473,0 L150.361473,300.722946" id="Line" stroke="#B3B7CB" stroke-linecap="square"></path>
                <path d="M44.0398559,44.0398559 L256.683091,256.683091" id="Line" stroke="#DCDCDC" fill-opacity="0" fill="#D8D8D8" stroke-linecap="square"></path>
                <path d="M256.769106,43.8321965 L44.1258712,256.475431" id="Line" stroke="#DCDCDC" fill-opacity="0" fill="#D8D8D8" stroke-linecap="square"></path>
            </g>
        </g>
        <use id="Rectangle-30" stroke="#979797" mask="url(#mask-2)" stroke-width="2" stroke-dasharray="4" xlink:href="#path-1"></use>
    </g>
</svg>