<?xml version="1.0" encoding="UTF-8"?>
<svg width="880px" height="512px" viewBox="0 0 880 512" version="1.1" xmlns="http://www.w3.org/2000/svg" xmlns:xlink="http://www.w3.org/1999/xlink">
    <!-- Generator: Sketch 51.3 (57544) - http://www.bohemiancoding.com/sketch -->
    <title>Artboard 5 Copy 10</title>
    <desc>Created with Sketch.</desc>
    <defs>
        <polygon id="path-1" points="0.104256874 0.167609619 14.8166568 0.167609619 14.8166568 14.8800263 0.104256874 14.8800263"></polygon>
        <polygon id="path-3" points="5.0333219e-05 0.167609619 14.7124502 0.167609619 14.7124502 14.8800263 5.0333219e-05 14.8800263"></polygon>
        <polygon id="path-5" points="0.0834021439 0.0201500653 26.7197249 0.0201500653 26.7197249 3.0401432 0.0834021439 3.0401432"></polygon>
        <polygon id="path-7" points="0.104256874 0.167609619 14.8166568 0.167609619 14.8166568 14.8800263 0.104256874 14.8800263"></polygon>
        <polygon id="path-9" points="5.0333219e-05 0.167609619 14.7124502 0.167609619 14.7124502 14.8800263 5.0333219e-05 14.8800263"></polygon>
        <polygon id="path-11" points="0.0834021439 0.0201500653 26.7197249 0.0201500653 26.7197249 3.0401432 0.0834021439 3.0401432"></polygon>
        <polygon id="path-13" points="5.546307e-05 -7.10542736e-15 51.28503 -7.10542736e-15 51.28503 51.28503 5.546307e-05 51.28503"></polygon>
        <polygon id="path-15" points="5.546307e-05 -7.10542736e-15 51.28503 -7.10542736e-15 51.28503 51.28503 5.546307e-05 51.28503"></polygon>
        <polygon id="path-17" points="0.104256874 0.167609619 14.8166568 0.167609619 14.8166568 14.8800263 0.104256874 14.8800263"></polygon>
        <polygon id="path-19" points="5.0333219e-05 0.167609619 14.7124502 0.167609619 14.7124502 14.8800263 5.0333219e-05 14.8800263"></polygon>
        <polygon id="path-21" points="0.0834021439 0.0201500653 26.7197249 0.0201500653 26.7197249 3.0401432 0.0834021439 3.0401432"></polygon>
        <polygon id="path-23" points="0.104256874 0.167609619 14.8166568 0.167609619 14.8166568 14.8800263 0.104256874 14.8800263"></polygon>
        <polygon id="path-25" points="5.0333219e-05 0.167609619 14.7124502 0.167609619 14.7124502 14.8800263 5.0333219e-05 14.8800263"></polygon>
        <polygon id="path-27" points="0.0834021439 0.0201500653 26.7197249 0.0201500653 26.7197249 3.0401432 0.0834021439 3.0401432"></polygon>
    </defs>
    <g id="Artboard-5-Copy-10" stroke="none" stroke-width="1" fill="none" fill-rule="evenodd">
        <g id="Group-2-Copy" transform="translate(221.000000, 263.128906)">
            <rect id="Rectangle-35" fill="#E5E5E5" x="0.0619421864" y="0" width="218.890625" height="212"></rect>
            <rect id="Rectangle-35-Copy" fill="#404040" x="218.952567" y="0" width="218.890625" height="212"></rect>
        </g>
        <g id="Group-2-Copy-2" transform="translate(221.000000, 29.757646)">
            <rect id="Rectangle-35" fill="#E5E5E5" x="0.0619421864" y="0" width="218.890625" height="212"></rect>
            <rect id="Rectangle-35-Copy" fill="#404040" x="218.952567" y="0" width="218.890625" height="212"></rect>
            <g id="Group" transform="translate(241.397880, 84.178315)">
                <g id="Group-70" transform="translate(0.414549, 0.712769)">
                    <g id="Group-3" transform="translate(37.582137, 0.000168)">
                        <mask id="mask-2" fill="white">
                            <use xlink:href="#path-1"></use>
                        </mask>
                        <g id="Clip-2"></g>
                        <path d="M10.6569518,1.18771297 C10.8775791,0.967085692 11.0930052,0.742096203 11.3349402,0.542608878 C11.5641242,0.353523752 11.8471646,0.16745862 12.1713106,0.16745862 C12.4954565,0.167626397 12.7783292,0.353523752 13.0075131,0.542608878 C13.2494481,0.742096203 13.4648743,0.967085692 13.6855016,1.18771297 L13.7965702,1.29878161 C14.0173653,1.51940888 14.242187,1.73483506 14.4416743,1.97660229 C14.6307594,2.20578621 14.8166568,2.48882668 14.8166568,2.81314039 C14.8166568,3.13728632 14.6307594,3.42015901 14.4416743,3.64934293 C14.2423548,3.89127794 14.0173653,4.10653634 13.7965702,4.32733139 L4.26396187,13.8599397 C4.04333459,14.0807348 3.82790842,14.3055565 3.58614119,14.5050438 C3.35678949,14.694129 3.07374902,14.8800263 2.74960309,14.8800263 C2.42545716,14.8800263 2.14258447,14.694129 1.91340054,14.5050438 C1.67146554,14.3057243 1.45603936,14.0807348 1.23541208,13.8599397 L1.12434345,13.7488711 C0.903716169,13.5282438 0.67872668,13.3129854 0.479239356,13.0710504 C0.29015423,12.8418665 0.104256874,12.5586582 0.104256874,12.2345123 C0.104256874,11.9103664 0.29015423,11.6274937 0.479239356,11.3983098 C0.67872668,11.1563748 0.903716169,10.9411164 1.12434345,10.7203213 L10.6569518,1.18771297 Z" id="Fill-1" fill="#FFFFFF" mask="url(#mask-2)"></path>
                    </g>
                    <path d="M29.3959086,20.031044 C29.6165358,19.8104168 29.831962,19.5855951 30.0737292,19.38594 C30.3030809,19.1968548 30.5861214,19.0109575 30.9102673,19.0109575 C31.2344133,19.0109575 31.517286,19.1966871 31.7464699,19.3857722 C31.9884049,19.5854273 32.2038311,19.8104168 32.4244583,20.031044 L32.535527,20.1421127 C32.7561543,20.36274 32.9811437,20.5781661 33.1806311,20.8199334 C33.3697162,21.0491173 33.5556135,21.3323255 33.5556135,21.6564715 C33.5556135,21.9804496 33.369884,22.2634901 33.1807988,22.492674 C32.9811437,22.7344412 32.756322,22.9498674 32.535527,23.1706625 L23.0029186,32.7032708 C22.7822914,32.9240659 22.5668652,33.1488876 22.3250979,33.3483749 C22.0957462,33.53746 21.8127058,33.7233574 21.4885598,33.7233574 C21.1644139,33.7233574 20.8815412,33.53746 20.6523573,33.3483749 C20.4104223,33.1490554 20.1949961,32.9240659 19.9743688,32.7032708 L19.8633002,32.5922022 C19.6426729,32.3715749 19.4176834,32.1563165 19.2181961,31.9143815 C19.029111,31.6851976 18.8432136,31.4019893 18.8432136,31.0778434 C18.8432136,30.7536975 19.029111,30.4709926 19.2181961,30.2416409 C19.4176834,29.9997058 19.6426729,29.7844474 19.8633002,29.5636524 L29.3959086,20.031044 Z" id="Fill-4" fill="#FFFFFF"></path>
                    <path d="M51.3787742,29.5637195 C51.5994014,29.7843468 51.8242232,29.999773 52.0238783,30.2415402 C52.2129634,30.4707241 52.3988607,30.7539324 52.3988607,31.0779105 C52.3988607,31.4020564 52.2129634,31.6850969 52.0238783,31.9142808 C51.8243909,32.1560481 51.5994014,32.3714742 51.3787742,32.5922693 L51.2677055,32.7033379 C51.0469105,32.9239652 50.8316521,33.1487869 50.5898848,33.348442 C50.3605331,33.5375271 50.0774927,33.7234245 49.7533468,33.7234245 C49.4292008,33.7234245 49.1463281,33.5375271 48.9171442,33.348442 C48.6752092,33.1489547 48.4599508,32.9239652 48.2391557,32.7033379 L38.7065474,23.1707296 C38.4857523,22.9499345 38.2609306,22.7346761 38.0614433,22.4927411 C37.8723582,22.2635572 37.6862931,21.9805167 37.6864608,21.656203 C37.6864608,21.3320571 37.8723582,21.0493522 38.0612755,20.8201683 C38.2607629,20.5780655 38.4857523,20.3628071 38.7065474,20.1421798 L38.8174483,20.0311112 C39.0382433,19.8103161 39.2535017,19.5854944 39.4952689,19.3860071 C39.7246206,19.1969219 40.0076611,19.0110246 40.3319748,19.0110246 C40.655953,19.0110246 40.9388257,19.1967542 41.1681774,19.3858393 C41.4099446,19.5853266 41.6253708,19.8103161 41.8461658,20.0311112 L51.3787742,29.5637195 Z" id="Fill-6" fill="#FFFFFF"></path>
                    <g id="Group-10" transform="translate(0.000000, 0.000168)">
                        <mask id="mask-4" fill="white">
                            <use xlink:href="#path-3"></use>
                        </mask>
                        <g id="Clip-9"></g>
                        <path d="M10.5527452,1.18771297 C10.7733725,0.967085692 10.9887987,0.742096203 11.2305659,0.542608878 C11.4599176,0.353523752 11.7429581,0.16745862 12.067104,0.16745862 C12.39125,0.167626397 12.6741227,0.353523752 12.9033066,0.542608878 C13.1452416,0.742096203 13.3606678,0.967085692 13.581295,1.18771297 L13.6923637,1.29878161 C13.9129909,1.51940888 14.1379804,1.73483506 14.3374678,1.97660229 C14.5265529,2.20578621 14.7124502,2.48882668 14.7124502,2.81314039 C14.7124502,3.13728632 14.5267207,3.42015901 14.3376355,3.64934293 C14.1379804,3.89127794 13.9129909,4.10653634 13.6923637,4.32733139 L4.15975533,13.8599397 C3.93912805,14.0807348 3.72370187,14.3055565 3.48193465,14.5050438 C3.25258294,14.694129 2.96954248,14.8800263 2.64539655,14.8800263 C2.32125062,14.8800263 2.03837792,14.694129 1.809194,14.5050438 C1.567259,14.3057243 1.35183282,14.0807348 1.13120554,13.8599397 L1.0201369,13.7488711 C0.799509628,13.5282438 0.574520139,13.3129854 0.375032815,13.0710504 C0.185947689,12.8418665 5.0333219e-05,12.5586582 5.0333219e-05,12.2345123 C5.0333219e-05,11.9103664 0.185947689,11.6276615 0.374865037,11.3983098 C0.574520139,11.1563748 0.799509628,10.9411164 1.0201369,10.7203213 L10.5527452,1.18771297 Z" id="Fill-8" fill-opacity="0.4" fill="#FFFFFF" mask="url(#mask-4)"></path>
                    </g>
                    <path d="M13.6923469,29.5637195 C13.9129742,29.7843468 14.1379637,29.999773 14.337451,30.2415402 C14.5265361,30.4707241 14.7126012,30.7539324 14.7126012,31.0779105 C14.7124335,31.4020564 14.5267039,31.6850969 14.3376188,31.9142808 C14.1379637,32.1560481 13.9129742,32.3714742 13.6923469,32.5922693 L13.5812783,32.7033379 C13.360651,32.9239652 13.1453926,33.1487869 12.9034576,33.348442 C12.6742737,33.5375271 12.3912332,33.7234245 12.0669195,33.7234245 C11.7427735,33.7234245 11.4599009,33.5375271 11.2307169,33.348442 C10.9889497,33.1489547 10.7735235,32.9239652 10.5527285,32.7033379 L1.02012013,23.1707296 C0.79949285,22.9499345 0.574503362,22.7346761 0.375016037,22.4927411 C0.185930911,22.2635572 3.35554793e-05,21.9805167 3.35554793e-05,21.656203 C3.35554793e-05,21.3320571 0.185930911,21.0493522 0.37484826,20.8201683 C0.574503362,20.5780655 0.79949285,20.3628071 1.02012013,20.1421798 L1.13118876,20.0311112 C1.35181604,19.8103161 1.56724222,19.5854944 1.80900945,19.3860071 C2.03836115,19.1969219 2.32140162,19.0110246 2.64554755,19.0110246 C2.96969348,19.0110246 3.25256617,19.1967542 3.48175009,19.3858393 C3.72351732,19.5853266 3.93911127,19.8103161 4.15973855,20.0311112 L13.6923469,29.5637195 Z" id="Fill-11" fill-opacity="0.4" fill="#FFFFFF"></path>
                    <path d="M32.5355102,10.7204723 C32.7561375,10.9410996 32.981127,11.1565258 33.1806143,11.3984608 C33.3696994,11.6276447 33.5557645,11.9106852 33.5557645,12.2348311 C33.5555968,12.558977 33.3698672,12.8418497 33.1807821,13.0710336 C32.981127,13.3129686 32.7563053,13.5283948 32.5355102,13.7490221 L32.4244416,13.8600907 C32.2038143,14.0808858 31.9885559,14.3057075 31.7466209,14.5051948 C31.517437,14.69428 31.2343965,14.8801773 30.9100828,14.8801773 C30.5861046,14.8801773 30.3030642,14.69428 30.0738802,14.5051948 C29.832113,14.3058753 29.6166868,14.0808858 29.3958918,13.8600907 L19.8632834,4.32748239 C19.6426562,4.10685511 19.4176667,3.89142894 19.2183471,3.64966171 C19.0290942,3.42031001 18.8431969,3.13726954 18.8431969,2.81312361 C18.8431969,2.48897768 19.0290942,2.20610499 19.2181793,1.97692106 C19.4176667,1.73498606 19.6426562,1.51955988 19.8632834,1.2989326 L19.9743521,1.18786397 C20.1949793,0.967236692 20.4104055,0.742247203 20.6521727,0.542759878 C20.8815245,0.353674752 21.1645649,0.167777397 21.4887108,0.167777397 C21.8128568,0.167777397 22.0957295,0.353674752 22.3249134,0.542759878 C22.5668484,0.742247203 22.7822746,0.967236692 23.0029019,1.18786397 L32.5355102,10.7204723 Z" id="Fill-13" fill="#FFFFFF"></path>
                    <path d="M67.0823358,20.031044 C67.3029631,19.8104168 67.5183893,19.5855951 67.7601565,19.38594 C67.9893404,19.1968548 68.2725487,19.0109575 68.5965268,19.0109575 C68.9206728,19.0109575 69.2037132,19.1966871 69.4328972,19.3857722 C69.6746644,19.5854273 69.8900906,19.8104168 70.1108856,20.031044 L70.2219543,20.1421127 C70.4425815,20.36274 70.6674032,20.5781661 70.8670583,20.8199334 C71.0561435,21.0491173 71.2420408,21.3323255 71.2420408,21.6564715 C71.2420408,21.9804496 71.0561435,22.2634901 70.8670583,22.492674 C70.667571,22.7344412 70.4425815,22.9498674 70.2219543,23.1706625 L60.6893459,32.7032708 C60.4685509,32.9240659 60.2532925,33.1488876 60.0113574,33.3483749 C59.7821735,33.53746 59.4991331,33.7233574 59.1748193,33.7233574 C58.8506734,33.7233574 58.5679685,33.53746 58.3387846,33.3483749 C58.0966818,33.1490554 57.8814234,32.9240659 57.6607961,32.7032708 L57.5497275,32.5922022 C57.3289324,32.3715749 57.1041107,32.1563165 56.9046234,31.9143815 C56.7155383,31.6851976 56.5296409,31.4019893 56.5296409,31.0778434 C56.5296409,30.7536975 56.7153705,30.4709926 56.9044556,30.2416409 C57.1039429,29.9997058 57.3289324,29.7844474 57.5497275,29.5636524 L67.0823358,20.031044 Z" id="Fill-15" fill-opacity="0.4" fill="#FFFFFF"></path>
                    <path d="M70.2219375,10.7204723 C70.4425647,10.9410996 70.6673865,11.1565258 70.8670416,11.3984608 C71.0561267,11.6276447 71.242024,11.9106852 71.242024,12.2348311 C71.242024,12.558977 71.0561267,12.8418497 70.8670416,13.0710336 C70.6675542,13.3129686 70.4425647,13.5283948 70.2219375,13.7490221 L70.1108688,13.8600907 C69.8900738,14.0808858 69.6748154,14.3057075 69.4330482,14.5051948 C69.2038642,14.69428 68.920656,14.8801773 68.5965101,14.8801773 C68.2723641,14.8801773 67.9894914,14.69428 67.7603075,14.5051948 C67.5183725,14.3058753 67.3031141,14.0808858 67.082319,13.8600907 L57.5497107,4.32748239 C57.3289157,4.10685511 57.1040939,3.89142894 56.9046066,3.64966171 C56.7155215,3.42031001 56.5296241,3.13726954 56.5296241,2.81312361 C56.5296241,2.48897768 56.7153537,2.20610499 56.9044388,1.97692106 C57.1039262,1.73498606 57.3289157,1.51955988 57.5497107,1.2989326 L57.6607793,1.18786397 C57.8812388,0.967236692 58.096665,0.742247203 58.3386,0.542759878 C58.5677839,0.353674752 58.8509922,0.167777397 59.1749703,0.167777397 C59.4991163,0.167777397 59.781989,0.353674752 60.0113407,0.542759878 C60.2531079,0.742247203 60.4685341,0.967236692 60.6893291,1.18786397 L70.2219375,10.7204723 Z" id="Fill-17" fill-opacity="0.4" fill="#FFFFFF"></path>
                    <g id="Group-27" transform="translate(145.966335, 11.576808)">
                        <mask id="mask-6" fill="white">
                            <use xlink:href="#path-5"></use>
                        </mask>
                        <g id="Clip-26"></g>
                    </g>
                    <g id="Group-6" transform="translate(71.242041, 26.367225)" fill="#FFFFFF">
                        <path d="M66.2462398,23.7103068 C65.9909888,23.7296417 65.7938983,23.9423248 65.7938983,24.1981995 L65.7938983,26.2481594 C65.7938983,26.3842828 65.8506554,26.5143251 65.950604,26.6069452 C66.0502407,26.6994094 66.1843371,26.7463431 66.3199928,26.7358961 L80.9527178,25.631004 C81.2079688,25.6118251 81.4052152,25.399142 81.4052152,25.1431114 L81.4052152,23.0933074 C81.4052152,22.957184 81.3484581,22.8271417 81.2486655,22.7345216 C81.1487169,22.6419015 81.0149323,22.5952796 80.8791207,22.6054148 L66.2462398,23.7103068 Z" id="Fill-19"></path>
                        <path d="M68.5437011,23.8006036 L71.757649,23.7496158 C71.9531803,23.7464973 72.1281293,23.6272139 72.2025061,23.4463396 L75.367961,15.7370435 C75.4183251,15.6143297 75.4166099,15.4761792 75.3632832,15.3547128 C75.3101124,15.2332464 75.209696,15.1384433 75.085267,15.0924451 L72.9713774,14.3095404 C72.7243906,14.2181677 72.4496489,14.3382308 72.3490766,14.5816314 L68.5437011,23.8006036 Z" id="Fill-21"></path>
                        <path d="M83.5721508,18.0430651 C83.4586367,17.809176 83.1821798,17.7048615 82.9425214,17.8055897 L81.0369491,18.6058023 C80.9134556,18.6575697 80.8166255,18.7578302 80.7690681,18.8830388 C80.7215106,19.0082474 80.7274358,19.1474894 80.7852844,19.2681762 L84.8457549,27.7447844 C84.9611402,27.9856902 85.2486678,28.089537 85.4916006,27.977738 L87.4069963,27.0965998 C87.5262797,27.0417139 87.6187439,26.9409856 87.6630269,26.8171803 C87.7074658,26.693531 87.7001373,26.5570957 87.6426006,26.4387478 L83.5721508,18.0430651 Z" id="Fill-23"></path>
                        <path d="M64.6615477,9.84841792 C64.3913278,9.84841792 64.1722517,10.0673381 64.1722517,10.3377139 L64.1722517,12.165791 C64.1722517,12.4360109 64.3913278,12.655087 64.6615477,12.655087 L88.4377767,12.655087 C88.7079966,12.655087 88.9270727,12.4360109 88.9270727,12.165791 L88.9270727,10.3377139 C88.9270727,10.0673381 88.7079966,9.84841792 88.4377767,9.84841792 L64.6615477,9.84841792 Z" id="Fill-25"></path>
                        <path d="M67.6366169,2.18931436 C67.366397,2.18931436 67.1473209,2.40839048 67.1473209,2.67861033 L67.1473209,4.50668744 C67.1473209,4.7769073 67.366397,4.99598341 67.6366169,4.99598341 L85.4627075,4.99598341 C85.7330833,4.99598341 85.9520035,4.7769073 85.9520035,4.50668744 L85.9520035,2.67861033 C85.9520035,2.40839048 85.7330833,2.18931436 85.4627075,2.18931436 L67.6366169,2.18931436 Z" id="Fill-28"></path>
                        <path d="M41.9121697,23.7101509 C41.6570747,23.7294858 41.4601401,23.9421689 41.4601401,24.1980436 L41.4601401,26.2478475 C41.4601401,26.3841269 41.5167412,26.5141692 41.6165339,26.6067893 C41.7164825,26.6994094 41.850423,26.7461872 41.9863905,26.7357401 L54.3176469,25.7995601 C54.5727419,25.7802253 54.7698324,25.567698 54.7698324,25.3118234 L54.7698324,23.2618635 C54.7698324,23.1257401 54.7130754,22.9956977 54.6131268,22.9030776 C54.5133341,22.8104576 54.3793936,22.7638357 54.243582,22.7741268 L41.9121697,23.7101509 Z" id="Fill-30"></path>
                        <path d="M44.0413868,23.8006036 L47.2492536,23.7497717 C47.4480593,23.7464973 47.6248795,23.6236276 47.6972292,23.4386992 L50.2032728,17.0232775 C50.2509861,16.9010315 50.2477117,16.7647521 50.1939172,16.644845 C50.1401227,16.5252497 50.0406419,16.4320059 49.9176162,16.3864755 L47.8018555,15.6029471 C47.5525298,15.5106388 47.2749814,15.6344441 47.1770598,15.8815869 L44.0413868,23.8006036 Z" id="Fill-32"></path>
                        <path d="M34.9399672,2.14988066 C34.7300907,1.98491089 34.4266586,2.01859092 34.2581026,2.22566073 L32.9112133,3.88034805 C32.8284165,3.98216777 32.7899028,4.11283381 32.8044039,4.24318799 C32.818905,4.37354218 32.8851736,4.49266968 32.9882407,4.57375123 L38.0007957,8.51571791 C38.2106722,8.68068768 38.5141043,8.64700765 38.6826604,8.43993784 L40.0295497,6.78525051 C40.1123464,6.6834308 40.1508601,6.55276476 40.136359,6.42225465 C40.1218579,6.29190047 40.0557452,6.17292888 39.9523663,6.09184733 L34.9399672,2.14988066 Z" id="Fill-34"></path>
                        <path d="M34.040804,27.932956 C34.2385182,28.1024476 34.534154,28.0873228 34.7136249,27.8988082 L39.6215535,22.7431131 C39.8046107,22.5507003 39.8008685,22.2475801 39.6131335,22.0598451 L38.1157756,20.5623313 C38.0225318,20.4692434 37.8957639,20.4176319 37.7640064,20.4191911 C37.632093,20.4207504 37.5067284,20.4754804 37.4158235,20.5707513 L32.39173,25.841052 C32.2991099,25.938194 32.2506169,26.0691718 32.2573218,26.2032683 C32.2638706,26.3373647 32.3256174,26.4627292 32.4274371,26.5500478 L34.040804,27.932956 Z" id="Fill-36"></path>
                        <path d="M57.2183549,18.7701639 C57.104373,18.5375222 56.8285398,18.4341433 56.5896611,18.5344037 L54.6840887,19.3347722 C54.5604393,19.3866956 54.4634533,19.4874238 54.4158959,19.6127883 C54.3684944,19.7384647 54.3747314,19.8780186 54.4332037,19.9988613 L58.2094209,27.8034282 C58.3257418,28.0432425 58.612178,28.1461537 58.8543311,28.0346666 L60.7695709,27.1536844 C60.889478,27.0986425 60.9819422,26.9976024 61.0260693,26.8733293 C61.0703523,26.7490562 61.0624,26.6123091 61.0043955,26.4938053 L57.2183549,18.7701639 Z" id="Fill-38"></path>
                        <path d="M50.0387552,0.785979842 C49.7685353,0.785979842 49.5494592,1.00505595 49.5494592,1.27527581 L49.5494592,13.151384 C49.5494592,13.4214479 49.7685353,13.6405241 50.0387552,13.6405241 L52.4281661,13.6405241 C52.6985419,13.6405241 52.9174621,13.4214479 52.9174621,13.151384 L52.9174621,1.27527581 C52.9174621,1.00505595 52.6985419,0.785979842 52.4281661,0.785979842 L50.0387552,0.785979842 Z" id="Fill-40"></path>
                        <path d="M42.1238393,11.6198003 C41.8537754,11.6198003 41.6345434,11.8387205 41.6345434,12.1089404 L41.6345434,13.9371734 C41.6345434,14.2073932 41.8537754,14.4264694 42.1238393,14.4264694 L60.2868862,14.4264694 C60.557106,14.4264694 60.7761822,14.2073932 60.7761822,13.9371734 L60.7761822,12.1089404 C60.7761822,11.8387205 60.557106,11.6198003 60.2868862,11.6198003 L42.1238393,11.6198003 Z" id="Fill-42"></path>
                        <path d="M43.4149383,4.93986562 C43.1448743,4.93986562 42.9256423,5.15894173 42.9256423,5.42916159 L42.9256423,7.25723869 C42.9256423,7.52745855 43.1448743,7.74653466 43.4149383,7.74653466 L58.9958496,7.74653466 C59.2659135,7.74653466 59.4851456,7.52745855 59.4851456,7.25723869 L59.4851456,5.42916159 C59.4851456,5.15894173 59.2659135,4.93986562 58.9958496,4.93986562 L43.4149383,4.93986562 Z" id="Fill-44"></path>
                        <path d="M34.9404194,10.5176526 C34.7306988,10.3508117 34.4255516,10.3837121 34.2563718,10.5917174 L32.9094825,12.2464048 C32.8268417,12.3477567 32.7883279,12.477955 32.8025172,12.6078414 C32.8165506,12.7378837 32.8820395,12.8566994 32.984327,12.9380928 L37.4388226,16.4827598 C37.6486991,16.6496007 37.9536905,16.6165444 38.1230262,16.408695 L39.4699155,14.7538517 C39.5524003,14.6526557 39.5909141,14.5224574 39.5768807,14.392571 C39.5630033,14.2625287 39.4975144,14.143713 39.3950709,14.0621637 L34.9404194,10.5176526 Z" id="Fill-46"></path>
                        <path d="M20.2594665,19.0332891 C20.1083741,18.9687358 19.9349844,18.9844843 19.7977694,19.0750773 C19.6607104,19.1655144 19.5782255,19.3187898 19.5782255,19.4832917 L19.5782255,21.5610065 C19.5782255,21.7579411 19.6962616,21.9355409 19.8777595,22.0119446 L28.3128914,25.5608217 C28.4176738,25.6049488 28.5377368,25.5935662 28.6323839,25.530728 C28.727187,25.4678898 28.7841,25.3617041 28.7841,25.2478781 L28.7841,22.9949025 C28.7841,22.7989034 28.6671555,22.6219274 28.4869049,22.5448999 L20.2594665,19.0332891 Z" id="Fill-48"></path>
                        <path d="M14.1734697,23.0084837 C13.9032499,23.0084837 13.6841738,23.2275598 13.6841738,23.4977796 L13.6841738,27.739748 C13.6841738,28.0099679 13.9032499,28.2288881 14.1734697,28.2288881 L16.7875701,28.2288881 C17.057634,28.2288881 17.2767101,28.0099679 17.2767101,27.739748 L17.2767101,23.4977796 C17.2767101,23.2275598 17.057634,23.0084837 16.7875701,23.0084837 L14.1734697,23.0084837 Z" id="Fill-50"></path>
                        <path d="M22.384879,11.6287817 C22.384879,11.3585618 22.1659588,11.1394857 21.895583,11.1394857 L20.1236393,11.1394857 C19.8534194,11.1394857 19.6343433,11.3585618 19.6343433,11.6287817 L19.6343433,17.2739287 C19.6343433,17.5443044 19.8534194,17.7632246 20.1236393,17.7632246 L21.895583,17.7632246 C22.1659588,17.7632246 22.384879,17.5443044 22.384879,17.2739287 L22.384879,11.6287817 Z" id="Fill-52"></path>
                        <path d="M27.8298013,15.8387852 C27.8298013,15.5685654 27.6108812,15.3494892 27.3405054,15.3494892 L20.1236237,15.3494892 C19.8534038,15.3494892 19.6343277,15.5685654 19.6343277,15.8387852 L19.6343277,17.330062 C19.6343277,17.6002819 19.8534038,17.819358 20.1236237,17.819358 L27.3405054,17.819358 C27.6108812,17.819358 27.8298013,17.6002819 27.8298013,17.330062 L27.8298013,15.8387852 Z" id="Fill-54"></path>
                        <path d="M26.2020113,11.4041858 C26.2020113,11.1341218 25.9829351,10.9148898 25.7127153,10.9148898 L20.1237017,10.9148898 C19.8533259,10.9148898 19.6344057,11.1341218 19.6344057,11.4041858 L19.6344057,12.8954626 C19.6344057,13.1658384 19.8533259,13.3847585 20.1237017,13.3847585 L25.7127153,13.3847585 C25.9829351,13.3847585 26.2020113,13.1658384 26.2020113,12.8954626 L26.2020113,11.4041858 Z" id="Fill-56"></path>
                        <path d="M9.0091831,11.1395325 C8.73911917,11.1395325 8.51988713,11.3584526 8.51988713,11.6288284 L8.51988713,17.2739754 C8.51988713,17.5441953 8.73911917,17.7631155 9.0091831,17.7631155 L10.7811268,17.7631155 C11.0515026,17.7631155 11.2704228,17.5441953 11.2704228,17.2739754 L11.2704228,11.6288284 C11.2704228,11.3584526 11.0515026,11.1395325 10.7811268,11.1395325 L9.0091831,11.1395325 Z" id="Fill-58"></path>
                        <path d="M3.56426075,15.349536 C3.29404089,15.349536 3.07496478,15.5684562 3.07496478,15.838832 L3.07496478,17.3301088 C3.07496478,17.6003287 3.29404089,17.8194048 3.56426075,17.8194048 L10.7811424,17.8194048 C11.0515182,17.8194048 11.2704384,17.6003287 11.2704384,17.3301088 L11.2704384,15.838832 C11.2704384,15.5684562 11.0515182,15.349536 10.7811424,15.349536 L3.56426075,15.349536 Z" id="Fill-60"></path>
                        <path d="M5.19205083,10.9149366 C4.9219869,10.9149366 4.70291079,11.1340127 4.70291079,11.4042325 L4.70291079,12.8955094 C4.70291079,13.1658851 4.9219869,13.3848053 5.19205083,13.3848053 L11.2536763,13.3848053 C11.2630319,13.3848053 11.2703604,13.3773209 11.2703604,13.3679653 L11.2703604,11.4042325 C11.2703604,11.1340127 11.0514402,10.9149366 10.7812204,10.9149366 L5.19205083,10.9149366 Z" id="Fill-62"></path>
                        <path d="M14.1734697,2.16433501 C13.9032499,2.16433501 13.6841738,2.38341112 13.6841738,2.65363098 L13.6841738,18.2283053 C13.6841738,18.4356869 13.5536637,18.6203034 13.3582883,18.6893786 L2.44658277,22.5561889 C2.25120742,22.625576 2.12069731,22.8101925 2.12069731,23.0174182 L2.12069731,25.3070365 C2.12069731,25.4115069 2.17106142,25.5094285 2.2558852,25.5700837 C2.3408649,25.6308949 2.44985721,25.6469553 2.54855841,25.6132752 L16.113034,20.991315 C16.808776,20.7543074 17.2767101,20.1005095 17.2767101,19.3653181 L17.2767101,2.65363098 C17.2767101,2.38341112 17.057634,2.16433501 16.7875701,2.16433501 L14.1734697,2.16433501 Z" id="Fill-64"></path>
                        <path d="M5.7534782,1.09783196 C5.48325834,1.09783196 5.26418223,1.31690807 5.26418223,1.58712793 L5.26418223,3.41520503 C5.26418223,3.68542489 5.48325834,3.904501 5.7534782,3.904501 L25.1513035,3.904501 C25.4216793,3.904501 25.6405995,3.68542489 25.6405995,3.41520503 L25.6405995,1.58712793 C25.6405995,1.31690807 25.4216793,1.09783196 25.1513035,1.09783196 L5.7534782,1.09783196 Z" id="Fill-66"></path>
                        <path d="M1.3750589,6.43053433 C1.10483904,6.43053433 0.885762928,6.64961044 0.885762928,6.91967437 L0.885762928,8.7479074 C0.885762928,9.01812726 1.10483904,9.23720337 1.3750589,9.23720337 L29.5296916,9.23720337 C29.8000674,9.23720337 30.0189876,9.01812726 30.0189876,8.7479074 L30.0189876,6.91967437 C30.0189876,6.64961044 29.8000674,6.43053433 29.5296916,6.43053433 L1.3750589,6.43053433 Z" id="Fill-68"></path>
                    </g>
                </g>
            </g>
            <g id="Group" transform="translate(22.507255, 84.178315)">
                <g id="Group-70" transform="translate(0.414549, 0.712769)">
                    <g id="Group-3" transform="translate(37.582137, 0.000168)">
                        <mask id="mask-8" fill="white">
                            <use xlink:href="#path-7"></use>
                        </mask>
                        <g id="Clip-2"></g>
                        <path d="M10.6569518,1.18771297 C10.8775791,0.967085692 11.0930052,0.742096203 11.3349402,0.542608878 C11.5641242,0.353523752 11.8471646,0.16745862 12.1713106,0.16745862 C12.4954565,0.167626397 12.7783292,0.353523752 13.0075131,0.542608878 C13.2494481,0.742096203 13.4648743,0.967085692 13.6855016,1.18771297 L13.7965702,1.29878161 C14.0173653,1.51940888 14.242187,1.73483506 14.4416743,1.97660229 C14.6307594,2.20578621 14.8166568,2.48882668 14.8166568,2.81314039 C14.8166568,3.13728632 14.6307594,3.42015901 14.4416743,3.64934293 C14.2423548,3.89127794 14.0173653,4.10653634 13.7965702,4.32733139 L4.26396187,13.8599397 C4.04333459,14.0807348 3.82790842,14.3055565 3.58614119,14.5050438 C3.35678949,14.694129 3.07374902,14.8800263 2.74960309,14.8800263 C2.42545716,14.8800263 2.14258447,14.694129 1.91340054,14.5050438 C1.67146554,14.3057243 1.45603936,14.0807348 1.23541208,13.8599397 L1.12434345,13.7488711 C0.903716169,13.5282438 0.67872668,13.3129854 0.479239356,13.0710504 C0.29015423,12.8418665 0.104256874,12.5586582 0.104256874,12.2345123 C0.104256874,11.9103664 0.29015423,11.6274937 0.479239356,11.3983098 C0.67872668,11.1563748 0.903716169,10.9411164 1.12434345,10.7203213 L10.6569518,1.18771297 Z" id="Fill-1" fill="#2B4EEF" mask="url(#mask-8)"></path>
                    </g>
                    <path d="M29.3959086,20.031044 C29.6165358,19.8104168 29.831962,19.5855951 30.0737292,19.38594 C30.3030809,19.1968548 30.5861214,19.0109575 30.9102673,19.0109575 C31.2344133,19.0109575 31.517286,19.1966871 31.7464699,19.3857722 C31.9884049,19.5854273 32.2038311,19.8104168 32.4244583,20.031044 L32.535527,20.1421127 C32.7561543,20.36274 32.9811437,20.5781661 33.1806311,20.8199334 C33.3697162,21.0491173 33.5556135,21.3323255 33.5556135,21.6564715 C33.5556135,21.9804496 33.369884,22.2634901 33.1807988,22.492674 C32.9811437,22.7344412 32.756322,22.9498674 32.535527,23.1706625 L23.0029186,32.7032708 C22.7822914,32.9240659 22.5668652,33.1488876 22.3250979,33.3483749 C22.0957462,33.53746 21.8127058,33.7233574 21.4885598,33.7233574 C21.1644139,33.7233574 20.8815412,33.53746 20.6523573,33.3483749 C20.4104223,33.1490554 20.1949961,32.9240659 19.9743688,32.7032708 L19.8633002,32.5922022 C19.6426729,32.3715749 19.4176834,32.1563165 19.2181961,31.9143815 C19.029111,31.6851976 18.8432136,31.4019893 18.8432136,31.0778434 C18.8432136,30.7536975 19.029111,30.4709926 19.2181961,30.2416409 C19.4176834,29.9997058 19.6426729,29.7844474 19.8633002,29.5636524 L29.3959086,20.031044 Z" id="Fill-4" fill="#2B4EEF"></path>
                    <path d="M51.3787742,29.5637195 C51.5994014,29.7843468 51.8242232,29.999773 52.0238783,30.2415402 C52.2129634,30.4707241 52.3988607,30.7539324 52.3988607,31.0779105 C52.3988607,31.4020564 52.2129634,31.6850969 52.0238783,31.9142808 C51.8243909,32.1560481 51.5994014,32.3714742 51.3787742,32.5922693 L51.2677055,32.7033379 C51.0469105,32.9239652 50.8316521,33.1487869 50.5898848,33.348442 C50.3605331,33.5375271 50.0774927,33.7234245 49.7533468,33.7234245 C49.4292008,33.7234245 49.1463281,33.5375271 48.9171442,33.348442 C48.6752092,33.1489547 48.4599508,32.9239652 48.2391557,32.7033379 L38.7065474,23.1707296 C38.4857523,22.9499345 38.2609306,22.7346761 38.0614433,22.4927411 C37.8723582,22.2635572 37.6862931,21.9805167 37.6864608,21.656203 C37.6864608,21.3320571 37.8723582,21.0493522 38.0612755,20.8201683 C38.2607629,20.5780655 38.4857523,20.3628071 38.7065474,20.1421798 L38.8174483,20.0311112 C39.0382433,19.8103161 39.2535017,19.5854944 39.4952689,19.3860071 C39.7246206,19.1969219 40.0076611,19.0110246 40.3319748,19.0110246 C40.655953,19.0110246 40.9388257,19.1967542 41.1681774,19.3858393 C41.4099446,19.5853266 41.6253708,19.8103161 41.8461658,20.0311112 L51.3787742,29.5637195 Z" id="Fill-6" fill="#2B4EEF"></path>
                    <g id="Group-10" transform="translate(0.000000, 0.000168)">
                        <mask id="mask-10" fill="white">
                            <use xlink:href="#path-9"></use>
                        </mask>
                        <g id="Clip-9"></g>
                        <path d="M10.5527452,1.18771297 C10.7733725,0.967085692 10.9887987,0.742096203 11.2305659,0.542608878 C11.4599176,0.353523752 11.7429581,0.16745862 12.067104,0.16745862 C12.39125,0.167626397 12.6741227,0.353523752 12.9033066,0.542608878 C13.1452416,0.742096203 13.3606678,0.967085692 13.581295,1.18771297 L13.6923637,1.29878161 C13.9129909,1.51940888 14.1379804,1.73483506 14.3374678,1.97660229 C14.5265529,2.20578621 14.7124502,2.48882668 14.7124502,2.81314039 C14.7124502,3.13728632 14.5267207,3.42015901 14.3376355,3.64934293 C14.1379804,3.89127794 13.9129909,4.10653634 13.6923637,4.32733139 L4.15975533,13.8599397 C3.93912805,14.0807348 3.72370187,14.3055565 3.48193465,14.5050438 C3.25258294,14.694129 2.96954248,14.8800263 2.64539655,14.8800263 C2.32125062,14.8800263 2.03837792,14.694129 1.809194,14.5050438 C1.567259,14.3057243 1.35183282,14.0807348 1.13120554,13.8599397 L1.0201369,13.7488711 C0.799509628,13.5282438 0.574520139,13.3129854 0.375032815,13.0710504 C0.185947689,12.8418665 5.0333219e-05,12.5586582 5.0333219e-05,12.2345123 C5.0333219e-05,11.9103664 0.185947689,11.6276615 0.374865037,11.3983098 C0.574520139,11.1563748 0.799509628,10.9411164 1.0201369,10.7203213 L10.5527452,1.18771297 Z" id="Fill-8" fill-opacity="0.4" fill="#2B4EEF" mask="url(#mask-10)"></path>
                    </g>
                    <path d="M13.6923469,29.5637195 C13.9129742,29.7843468 14.1379637,29.999773 14.337451,30.2415402 C14.5265361,30.4707241 14.7126012,30.7539324 14.7126012,31.0779105 C14.7124335,31.4020564 14.5267039,31.6850969 14.3376188,31.9142808 C14.1379637,32.1560481 13.9129742,32.3714742 13.6923469,32.5922693 L13.5812783,32.7033379 C13.360651,32.9239652 13.1453926,33.1487869 12.9034576,33.348442 C12.6742737,33.5375271 12.3912332,33.7234245 12.0669195,33.7234245 C11.7427735,33.7234245 11.4599009,33.5375271 11.2307169,33.348442 C10.9889497,33.1489547 10.7735235,32.9239652 10.5527285,32.7033379 L1.02012013,23.1707296 C0.79949285,22.9499345 0.574503362,22.7346761 0.375016037,22.4927411 C0.185930911,22.2635572 3.35554793e-05,21.9805167 3.35554793e-05,21.656203 C3.35554793e-05,21.3320571 0.185930911,21.0493522 0.37484826,20.8201683 C0.574503362,20.5780655 0.79949285,20.3628071 1.02012013,20.1421798 L1.13118876,20.0311112 C1.35181604,19.8103161 1.56724222,19.5854944 1.80900945,19.3860071 C2.03836115,19.1969219 2.32140162,19.0110246 2.64554755,19.0110246 C2.96969348,19.0110246 3.25256617,19.1967542 3.48175009,19.3858393 C3.72351732,19.5853266 3.93911127,19.8103161 4.15973855,20.0311112 L13.6923469,29.5637195 Z" id="Fill-11" fill-opacity="0.4" fill="#2B4EEF"></path>
                    <path d="M32.5355102,10.7204723 C32.7561375,10.9410996 32.981127,11.1565258 33.1806143,11.3984608 C33.3696994,11.6276447 33.5557645,11.9106852 33.5557645,12.2348311 C33.5555968,12.558977 33.3698672,12.8418497 33.1807821,13.0710336 C32.981127,13.3129686 32.7563053,13.5283948 32.5355102,13.7490221 L32.4244416,13.8600907 C32.2038143,14.0808858 31.9885559,14.3057075 31.7466209,14.5051948 C31.517437,14.69428 31.2343965,14.8801773 30.9100828,14.8801773 C30.5861046,14.8801773 30.3030642,14.69428 30.0738802,14.5051948 C29.832113,14.3058753 29.6166868,14.0808858 29.3958918,13.8600907 L19.8632834,4.32748239 C19.6426562,4.10685511 19.4176667,3.89142894 19.2183471,3.64966171 C19.0290942,3.42031001 18.8431969,3.13726954 18.8431969,2.81312361 C18.8431969,2.48897768 19.0290942,2.20610499 19.2181793,1.97692106 C19.4176667,1.73498606 19.6426562,1.51955988 19.8632834,1.2989326 L19.9743521,1.18786397 C20.1949793,0.967236692 20.4104055,0.742247203 20.6521727,0.542759878 C20.8815245,0.353674752 21.1645649,0.167777397 21.4887108,0.167777397 C21.8128568,0.167777397 22.0957295,0.353674752 22.3249134,0.542759878 C22.5668484,0.742247203 22.7822746,0.967236692 23.0029019,1.18786397 L32.5355102,10.7204723 Z" id="Fill-13" fill="#2B4EEF"></path>
                    <path d="M67.0823358,20.031044 C67.3029631,19.8104168 67.5183893,19.5855951 67.7601565,19.38594 C67.9893404,19.1968548 68.2725487,19.0109575 68.5965268,19.0109575 C68.9206728,19.0109575 69.2037132,19.1966871 69.4328972,19.3857722 C69.6746644,19.5854273 69.8900906,19.8104168 70.1108856,20.031044 L70.2219543,20.1421127 C70.4425815,20.36274 70.6674032,20.5781661 70.8670583,20.8199334 C71.0561435,21.0491173 71.2420408,21.3323255 71.2420408,21.6564715 C71.2420408,21.9804496 71.0561435,22.2634901 70.8670583,22.492674 C70.667571,22.7344412 70.4425815,22.9498674 70.2219543,23.1706625 L60.6893459,32.7032708 C60.4685509,32.9240659 60.2532925,33.1488876 60.0113574,33.3483749 C59.7821735,33.53746 59.4991331,33.7233574 59.1748193,33.7233574 C58.8506734,33.7233574 58.5679685,33.53746 58.3387846,33.3483749 C58.0966818,33.1490554 57.8814234,32.9240659 57.6607961,32.7032708 L57.5497275,32.5922022 C57.3289324,32.3715749 57.1041107,32.1563165 56.9046234,31.9143815 C56.7155383,31.6851976 56.5296409,31.4019893 56.5296409,31.0778434 C56.5296409,30.7536975 56.7153705,30.4709926 56.9044556,30.2416409 C57.1039429,29.9997058 57.3289324,29.7844474 57.5497275,29.5636524 L67.0823358,20.031044 Z" id="Fill-15" fill-opacity="0.4" fill="#2B4EEF"></path>
                    <path d="M70.2219375,10.7204723 C70.4425647,10.9410996 70.6673865,11.1565258 70.8670416,11.3984608 C71.0561267,11.6276447 71.242024,11.9106852 71.242024,12.2348311 C71.242024,12.558977 71.0561267,12.8418497 70.8670416,13.0710336 C70.6675542,13.3129686 70.4425647,13.5283948 70.2219375,13.7490221 L70.1108688,13.8600907 C69.8900738,14.0808858 69.6748154,14.3057075 69.4330482,14.5051948 C69.2038642,14.69428 68.920656,14.8801773 68.5965101,14.8801773 C68.2723641,14.8801773 67.9894914,14.69428 67.7603075,14.5051948 C67.5183725,14.3058753 67.3031141,14.0808858 67.082319,13.8600907 L57.5497107,4.32748239 C57.3289157,4.10685511 57.1040939,3.89142894 56.9046066,3.64966171 C56.7155215,3.42031001 56.5296241,3.13726954 56.5296241,2.81312361 C56.5296241,2.48897768 56.7153537,2.20610499 56.9044388,1.97692106 C57.1039262,1.73498606 57.3289157,1.51955988 57.5497107,1.2989326 L57.6607793,1.18786397 C57.8812388,0.967236692 58.096665,0.742247203 58.3386,0.542759878 C58.5677839,0.353674752 58.8509922,0.167777397 59.1749703,0.167777397 C59.4991163,0.167777397 59.781989,0.353674752 60.0113407,0.542759878 C60.2531079,0.742247203 60.4685341,0.967236692 60.6893291,1.18786397 L70.2219375,10.7204723 Z" id="Fill-17" fill-opacity="0.4" fill="#2B4EEF"></path>
                    <g id="Group-27" transform="translate(145.966335, 11.576808)">
                        <mask id="mask-12" fill="white">
                            <use xlink:href="#path-11"></use>
                        </mask>
                        <g id="Clip-26"></g>
                    </g>
                    <g id="Group-2" transform="translate(81.966335, 5.576808)" fill="#283266">
                        <path d="M46.8361379,16.4304809 C46.6536787,16.4443019 46.5127939,16.5963327 46.5127939,16.7792377 L46.5127939,18.2445959 C46.5127939,18.3419001 46.5533651,18.4348573 46.6248107,18.5010643 C46.6960333,18.5671597 46.7918885,18.6007091 46.8888583,18.5932413 L57.3486645,17.8034392 C57.5311237,17.7897297 57.67212,17.6376989 57.67212,17.4546824 L57.67212,15.9894357 C57.67212,15.8921315 57.6315487,15.7991743 57.5602146,15.7329673 C57.4887691,15.6667604 57.3931368,15.633434 57.2960556,15.6406789 L46.8361379,16.4304809 Z" id="Fill-19"></path>
                        <path d="M48.4784158,16.4950271 L50.7758192,16.4585799 C50.9155894,16.4563507 51.040647,16.3710842 51.0938132,16.2417911 L53.3565527,10.7310101 C53.3925541,10.6432914 53.391328,10.5445383 53.3532089,10.4577113 C53.3152012,10.3708844 53.2434213,10.303117 53.1544766,10.2702364 L51.64342,9.71059825 C51.4668681,9.64528297 51.2704765,9.7311068 51.1985851,9.90509509 L48.4784158,16.4950271 Z" id="Fill-21"></path>
                        <path d="M59.2210951,12.379407 C59.1399526,12.2122178 58.9423349,12.1376514 58.7710216,12.2096542 L57.4088749,12.7816644 C57.320599,12.818669 57.2513826,12.8903374 57.2173875,12.9798394 C57.1833923,13.0693414 57.1876278,13.1688747 57.2289793,13.2551444 L60.1314964,19.3144177 C60.2139764,19.4866227 60.4195077,19.5608547 60.5931617,19.4809382 L61.9623303,18.8510806 C62.0475968,18.8118468 62.1136923,18.739844 62.1453468,18.6513451 C62.1771128,18.5629577 62.1718742,18.4654306 62.1307456,18.3808329 L59.2210951,12.379407 Z" id="Fill-23"></path>
                        <path d="M47.8300112,1.04678368 C47.6368519,1.04678368 47.4802513,1.20338429 47.4802513,1.39654362 L47.4802513,2.70329491 C47.4802513,2.89645424 47.6368519,3.05305485 47.8300112,3.05305485 L60.5725082,3.05305485 C60.765779,3.05305485 60.9222682,2.89645424 60.9222682,2.70329491 L60.9222682,1.39654362 C60.9222682,1.20338429 60.765779,1.04678368 60.5725082,1.04678368 L47.8300112,1.04678368 Z" id="Fill-28"></path>
                        <path d="M29.4415885,16.4303695 C29.2592407,16.4441905 29.1184674,16.5962212 29.1184674,16.7791263 L29.1184674,18.244373 C29.1184674,18.3417886 29.1589272,18.4347458 29.2302613,18.5009528 C29.3017068,18.5671597 29.3974505,18.6005976 29.4946432,18.5931298 L38.3093071,17.9239269 C38.4916548,17.9101059 38.6325397,17.7581866 38.6325397,17.5752816 L38.6325397,16.1099234 C38.6325397,16.0126192 38.5919684,15.919662 38.5205229,15.8534551 C38.4491888,15.7872481 38.3534451,15.7539217 38.2563638,15.761278 L29.4415885,16.4303695 Z" id="Fill-30"></path>
                        <path d="M30.9636015,16.4950271 L33.256658,16.4586913 C33.3987689,16.4563507 33.525164,16.3685206 33.5768812,16.2363296 L35.3682584,11.6504396 C35.4023651,11.5630553 35.4000244,11.4656397 35.3615709,11.3799273 C35.3231173,11.2944379 35.2520062,11.2277851 35.1640646,11.1952389 L33.6516705,10.6351549 C33.4734468,10.5691709 33.2750489,10.6576697 33.2050523,10.834333 L30.9636015,16.4950271 Z" id="Fill-32"></path>
                        <path d="M24.4576988,1.01859557 C24.3076743,0.900671408 24.0907741,0.924746662 23.9702864,1.07276489 L23.0074991,2.25557321 C22.9483141,2.32835627 22.9207836,2.42175934 22.9311494,2.51493949 C22.9415151,2.60811964 22.9888854,2.6932747 23.0625601,2.75123365 L26.645649,5.56904151 C26.7956735,5.68696567 27.0125737,5.66289042 27.1330614,5.51487219 L28.0958487,4.33206387 C28.1550337,4.25928081 28.1825642,4.16587775 28.1721984,4.07258614 C28.1618327,3.97940599 28.1145739,3.89436238 28.0406762,3.83640343 L24.4576988,1.01859557 Z" id="Fill-34"></path>
                        <path d="M23.8149564,19.4489271 C23.9562871,19.5700836 24.1676143,19.559272 24.2959042,19.4245174 L27.8042037,15.7391087 C27.9350572,15.6015677 27.9323821,15.3848904 27.7981849,15.2506932 L26.7278392,14.180236 C26.6611864,14.1136947 26.5705699,14.0768016 26.4763866,14.0779162 C26.3820918,14.0790308 26.2924784,14.1181531 26.2274975,14.1862549 L22.6361606,17.9535863 C22.5699537,18.0230256 22.5352898,18.1166516 22.5400825,18.2125067 C22.5447638,18.3083619 22.5889018,18.3979754 22.6616849,18.4603927 L23.8149564,19.4489271 Z" id="Fill-36"></path>
                        <path d="M40.3827995,12.8991539 C40.3013226,12.7328563 40.1041507,12.6589586 39.9333948,12.7306271 L38.5712481,13.3027488 C38.4828607,13.3398648 38.4135329,13.4118676 38.3795377,13.5014811 C38.345654,13.5913174 38.3501124,13.6910737 38.3919097,13.7774548 L41.0912361,19.3563377 C41.1743849,19.5277624 41.3791361,19.6013257 41.5522327,19.5216321 L42.9212898,18.8918859 C43.0070022,18.8525407 43.0730977,18.7803149 43.1046407,18.6914817 C43.1362952,18.6026485 43.1306108,18.5048985 43.0891479,18.4201892 L40.3827995,12.8991539 Z" id="Fill-38"></path>
                        <path d="M35.2506575,0.0436480917 C35.0574982,0.0436480917 34.9008976,0.200248703 34.9008976,0.393408033 L34.9008976,8.88272159 C34.9008976,9.07576946 35.0574982,9.23237007 35.2506575,9.23237007 L36.958663,9.23237007 C37.1519338,9.23237007 37.308423,9.07576946 37.308423,8.88272159 L37.308423,0.393408033 C37.308423,0.200248703 37.1519338,0.0436480917 36.958663,0.0436480917 L35.2506575,0.0436480917 Z" id="Fill-40"></path>
                        <path d="M29.5928948,7.78791056 C29.3998469,7.78791056 29.2431348,7.94439971 29.2431348,8.13755904 L29.2431348,9.44442179 C29.2431348,9.63758112 29.3998469,9.79418173 29.5928948,9.79418173 L42.5762558,9.79418173 C42.7694151,9.79418173 42.9260157,9.63758112 42.9260157,9.44442179 L42.9260157,8.13755904 C42.9260157,7.94439971 42.7694151,7.78791056 42.5762558,7.78791056 L29.5928948,7.78791056 Z" id="Fill-42"></path>
                        <path d="M30.5158018,3.01294058 C30.3227539,3.01294058 30.1660419,3.16954119 30.1660419,3.36270052 L30.1660419,4.66945181 C30.1660419,4.86261114 30.3227539,5.01921175 30.5158018,5.01921175 L41.6533933,5.01921175 C41.8464412,5.01921175 42.0031533,4.86261114 42.0031533,4.66945181 L42.0031533,3.36270052 C42.0031533,3.16954119 41.8464412,3.01294058 41.6533933,3.01294058 L30.5158018,3.01294058 Z" id="Fill-44"></path>
                        <path d="M24.458022,7.00007016 C24.308109,6.88080848 24.0899827,6.90432644 23.9690492,7.05301343 L23.0062619,8.23582174 C22.9471884,8.30827042 22.9196579,8.40133912 22.9298007,8.49418489 C22.9398321,8.58714212 22.9866451,8.67207426 23.0597625,8.73025613 L26.2439378,11.2640652 C26.3939623,11.3833268 26.6119771,11.3596974 26.7330221,11.2111219 L27.6958093,10.0282021 C27.7547714,9.9558649 27.7823019,9.86279621 27.7722706,9.76995044 C27.7623507,9.6769932 27.7155377,9.59206106 27.6423088,9.53376773 L24.458022,7.00007016 Z" id="Fill-46"></path>
                        <path d="M13.9637414,13.0872418 C13.8557371,13.0410976 13.7317941,13.052355 13.6337098,13.117113 C13.5357369,13.1817595 13.4767748,13.2913242 13.4767748,13.4089139 L13.4767748,14.8941119 C13.4767748,15.0348853 13.5611496,15.1618377 13.6908885,15.2164528 L19.7205136,17.7532713 C19.7954144,17.7848143 19.8812382,17.7766778 19.9488941,17.7317596 C20.0166615,17.6868414 20.0573442,17.6109375 20.0573442,17.529572 L20.0573442,15.9190936 C20.0573442,15.778989 19.9737496,15.6524824 19.8449024,15.5974214 L13.9637414,13.0872418 Z" id="Fill-48"></path>
                        <path d="M9.61333182,15.9288017 C9.42017249,15.9288017 9.26357188,16.0854023 9.26357188,16.2785616 L9.26357188,19.3108176 C9.26357188,19.5039769 9.42017249,19.6604661 9.61333182,19.6604661 L11.4819505,19.6604661 C11.6749984,19.6604661 11.831599,19.5039769 11.831599,19.3108176 L11.831599,16.2785616 C11.831599,16.0854023 11.6749984,15.9288017 11.4819505,15.9288017 L9.61333182,15.9288017 Z" id="Fill-50"></path>
                        <path d="M15.4830348,7.79433063 C15.4830348,7.6011713 15.3265457,7.44457068 15.1332749,7.44457068 L13.866649,7.44457068 C13.6734897,7.44457068 13.5168891,7.6011713 13.5168891,7.79433063 L13.5168891,11.8296107 C13.5168891,12.0228815 13.6734897,12.1793707 13.866649,12.1793707 L15.1332749,12.1793707 C15.3265457,12.1793707 15.4830348,12.0228815 15.4830348,11.8296107 L15.4830348,7.79433063 Z" id="Fill-52"></path>
                        <path d="M19.3751897,10.8037374 C19.3751897,10.6105781 19.2187006,10.4539774 19.0254298,10.4539774 L13.8666379,10.4539774 C13.6734785,10.4539774 13.5168779,10.6105781 13.5168779,10.8037374 L13.5168779,11.8697361 C13.5168779,12.0628955 13.6734785,12.2194961 13.8666379,12.2194961 L19.0254298,12.2194961 C19.2187006,12.2194961 19.3751897,12.0628955 19.3751897,11.8697361 L19.3751897,10.8037374 Z" id="Fill-54"></path>
                        <path d="M18.2116082,7.63378435 C18.2116082,7.44073648 18.0550076,7.28402441 17.8618483,7.28402441 L13.8666936,7.28402441 C13.6734228,7.28402441 13.5169336,7.44073648 13.5169336,7.63378435 L13.5169336,8.6997831 C13.5169336,8.89305389 13.6734228,9.04954304 13.8666936,9.04954304 L17.8618483,9.04954304 C18.0550076,9.04954304 18.2116082,8.89305389 18.2116082,8.6997831 L18.2116082,7.63378435 Z" id="Fill-56"></path>
                        <path d="M5.92178171,7.44460412 C5.72873384,7.44460412 5.57202177,7.60109327 5.57202177,7.79436406 L5.57202177,11.8296442 C5.57202177,12.0228035 5.72873384,12.1792926 5.92178171,12.1792926 L7.18840758,12.1792926 C7.38167837,12.1792926 7.53816752,12.0228035 7.53816752,11.8296442 L7.53816752,7.79436406 C7.53816752,7.60109327 7.38167837,7.44460412 7.18840758,7.44460412 L5.92178171,7.44460412 Z" id="Fill-58"></path>
                        <path d="M2.02962678,10.4540109 C1.83646745,10.4540109 1.67986684,10.6105 1.67986684,10.8037708 L1.67986684,11.8697696 C1.67986684,12.0629289 1.83646745,12.2195295 2.02962678,12.2195295 L7.18841873,12.2195295 C7.38168952,12.2195295 7.53817867,12.0629289 7.53817867,11.8697696 L7.53817867,10.8037708 C7.53817867,10.6105 7.38168952,10.4540109 7.18841873,10.4540109 L2.02962678,10.4540109 Z" id="Fill-60"></path>
                        <path d="M3.19320833,7.28405784 C3.00016046,7.28405784 2.84355985,7.44065846 2.84355985,7.63381779 L2.84355985,8.69981654 C2.84355985,8.89308733 3.00016046,9.04957648 3.19320833,9.04957648 L7.52619677,9.04957648 C7.53288434,9.04957648 7.53812294,9.04422642 7.53812294,9.03753885 L7.53812294,7.63381779 C7.53812294,7.44065846 7.38163379,7.28405784 7.18847446,7.28405784 L3.19320833,7.28405784 Z" id="Fill-62"></path>
                        <path d="M9.61333182,1.02892787 C9.42017249,1.02892787 9.26357188,1.18552848 9.26357188,1.37868781 L9.26357188,12.5118209 C9.26357188,12.6600621 9.17028027,12.7920301 9.03062151,12.8414067 L1.23068501,15.6054911 C1.09102625,15.6550906 0.997734639,15.7870586 0.997734639,15.9351883 L0.997734639,17.5718598 C0.997734639,17.6465376 1.03373606,17.7165342 1.09437003,17.759892 C1.15511547,17.8033612 1.23302566,17.8148415 1.30357953,17.7907662 L10.9997767,14.4868834 C11.497109,14.317465 11.831599,13.8501153 11.831599,13.3245837 L11.831599,1.37868781 C11.831599,1.18552848 11.6749984,1.02892787 11.4819505,1.02892787 L9.61333182,1.02892787 Z" id="Fill-64"></path>
                        <path d="M3.59452944,0.266567111 C3.40137011,0.266567111 3.2447695,0.423167722 3.2447695,0.616327053 L3.2447695,1.92307834 C3.2447695,2.11623768 3.40137011,2.27283829 3.59452944,2.27283829 L17.4605383,2.27283829 C17.6538091,2.27283829 17.8102982,2.11623768 17.8102982,1.92307834 L17.8102982,0.616327053 C17.8102982,0.423167722 17.6538091,0.266567111 17.4605383,0.266567111 L3.59452944,0.266567111 Z" id="Fill-66"></path>
                        <path d="M0.464735263,4.07850464 C0.271575933,4.07850464 0.114975322,4.23510525 0.114975322,4.42815312 L0.114975322,5.73501587 C0.114975322,5.9281752 0.271575933,6.08477581 0.464735263,6.08477581 L20.5903102,6.08477581 C20.783581,6.08477581 20.9400701,5.9281752 20.9400701,5.73501587 L20.9400701,4.42815312 C20.9400701,4.23510525 20.783581,4.07850464 20.5903102,4.07850464 L0.464735263,4.07850464 Z" id="Fill-68"></path>
                        <path d="M45.7033638,6.52168594 C45.5102044,6.52168594 45.3536038,6.6781751 45.3536038,6.87144588 L45.3536038,8.17819718 C45.3536038,8.37135651 45.5102044,8.52795712 45.7033638,8.52795712 L62.6991557,8.52795712 C62.892315,8.52795712 63.0489156,8.37135651 63.0489156,8.17819718 L63.0489156,6.87144588 C63.0489156,6.6781751 62.892315,6.52168594 62.6991557,6.52168594 L45.7033638,6.52168594 Z" id="Fill-25"></path>
                    </g>
                </g>
            </g>
        </g>
        <g id="Group-5" transform="translate(414.000000, 189.757646)">
            <mask id="mask-14" fill="white">
                <use xlink:href="#path-13"></use>
            </mask>
            <g id="Clip-2"></g>
            <path d="M51.28509,25.64248 C51.28509,39.80442 39.8046,51.2850855 25.64248,51.2850855 C11.48054,51.2850855 5.546307e-05,39.80442 5.546307e-05,25.64248 C5.546307e-05,11.48054 11.48054,-0.00013 25.64248,-0.00013 C39.8046,-0.00013 51.28509,11.48054 51.28509,25.64248" id="Fill-1" fill="#F4374E" mask="url(#mask-14)"></path>
            <path d="M14.74587,14.7458 L36.539159,36.539089" id="Stroke-3" stroke="#FFFFFF" stroke-width="6" mask="url(#mask-14)"></path>
            <path d="M36.53923,14.7458 L14.745941,36.539089" id="Stroke-4" stroke="#FFFFFF" stroke-width="6" mask="url(#mask-14)"></path>
        </g>
        <g id="Group-4" transform="translate(414.000000, 423.128906)">
            <mask id="mask-16" fill="white">
                <use xlink:href="#path-15"></use>
            </mask>
            <g id="Clip-2"></g>
            <path d="M51.28509,25.64248 C51.28509,39.80442 39.8046,51.2850855 25.64248,51.2850855 C11.48054,51.2850855 5.546307e-05,39.80442 5.546307e-05,25.64248 C5.546307e-05,11.48054 11.48054,-0.00013 25.64248,-0.00013 C39.8046,-0.00013 51.28509,11.48054 51.28509,25.64248" id="Fill-1" fill="#70D670" mask="url(#mask-16)"></path>
            <polyline id="Stroke-3" stroke="#FFFFFF" stroke-width="6" mask="url(#mask-16)" points="40.18475 16.35323 21.2618598 35.2761202 11.1002858 25.1145463"></polyline>
        </g>
        <g id="Group" transform="translate(462.397880, 351.628906)">
            <g id="Group-70" transform="translate(0.414549, 0.712769)">
                <g id="Group-3" transform="translate(37.582137, 0.000168)">
                    <mask id="mask-18" fill="white">
                        <use xlink:href="#path-17"></use>
                    </mask>
                    <g id="Clip-2"></g>
                    <path d="M10.6569518,1.18771297 C10.8775791,0.967085692 11.0930052,0.742096203 11.3349402,0.542608878 C11.5641242,0.353523752 11.8471646,0.16745862 12.1713106,0.16745862 C12.4954565,0.167626397 12.7783292,0.353523752 13.0075131,0.542608878 C13.2494481,0.742096203 13.4648743,0.967085692 13.6855016,1.18771297 L13.7965702,1.29878161 C14.0173653,1.51940888 14.242187,1.73483506 14.4416743,1.97660229 C14.6307594,2.20578621 14.8166568,2.48882668 14.8166568,2.81314039 C14.8166568,3.13728632 14.6307594,3.42015901 14.4416743,3.64934293 C14.2423548,3.89127794 14.0173653,4.10653634 13.7965702,4.32733139 L4.26396187,13.8599397 C4.04333459,14.0807348 3.82790842,14.3055565 3.58614119,14.5050438 C3.35678949,14.694129 3.07374902,14.8800263 2.74960309,14.8800263 C2.42545716,14.8800263 2.14258447,14.694129 1.91340054,14.5050438 C1.67146554,14.3057243 1.45603936,14.0807348 1.23541208,13.8599397 L1.12434345,13.7488711 C0.903716169,13.5282438 0.67872668,13.3129854 0.479239356,13.0710504 C0.29015423,12.8418665 0.104256874,12.5586582 0.104256874,12.2345123 C0.104256874,11.9103664 0.29015423,11.6274937 0.479239356,11.3983098 C0.67872668,11.1563748 0.903716169,10.9411164 1.12434345,10.7203213 L10.6569518,1.18771297 Z" id="Fill-1" fill="#FFFFFF" mask="url(#mask-18)"></path>
                </g>
                <path d="M29.3959086,20.031044 C29.6165358,19.8104168 29.831962,19.5855951 30.0737292,19.38594 C30.3030809,19.1968548 30.5861214,19.0109575 30.9102673,19.0109575 C31.2344133,19.0109575 31.517286,19.1966871 31.7464699,19.3857722 C31.9884049,19.5854273 32.2038311,19.8104168 32.4244583,20.031044 L32.535527,20.1421127 C32.7561543,20.36274 32.9811437,20.5781661 33.1806311,20.8199334 C33.3697162,21.0491173 33.5556135,21.3323255 33.5556135,21.6564715 C33.5556135,21.9804496 33.369884,22.2634901 33.1807988,22.492674 C32.9811437,22.7344412 32.756322,22.9498674 32.535527,23.1706625 L23.0029186,32.7032708 C22.7822914,32.9240659 22.5668652,33.1488876 22.3250979,33.3483749 C22.0957462,33.53746 21.8127058,33.7233574 21.4885598,33.7233574 C21.1644139,33.7233574 20.8815412,33.53746 20.6523573,33.3483749 C20.4104223,33.1490554 20.1949961,32.9240659 19.9743688,32.7032708 L19.8633002,32.5922022 C19.6426729,32.3715749 19.4176834,32.1563165 19.2181961,31.9143815 C19.029111,31.6851976 18.8432136,31.4019893 18.8432136,31.0778434 C18.8432136,30.7536975 19.029111,30.4709926 19.2181961,30.2416409 C19.4176834,29.9997058 19.6426729,29.7844474 19.8633002,29.5636524 L29.3959086,20.031044 Z" id="Fill-4" fill="#FFFFFF"></path>
                <path d="M51.3787742,29.5637195 C51.5994014,29.7843468 51.8242232,29.999773 52.0238783,30.2415402 C52.2129634,30.4707241 52.3988607,30.7539324 52.3988607,31.0779105 C52.3988607,31.4020564 52.2129634,31.6850969 52.0238783,31.9142808 C51.8243909,32.1560481 51.5994014,32.3714742 51.3787742,32.5922693 L51.2677055,32.7033379 C51.0469105,32.9239652 50.8316521,33.1487869 50.5898848,33.348442 C50.3605331,33.5375271 50.0774927,33.7234245 49.7533468,33.7234245 C49.4292008,33.7234245 49.1463281,33.5375271 48.9171442,33.348442 C48.6752092,33.1489547 48.4599508,32.9239652 48.2391557,32.7033379 L38.7065474,23.1707296 C38.4857523,22.9499345 38.2609306,22.7346761 38.0614433,22.4927411 C37.8723582,22.2635572 37.6862931,21.9805167 37.6864608,21.656203 C37.6864608,21.3320571 37.8723582,21.0493522 38.0612755,20.8201683 C38.2607629,20.5780655 38.4857523,20.3628071 38.7065474,20.1421798 L38.8174483,20.0311112 C39.0382433,19.8103161 39.2535017,19.5854944 39.4952689,19.3860071 C39.7246206,19.1969219 40.0076611,19.0110246 40.3319748,19.0110246 C40.655953,19.0110246 40.9388257,19.1967542 41.1681774,19.3858393 C41.4099446,19.5853266 41.6253708,19.8103161 41.8461658,20.0311112 L51.3787742,29.5637195 Z" id="Fill-6" fill="#FFFFFF"></path>
                <g id="Group-10" transform="translate(0.000000, 0.000168)">
                    <mask id="mask-20" fill="white">
                        <use xlink:href="#path-19"></use>
                    </mask>
                    <g id="Clip-9"></g>
                    <path d="M10.5527452,1.18771297 C10.7733725,0.967085692 10.9887987,0.742096203 11.2305659,0.542608878 C11.4599176,0.353523752 11.7429581,0.16745862 12.067104,0.16745862 C12.39125,0.167626397 12.6741227,0.353523752 12.9033066,0.542608878 C13.1452416,0.742096203 13.3606678,0.967085692 13.581295,1.18771297 L13.6923637,1.29878161 C13.9129909,1.51940888 14.1379804,1.73483506 14.3374678,1.97660229 C14.5265529,2.20578621 14.7124502,2.48882668 14.7124502,2.81314039 C14.7124502,3.13728632 14.5267207,3.42015901 14.3376355,3.64934293 C14.1379804,3.89127794 13.9129909,4.10653634 13.6923637,4.32733139 L4.15975533,13.8599397 C3.93912805,14.0807348 3.72370187,14.3055565 3.48193465,14.5050438 C3.25258294,14.694129 2.96954248,14.8800263 2.64539655,14.8800263 C2.32125062,14.8800263 2.03837792,14.694129 1.809194,14.5050438 C1.567259,14.3057243 1.35183282,14.0807348 1.13120554,13.8599397 L1.0201369,13.7488711 C0.799509628,13.5282438 0.574520139,13.3129854 0.375032815,13.0710504 C0.185947689,12.8418665 5.0333219e-05,12.5586582 5.0333219e-05,12.2345123 C5.0333219e-05,11.9103664 0.185947689,11.6276615 0.374865037,11.3983098 C0.574520139,11.1563748 0.799509628,10.9411164 1.0201369,10.7203213 L10.5527452,1.18771297 Z" id="Fill-8" fill-opacity="0.4" fill="#FFFFFF" mask="url(#mask-20)"></path>
                </g>
                <path d="M13.6923469,29.5637195 C13.9129742,29.7843468 14.1379637,29.999773 14.337451,30.2415402 C14.5265361,30.4707241 14.7126012,30.7539324 14.7126012,31.0779105 C14.7124335,31.4020564 14.5267039,31.6850969 14.3376188,31.9142808 C14.1379637,32.1560481 13.9129742,32.3714742 13.6923469,32.5922693 L13.5812783,32.7033379 C13.360651,32.9239652 13.1453926,33.1487869 12.9034576,33.348442 C12.6742737,33.5375271 12.3912332,33.7234245 12.0669195,33.7234245 C11.7427735,33.7234245 11.4599009,33.5375271 11.2307169,33.348442 C10.9889497,33.1489547 10.7735235,32.9239652 10.5527285,32.7033379 L1.02012013,23.1707296 C0.79949285,22.9499345 0.574503362,22.7346761 0.375016037,22.4927411 C0.185930911,22.2635572 3.35554793e-05,21.9805167 3.35554793e-05,21.656203 C3.35554793e-05,21.3320571 0.185930911,21.0493522 0.37484826,20.8201683 C0.574503362,20.5780655 0.79949285,20.3628071 1.02012013,20.1421798 L1.13118876,20.0311112 C1.35181604,19.8103161 1.56724222,19.5854944 1.80900945,19.3860071 C2.03836115,19.1969219 2.32140162,19.0110246 2.64554755,19.0110246 C2.96969348,19.0110246 3.25256617,19.1967542 3.48175009,19.3858393 C3.72351732,19.5853266 3.93911127,19.8103161 4.15973855,20.0311112 L13.6923469,29.5637195 Z" id="Fill-11" fill-opacity="0.4" fill="#FFFFFF"></path>
                <path d="M32.5355102,10.7204723 C32.7561375,10.9410996 32.981127,11.1565258 33.1806143,11.3984608 C33.3696994,11.6276447 33.5557645,11.9106852 33.5557645,12.2348311 C33.5555968,12.558977 33.3698672,12.8418497 33.1807821,13.0710336 C32.981127,13.3129686 32.7563053,13.5283948 32.5355102,13.7490221 L32.4244416,13.8600907 C32.2038143,14.0808858 31.9885559,14.3057075 31.7466209,14.5051948 C31.517437,14.69428 31.2343965,14.8801773 30.9100828,14.8801773 C30.5861046,14.8801773 30.3030642,14.69428 30.0738802,14.5051948 C29.832113,14.3058753 29.6166868,14.0808858 29.3958918,13.8600907 L19.8632834,4.32748239 C19.6426562,4.10685511 19.4176667,3.89142894 19.2183471,3.64966171 C19.0290942,3.42031001 18.8431969,3.13726954 18.8431969,2.81312361 C18.8431969,2.48897768 19.0290942,2.20610499 19.2181793,1.97692106 C19.4176667,1.73498606 19.6426562,1.51955988 19.8632834,1.2989326 L19.9743521,1.18786397 C20.1949793,0.967236692 20.4104055,0.742247203 20.6521727,0.542759878 C20.8815245,0.353674752 21.1645649,0.167777397 21.4887108,0.167777397 C21.8128568,0.167777397 22.0957295,0.353674752 22.3249134,0.542759878 C22.5668484,0.742247203 22.7822746,0.967236692 23.0029019,1.18786397 L32.5355102,10.7204723 Z" id="Fill-13" fill="#FFFFFF"></path>
                <path d="M67.0823358,20.031044 C67.3029631,19.8104168 67.5183893,19.5855951 67.7601565,19.38594 C67.9893404,19.1968548 68.2725487,19.0109575 68.5965268,19.0109575 C68.9206728,19.0109575 69.2037132,19.1966871 69.4328972,19.3857722 C69.6746644,19.5854273 69.8900906,19.8104168 70.1108856,20.031044 L70.2219543,20.1421127 C70.4425815,20.36274 70.6674032,20.5781661 70.8670583,20.8199334 C71.0561435,21.0491173 71.2420408,21.3323255 71.2420408,21.6564715 C71.2420408,21.9804496 71.0561435,22.2634901 70.8670583,22.492674 C70.667571,22.7344412 70.4425815,22.9498674 70.2219543,23.1706625 L60.6893459,32.7032708 C60.4685509,32.9240659 60.2532925,33.1488876 60.0113574,33.3483749 C59.7821735,33.53746 59.4991331,33.7233574 59.1748193,33.7233574 C58.8506734,33.7233574 58.5679685,33.53746 58.3387846,33.3483749 C58.0966818,33.1490554 57.8814234,32.9240659 57.6607961,32.7032708 L57.5497275,32.5922022 C57.3289324,32.3715749 57.1041107,32.1563165 56.9046234,31.9143815 C56.7155383,31.6851976 56.5296409,31.4019893 56.5296409,31.0778434 C56.5296409,30.7536975 56.7153705,30.4709926 56.9044556,30.2416409 C57.1039429,29.9997058 57.3289324,29.7844474 57.5497275,29.5636524 L67.0823358,20.031044 Z" id="Fill-15" fill-opacity="0.4" fill="#FFFFFF"></path>
                <path d="M70.2219375,10.7204723 C70.4425647,10.9410996 70.6673865,11.1565258 70.8670416,11.3984608 C71.0561267,11.6276447 71.242024,11.9106852 71.242024,12.2348311 C71.242024,12.558977 71.0561267,12.8418497 70.8670416,13.0710336 C70.6675542,13.3129686 70.4425647,13.5283948 70.2219375,13.7490221 L70.1108688,13.8600907 C69.8900738,14.0808858 69.6748154,14.3057075 69.4330482,14.5051948 C69.2038642,14.69428 68.920656,14.8801773 68.5965101,14.8801773 C68.2723641,14.8801773 67.9894914,14.69428 67.7603075,14.5051948 C67.5183725,14.3058753 67.3031141,14.0808858 67.082319,13.8600907 L57.5497107,4.32748239 C57.3289157,4.10685511 57.1040939,3.89142894 56.9046066,3.64966171 C56.7155215,3.42031001 56.5296241,3.13726954 56.5296241,2.81312361 C56.5296241,2.48897768 56.7153537,2.20610499 56.9044388,1.97692106 C57.1039262,1.73498606 57.3289157,1.51955988 57.5497107,1.2989326 L57.6607793,1.18786397 C57.8812388,0.967236692 58.096665,0.742247203 58.3386,0.542759878 C58.5677839,0.353674752 58.8509922,0.167777397 59.1749703,0.167777397 C59.4991163,0.167777397 59.781989,0.353674752 60.0113407,0.542759878 C60.2531079,0.742247203 60.4685341,0.967236692 60.6893291,1.18786397 L70.2219375,10.7204723 Z" id="Fill-17" fill-opacity="0.4" fill="#FFFFFF"></path>
                <path d="M148.281361,26.5124359 C148.00671,26.5332403 147.794639,26.7620886 147.794639,27.0374114 L147.794639,29.2431808 C147.794639,29.3896505 147.85571,29.5295768 147.963255,29.6292366 C148.070465,29.7287286 148.214754,29.7792296 148.36072,29.7679885 L164.105622,28.5791179 C164.380273,28.5584812 164.592512,28.3296329 164.592512,28.0541424 L164.592512,25.8485407 C164.592512,25.7020711 164.531441,25.5621447 164.424063,25.4624849 C164.316518,25.3628252 164.172565,25.3126597 164.026431,25.3235652 L148.281361,26.5124359 Z" id="Fill-19" fill="#FFFFFF"></path>
                <path d="M150.753444,26.6095958 L154.211671,26.5547326 C154.422064,26.551377 154.61031,26.4230273 154.69034,26.2284055 L158.096389,17.9331555 C158.150581,17.8011147 158.148736,17.6524639 158.091356,17.5217653 C158.034144,17.3910667 157.926095,17.2890581 157.792209,17.2395637 L155.517651,16.3971534 C155.251891,16.2988359 154.956267,16.4280245 154.848051,16.689925 L150.753444,26.6095958 Z" id="Fill-21" fill="#FFFFFF"></path>
                <path d="M166.924148,20.414449 C166.802006,20.1627829 166.504537,20.0505398 166.246663,20.158924 L164.196255,21.0199576 C164.063376,21.0756597 163.959186,21.1835405 163.908014,21.3182658 C163.856842,21.452991 163.863217,21.6028163 163.925462,21.732676 L168.294554,30.8535586 C168.418709,31.1127747 168.72809,31.2245144 168.989488,31.104218 L171.050465,30.1561079 C171.178815,30.0970503 171.278307,29.9886661 171.325956,29.8554508 C171.373772,29.7224034 171.365887,29.5755981 171.303977,29.4482551 L166.924148,20.414449 Z" id="Fill-23" fill="#FFFFFF"></path>
                <g id="Group-27" transform="translate(145.966335, 11.576808)">
                    <mask id="mask-22" fill="white">
                        <use xlink:href="#path-21"></use>
                    </mask>
                    <g id="Clip-26"></g>
                    <path d="M0.609887614,0.0201500653 C0.319129386,0.0201500653 0.0834021439,0.25570953 0.0834021439,0.546635536 L0.0834021439,2.51365773 C0.0834021439,2.80441596 0.319129386,3.0401432 0.609887614,3.0401432 L26.1932562,3.0401432 C26.4840144,3.0401432 26.7197416,2.80441596 26.7197416,2.51365773 L26.7197416,0.546635536 C26.7197416,0.25570953 26.4840144,0.0201500653 26.1932562,0.0201500653 L0.609887614,0.0201500653 Z" id="Fill-25" fill="#FFFFFF" mask="url(#mask-22)"></path>
                </g>
                <path d="M149.777415,3.35571571 C149.486657,3.35571571 149.25093,3.59144295 149.25093,3.88220118 L149.25093,5.84922338 C149.25093,6.13998161 149.486657,6.37570885 149.777415,6.37570885 L168.958399,6.37570885 C169.249325,6.37570885 169.484884,6.13998161 169.484884,5.84922338 L169.484884,3.88220118 C169.484884,3.59144295 169.249325,3.35571571 168.958399,3.35571571 L149.777415,3.35571571 Z" id="Fill-28" fill="#FFFFFF"></path>
                <path d="M122.097752,26.5122681 C121.823268,26.5330725 121.611366,26.7619209 121.611366,27.0372436 L121.611366,29.2428452 C121.611366,29.3894827 121.672269,29.529409 121.779646,29.6290688 C121.887192,29.7287286 122.031312,29.7790618 122.177614,29.7678207 L135.446122,28.7604852 C135.720606,28.7396808 135.932676,28.5110002 135.932676,28.2356775 L135.932676,26.0299081 C135.932676,25.8834384 135.871605,25.7435121 135.76406,25.6438523 C135.656682,25.5441925 135.512562,25.4940271 135.366428,25.5051004 L122.097752,26.5122681 Z" id="Fill-30" fill="#FFFFFF"></path>
                <path d="M124.388803,26.6095958 L127.840487,26.5549003 C128.054403,26.551377 128.244663,26.4191684 128.322512,26.2201844 L131.01903,19.3171512 C131.07037,19.1856137 131.066847,19.0389763 131.008963,18.9099555 C130.95108,18.7812702 130.844038,18.6809393 130.711662,18.6319483 L128.43509,17.7888669 C128.166814,17.6895427 127.868171,17.822758 127.762806,18.0886851 L124.388803,26.6095958 Z" id="Fill-32" fill="#FFFFFF"></path>
                <path d="M114.595619,3.31328481 C114.369791,3.13577632 114.043296,3.17201624 113.861929,3.39482462 L112.412668,5.17527835 C112.323578,5.28483699 112.282137,5.42543445 112.29774,5.56569636 C112.313344,5.70595826 112.384649,5.83414019 112.49555,5.92138444 L117.88909,10.1629648 C118.114918,10.3404733 118.441413,10.3042334 118.62278,10.081425 L120.072041,8.30097125 C120.161131,8.19141261 120.202572,8.05081515 120.186969,7.91038547 C120.171366,7.77012357 120.100228,7.64210942 119.988992,7.55486517 L114.595619,3.31328481 Z" id="Fill-34" fill="#FFFFFF"></path>
                <path d="M113.628114,31.0560323 C113.840856,31.2384064 114.158962,31.222132 114.352074,31.0192891 L119.633035,25.4717295 C119.830006,25.2646922 119.825979,24.9385329 119.623975,24.7365289 L118.012809,23.1251948 C117.912478,23.0250317 117.776075,22.9694974 117.634303,22.9711751 C117.492363,22.9728529 117.35747,23.0317428 117.259656,23.1342548 L111.853701,28.8051308 C111.754041,28.9096561 111.701862,29.0505891 111.709076,29.1948777 C111.716123,29.3391662 111.782563,29.4740593 111.892122,29.5680146 L113.628114,31.0560323 Z" id="Fill-36" fill="#FFFFFF"></path>
                <path d="M138.567302,21.1968117 C138.444656,20.9464879 138.147858,20.8352514 137.890823,20.9431323 L135.840416,21.8043337 C135.707368,21.8602036 135.60301,21.9685878 135.551838,22.1034808 C135.500834,22.2387094 135.507545,22.3888701 135.570462,22.5188976 L139.633695,30.9166597 C139.758857,31.1747013 140.067064,31.2854344 140.327622,31.1654735 L142.388432,30.2175312 C142.517453,30.1583058 142.616945,30.0495861 142.664426,29.9158675 C142.712074,29.7821489 142.703518,29.6350081 142.641105,29.5074973 L138.567302,21.1968117 Z" id="Fill-38" fill="#FFFFFF"></path>
                <path d="M130.842008,1.84571914 C130.55125,1.84571914 130.315523,2.08144638 130.315523,2.37220461 L130.315523,15.15097 C130.315523,15.4415605 130.55125,15.6772877 130.842008,15.6772877 L133.413029,15.6772877 C133.703955,15.6772877 133.939514,15.4415605 133.939514,15.15097 L133.939514,2.37220461 C133.939514,2.08144638 133.703955,1.84571914 133.413029,1.84571914 L130.842008,1.84571914 Z" id="Fill-40" fill="#FFFFFF"></path>
                <path d="M122.32551,13.5029765 C122.03492,13.5029765 121.799025,13.738536 121.799025,14.0292942 L121.799025,15.9964842 C121.799025,16.2872424 122.03492,16.5229697 122.32551,16.5229697 L141.86906,16.5229697 C142.159818,16.5229697 142.395546,16.2872424 142.395546,15.9964842 L142.395546,14.0292942 C142.395546,13.738536 142.159818,13.5029765 141.86906,13.5029765 L122.32551,13.5029765 Z" id="Fill-42" fill="#FFFFFF"></path>
                <path d="M123.71474,6.31532576 C123.42415,6.31532576 123.188255,6.55105301 123.188255,6.84181123 L123.188255,8.80883343 C123.188255,9.09959166 123.42415,9.3353189 123.71474,9.3353189 L140.479897,9.3353189 C140.770487,9.3353189 141.006382,9.09959166 141.006382,8.80883343 L141.006382,6.84181123 C141.006382,6.55105301 140.770487,6.31532576 140.479897,6.31532576 L123.71474,6.31532576 Z" id="Fill-44" fill="#FFFFFF"></path>
                <path d="M114.596106,12.3170588 C114.370445,12.137537 114.042105,12.172938 113.860067,12.3967531 L112.410805,14.1772068 C112.321883,14.2862621 112.280442,14.4263562 112.29571,14.5661148 C112.31081,14.7060411 112.381277,14.8338875 112.491339,14.9214673 L117.284403,18.7355509 C117.510232,18.9150727 117.838404,18.8795039 118.02061,18.6558566 L119.469872,16.8752351 C119.558626,16.7663476 119.600067,16.6262535 119.584967,16.4864949 C119.570035,16.3465685 119.499568,16.2187222 119.389338,16.1309746 L114.596106,12.3170588 Z" id="Fill-46" fill="#FFFFFF"></path>
                <path d="M98.7993104,21.4799361 C98.6367341,21.4104762 98.4501657,21.4274218 98.3025216,21.5249004 C98.1550452,21.6222113 98.066291,21.7871365 98.066291,21.9641417 L98.066291,24.1997755 C98.066291,24.4116783 98.1932985,24.6027768 98.3885914,24.6849877 L107.464845,28.5036012 C107.577592,28.5510822 107.70678,28.5388345 107.808621,28.4712202 C107.91063,28.4036059 107.971868,28.2893495 107.971868,28.166872 L107.971868,25.7426564 C107.971868,25.5317602 107.846035,25.3413329 107.652085,25.2584508 L98.7993104,21.4799361 Z" id="Fill-48" fill="#FFFFFF"></path>
                <path d="M92.2507405,25.7572698 C91.9599823,25.7572698 91.7242551,25.9929971 91.7242551,26.2837553 L91.7242551,30.8481394 C91.7242551,31.1388976 91.9599823,31.3744571 92.2507405,31.3744571 L95.0635286,31.3744571 C95.354119,31.3744571 95.5898463,31.1388976 95.5898463,30.8481394 L95.5898463,26.2837553 C95.5898463,25.9929971 95.354119,25.7572698 95.0635286,25.7572698 L92.2507405,25.7572698 Z" id="Fill-50" fill="#FFFFFF"></path>
                <path d="M101.086267,13.5126405 C101.086267,13.2218823 100.850708,12.9861551 100.559782,12.9861551 L98.6531596,12.9861551 C98.3624013,12.9861551 98.1266741,13.2218823 98.1266741,13.5126405 L98.1266741,19.5868534 C98.1266741,19.8777794 98.3624013,20.1133389 98.6531596,20.1133389 L100.559782,20.1133389 C100.850708,20.1133389 101.086267,19.8777794 101.086267,19.5868534 L101.086267,13.5126405 Z" id="Fill-52" fill="#FFFFFF"></path>
                <path d="M106.945037,18.0426302 C106.945037,17.751872 106.709478,17.5161448 106.418552,17.5161448 L98.6531428,17.5161448 C98.3623845,17.5161448 98.1266573,17.751872 98.1266573,18.0426302 L98.1266573,19.6472533 C98.1266573,19.9380115 98.3623845,20.1737387 98.6531428,20.1737387 L106.418552,20.1737387 C106.709478,20.1737387 106.945037,19.9380115 106.945037,19.6472533 L106.945037,18.0426302 Z" id="Fill-54" fill="#FFFFFF"></path>
                <path d="M105.193525,13.270974 C105.193525,12.9803835 104.957798,12.7444885 104.66704,12.7444885 L98.6532267,12.7444885 C98.3623007,12.7444885 98.1267412,12.9803835 98.1267412,13.270974 L98.1267412,14.875597 C98.1267412,15.166523 98.3623007,15.4020825 98.6532267,15.4020825 L104.66704,15.4020825 C104.957798,15.4020825 105.193525,15.166523 105.193525,14.875597 L105.193525,13.270974 Z" id="Fill-56" fill="#FFFFFF"></path>
                <path d="M86.6939364,12.9862054 C86.4033459,12.9862054 86.1674509,13.2217649 86.1674509,13.5126909 L86.1674509,19.5869037 C86.1674509,19.877662 86.4033459,20.1132214 86.6939364,20.1132214 L88.6005587,20.1132214 C88.8914847,20.1132214 89.1270442,19.877662 89.1270442,19.5869037 L89.1270442,13.5126909 C89.1270442,13.2217649 88.8914847,12.9862054 88.6005587,12.9862054 L86.6939364,12.9862054 Z" id="Fill-58" fill="#FFFFFF"></path>
                <path d="M80.8351665,17.5161951 C80.5444082,17.5161951 80.308681,17.7517546 80.308681,18.0426806 L80.308681,19.6473036 C80.308681,19.9380618 80.5444082,20.1737891 80.8351665,20.1737891 L88.6005755,20.1737891 C88.8915015,20.1737891 89.127061,19.9380618 89.127061,19.6473036 L89.127061,18.0426806 C89.127061,17.7517546 88.8915015,17.5161951 88.6005755,17.5161951 L80.8351665,17.5161951 Z" id="Fill-60" fill="#FFFFFF"></path>
                <path d="M82.5866786,12.7445388 C82.2960882,12.7445388 82.0603609,12.9802661 82.0603609,13.2710243 L82.0603609,14.8756473 C82.0603609,15.1665733 82.2960882,15.4021328 82.5866786,15.4021328 L89.1090249,15.4021328 C89.1190915,15.4021328 89.1269771,15.3940795 89.1269771,15.3840128 L89.1269771,13.2710243 C89.1269771,12.9802661 88.8914176,12.7445388 88.6006594,12.7445388 L82.5866786,12.7445388 Z" id="Fill-62" fill="#FFFFFF"></path>
                <path d="M92.2507405,3.32883777 C91.9599823,3.32883777 91.7242551,3.56456501 91.7242551,3.85532324 L91.7242551,20.6137685 C91.7242551,20.8369124 91.5838254,21.0355609 91.3736003,21.1098863 L79.6325381,25.2705979 C79.422313,25.3452589 79.2818833,25.5439073 79.2818833,25.7668835 L79.2818833,28.2305268 C79.2818833,28.3429376 79.3360754,28.4483018 79.4273463,28.5135672 C79.518785,28.5790004 79.6360614,28.5962815 79.7422645,28.5600416 L94.3377236,23.586784 C95.0863463,23.3317623 95.5898463,22.6282717 95.5898463,21.8372013 L95.5898463,3.85532324 C95.5898463,3.56456501 95.354119,3.32883777 95.0635286,3.32883777 L92.2507405,3.32883777 Z" id="Fill-64" fill="#FFFFFF"></path>
                <path d="M83.1907779,2.18127393 C82.9000197,2.18127393 82.6642924,2.41700118 82.6642924,2.7077594 L82.6642924,4.6747816 C82.6642924,4.96553983 82.9000197,5.20126707 83.1907779,5.20126707 L104.062957,5.20126707 C104.353883,5.20126707 104.589443,4.96553983 104.589443,4.6747816 L104.589443,2.7077594 C104.589443,2.41700118 104.353883,2.18127393 104.062957,2.18127393 L83.1907779,2.18127393 Z" id="Fill-66" fill="#FFFFFF"></path>
                <path d="M78.4795718,7.91929445 C78.1888136,7.91929445 77.9530864,8.1550217 77.9530864,8.44561215 L77.9530864,10.4128021 C77.9530864,10.7035604 78.1888136,10.9392876 78.4795718,10.9392876 L108.77413,10.9392876 C109.065056,10.9392876 109.300615,10.7035604 109.300615,10.4128021 L109.300615,8.44561215 C109.300615,8.1550217 109.065056,7.91929445 108.77413,7.91929445 L78.4795718,7.91929445 Z" id="Fill-68" fill="#FFFFFF"></path>
            </g>
        </g>
        <g id="Group" transform="translate(243.507255, 351.628906)">
            <g id="Group-70" transform="translate(0.414549, 0.712769)">
                <g id="Group-3" transform="translate(37.582137, 0.000168)">
                    <mask id="mask-24" fill="white">
                        <use xlink:href="#path-23"></use>
                    </mask>
                    <g id="Clip-2"></g>
                    <path d="M10.6569518,1.18771297 C10.8775791,0.967085692 11.0930052,0.742096203 11.3349402,0.542608878 C11.5641242,0.353523752 11.8471646,0.16745862 12.1713106,0.16745862 C12.4954565,0.167626397 12.7783292,0.353523752 13.0075131,0.542608878 C13.2494481,0.742096203 13.4648743,0.967085692 13.6855016,1.18771297 L13.7965702,1.29878161 C14.0173653,1.51940888 14.242187,1.73483506 14.4416743,1.97660229 C14.6307594,2.20578621 14.8166568,2.48882668 14.8166568,2.81314039 C14.8166568,3.13728632 14.6307594,3.42015901 14.4416743,3.64934293 C14.2423548,3.89127794 14.0173653,4.10653634 13.7965702,4.32733139 L4.26396187,13.8599397 C4.04333459,14.0807348 3.82790842,14.3055565 3.58614119,14.5050438 C3.35678949,14.694129 3.07374902,14.8800263 2.74960309,14.8800263 C2.42545716,14.8800263 2.14258447,14.694129 1.91340054,14.5050438 C1.67146554,14.3057243 1.45603936,14.0807348 1.23541208,13.8599397 L1.12434345,13.7488711 C0.903716169,13.5282438 0.67872668,13.3129854 0.479239356,13.0710504 C0.29015423,12.8418665 0.104256874,12.5586582 0.104256874,12.2345123 C0.104256874,11.9103664 0.29015423,11.6274937 0.479239356,11.3983098 C0.67872668,11.1563748 0.903716169,10.9411164 1.12434345,10.7203213 L10.6569518,1.18771297 Z" id="Fill-1" fill="#2B4EEF" mask="url(#mask-24)"></path>
                </g>
                <path d="M29.3959086,20.031044 C29.6165358,19.8104168 29.831962,19.5855951 30.0737292,19.38594 C30.3030809,19.1968548 30.5861214,19.0109575 30.9102673,19.0109575 C31.2344133,19.0109575 31.517286,19.1966871 31.7464699,19.3857722 C31.9884049,19.5854273 32.2038311,19.8104168 32.4244583,20.031044 L32.535527,20.1421127 C32.7561543,20.36274 32.9811437,20.5781661 33.1806311,20.8199334 C33.3697162,21.0491173 33.5556135,21.3323255 33.5556135,21.6564715 C33.5556135,21.9804496 33.369884,22.2634901 33.1807988,22.492674 C32.9811437,22.7344412 32.756322,22.9498674 32.535527,23.1706625 L23.0029186,32.7032708 C22.7822914,32.9240659 22.5668652,33.1488876 22.3250979,33.3483749 C22.0957462,33.53746 21.8127058,33.7233574 21.4885598,33.7233574 C21.1644139,33.7233574 20.8815412,33.53746 20.6523573,33.3483749 C20.4104223,33.1490554 20.1949961,32.9240659 19.9743688,32.7032708 L19.8633002,32.5922022 C19.6426729,32.3715749 19.4176834,32.1563165 19.2181961,31.9143815 C19.029111,31.6851976 18.8432136,31.4019893 18.8432136,31.0778434 C18.8432136,30.7536975 19.029111,30.4709926 19.2181961,30.2416409 C19.4176834,29.9997058 19.6426729,29.7844474 19.8633002,29.5636524 L29.3959086,20.031044 Z" id="Fill-4" fill="#2B4EEF"></path>
                <path d="M51.3787742,29.5637195 C51.5994014,29.7843468 51.8242232,29.999773 52.0238783,30.2415402 C52.2129634,30.4707241 52.3988607,30.7539324 52.3988607,31.0779105 C52.3988607,31.4020564 52.2129634,31.6850969 52.0238783,31.9142808 C51.8243909,32.1560481 51.5994014,32.3714742 51.3787742,32.5922693 L51.2677055,32.7033379 C51.0469105,32.9239652 50.8316521,33.1487869 50.5898848,33.348442 C50.3605331,33.5375271 50.0774927,33.7234245 49.7533468,33.7234245 C49.4292008,33.7234245 49.1463281,33.5375271 48.9171442,33.348442 C48.6752092,33.1489547 48.4599508,32.9239652 48.2391557,32.7033379 L38.7065474,23.1707296 C38.4857523,22.9499345 38.2609306,22.7346761 38.0614433,22.4927411 C37.8723582,22.2635572 37.6862931,21.9805167 37.6864608,21.656203 C37.6864608,21.3320571 37.8723582,21.0493522 38.0612755,20.8201683 C38.2607629,20.5780655 38.4857523,20.3628071 38.7065474,20.1421798 L38.8174483,20.0311112 C39.0382433,19.8103161 39.2535017,19.5854944 39.4952689,19.3860071 C39.7246206,19.1969219 40.0076611,19.0110246 40.3319748,19.0110246 C40.655953,19.0110246 40.9388257,19.1967542 41.1681774,19.3858393 C41.4099446,19.5853266 41.6253708,19.8103161 41.8461658,20.0311112 L51.3787742,29.5637195 Z" id="Fill-6" fill="#2B4EEF"></path>
                <g id="Group-10" transform="translate(0.000000, 0.000168)">
                    <mask id="mask-26" fill="white">
                        <use xlink:href="#path-25"></use>
                    </mask>
                    <g id="Clip-9"></g>
                    <path d="M10.5527452,1.18771297 C10.7733725,0.967085692 10.9887987,0.742096203 11.2305659,0.542608878 C11.4599176,0.353523752 11.7429581,0.16745862 12.067104,0.16745862 C12.39125,0.167626397 12.6741227,0.353523752 12.9033066,0.542608878 C13.1452416,0.742096203 13.3606678,0.967085692 13.581295,1.18771297 L13.6923637,1.29878161 C13.9129909,1.51940888 14.1379804,1.73483506 14.3374678,1.97660229 C14.5265529,2.20578621 14.7124502,2.48882668 14.7124502,2.81314039 C14.7124502,3.13728632 14.5267207,3.42015901 14.3376355,3.64934293 C14.1379804,3.89127794 13.9129909,4.10653634 13.6923637,4.32733139 L4.15975533,13.8599397 C3.93912805,14.0807348 3.72370187,14.3055565 3.48193465,14.5050438 C3.25258294,14.694129 2.96954248,14.8800263 2.64539655,14.8800263 C2.32125062,14.8800263 2.03837792,14.694129 1.809194,14.5050438 C1.567259,14.3057243 1.35183282,14.0807348 1.13120554,13.8599397 L1.0201369,13.7488711 C0.799509628,13.5282438 0.574520139,13.3129854 0.375032815,13.0710504 C0.185947689,12.8418665 5.0333219e-05,12.5586582 5.0333219e-05,12.2345123 C5.0333219e-05,11.9103664 0.185947689,11.6276615 0.374865037,11.3983098 C0.574520139,11.1563748 0.799509628,10.9411164 1.0201369,10.7203213 L10.5527452,1.18771297 Z" id="Fill-8" fill-opacity="0.4" fill="#2B4EEF" mask="url(#mask-26)"></path>
                </g>
                <path d="M13.6923469,29.5637195 C13.9129742,29.7843468 14.1379637,29.999773 14.337451,30.2415402 C14.5265361,30.4707241 14.7126012,30.7539324 14.7126012,31.0779105 C14.7124335,31.4020564 14.5267039,31.6850969 14.3376188,31.9142808 C14.1379637,32.1560481 13.9129742,32.3714742 13.6923469,32.5922693 L13.5812783,32.7033379 C13.360651,32.9239652 13.1453926,33.1487869 12.9034576,33.348442 C12.6742737,33.5375271 12.3912332,33.7234245 12.0669195,33.7234245 C11.7427735,33.7234245 11.4599009,33.5375271 11.2307169,33.348442 C10.9889497,33.1489547 10.7735235,32.9239652 10.5527285,32.7033379 L1.02012013,23.1707296 C0.79949285,22.9499345 0.574503362,22.7346761 0.375016037,22.4927411 C0.185930911,22.2635572 3.35554793e-05,21.9805167 3.35554793e-05,21.656203 C3.35554793e-05,21.3320571 0.185930911,21.0493522 0.37484826,20.8201683 C0.574503362,20.5780655 0.79949285,20.3628071 1.02012013,20.1421798 L1.13118876,20.0311112 C1.35181604,19.8103161 1.56724222,19.5854944 1.80900945,19.3860071 C2.03836115,19.1969219 2.32140162,19.0110246 2.64554755,19.0110246 C2.96969348,19.0110246 3.25256617,19.1967542 3.48175009,19.3858393 C3.72351732,19.5853266 3.93911127,19.8103161 4.15973855,20.0311112 L13.6923469,29.5637195 Z" id="Fill-11" fill-opacity="0.4" fill="#2B4EEF"></path>
                <path d="M32.5355102,10.7204723 C32.7561375,10.9410996 32.981127,11.1565258 33.1806143,11.3984608 C33.3696994,11.6276447 33.5557645,11.9106852 33.5557645,12.2348311 C33.5555968,12.558977 33.3698672,12.8418497 33.1807821,13.0710336 C32.981127,13.3129686 32.7563053,13.5283948 32.5355102,13.7490221 L32.4244416,13.8600907 C32.2038143,14.0808858 31.9885559,14.3057075 31.7466209,14.5051948 C31.517437,14.69428 31.2343965,14.8801773 30.9100828,14.8801773 C30.5861046,14.8801773 30.3030642,14.69428 30.0738802,14.5051948 C29.832113,14.3058753 29.6166868,14.0808858 29.3958918,13.8600907 L19.8632834,4.32748239 C19.6426562,4.10685511 19.4176667,3.89142894 19.2183471,3.64966171 C19.0290942,3.42031001 18.8431969,3.13726954 18.8431969,2.81312361 C18.8431969,2.48897768 19.0290942,2.20610499 19.2181793,1.97692106 C19.4176667,1.73498606 19.6426562,1.51955988 19.8632834,1.2989326 L19.9743521,1.18786397 C20.1949793,0.967236692 20.4104055,0.742247203 20.6521727,0.542759878 C20.8815245,0.353674752 21.1645649,0.167777397 21.4887108,0.167777397 C21.8128568,0.167777397 22.0957295,0.353674752 22.3249134,0.542759878 C22.5668484,0.742247203 22.7822746,0.967236692 23.0029019,1.18786397 L32.5355102,10.7204723 Z" id="Fill-13" fill="#2B4EEF"></path>
                <path d="M67.0823358,20.031044 C67.3029631,19.8104168 67.5183893,19.5855951 67.7601565,19.38594 C67.9893404,19.1968548 68.2725487,19.0109575 68.5965268,19.0109575 C68.9206728,19.0109575 69.2037132,19.1966871 69.4328972,19.3857722 C69.6746644,19.5854273 69.8900906,19.8104168 70.1108856,20.031044 L70.2219543,20.1421127 C70.4425815,20.36274 70.6674032,20.5781661 70.8670583,20.8199334 C71.0561435,21.0491173 71.2420408,21.3323255 71.2420408,21.6564715 C71.2420408,21.9804496 71.0561435,22.2634901 70.8670583,22.492674 C70.667571,22.7344412 70.4425815,22.9498674 70.2219543,23.1706625 L60.6893459,32.7032708 C60.4685509,32.9240659 60.2532925,33.1488876 60.0113574,33.3483749 C59.7821735,33.53746 59.4991331,33.7233574 59.1748193,33.7233574 C58.8506734,33.7233574 58.5679685,33.53746 58.3387846,33.3483749 C58.0966818,33.1490554 57.8814234,32.9240659 57.6607961,32.7032708 L57.5497275,32.5922022 C57.3289324,32.3715749 57.1041107,32.1563165 56.9046234,31.9143815 C56.7155383,31.6851976 56.5296409,31.4019893 56.5296409,31.0778434 C56.5296409,30.7536975 56.7153705,30.4709926 56.9044556,30.2416409 C57.1039429,29.9997058 57.3289324,29.7844474 57.5497275,29.5636524 L67.0823358,20.031044 Z" id="Fill-15" fill-opacity="0.4" fill="#2B4EEF"></path>
                <path d="M70.2219375,10.7204723 C70.4425647,10.9410996 70.6673865,11.1565258 70.8670416,11.3984608 C71.0561267,11.6276447 71.242024,11.9106852 71.242024,12.2348311 C71.242024,12.558977 71.0561267,12.8418497 70.8670416,13.0710336 C70.6675542,13.3129686 70.4425647,13.5283948 70.2219375,13.7490221 L70.1108688,13.8600907 C69.8900738,14.0808858 69.6748154,14.3057075 69.4330482,14.5051948 C69.2038642,14.69428 68.920656,14.8801773 68.5965101,14.8801773 C68.2723641,14.8801773 67.9894914,14.69428 67.7603075,14.5051948 C67.5183725,14.3058753 67.3031141,14.0808858 67.082319,13.8600907 L57.5497107,4.32748239 C57.3289157,4.10685511 57.1040939,3.89142894 56.9046066,3.64966171 C56.7155215,3.42031001 56.5296241,3.13726954 56.5296241,2.81312361 C56.5296241,2.48897768 56.7153537,2.20610499 56.9044388,1.97692106 C57.1039262,1.73498606 57.3289157,1.51955988 57.5497107,1.2989326 L57.6607793,1.18786397 C57.8812388,0.967236692 58.096665,0.742247203 58.3386,0.542759878 C58.5677839,0.353674752 58.8509922,0.167777397 59.1749703,0.167777397 C59.4991163,0.167777397 59.781989,0.353674752 60.0113407,0.542759878 C60.2531079,0.742247203 60.4685341,0.967236692 60.6893291,1.18786397 L70.2219375,10.7204723 Z" id="Fill-17" fill-opacity="0.4" fill="#2B4EEF"></path>
                <path d="M148.281361,26.5124359 C148.00671,26.5332403 147.794639,26.7620886 147.794639,27.0374114 L147.794639,29.2431808 C147.794639,29.3896505 147.85571,29.5295768 147.963255,29.6292366 C148.070465,29.7287286 148.214754,29.7792296 148.36072,29.7679885 L164.105622,28.5791179 C164.380273,28.5584812 164.592512,28.3296329 164.592512,28.0541424 L164.592512,25.8485407 C164.592512,25.7020711 164.531441,25.5621447 164.424063,25.4624849 C164.316518,25.3628252 164.172565,25.3126597 164.026431,25.3235652 L148.281361,26.5124359 Z" id="Fill-19" fill="#283266"></path>
                <path d="M150.753444,26.6095958 L154.211671,26.5547326 C154.422064,26.551377 154.61031,26.4230273 154.69034,26.2284055 L158.096389,17.9331555 C158.150581,17.8011147 158.148736,17.6524639 158.091356,17.5217653 C158.034144,17.3910667 157.926095,17.2890581 157.792209,17.2395637 L155.517651,16.3971534 C155.251891,16.2988359 154.956267,16.4280245 154.848051,16.689925 L150.753444,26.6095958 Z" id="Fill-21" fill="#283266"></path>
                <path d="M166.924148,20.414449 C166.802006,20.1627829 166.504537,20.0505398 166.246663,20.158924 L164.196255,21.0199576 C164.063376,21.0756597 163.959186,21.1835405 163.908014,21.3182658 C163.856842,21.452991 163.863217,21.6028163 163.925462,21.732676 L168.294554,30.8535586 C168.418709,31.1127747 168.72809,31.2245144 168.989488,31.104218 L171.050465,30.1561079 C171.178815,30.0970503 171.278307,29.9886661 171.325956,29.8554508 C171.373772,29.7224034 171.365887,29.5755981 171.303977,29.4482551 L166.924148,20.414449 Z" id="Fill-23" fill="#283266"></path>
                <g id="Group-27" transform="translate(145.966335, 11.576808)">
                    <mask id="mask-28" fill="white">
                        <use xlink:href="#path-27"></use>
                    </mask>
                    <g id="Clip-26"></g>
                    <path d="M0.609887614,0.0201500653 C0.319129386,0.0201500653 0.0834021439,0.25570953 0.0834021439,0.546635536 L0.0834021439,2.51365773 C0.0834021439,2.80441596 0.319129386,3.0401432 0.609887614,3.0401432 L26.1932562,3.0401432 C26.4840144,3.0401432 26.7197416,2.80441596 26.7197416,2.51365773 L26.7197416,0.546635536 C26.7197416,0.25570953 26.4840144,0.0201500653 26.1932562,0.0201500653 L0.609887614,0.0201500653 Z" id="Fill-25" fill="#283266" mask="url(#mask-28)"></path>
                </g>
                <path d="M149.777415,3.35571571 C149.486657,3.35571571 149.25093,3.59144295 149.25093,3.88220118 L149.25093,5.84922338 C149.25093,6.13998161 149.486657,6.37570885 149.777415,6.37570885 L168.958399,6.37570885 C169.249325,6.37570885 169.484884,6.13998161 169.484884,5.84922338 L169.484884,3.88220118 C169.484884,3.59144295 169.249325,3.35571571 168.958399,3.35571571 L149.777415,3.35571571 Z" id="Fill-28" fill="#283266"></path>
                <path d="M122.097752,26.5122681 C121.823268,26.5330725 121.611366,26.7619209 121.611366,27.0372436 L121.611366,29.2428452 C121.611366,29.3894827 121.672269,29.529409 121.779646,29.6290688 C121.887192,29.7287286 122.031312,29.7790618 122.177614,29.7678207 L135.446122,28.7604852 C135.720606,28.7396808 135.932676,28.5110002 135.932676,28.2356775 L135.932676,26.0299081 C135.932676,25.8834384 135.871605,25.7435121 135.76406,25.6438523 C135.656682,25.5441925 135.512562,25.4940271 135.366428,25.5051004 L122.097752,26.5122681 Z" id="Fill-30" fill="#283266"></path>
                <path d="M124.388803,26.6095958 L127.840487,26.5549003 C128.054403,26.551377 128.244663,26.4191684 128.322512,26.2201844 L131.01903,19.3171512 C131.07037,19.1856137 131.066847,19.0389763 131.008963,18.9099555 C130.95108,18.7812702 130.844038,18.6809393 130.711662,18.6319483 L128.43509,17.7888669 C128.166814,17.6895427 127.868171,17.822758 127.762806,18.0886851 L124.388803,26.6095958 Z" id="Fill-32" fill="#283266"></path>
                <path d="M114.595619,3.31328481 C114.369791,3.13577632 114.043296,3.17201624 113.861929,3.39482462 L112.412668,5.17527835 C112.323578,5.28483699 112.282137,5.42543445 112.29774,5.56569636 C112.313344,5.70595826 112.384649,5.83414019 112.49555,5.92138444 L117.88909,10.1629648 C118.114918,10.3404733 118.441413,10.3042334 118.62278,10.081425 L120.072041,8.30097125 C120.161131,8.19141261 120.202572,8.05081515 120.186969,7.91038547 C120.171366,7.77012357 120.100228,7.64210942 119.988992,7.55486517 L114.595619,3.31328481 Z" id="Fill-34" fill="#283266"></path>
                <path d="M113.628114,31.0560323 C113.840856,31.2384064 114.158962,31.222132 114.352074,31.0192891 L119.633035,25.4717295 C119.830006,25.2646922 119.825979,24.9385329 119.623975,24.7365289 L118.012809,23.1251948 C117.912478,23.0250317 117.776075,22.9694974 117.634303,22.9711751 C117.492363,22.9728529 117.35747,23.0317428 117.259656,23.1342548 L111.853701,28.8051308 C111.754041,28.9096561 111.701862,29.0505891 111.709076,29.1948777 C111.716123,29.3391662 111.782563,29.4740593 111.892122,29.5680146 L113.628114,31.0560323 Z" id="Fill-36" fill="#283266"></path>
                <path d="M138.567302,21.1968117 C138.444656,20.9464879 138.147858,20.8352514 137.890823,20.9431323 L135.840416,21.8043337 C135.707368,21.8602036 135.60301,21.9685878 135.551838,22.1034808 C135.500834,22.2387094 135.507545,22.3888701 135.570462,22.5188976 L139.633695,30.9166597 C139.758857,31.1747013 140.067064,31.2854344 140.327622,31.1654735 L142.388432,30.2175312 C142.517453,30.1583058 142.616945,30.0495861 142.664426,29.9158675 C142.712074,29.7821489 142.703518,29.6350081 142.641105,29.5074973 L138.567302,21.1968117 Z" id="Fill-38" fill="#283266"></path>
                <path d="M130.842008,1.84571914 C130.55125,1.84571914 130.315523,2.08144638 130.315523,2.37220461 L130.315523,15.15097 C130.315523,15.4415605 130.55125,15.6772877 130.842008,15.6772877 L133.413029,15.6772877 C133.703955,15.6772877 133.939514,15.4415605 133.939514,15.15097 L133.939514,2.37220461 C133.939514,2.08144638 133.703955,1.84571914 133.413029,1.84571914 L130.842008,1.84571914 Z" id="Fill-40" fill="#283266"></path>
                <path d="M122.32551,13.5029765 C122.03492,13.5029765 121.799025,13.738536 121.799025,14.0292942 L121.799025,15.9964842 C121.799025,16.2872424 122.03492,16.5229697 122.32551,16.5229697 L141.86906,16.5229697 C142.159818,16.5229697 142.395546,16.2872424 142.395546,15.9964842 L142.395546,14.0292942 C142.395546,13.738536 142.159818,13.5029765 141.86906,13.5029765 L122.32551,13.5029765 Z" id="Fill-42" fill="#283266"></path>
                <path d="M123.71474,6.31532576 C123.42415,6.31532576 123.188255,6.55105301 123.188255,6.84181123 L123.188255,8.80883343 C123.188255,9.09959166 123.42415,9.3353189 123.71474,9.3353189 L140.479897,9.3353189 C140.770487,9.3353189 141.006382,9.09959166 141.006382,8.80883343 L141.006382,6.84181123 C141.006382,6.55105301 140.770487,6.31532576 140.479897,6.31532576 L123.71474,6.31532576 Z" id="Fill-44" fill="#283266"></path>
                <path d="M114.596106,12.3170588 C114.370445,12.137537 114.042105,12.172938 113.860067,12.3967531 L112.410805,14.1772068 C112.321883,14.2862621 112.280442,14.4263562 112.29571,14.5661148 C112.31081,14.7060411 112.381277,14.8338875 112.491339,14.9214673 L117.284403,18.7355509 C117.510232,18.9150727 117.838404,18.8795039 118.02061,18.6558566 L119.469872,16.8752351 C119.558626,16.7663476 119.600067,16.6262535 119.584967,16.4864949 C119.570035,16.3465685 119.499568,16.2187222 119.389338,16.1309746 L114.596106,12.3170588 Z" id="Fill-46" fill="#283266"></path>
                <path d="M98.7993104,21.4799361 C98.6367341,21.4104762 98.4501657,21.4274218 98.3025216,21.5249004 C98.1550452,21.6222113 98.066291,21.7871365 98.066291,21.9641417 L98.066291,24.1997755 C98.066291,24.4116783 98.1932985,24.6027768 98.3885914,24.6849877 L107.464845,28.5036012 C107.577592,28.5510822 107.70678,28.5388345 107.808621,28.4712202 C107.91063,28.4036059 107.971868,28.2893495 107.971868,28.166872 L107.971868,25.7426564 C107.971868,25.5317602 107.846035,25.3413329 107.652085,25.2584508 L98.7993104,21.4799361 Z" id="Fill-48" fill="#283266"></path>
                <path d="M92.2507405,25.7572698 C91.9599823,25.7572698 91.7242551,25.9929971 91.7242551,26.2837553 L91.7242551,30.8481394 C91.7242551,31.1388976 91.9599823,31.3744571 92.2507405,31.3744571 L95.0635286,31.3744571 C95.354119,31.3744571 95.5898463,31.1388976 95.5898463,30.8481394 L95.5898463,26.2837553 C95.5898463,25.9929971 95.354119,25.7572698 95.0635286,25.7572698 L92.2507405,25.7572698 Z" id="Fill-50" fill="#283266"></path>
                <path d="M101.086267,13.5126405 C101.086267,13.2218823 100.850708,12.9861551 100.559782,12.9861551 L98.6531596,12.9861551 C98.3624013,12.9861551 98.1266741,13.2218823 98.1266741,13.5126405 L98.1266741,19.5868534 C98.1266741,19.8777794 98.3624013,20.1133389 98.6531596,20.1133389 L100.559782,20.1133389 C100.850708,20.1133389 101.086267,19.8777794 101.086267,19.5868534 L101.086267,13.5126405 Z" id="Fill-52" fill="#283266"></path>
                <path d="M106.945037,18.0426302 C106.945037,17.751872 106.709478,17.5161448 106.418552,17.5161448 L98.6531428,17.5161448 C98.3623845,17.5161448 98.1266573,17.751872 98.1266573,18.0426302 L98.1266573,19.6472533 C98.1266573,19.9380115 98.3623845,20.1737387 98.6531428,20.1737387 L106.418552,20.1737387 C106.709478,20.1737387 106.945037,19.9380115 106.945037,19.6472533 L106.945037,18.0426302 Z" id="Fill-54" fill="#283266"></path>
                <path d="M105.193525,13.270974 C105.193525,12.9803835 104.957798,12.7444885 104.66704,12.7444885 L98.6532267,12.7444885 C98.3623007,12.7444885 98.1267412,12.9803835 98.1267412,13.270974 L98.1267412,14.875597 C98.1267412,15.166523 98.3623007,15.4020825 98.6532267,15.4020825 L104.66704,15.4020825 C104.957798,15.4020825 105.193525,15.166523 105.193525,14.875597 L105.193525,13.270974 Z" id="Fill-56" fill="#283266"></path>
                <path d="M86.6939364,12.9862054 C86.4033459,12.9862054 86.1674509,13.2217649 86.1674509,13.5126909 L86.1674509,19.5869037 C86.1674509,19.877662 86.4033459,20.1132214 86.6939364,20.1132214 L88.6005587,20.1132214 C88.8914847,20.1132214 89.1270442,19.877662 89.1270442,19.5869037 L89.1270442,13.5126909 C89.1270442,13.2217649 88.8914847,12.9862054 88.6005587,12.9862054 L86.6939364,12.9862054 Z" id="Fill-58" fill="#283266"></path>
                <path d="M80.8351665,17.5161951 C80.5444082,17.5161951 80.308681,17.7517546 80.308681,18.0426806 L80.308681,19.6473036 C80.308681,19.9380618 80.5444082,20.1737891 80.8351665,20.1737891 L88.6005755,20.1737891 C88.8915015,20.1737891 89.127061,19.9380618 89.127061,19.6473036 L89.127061,18.0426806 C89.127061,17.7517546 88.8915015,17.5161951 88.6005755,17.5161951 L80.8351665,17.5161951 Z" id="Fill-60" fill="#283266"></path>
                <path d="M82.5866786,12.7445388 C82.2960882,12.7445388 82.0603609,12.9802661 82.0603609,13.2710243 L82.0603609,14.8756473 C82.0603609,15.1665733 82.2960882,15.4021328 82.5866786,15.4021328 L89.1090249,15.4021328 C89.1190915,15.4021328 89.1269771,15.3940795 89.1269771,15.3840128 L89.1269771,13.2710243 C89.1269771,12.9802661 88.8914176,12.7445388 88.6006594,12.7445388 L82.5866786,12.7445388 Z" id="Fill-62" fill="#283266"></path>
                <path d="M92.2507405,3.32883777 C91.9599823,3.32883777 91.7242551,3.56456501 91.7242551,3.85532324 L91.7242551,20.6137685 C91.7242551,20.8369124 91.5838254,21.0355609 91.3736003,21.1098863 L79.6325381,25.2705979 C79.422313,25.3452589 79.2818833,25.5439073 79.2818833,25.7668835 L79.2818833,28.2305268 C79.2818833,28.3429376 79.3360754,28.4483018 79.4273463,28.5135672 C79.518785,28.5790004 79.6360614,28.5962815 79.7422645,28.5600416 L94.3377236,23.586784 C95.0863463,23.3317623 95.5898463,22.6282717 95.5898463,21.8372013 L95.5898463,3.85532324 C95.5898463,3.56456501 95.354119,3.32883777 95.0635286,3.32883777 L92.2507405,3.32883777 Z" id="Fill-64" fill="#283266"></path>
                <path d="M83.1907779,2.18127393 C82.9000197,2.18127393 82.6642924,2.41700118 82.6642924,2.7077594 L82.6642924,4.6747816 C82.6642924,4.96553983 82.9000197,5.20126707 83.1907779,5.20126707 L104.062957,5.20126707 C104.353883,5.20126707 104.589443,4.96553983 104.589443,4.6747816 L104.589443,2.7077594 C104.589443,2.41700118 104.353883,2.18127393 104.062957,2.18127393 L83.1907779,2.18127393 Z" id="Fill-66" fill="#283266"></path>
                <path d="M78.4795718,7.91929445 C78.1888136,7.91929445 77.9530864,8.1550217 77.9530864,8.44561215 L77.9530864,10.4128021 C77.9530864,10.7035604 78.1888136,10.9392876 78.4795718,10.9392876 L108.77413,10.9392876 C109.065056,10.9392876 109.300615,10.7035604 109.300615,10.4128021 L109.300615,8.44561215 C109.300615,8.1550217 109.065056,7.91929445 108.77413,7.91929445 L78.4795718,7.91929445 Z" id="Fill-68" fill="#283266"></path>
            </g>
        </g>
    </g>
</svg>