<?xml version="1.0" encoding="utf-8"?>
<!-- Generator: Adobe Illustrator 21.1.0, SVG Export Plug-In . SVG Version: 6.00 Build 0)  -->
<svg version="1.1" id="图层_1" xmlns="http://www.w3.org/2000/svg" xmlns:xlink="http://www.w3.org/1999/xlink" x="0px" y="0px"
	 viewBox="0 0 880 320" style="enable-background:new 0 0 880 320;" xml:space="preserve">
<style type="text/css">
	.st0{fill:#2B4EEF;}
	.st1{opacity:0.4;fill:#2B4EEF;}
	.st2{fill:#283266;}
</style>
<g>
	<path class="st0" d="M356,125.3c0.5-0.5,1-1,1.5-1.4c0.5-0.4,1.1-0.8,1.8-0.8c0.7,0,1.3,0.4,1.8,0.8c0.5,0.4,1,0.9,1.5,1.4l0.2,0.2
		c0.5,0.5,1,1,1.4,1.5c0.4,0.5,0.8,1.1,0.8,1.8c0,0.7-0.4,1.3-0.8,1.8c-0.4,0.5-0.9,1-1.4,1.5l-21,21c-0.5,0.5-1,1-1.5,1.4
		c-0.5,0.4-1.1,0.8-1.8,0.8c-0.7,0-1.3-0.4-1.8-0.8c-0.5-0.4-1-0.9-1.5-1.4l-0.2-0.2c-0.5-0.5-1-1-1.4-1.5c-0.4-0.5-0.8-1.1-0.8-1.8
		c0-0.7,0.4-1.3,0.8-1.8c0.4-0.5,0.9-1,1.4-1.5L356,125.3z"/>
	<path class="st0" d="M314.4,166.8c0.5-0.5,1-1,1.5-1.4c0.5-0.4,1.1-0.8,1.8-0.8c0.7,0,1.3,0.4,1.8,0.8c0.5,0.4,1,0.9,1.5,1.4
		l0.2,0.2c0.5,0.5,1,1,1.4,1.5c0.4,0.5,0.8,1.1,0.8,1.8c0,0.7-0.4,1.3-0.8,1.8c-0.4,0.5-0.9,1-1.4,1.5l-21,21c-0.5,0.5-1,1-1.5,1.4
		c-0.5,0.4-1.1,0.8-1.8,0.8c-0.7,0-1.3-0.4-1.8-0.8c-0.5-0.4-1-0.9-1.5-1.4l-0.2-0.2c-0.5-0.5-1-1-1.4-1.5c-0.4-0.5-0.8-1.1-0.8-1.8
		c0-0.7,0.4-1.3,0.8-1.8c0.4-0.5,0.9-1,1.4-1.5L314.4,166.8z"/>
	<path class="st0" d="M362.9,187.8c0.5,0.5,1,1,1.4,1.5c0.4,0.5,0.8,1.1,0.8,1.8c0,0.7-0.4,1.3-0.8,1.8c-0.4,0.5-0.9,1-1.4,1.5
		l-0.2,0.2c-0.5,0.5-1,1-1.5,1.4c-0.5,0.4-1.1,0.8-1.8,0.8c-0.7,0-1.3-0.4-1.8-0.8c-0.5-0.4-1-0.9-1.5-1.4l-21-21
		c-0.5-0.5-1-1-1.4-1.5c-0.4-0.5-0.8-1.1-0.8-1.8c0-0.7,0.4-1.3,0.8-1.8c0.4-0.5,0.9-1,1.4-1.5l0.2-0.2c0.5-0.5,1-1,1.5-1.4
		c0.5-0.4,1.1-0.8,1.8-0.8c0.7,0,1.3,0.4,1.8,0.8c0.5,0.4,1,0.9,1.5,1.4L362.9,187.8z"/>
	<path class="st1" d="M272.9,125.3c0.5-0.5,1-1,1.5-1.4c0.5-0.4,1.1-0.8,1.8-0.8c0.7,0,1.3,0.4,1.8,0.8c0.5,0.4,1,0.9,1.5,1.4
		l0.2,0.2c0.5,0.5,1,1,1.4,1.5c0.4,0.5,0.8,1.1,0.8,1.8c0,0.7-0.4,1.3-0.8,1.8c-0.4,0.5-0.9,1-1.4,1.5l-21,21c-0.5,0.5-1,1-1.5,1.4
		c-0.5,0.4-1.1,0.8-1.8,0.8c-0.7,0-1.3-0.4-1.8-0.8c-0.5-0.4-1-0.9-1.5-1.4l-0.2-0.2c-0.5-0.5-1-1-1.4-1.5c-0.4-0.5-0.8-1.1-0.8-1.8
		c0-0.7,0.4-1.3,0.8-1.8c0.4-0.5,0.9-1,1.4-1.5L272.9,125.3z"/>
	<path class="st1" d="M279.8,187.8c0.5,0.5,1,1,1.4,1.5c0.4,0.5,0.8,1.1,0.8,1.8c0,0.7-0.4,1.3-0.8,1.8c-0.4,0.5-0.9,1-1.4,1.5
		l-0.2,0.2c-0.5,0.5-1,1-1.5,1.4c-0.5,0.4-1.1,0.8-1.8,0.8c-0.7,0-1.3-0.4-1.8-0.8c-0.5-0.4-1-0.9-1.5-1.4l-21-21
		c-0.5-0.5-1-1-1.4-1.5c-0.4-0.5-0.8-1.1-0.8-1.8c0-0.7,0.4-1.3,0.8-1.8c0.4-0.5,0.9-1,1.4-1.5l0.2-0.2c0.5-0.5,1-1,1.5-1.4
		c0.5-0.4,1.1-0.8,1.8-0.8c0.7,0,1.3,0.4,1.8,0.8c0.5,0.4,1,0.9,1.5,1.4L279.8,187.8z"/>
	<path class="st0" d="M321.3,146.3c0.5,0.5,1,1,1.4,1.5c0.4,0.5,0.8,1.1,0.8,1.8c0,0.7-0.4,1.3-0.8,1.8c-0.4,0.5-0.9,1-1.4,1.5
		l-0.2,0.2c-0.5,0.5-1,1-1.5,1.4c-0.5,0.4-1.1,0.8-1.8,0.8c-0.7,0-1.3-0.4-1.8-0.8c-0.5-0.4-1-0.9-1.5-1.4l-21-21
		c-0.5-0.5-1-1-1.4-1.5c-0.4-0.5-0.8-1.1-0.8-1.8c0-0.7,0.4-1.3,0.8-1.8c0.4-0.5,0.9-1,1.4-1.5l0.2-0.2c0.5-0.5,1-1,1.5-1.4
		c0.5-0.4,1.1-0.8,1.8-0.8c0.7,0,1.3,0.4,1.8,0.8c0.5,0.4,1,0.9,1.5,1.4L321.3,146.3z"/>
	<path class="st1" d="M397.5,166.8c0.5-0.5,1-1,1.5-1.4c0.5-0.4,1.1-0.8,1.8-0.8c0.7,0,1.3,0.4,1.8,0.8c0.5,0.4,1,0.9,1.5,1.4
		l0.2,0.2c0.5,0.5,1,1,1.4,1.5c0.4,0.5,0.8,1.1,0.8,1.8c0,0.7-0.4,1.3-0.8,1.8c-0.4,0.5-0.9,1-1.4,1.5l-21,21c-0.5,0.5-1,1-1.5,1.4
		c-0.5,0.4-1.1,0.8-1.8,0.8c-0.7,0-1.3-0.4-1.8-0.8c-0.5-0.4-1-0.9-1.5-1.4l-0.2-0.2c-0.5-0.5-1-1-1.4-1.5c-0.4-0.5-0.8-1.1-0.8-1.8
		c0-0.7,0.4-1.3,0.8-1.8c0.4-0.5,0.9-1,1.4-1.5L397.5,166.8z"/>
	<path class="st1" d="M404.4,146.3c0.5,0.5,1,1,1.4,1.5c0.4,0.5,0.8,1.1,0.8,1.8c0,0.7-0.4,1.3-0.8,1.8c-0.4,0.5-0.9,1-1.4,1.5
		l-0.2,0.2c-0.5,0.5-1,1-1.5,1.4c-0.5,0.4-1.1,0.8-1.8,0.8c-0.7,0-1.3-0.4-1.8-0.8c-0.5-0.4-1-0.9-1.5-1.4l-21-21
		c-0.5-0.5-1-1-1.4-1.5c-0.4-0.5-0.8-1.1-0.8-1.8c0-0.7,0.4-1.3,0.8-1.8c0.4-0.5,0.9-1,1.4-1.5l0.2-0.2c0.5-0.5,1-1,1.5-1.4
		c0.5-0.4,1.1-0.8,1.8-0.8c0.7,0,1.3,0.4,1.8,0.8c0.5,0.4,1,0.9,1.5,1.4L404.4,146.3z"/>
	<g>
		<g>
			<path class="st2" d="M576.6,181.1c-0.6,0-1.1,0.6-1.1,1.2v4.9c0,0.3,0.1,0.6,0.4,0.9c0.2,0.2,0.6,0.3,0.9,0.3l34.7-2.6
				c0.6,0,1.1-0.6,1.1-1.2v-4.9c0-0.3-0.1-0.6-0.4-0.9c-0.2-0.2-0.6-0.3-0.9-0.3L576.6,181.1z"/>
			<path class="st2" d="M582,181.3l7.6-0.1c0.5,0,0.9-0.3,1.1-0.7l7.5-18.3c0.1-0.3,0.1-0.6,0-0.9c-0.1-0.3-0.4-0.5-0.7-0.6l-5-1.9
				c-0.6-0.2-1.2,0.1-1.5,0.6L582,181.3z"/>
			<path class="st2" d="M617.7,167.6c-0.3-0.6-0.9-0.8-1.5-0.6l-4.5,1.9c-0.3,0.1-0.5,0.4-0.6,0.7c-0.1,0.3-0.1,0.6,0,0.9l9.6,20.1
				c0.3,0.6,1,0.8,1.5,0.6l4.5-2.1c0.3-0.1,0.5-0.4,0.6-0.7c0.1-0.3,0.1-0.6,0-0.9L617.7,167.6z"/>
			<path class="st2" d="M572.8,148.2c-0.6,0-1.2,0.5-1.2,1.2v4.3c0,0.6,0.5,1.2,1.2,1.2h56.4c0.6,0,1.2-0.5,1.2-1.2v-4.3
				c0-0.6-0.5-1.2-1.2-1.2H572.8z"/>
			<path class="st2" d="M579.9,130c-0.6,0-1.2,0.5-1.2,1.2v4.3c0,0.6,0.5,1.2,1.2,1.2h42.3c0.6,0,1.2-0.5,1.2-1.2v-4.3
				c0-0.6-0.5-1.2-1.2-1.2H579.9z"/>
		</g>
		<g>
			<path class="st2" d="M518.8,181.1c-0.6,0-1.1,0.6-1.1,1.2v4.9c0,0.3,0.1,0.6,0.4,0.9c0.2,0.2,0.6,0.3,0.9,0.3l29.3-2.2
				c0.6,0,1.1-0.6,1.1-1.2V180c0-0.3-0.1-0.6-0.4-0.9c-0.2-0.2-0.6-0.3-0.9-0.3L518.8,181.1z"/>
			<path class="st2" d="M523.9,181.3l7.6-0.1c0.5,0,0.9-0.3,1.1-0.7l5.9-15.2c0.1-0.3,0.1-0.6,0-0.9s-0.4-0.5-0.7-0.6l-5-1.9
				c-0.6-0.2-1.3,0.1-1.5,0.7L523.9,181.3z"/>
			<path class="st2" d="M502.3,129.9c-0.5-0.4-1.2-0.3-1.6,0.2l-3.2,3.9c-0.2,0.2-0.3,0.6-0.3,0.9c0,0.3,0.2,0.6,0.4,0.8l11.9,9.4
				c0.5,0.4,1.2,0.3,1.6-0.2l3.2-3.9c0.2-0.2,0.3-0.6,0.3-0.9c0-0.3-0.2-0.6-0.4-0.8L502.3,129.9z"/>
			<path class="st2" d="M500.2,191.1c0.5,0.4,1.2,0.4,1.6-0.1l11.6-12.2c0.4-0.5,0.4-1.2,0-1.6l-3.6-3.6c-0.2-0.2-0.5-0.3-0.8-0.3
				s-0.6,0.1-0.8,0.4l-11.9,12.5c-0.2,0.2-0.3,0.5-0.3,0.9c0,0.3,0.2,0.6,0.4,0.8L500.2,191.1z"/>
			<path class="st2" d="M555.2,169.4c-0.3-0.6-0.9-0.8-1.5-0.6l-4.5,1.9c-0.3,0.1-0.5,0.4-0.6,0.7c-0.1,0.3-0.1,0.6,0,0.9l9,18.5
				c0.3,0.6,1,0.8,1.5,0.5l4.5-2.1c0.3-0.1,0.5-0.4,0.6-0.7c0.1-0.3,0.1-0.6-0.1-0.9L555.2,169.4z"/>
			<path class="st2" d="M538.1,126.7c-0.6,0-1.2,0.5-1.2,1.2V156c0,0.6,0.5,1.2,1.2,1.2h5.7c0.6,0,1.2-0.5,1.2-1.2v-28.2
				c0-0.6-0.5-1.2-1.2-1.2H538.1z"/>
			<path class="st2" d="M519.4,152.4c-0.6,0-1.2,0.5-1.2,1.2v4.3c0,0.6,0.5,1.2,1.2,1.2h43.1c0.6,0,1.2-0.5,1.2-1.2v-4.3
				c0-0.6-0.5-1.2-1.2-1.2H519.4z"/>
			<path class="st2" d="M522.4,136.6c-0.6,0-1.2,0.5-1.2,1.2v4.3c0,0.6,0.5,1.2,1.2,1.2h37c0.6,0,1.2-0.5,1.2-1.2v-4.3
				c0-0.6-0.5-1.2-1.2-1.2H522.4z"/>
			<path class="st2" d="M502.3,149.8c-0.5-0.4-1.2-0.3-1.6,0.2l-3.2,3.9c-0.2,0.2-0.3,0.5-0.3,0.9s0.2,0.6,0.4,0.8l10.6,8.4
				c0.5,0.4,1.2,0.3,1.6-0.2l3.2-3.9c0.2-0.2,0.3-0.5,0.3-0.9s-0.2-0.6-0.4-0.8L502.3,149.8z"/>
		</g>
		<g>
			<path class="st2" d="M467.5,170c-0.4-0.2-0.8-0.1-1.1,0.1c-0.3,0.2-0.5,0.6-0.5,1v4.9c0,0.5,0.3,0.9,0.7,1.1l20,8.4
				c0.2,0.1,0.5,0.1,0.8-0.1c0.2-0.1,0.4-0.4,0.4-0.7v-5.3c0-0.5-0.3-0.9-0.7-1.1L467.5,170z"/>
			<path class="st2" d="M453,179.4c-0.6,0-1.2,0.5-1.2,1.2v10.1c0,0.6,0.5,1.2,1.2,1.2h6.2c0.6,0,1.2-0.5,1.2-1.2v-10.1
				c0-0.6-0.5-1.2-1.2-1.2H453z"/>
			<path class="st2" d="M472.5,152.4c0-0.6-0.5-1.2-1.2-1.2h-4.2c-0.6,0-1.2,0.5-1.2,1.2v13.4c0,0.6,0.5,1.2,1.2,1.2h4.2
				c0.6,0,1.2-0.5,1.2-1.2V152.4z"/>
			<path class="st2" d="M485.4,162.4c0-0.6-0.5-1.2-1.2-1.2h-17.1c-0.6,0-1.2,0.5-1.2,1.2v3.5c0,0.6,0.5,1.2,1.2,1.2h17.1
				c0.6,0,1.2-0.5,1.2-1.2V162.4z"/>
			<path class="st2" d="M481.6,151.9c0-0.6-0.5-1.2-1.2-1.2h-13.3c-0.6,0-1.2,0.5-1.2,1.2v3.5c0,0.6,0.5,1.2,1.2,1.2h13.3
				c0.6,0,1.2-0.5,1.2-1.2V151.9z"/>
			<path class="st2" d="M440.8,151.3c-0.6,0-1.2,0.5-1.2,1.2v13.4c0,0.6,0.5,1.2,1.2,1.2h4.2c0.6,0,1.2-0.5,1.2-1.2v-13.4
				c0-0.6-0.5-1.2-1.2-1.2H440.8z"/>
			<path class="st2" d="M427.9,161.3c-0.6,0-1.2,0.5-1.2,1.2v3.5c0,0.6,0.5,1.2,1.2,1.2H445c0.6,0,1.2-0.5,1.2-1.2v-3.5
				c0-0.6-0.5-1.2-1.2-1.2H427.9z"/>
			<path class="st2" d="M431.7,150.7c-0.6,0-1.2,0.5-1.2,1.2v3.5c0,0.6,0.5,1.2,1.2,1.2h14.4c0,0,0,0,0,0v-4.7
				c0-0.6-0.5-1.2-1.2-1.2H431.7z"/>
			<path class="st2" d="M453,130c-0.6,0-1.2,0.5-1.2,1.2v37c0,0.5-0.3,0.9-0.8,1.1l-25.9,9.2c-0.5,0.2-0.8,0.6-0.8,1.1v5.4
				c0,0.2,0.1,0.5,0.3,0.6c0.2,0.1,0.5,0.2,0.7,0.1l32.2-11c1.7-0.6,2.8-2.1,2.8-3.9v-39.7c0-0.6-0.5-1.2-1.2-1.2H453z"/>
			<path class="st2" d="M433,127.4c-0.6,0-1.2,0.5-1.2,1.2v4.3c0,0.6,0.5,1.2,1.2,1.2h46c0.6,0,1.2-0.5,1.2-1.2v-4.3
				c0-0.6-0.5-1.2-1.2-1.2H433z"/>
			<path class="st2" d="M422.7,140.1c-0.6,0-1.2,0.5-1.2,1.2v4.3c0,0.6,0.5,1.2,1.2,1.2h66.8c0.6,0,1.2-0.5,1.2-1.2v-4.3
				c0-0.6-0.5-1.2-1.2-1.2H422.7z"/>
		</g>
	</g>
</g>
</svg>
